<svg width="1068" height="124" viewBox="0 0 1068 124" fill="none" xmlns="http://www.w3.org/2000/svg">
<rect x="638.1" y="46" width="91" height="37" rx="2" fill="#A924C4"/>
<g filter="url(#filter0_d_207_3518)">
<circle cx="49.4334" cy="54.9998" r="40.3333" stroke="#AA1EC9" stroke-width="6" shape-rendering="crispEdges"/>
</g>
<rect x="21.1001" y="5" width="100" height="100" rx="50" fill="#A653EB" fill-opacity="0.25"/>
<path d="M117.573 59.5C117.573 73.031 108.171 84 96.5728 84C84.9748 84 75.5728 73.031 75.5728 59.5C75.5728 45.969 84.9748 35 96.5728 35C108.171 35 117.573 45.969 117.573 59.5Z" fill="#A925C4"/>
<path d="M166.098 46C163.654 46 161.86 45.436 160.717 44.308C159.589 43.1643 159.025 41.3705 159.025 38.9265C159.025 36.4825 159.596 34.6887 160.74 33.545C161.884 32.4013 163.67 31.8295 166.098 31.8295H176.791C176.759 29.7615 176.289 28.3202 175.381 27.5055C174.488 26.6752 172.96 26.26 170.798 26.26H168.072C166.082 26.26 164.625 26.4715 163.701 26.8945C162.777 27.3175 162.205 28.0382 161.986 29.0565C161.876 29.4482 161.727 29.738 161.539 29.926C161.367 30.0983 161.085 30.1845 160.693 30.1845C160.286 30.1845 159.965 30.0748 159.73 29.8555C159.51 29.6205 159.432 29.3072 159.495 28.9155C159.698 27.1295 160.505 25.8292 161.915 25.0145C163.341 24.1998 165.393 23.7925 168.072 23.7925H170.798C173.728 23.7925 175.866 24.474 177.214 25.837C178.577 27.1843 179.258 29.3228 179.258 32.2525V44.7545C179.258 45.5848 178.851 46 178.036 46C177.206 46 176.791 45.5848 176.791 44.7545V42.428C175.287 44.8093 172.6 46 168.73 46H166.098ZM166.098 43.5325H168.73C170.25 43.5325 171.581 43.368 172.725 43.039C173.884 42.6943 174.817 42.146 175.522 41.394C176.227 40.642 176.65 39.6393 176.791 38.386V34.297H166.098C164.359 34.297 163.153 34.6338 162.479 35.3075C161.821 35.9655 161.492 37.1718 161.492 38.9265C161.492 40.6655 161.821 41.8718 162.479 42.5455C163.153 43.2035 164.359 43.5325 166.098 43.5325ZM212.517 23.7455C215.039 23.7455 216.841 24.3878 217.922 25.6725C219.019 26.9572 219.567 29.08 219.567 32.041V44.8015C219.567 45.6162 219.16 46.0235 218.345 46.0235C217.515 46.0235 217.099 45.6162 217.099 44.8015V32.041C217.099 29.973 216.747 28.4847 216.042 27.576C215.337 26.6673 214.162 26.213 212.517 26.213H210.566C208.514 26.213 207.041 26.6673 206.148 27.576C205.271 28.4847 204.832 29.973 204.832 32.041V44.8015C204.832 45.6162 204.425 46.0235 203.61 46.0235C202.78 46.0235 202.365 45.6162 202.365 44.8015V32.041C202.365 29.973 202.012 28.4847 201.307 27.576C200.602 26.6673 199.427 26.213 197.782 26.213H195.832C193.78 26.213 192.307 26.6673 191.414 27.576C190.537 28.4847 190.098 29.973 190.098 32.041V44.8015C190.098 45.6162 189.691 46.0235 188.876 46.0235C188.046 46.0235 187.63 45.6162 187.63 44.8015V25.0145C187.63 24.1998 188.046 23.7925 188.876 23.7925C189.691 23.7925 190.098 24.1998 190.098 25.0145V26.8475C190.787 25.7352 191.602 24.944 192.542 24.474C193.498 23.9883 194.704 23.7455 196.161 23.7455H197.782C199.427 23.7455 200.743 24.0353 201.73 24.615C202.733 25.179 203.524 26.1112 204.104 27.4115C204.793 26.1112 205.639 25.179 206.642 24.615C207.645 24.0353 208.953 23.7455 210.566 23.7455H212.517ZM233.615 46C231.171 46 229.377 45.436 228.233 44.308C227.105 43.1643 226.541 41.3705 226.541 38.9265C226.541 36.4825 227.113 34.6887 228.257 33.545C229.4 32.4013 231.186 31.8295 233.615 31.8295H244.307C244.276 29.7615 243.806 28.3202 242.897 27.5055C242.004 26.6752 240.477 26.26 238.315 26.26H235.589C233.599 26.26 232.142 26.4715 231.218 26.8945C230.293 27.3175 229.722 28.0382 229.502 29.0565C229.393 29.4482 229.244 29.738 229.056 29.926C228.883 30.0983 228.601 30.1845 228.21 30.1845C227.802 30.1845 227.481 30.0748 227.246 29.8555C227.027 29.6205 226.949 29.3072 227.011 28.9155C227.215 27.1295 228.022 25.8292 229.432 25.0145C230.857 24.1998 232.91 23.7925 235.589 23.7925H238.315C241.244 23.7925 243.383 24.474 244.73 25.837C246.093 27.1843 246.775 29.3228 246.775 32.2525V44.7545C246.775 45.5848 246.367 46 245.553 46C244.722 46 244.307 45.5848 244.307 44.7545V42.428C242.803 44.8093 240.116 46 236.247 46H233.615ZM233.615 43.5325H236.247C237.766 43.5325 239.098 43.368 240.242 43.039C241.401 42.6943 242.333 42.146 243.038 41.394C243.743 40.642 244.166 39.6393 244.307 38.386V34.297H233.615C231.876 34.297 230.669 34.6338 229.996 35.3075C229.338 35.9655 229.009 37.1718 229.009 38.9265C229.009 40.6655 229.338 41.8718 229.996 42.5455C230.669 43.2035 231.876 43.5325 233.615 43.5325ZM264.218 46C261.335 46 259.228 45.3342 257.896 44.0025C256.565 42.6708 255.899 40.5715 255.899 37.7045V26.26H253.102C252.272 26.26 251.857 25.8448 251.857 25.0145C251.857 24.1998 252.272 23.7925 253.102 23.7925H255.899V18.74C255.899 17.9097 256.306 17.4945 257.121 17.4945C257.951 17.4945 258.366 17.9097 258.366 18.74V23.7925H264.265C265.08 23.7925 265.487 24.1998 265.487 25.0145C265.487 25.8448 265.08 26.26 264.265 26.26H258.366V37.7045C258.366 39.8978 258.789 41.4175 259.635 42.2635C260.497 43.1095 262.025 43.5325 264.218 43.5325C264.672 43.5325 264.993 43.6343 265.181 43.838C265.385 44.0417 265.487 44.3472 265.487 44.7545C265.487 45.5848 265.064 46 264.218 46ZM271.943 35.848V37.5635C271.943 39.7725 272.381 41.3235 273.259 42.2165C274.152 43.0938 275.718 43.5325 277.959 43.5325H281.813C283.787 43.5325 285.22 43.2818 286.113 42.7805C287.022 42.2635 287.562 41.3783 287.735 40.125C287.797 39.7333 287.923 39.4357 288.111 39.232C288.314 39.0283 288.62 38.9265 289.027 38.9265C289.435 38.9265 289.74 39.044 289.944 39.279C290.163 39.4983 290.249 39.8117 290.202 40.219C289.999 42.193 289.207 43.65 287.829 44.59C286.45 45.53 284.445 46 281.813 46H277.959C275.029 46 272.883 45.3263 271.52 43.979C270.157 42.616 269.475 40.4775 269.475 37.5635V32.2525C269.475 29.2915 270.157 27.1373 271.52 25.79C272.883 24.427 275.029 23.7612 277.959 23.7925H281.813C284.742 23.7925 286.881 24.474 288.228 25.837C289.591 27.1843 290.273 29.3228 290.273 32.2525V34.6025C290.273 35.4328 289.866 35.848 289.051 35.848H271.943ZM277.959 26.26C275.718 26.2287 274.152 26.6595 273.259 27.5525C272.381 28.4298 271.943 29.9965 271.943 32.2525V33.3805H287.805V32.2525C287.805 30.0122 287.367 28.4533 286.489 27.576C285.612 26.6987 284.053 26.26 281.813 26.26H277.959ZM317.088 23.7925C317.919 23.7925 318.334 24.1998 318.334 25.0145V44.7545C318.334 45.5848 317.919 46 317.088 46C316.274 46 315.866 45.5848 315.866 44.7545V42.522C314.378 44.8407 311.683 46 307.782 46H306.466C303.537 46 301.39 45.3185 300.027 43.9555C298.68 42.5925 298.006 40.4462 298.006 37.5165V25.0145C298.006 24.1998 298.414 23.7925 299.228 23.7925C300.059 23.7925 300.474 24.1998 300.474 25.0145V37.5165C300.474 39.7568 300.912 41.3235 301.79 42.2165C302.683 43.0938 304.242 43.5325 306.466 43.5325H307.782C310.211 43.5325 312.122 43.1408 313.516 42.3575C314.911 41.5742 315.694 40.3757 315.866 38.762V25.0145C315.866 24.1998 316.274 23.7925 317.088 23.7925ZM328.361 46C327.531 46 327.116 45.5848 327.116 44.7545V25.0145C327.116 24.1998 327.531 23.7925 328.361 23.7925C329.176 23.7925 329.583 24.1998 329.583 25.0145V28.6335C330.398 27.0668 331.573 25.8683 333.108 25.038C334.659 24.2077 336.492 23.7925 338.607 23.7925C339.438 23.7925 339.853 24.1998 339.853 25.0145C339.853 25.8448 339.438 26.26 338.607 26.26C335.819 26.26 333.657 26.8945 332.121 28.1635C330.586 29.4168 329.74 31.2107 329.583 33.545V44.7545C329.583 45.5848 329.176 46 328.361 46ZM178.647 94.339H179.869V102H157.356V100.778L159.941 100.496C160.442 100.433 160.74 100.308 160.834 100.12C160.928 99.932 160.975 99.2897 160.975 98.193V73.847C160.975 72.7503 160.928 72.108 160.834 71.92C160.74 71.732 160.442 71.6067 159.941 71.544L157.356 71.309V70.04H179.258V77.701H178.083L176.72 72.766C176.626 72.39 176.516 72.1237 176.391 71.967C176.297 71.779 176.093 71.6693 175.78 71.638C175.467 71.5753 174.934 71.544 174.182 71.544H165.064V85.127H171.362C172.114 85.127 172.647 85.1113 172.96 85.08C173.273 85.0173 173.477 84.9077 173.571 84.751C173.696 84.563 173.806 84.281 173.9 83.905L174.793 80.38H176.015V91.378H174.793L173.9 87.853C173.806 87.477 173.696 87.2107 173.571 87.054C173.477 86.866 173.273 86.7563 172.96 86.725C172.647 86.6623 172.114 86.631 171.362 86.631H165.064V100.496H174.746C175.498 100.496 176.031 100.48 176.344 100.449C176.657 100.386 176.861 100.277 176.955 100.12C177.08 99.932 177.19 99.65 177.284 99.274L178.647 94.339ZM204.031 71.309V70.04H213.008V71.309L210.423 71.544C209.921 71.6067 209.624 71.7477 209.53 71.967C209.436 72.155 209.389 72.7817 209.389 73.847V102H207.086L189.978 73.142V98.193C189.978 99.2583 190.025 99.9007 190.119 100.12C190.213 100.308 190.51 100.433 191.012 100.496L193.597 100.778V102H184.62V100.778L187.205 100.496C187.706 100.433 188.004 100.308 188.098 100.12C188.192 99.9007 188.239 99.2583 188.239 98.193V73.847C188.239 72.7817 188.192 72.155 188.098 71.967C188.004 71.7477 187.706 71.6067 187.205 71.544L184.62 71.309V70.04H192.751L207.65 95.232V73.847C207.65 72.7817 207.603 72.155 207.509 71.967C207.415 71.7477 207.117 71.6067 206.616 71.544L204.031 71.309ZM215.471 70.04H240.475V77.701H239.253L237.89 72.766C237.796 72.39 237.686 72.1237 237.561 71.967C237.467 71.779 237.263 71.6693 236.95 71.638C236.637 71.5753 236.104 71.544 235.352 71.544H230.041V98.193C230.041 99.2897 230.088 99.932 230.182 100.12C230.276 100.308 230.574 100.433 231.075 100.496L233.66 100.778V102H222.333V100.778L224.918 100.496C225.419 100.433 225.717 100.308 225.811 100.12C225.905 99.932 225.952 99.2897 225.952 98.193V71.544H220.594C219.873 71.544 219.341 71.5753 218.996 71.638C218.683 71.6693 218.463 71.779 218.338 71.967C218.244 72.1237 218.15 72.39 218.056 72.766L216.693 77.701H215.471V70.04ZM243.37 71.309V70.04H256.436C259.506 70.04 261.856 70.7763 263.486 72.249C265.146 73.6903 265.977 75.6173 265.977 78.03V79.487C265.977 81.3983 265.444 83.0277 264.379 84.375C263.345 85.691 261.856 86.5997 259.914 87.101L265.93 98.193C266.337 98.945 266.635 99.4777 266.823 99.791C267.011 100.073 267.183 100.261 267.34 100.355C267.528 100.418 267.778 100.465 268.092 100.496L270.207 100.778V102H263.11L255.684 87.524H251.078V98.193C251.078 99.2897 251.125 99.932 251.219 100.12C251.313 100.308 251.61 100.433 252.112 100.496L254.697 100.778V102H243.37V100.778L245.955 100.496C246.456 100.433 246.754 100.308 246.848 100.12C246.942 99.932 246.989 99.2897 246.989 98.193V73.847C246.989 72.7503 246.942 72.108 246.848 71.92C246.754 71.732 246.456 71.6067 245.955 71.544L243.37 71.309ZM256.436 71.544H251.078V86.02H256.436C258.065 86.02 259.334 85.503 260.243 84.469C261.183 83.4037 261.653 81.8057 261.653 79.675V77.842C261.653 75.7113 261.183 74.129 260.243 73.095C259.334 72.061 258.065 71.544 256.436 71.544ZM294.036 94.339H295.258V102H272.745V100.778L275.33 100.496C275.831 100.433 276.129 100.308 276.223 100.12C276.317 99.932 276.364 99.2897 276.364 98.193V73.847C276.364 72.7503 276.317 72.108 276.223 71.92C276.129 71.732 275.831 71.6067 275.33 71.544L272.745 71.309V70.04H294.647V77.701H293.472L292.109 72.766C292.015 72.39 291.905 72.1237 291.78 71.967C291.686 71.779 291.482 71.6693 291.169 71.638C290.855 71.5753 290.323 71.544 289.571 71.544H280.453V85.127H286.751C287.503 85.127 288.035 85.1113 288.349 85.08C288.662 85.0173 288.866 84.9077 288.96 84.751C289.085 84.563 289.195 84.281 289.289 83.905L290.182 80.38H291.404V91.378H290.182L289.289 87.853C289.195 87.477 289.085 87.2107 288.96 87.054C288.866 86.866 288.662 86.7563 288.349 86.725C288.035 86.6623 287.503 86.631 286.751 86.631H280.453V100.496H290.135C290.887 100.496 291.419 100.48 291.733 100.449C292.046 100.386 292.25 100.277 292.344 100.12C292.469 99.932 292.579 99.65 292.673 99.274L294.036 94.339ZM300.008 71.309V70.04H313.356C316.458 70.04 318.824 70.8233 320.453 72.39C322.083 73.9253 322.897 75.9777 322.897 78.547V79.91C322.897 82.4793 322.083 84.5473 320.453 86.114C318.824 87.6807 316.458 88.464 313.356 88.464H307.716V98.193C307.716 99.2897 307.763 99.9477 307.857 100.167C307.951 100.355 308.249 100.465 308.75 100.496L312.275 100.778V102H300.008V100.778L302.593 100.496C303.095 100.433 303.392 100.308 303.486 100.12C303.58 99.932 303.627 99.2897 303.627 98.193V73.847C303.627 72.7503 303.58 72.108 303.486 71.92C303.392 71.732 303.095 71.6067 302.593 71.544L300.008 71.309ZM313.356 71.544H307.716V86.96H313.356C316.834 86.96 318.573 84.8293 318.573 80.568V77.889C318.573 73.659 316.834 71.544 313.356 71.544ZM326.997 71.309V70.04H340.063C343.133 70.04 345.483 70.7763 347.113 72.249C348.773 73.6903 349.604 75.6173 349.604 78.03V79.487C349.604 81.3983 349.071 83.0277 348.006 84.375C346.972 85.691 345.483 86.5997 343.541 87.101L349.557 98.193C349.964 98.945 350.262 99.4777 350.45 99.791C350.638 100.073 350.81 100.261 350.967 100.355C351.155 100.418 351.405 100.465 351.719 100.496L353.834 100.778V102H346.737L339.311 87.524H334.705V98.193C334.705 99.2897 334.752 99.932 334.846 100.12C334.94 100.308 335.237 100.433 335.739 100.496L338.324 100.778V102H326.997V100.778L329.582 100.496C330.083 100.433 330.381 100.308 330.475 100.12C330.569 99.932 330.616 99.2897 330.616 98.193V73.847C330.616 72.7503 330.569 72.108 330.475 71.92C330.381 71.732 330.083 71.6067 329.582 71.544L326.997 71.309ZM340.063 71.544H334.705V86.02H340.063C341.692 86.02 342.961 85.503 343.87 84.469C344.81 83.4037 345.28 81.8057 345.28 79.675V77.842C345.28 75.7113 344.81 74.129 343.87 73.095C342.961 72.061 341.692 71.544 340.063 71.544ZM377.663 94.339H378.885V102H356.372V100.778L358.957 100.496C359.458 100.433 359.756 100.308 359.85 100.12C359.944 99.932 359.991 99.2897 359.991 98.193V73.847C359.991 72.7503 359.944 72.108 359.85 71.92C359.756 71.732 359.458 71.6067 358.957 71.544L356.372 71.309V70.04H378.274V77.701H377.099L375.736 72.766C375.642 72.39 375.532 72.1237 375.407 71.967C375.313 71.779 375.109 71.6693 374.796 71.638C374.482 71.5753 373.95 71.544 373.198 71.544H364.08V85.127H370.378C371.13 85.127 371.662 85.1113 371.976 85.08C372.289 85.0173 372.493 84.9077 372.587 84.751C372.712 84.563 372.822 84.281 372.916 83.905L373.809 80.38H375.031V91.378H373.809L372.916 87.853C372.822 87.477 372.712 87.2107 372.587 87.054C372.493 86.866 372.289 86.7563 371.976 86.725C371.662 86.6623 371.13 86.631 370.378 86.631H364.08V100.496H373.762C374.514 100.496 375.046 100.48 375.36 100.449C375.673 100.386 375.877 100.277 375.971 100.12C376.096 99.932 376.206 99.65 376.3 99.274L377.663 94.339ZM403.046 71.309V70.04H412.023V71.309L409.438 71.544C408.937 71.6067 408.639 71.7477 408.545 71.967C408.451 72.155 408.404 72.7817 408.404 73.847V102H406.101L388.993 73.142V98.193C388.993 99.2583 389.04 99.9007 389.134 100.12C389.228 100.308 389.526 100.433 390.027 100.496L392.612 100.778V102H383.635V100.778L386.22 100.496C386.722 100.433 387.019 100.308 387.113 100.12C387.207 99.9007 387.254 99.2583 387.254 98.193V73.847C387.254 72.7817 387.207 72.155 387.113 71.967C387.019 71.7477 386.722 71.6067 386.22 71.544L383.635 71.309V70.04H391.766L406.665 95.232V73.847C406.665 72.7817 406.618 72.155 406.524 71.967C406.43 71.7477 406.133 71.6067 405.631 71.544L403.046 71.309ZM437.422 94.339H438.644V102H416.131V100.778L418.716 100.496C419.218 100.433 419.515 100.308 419.609 100.12C419.703 99.932 419.75 99.2897 419.75 98.193V73.847C419.75 72.7503 419.703 72.108 419.609 71.92C419.515 71.732 419.218 71.6067 418.716 71.544L416.131 71.309V70.04H438.033V77.701H436.858L435.495 72.766C435.401 72.39 435.292 72.1237 435.166 71.967C435.072 71.779 434.869 71.6693 434.555 71.638C434.242 71.5753 433.709 71.544 432.957 71.544H423.839V85.127H430.137C430.889 85.127 431.422 85.1113 431.735 85.08C432.049 85.0173 432.252 84.9077 432.346 84.751C432.472 84.563 432.581 84.281 432.675 83.905L433.568 80.38H434.79V91.378H433.568L432.675 87.853C432.581 87.477 432.472 87.2107 432.346 87.054C432.252 86.866 432.049 86.7563 431.735 86.725C431.422 86.6623 430.889 86.631 430.137 86.631H423.839V100.496H433.521C434.273 100.496 434.806 100.48 435.119 100.449C435.433 100.386 435.636 100.277 435.73 100.12C435.856 99.932 435.965 99.65 436.059 99.274L437.422 94.339ZM462.383 71.309V70.04H471.36V71.309L468.775 71.544C468.274 71.6067 467.976 71.732 467.882 71.92C467.788 72.108 467.741 72.7503 467.741 73.847V91.143C467.741 94.715 466.911 97.5037 465.25 99.509C463.621 101.483 461.114 102.47 457.73 102.47C454.033 102.47 451.197 101.389 449.223 99.227C447.28 97.065 446.309 94.0883 446.309 90.297V73.847C446.309 72.7503 446.262 72.108 446.168 71.92C446.074 71.732 445.776 71.6067 445.275 71.544L442.69 71.309V70.04H454.017V71.309L451.432 71.544C450.931 71.6067 450.633 71.732 450.539 71.92C450.445 72.108 450.398 72.7503 450.398 73.847V91.002C450.398 94.3547 451.025 96.8457 452.278 98.475C453.563 100.104 455.505 100.919 458.106 100.919C460.738 100.919 462.712 100.089 464.028 98.428C465.344 96.7673 466.002 94.3547 466.002 91.19V73.847C466.002 72.7503 465.955 72.108 465.861 71.92C465.767 71.732 465.469 71.6067 464.968 71.544L462.383 71.309ZM475.203 71.309V70.04H488.269C491.339 70.04 493.689 70.7763 495.319 72.249C496.979 73.6903 497.81 75.6173 497.81 78.03V79.487C497.81 81.3983 497.277 83.0277 496.212 84.375C495.178 85.691 493.689 86.5997 491.747 87.101L497.763 98.193C498.17 98.945 498.468 99.4777 498.656 99.791C498.844 100.073 499.016 100.261 499.173 100.355C499.361 100.418 499.611 100.465 499.925 100.496L502.04 100.778V102H494.943L487.517 87.524H482.911V98.193C482.911 99.2897 482.958 99.932 483.052 100.12C483.146 100.308 483.443 100.433 483.945 100.496L486.53 100.778V102H475.203V100.778L477.788 100.496C478.289 100.433 478.587 100.308 478.681 100.12C478.775 99.932 478.822 99.2897 478.822 98.193V73.847C478.822 72.7503 478.775 72.108 478.681 71.92C478.587 71.732 478.289 71.6067 477.788 71.544L475.203 71.309ZM488.269 71.544H482.911V86.02H488.269C489.898 86.02 491.167 85.503 492.076 84.469C493.016 83.4037 493.486 81.8057 493.486 79.675V77.842C493.486 75.7113 493.016 74.129 492.076 73.095C491.167 72.061 489.898 71.544 488.269 71.544Z" fill="white"/>
<path d="M485.052 39.1725C484.768 40.5297 484.073 41.406 482.969 41.8013C481.877 42.1993 480.62 42.2494 479.198 41.9514L475.557 41.1888L478.382 27.7015L481.71 28.3985C483.08 28.6855 484.159 29.1908 484.948 29.9145C485.752 30.6279 486.027 31.5914 485.773 32.805C485.603 33.6141 485.225 34.2161 484.638 34.6108C484.054 34.9926 483.386 35.1931 482.632 35.2124C484.633 35.9994 485.44 37.3194 485.052 39.1725ZM484.01 32.538C484.166 31.7941 484.049 31.2112 483.661 30.7893C483.275 30.3543 482.658 30.048 481.81 29.8703L479.794 29.448L478.884 33.7937L481.056 34.2488C482.714 34.596 483.698 34.0257 484.01 32.538ZM483.239 38.854C483.438 37.9014 483.317 37.1811 482.874 36.6934C482.444 36.2083 481.779 35.8715 480.879 35.6829L478.588 35.2031L477.555 40.1361L479.787 40.6035C480.609 40.7757 481.343 40.7523 481.988 40.5333C482.633 40.3142 483.05 39.7545 483.239 38.854ZM489.644 39.3578C489.445 40.5014 489.56 41.4176 489.987 42.1067C490.428 42.7984 491.073 43.2331 491.921 43.4108C492.43 43.5174 492.908 43.5426 493.356 43.4866C493.819 43.4202 494.325 43.2809 494.874 43.0689L495.408 44.325C494.846 44.6023 494.229 44.7798 493.559 44.8574C492.902 44.9377 492.26 44.9123 491.634 44.781C490.146 44.4694 489.086 43.7433 488.453 42.6027C487.836 41.4517 487.698 40.0606 488.04 38.4293C488.256 37.3983 488.631 36.5166 489.166 35.784C489.704 35.0384 490.36 34.5083 491.134 34.1936C491.911 33.866 492.75 33.7964 493.65 33.9851C494.955 34.2584 495.884 34.9297 496.436 35.999C497.005 37.058 497.125 38.3706 496.797 39.9366C496.734 40.2367 496.659 40.5276 496.573 40.8093L489.644 39.3578ZM493.387 35.3398C492.591 35.1731 491.885 35.3249 491.268 35.7952C490.655 36.2525 490.201 37.0224 489.906 38.105L495.27 39.2284C495.483 38.1425 495.422 37.2646 495.086 36.5948C494.749 35.9249 494.183 35.5066 493.387 35.3398ZM507.423 47.3116C507.021 47.4727 506.552 47.5652 506.016 47.5891C505.493 47.6157 504.983 47.5771 504.487 47.4732C503.404 47.2464 502.615 46.7881 502.119 46.0985C501.626 45.3958 501.476 44.5812 501.67 43.6546L502.958 37.508L500.589 37.0119L500.86 35.7199L503.228 36.2161L503.716 33.8866L505.402 34.0353L504.873 36.5605L508.455 37.3108L507.969 38.5577L504.602 37.8524L503.319 43.9795C503.196 44.5667 503.261 45.0367 503.514 45.3894C503.767 45.7421 504.239 45.9909 504.931 46.1358C505.636 46.2834 506.329 46.2583 507.011 46.0605L507.423 47.3116ZM518.719 47.8794C518.634 48.2839 518.636 48.5978 518.726 48.8208C518.818 49.0309 519.005 49.213 519.286 49.3672L518.628 50.4556C517.651 50.1147 517.127 49.4941 517.057 48.5939C516.593 48.9872 516.054 49.249 515.441 49.3794C514.841 49.5126 514.202 49.5081 513.523 49.3659C512.492 49.15 511.737 48.692 511.257 47.9921C510.79 47.2949 510.658 46.4634 510.86 45.4977C511.081 44.4406 511.663 43.7111 512.606 43.3091C513.561 42.9099 514.815 42.8729 516.368 43.1981L517.895 43.518L518.071 42.6762C518.225 41.9454 518.125 41.3797 517.773 40.979C517.424 40.5653 516.851 40.275 516.055 40.1083C515.272 39.9443 514.341 39.9332 513.263 40.0751L513.075 38.728C514.379 38.5515 515.553 38.5727 516.597 38.7913C517.849 39.0537 518.741 39.5469 519.27 40.2708C519.813 40.9975 519.975 41.8828 519.756 42.9269L518.719 47.8794ZM514.193 48.2188C514.702 48.3254 515.212 48.296 515.723 48.1307C516.248 47.9681 516.708 47.6899 517.104 47.296L517.657 44.6533L516.17 44.3417C515.073 44.1121 514.246 44.1294 513.686 44.3937C513.127 44.658 512.773 45.1424 512.626 45.8471C512.352 47.1522 512.875 47.9427 514.193 48.2188Z" fill="#D415FF"/>
<rect x="462.227" y="17.2272" width="80" height="29" rx="4" transform="rotate(11.83 462.227 17.2272)" stroke="#A824C4" stroke-width="2"/>
<path d="M667.56 72V64.817H661.84V72H659.937V56.853H661.84V63.255H667.56V56.853H669.463V72H667.56ZM677.914 60.175C679.006 60.175 679.919 60.4243 680.653 60.923C681.393 61.4143 681.947 62.111 682.314 63.013C682.688 63.915 682.875 64.9783 682.875 66.203C682.875 67.3837 682.684 68.4287 682.303 69.338C681.921 70.2473 681.36 70.9623 680.62 71.483C679.886 71.9963 678.977 72.253 677.892 72.253C676.806 72.253 675.893 72.0037 675.153 71.505C674.412 71.0063 673.851 70.306 673.47 69.404C673.096 68.4947 672.909 67.435 672.909 66.225C672.909 65.0297 673.099 63.9773 673.481 63.068C673.862 62.1587 674.423 61.451 675.164 60.945C675.912 60.4317 676.828 60.175 677.914 60.175ZM677.914 61.682C676.916 61.682 676.161 62.0523 675.648 62.793C675.142 63.5263 674.889 64.6703 674.889 66.225C674.889 67.7503 675.138 68.8833 675.637 69.624C676.143 70.3647 676.894 70.735 677.892 70.735C678.889 70.735 679.637 70.3647 680.136 69.624C680.642 68.8833 680.895 67.743 680.895 66.203C680.895 64.663 680.645 63.5263 680.147 62.793C679.648 62.0523 678.904 61.682 677.914 61.682ZM694.328 60.175C694.702 60.175 695.058 60.2557 695.395 60.417C695.74 60.5783 696.022 60.89 696.242 61.352C696.462 61.814 696.572 62.4887 696.572 63.376V72H694.856V63.673C694.856 62.947 694.812 62.4227 694.724 62.1C694.636 61.7773 694.383 61.616 693.965 61.616C693.62 61.616 693.276 61.726 692.931 61.946C692.594 62.1587 692.264 62.5107 691.941 63.002V72H690.214V63.673C690.214 62.947 690.17 62.4227 690.082 62.1C689.994 61.7773 689.741 61.616 689.323 61.616C688.964 61.616 688.615 61.726 688.278 61.946C687.948 62.1587 687.622 62.5107 687.299 63.002V72H685.594V60.417H687.046L687.156 61.759C687.471 61.3117 687.823 60.9377 688.212 60.637C688.608 60.329 689.096 60.175 689.675 60.175C690.115 60.175 690.529 60.2813 690.918 60.494C691.307 60.6993 691.593 61.1027 691.776 61.704C692.091 61.2493 692.447 60.8827 692.843 60.604C693.239 60.318 693.734 60.175 694.328 60.175ZM701.337 66.863C701.374 67.7577 701.546 68.491 701.854 69.063C702.162 69.6277 702.569 70.0457 703.075 70.317C703.581 70.581 704.131 70.713 704.725 70.713C705.319 70.713 705.855 70.625 706.331 70.449C706.815 70.273 707.31 70.0127 707.816 69.668L708.685 70.889C708.143 71.3143 707.523 71.648 706.826 71.89C706.137 72.132 705.429 72.253 704.703 72.253C703.581 72.253 702.624 72 701.832 71.494C701.04 70.988 700.435 70.284 700.017 69.382C699.607 68.4727 699.401 67.4203 699.401 66.225C699.401 65.0517 699.61 64.0103 700.028 63.101C700.446 62.1917 701.033 61.4767 701.788 60.956C702.544 60.4353 703.435 60.175 704.461 60.175C705.437 60.175 706.276 60.406 706.98 60.868C707.684 61.3227 708.223 61.9753 708.597 62.826C708.979 63.6693 709.169 64.6777 709.169 65.851C709.169 66.049 709.166 66.236 709.158 66.412C709.151 66.5807 709.14 66.731 709.125 66.863H701.337ZM704.483 61.693C703.625 61.693 702.907 61.9973 702.327 62.606C701.755 63.2147 701.429 64.157 701.348 65.433H707.387C707.365 64.1937 707.094 63.2623 706.573 62.639C706.053 62.0083 705.356 61.693 704.483 61.693Z" fill="#F3B7FF"/>
<path d="M773.168 68.139H767.173L765.963 72H764.082L769.01 56.853H771.452L776.38 72H774.378L773.168 68.139ZM767.668 66.555H772.673L770.187 58.459L767.668 66.555ZM780.882 61.924C781.307 61.3667 781.795 60.9377 782.345 60.637C782.902 60.329 783.514 60.175 784.182 60.175C785.216 60.175 786.052 60.4243 786.69 60.923C787.328 61.4217 787.793 62.1257 788.087 63.035C788.38 63.937 788.527 64.993 788.527 66.203C788.527 67.369 788.351 68.4103 787.999 69.327C787.647 70.2363 787.13 70.9513 786.448 71.472C785.773 71.9927 784.937 72.253 783.94 72.253C782.598 72.253 781.545 71.769 780.783 70.801L780.651 72H779.034V55.753L780.882 55.522V61.924ZM783.5 70.757C784.468 70.757 785.212 70.383 785.733 69.635C786.253 68.887 786.514 67.7393 786.514 66.192C786.514 65.18 786.411 64.3403 786.206 63.673C786 62.9983 785.692 62.496 785.282 62.166C784.878 61.8287 784.38 61.66 783.786 61.66C783.14 61.66 782.572 61.8543 782.081 62.243C781.597 62.6243 781.197 63.0497 780.882 63.519V69.261C781.182 69.7157 781.56 70.0787 782.015 70.35C782.477 70.6213 782.972 70.757 783.5 70.757ZM796.636 60.175C797.729 60.175 798.642 60.4243 799.375 60.923C800.116 61.4143 800.669 62.111 801.036 63.013C801.41 63.915 801.597 64.9783 801.597 66.203C801.597 67.3837 801.406 68.4287 801.025 69.338C800.644 70.2473 800.083 70.9623 799.342 71.483C798.609 71.9963 797.699 72.253 796.614 72.253C795.529 72.253 794.616 72.0037 793.875 71.505C793.134 71.0063 792.573 70.306 792.192 69.404C791.818 68.4947 791.631 67.435 791.631 66.225C791.631 65.0297 791.822 63.9773 792.203 63.068C792.584 62.1587 793.145 61.451 793.886 60.945C794.634 60.4317 795.551 60.175 796.636 60.175ZM796.636 61.682C795.639 61.682 794.883 62.0523 794.37 62.793C793.864 63.5263 793.611 64.6703 793.611 66.225C793.611 67.7503 793.86 68.8833 794.359 69.624C794.865 70.3647 795.617 70.735 796.614 70.735C797.611 70.735 798.359 70.3647 798.858 69.624C799.364 68.8833 799.617 67.743 799.617 66.203C799.617 64.663 799.368 63.5263 798.869 62.793C798.37 62.0523 797.626 61.682 796.636 61.682ZM807.265 60.417V68.623C807.265 69.3857 807.422 69.9357 807.738 70.273C808.053 70.6103 808.544 70.779 809.212 70.779C809.85 70.779 810.451 70.5993 811.016 70.24C811.588 69.8733 812.031 69.4407 812.347 68.942V60.417H814.195V72H812.622L812.468 70.438C812.013 71.0247 811.452 71.4757 810.785 71.791C810.117 72.099 809.443 72.253 808.761 72.253C807.639 72.253 806.799 71.956 806.242 71.362C805.692 70.7607 805.417 69.921 805.417 68.843V60.417H807.265ZM827.804 71.417C827.408 71.681 826.928 71.8863 826.363 72.033C825.798 72.1797 825.245 72.253 824.702 72.253C823.455 72.253 822.495 71.9267 821.82 71.274C821.145 70.6213 820.808 69.7817 820.808 68.755V61.847H818.146V60.417H820.808V57.788L822.656 57.568V60.417H826.66L826.44 61.847H822.656V68.733C822.656 69.3783 822.825 69.8697 823.162 70.207C823.507 70.5443 824.075 70.713 824.867 70.713C825.3 70.713 825.699 70.6617 826.066 70.559C826.433 70.4563 826.774 70.3243 827.089 70.163L827.804 71.417ZM877.039 56.611C878.029 56.611 878.857 56.7357 879.525 56.985C880.192 57.2343 880.826 57.601 881.428 58.085L880.361 59.328C879.884 58.9247 879.378 58.6387 878.843 58.47C878.315 58.294 877.761 58.206 877.182 58.206C876.353 58.206 875.587 58.404 874.883 58.8C874.179 59.1887 873.61 59.8377 873.178 60.747C872.752 61.649 872.54 62.8737 872.54 64.421C872.54 65.9243 872.741 67.1307 873.145 68.04C873.555 68.9493 874.109 69.6057 874.806 70.009C875.502 70.4123 876.28 70.614 877.138 70.614C877.988 70.614 878.685 70.4857 879.228 70.229C879.778 69.9723 880.254 69.679 880.658 69.349L881.648 70.603C881.186 71.0503 880.584 71.439 879.844 71.769C879.103 72.0917 878.194 72.253 877.116 72.253C875.891 72.253 874.78 71.9523 873.783 71.351C872.793 70.7497 872.008 69.8697 871.429 68.711C870.849 67.545 870.56 66.115 870.56 64.421C870.56 62.7197 870.853 61.2897 871.44 60.131C872.034 58.9723 872.822 58.096 873.805 57.502C874.795 56.908 875.873 56.611 877.039 56.611ZM888.976 60.175C890.069 60.175 890.982 60.4243 891.715 60.923C892.456 61.4143 893.009 62.111 893.376 63.013C893.75 63.915 893.937 64.9783 893.937 66.203C893.937 67.3837 893.746 68.4287 893.365 69.338C892.984 70.2473 892.423 70.9623 891.682 71.483C890.949 71.9963 890.039 72.253 888.954 72.253C887.869 72.253 886.956 72.0037 886.215 71.505C885.474 71.0063 884.913 70.306 884.532 69.404C884.158 68.4947 883.971 67.435 883.971 66.225C883.971 65.0297 884.162 63.9773 884.543 63.068C884.924 62.1587 885.485 61.451 886.226 60.945C886.974 60.4317 887.891 60.175 888.976 60.175ZM888.976 61.682C887.979 61.682 887.223 62.0523 886.71 62.793C886.204 63.5263 885.951 64.6703 885.951 66.225C885.951 67.7503 886.2 68.8833 886.699 69.624C887.205 70.3647 887.957 70.735 888.954 70.735C889.951 70.735 890.699 70.3647 891.198 69.624C891.704 68.8833 891.957 67.743 891.957 66.203C891.957 64.663 891.708 63.5263 891.209 62.793C890.71 62.0523 889.966 61.682 888.976 61.682ZM897.756 72V60.417H899.329L899.472 62.023C899.942 61.429 900.528 60.9743 901.232 60.659C901.944 60.3363 902.633 60.175 903.3 60.175C904.437 60.175 905.262 60.4757 905.775 61.077C906.296 61.6783 906.556 62.5143 906.556 63.585V72H904.708V64.949C904.708 64.157 904.664 63.519 904.576 63.035C904.488 62.5437 904.305 62.188 904.026 61.968C903.748 61.7407 903.315 61.627 902.728 61.627C902.274 61.627 901.845 61.726 901.441 61.924C901.045 62.122 900.69 62.3713 900.374 62.672C900.066 62.9653 899.81 63.2623 899.604 63.563V72H897.756ZM920.144 71.417C919.748 71.681 919.267 71.8863 918.703 72.033C918.138 72.1797 917.584 72.253 917.042 72.253C915.795 72.253 914.834 71.9267 914.16 71.274C913.485 70.6213 913.148 69.7817 913.148 68.755V61.847H910.486V60.417H913.148V57.788L914.996 57.568V60.417H919L918.78 61.847H914.996V68.733C914.996 69.3783 915.164 69.8697 915.502 70.207C915.846 70.5443 916.415 70.713 917.207 70.713C917.639 70.713 918.039 70.6617 918.406 70.559C918.772 70.4563 919.113 70.3243 919.429 70.163L920.144 71.417ZM932.433 69.47C932.433 69.932 932.51 70.2693 932.664 70.482C932.818 70.6947 933.057 70.8523 933.379 70.955L932.928 72.253C932.43 72.187 931.993 72.0293 931.619 71.78C931.245 71.5233 930.974 71.1383 930.805 70.625C930.387 71.1603 929.867 71.5673 929.243 71.846C928.62 72.1173 927.931 72.253 927.175 72.253C926.017 72.253 925.104 71.9267 924.436 71.274C923.769 70.6213 923.435 69.756 923.435 68.678C923.435 67.4827 923.901 66.566 924.832 65.928C925.764 65.29 927.109 64.971 928.869 64.971H930.574V64.003C930.574 63.167 930.329 62.5767 929.837 62.232C929.353 61.88 928.679 61.704 927.813 61.704C927.432 61.704 926.985 61.7517 926.471 61.847C925.958 61.935 925.401 62.0853 924.799 62.298L924.315 60.901C925.027 60.637 925.694 60.45 926.317 60.34C926.941 60.23 927.535 60.175 928.099 60.175C929.544 60.175 930.626 60.5123 931.344 61.187C932.07 61.8543 932.433 62.7637 932.433 63.915V69.47ZM927.648 70.845C928.22 70.845 928.767 70.702 929.287 70.416C929.808 70.1227 930.237 69.7193 930.574 69.206V66.225H928.902C927.626 66.225 926.724 66.445 926.196 66.885C925.676 67.325 925.415 67.9153 925.415 68.656C925.415 69.3747 925.599 69.921 925.965 70.295C926.339 70.6617 926.9 70.845 927.648 70.845ZM942.567 70.658C943.146 70.658 943.685 70.5627 944.184 70.372C944.69 70.1813 945.155 69.9393 945.581 69.646L946.483 70.856C945.977 71.2887 945.368 71.6297 944.657 71.879C943.945 72.1283 943.249 72.253 942.567 72.253C941.415 72.253 940.433 72.0073 939.619 71.516C938.812 71.0173 938.196 70.3207 937.771 69.426C937.345 68.524 937.133 67.468 937.133 66.258C937.133 65.0993 937.345 64.0617 937.771 63.145C938.203 62.221 938.823 61.495 939.63 60.967C940.444 60.439 941.43 60.175 942.589 60.175C943.329 60.175 944.022 60.2887 944.668 60.516C945.32 60.736 945.918 61.0697 946.461 61.517L945.559 62.749C945.067 62.4043 944.572 62.1477 944.074 61.979C943.582 61.803 943.08 61.715 942.567 61.715C941.569 61.715 940.748 62.089 940.103 62.837C939.457 63.585 939.135 64.7253 939.135 66.258C939.135 67.2847 939.281 68.1243 939.575 68.777C939.875 69.4223 940.282 69.899 940.796 70.207C941.316 70.5077 941.907 70.658 942.567 70.658ZM959.718 71.417C959.322 71.681 958.842 71.8863 958.277 72.033C957.712 72.1797 957.159 72.253 956.616 72.253C955.369 72.253 954.409 71.9267 953.734 71.274C953.059 70.6213 952.722 69.7817 952.722 68.755V61.847H950.06V60.417H952.722V57.788L954.57 57.568V60.417H958.574L958.354 61.847H954.57V68.733C954.57 69.3783 954.739 69.8697 955.076 70.207C955.421 70.5443 955.989 70.713 956.781 70.713C957.214 70.713 957.613 70.6617 957.98 70.559C958.347 70.4563 958.688 70.3243 959.003 70.163L959.718 71.417ZM1014.18 56.853L1011.87 72H1009.36L1007.62 60.571L1005.87 72H1003.31L1001.18 56.853H1003.09L1004.71 69.899L1006.52 58.613H1008.86L1010.59 69.899L1012.41 56.853H1014.18ZM1020.89 60.175C1021.98 60.175 1022.9 60.4243 1023.63 60.923C1024.37 61.4143 1024.92 62.111 1025.29 63.013C1025.66 63.915 1025.85 64.9783 1025.85 66.203C1025.85 67.3837 1025.66 68.4287 1025.28 69.338C1024.9 70.2473 1024.34 70.9623 1023.6 71.483C1022.86 71.9963 1021.95 72.253 1020.87 72.253C1019.78 72.253 1018.87 72.0037 1018.13 71.505C1017.39 71.0063 1016.83 70.306 1016.45 69.404C1016.07 68.4947 1015.89 67.435 1015.89 66.225C1015.89 65.0297 1016.08 63.9773 1016.46 63.068C1016.84 62.1587 1017.4 61.451 1018.14 60.945C1018.89 60.4317 1019.8 60.175 1020.89 60.175ZM1020.89 61.682C1019.89 61.682 1019.14 62.0523 1018.62 62.793C1018.12 63.5263 1017.87 64.6703 1017.87 66.225C1017.87 67.7503 1018.11 68.8833 1018.61 69.624C1019.12 70.3647 1019.87 70.735 1020.87 70.735C1021.87 70.735 1022.61 70.3647 1023.11 69.624C1023.62 68.8833 1023.87 67.743 1023.87 66.203C1023.87 64.663 1023.62 63.5263 1023.12 62.793C1022.62 62.0523 1021.88 61.682 1020.89 61.682ZM1029.78 72V70.581H1031.58V61.836H1029.78V60.417H1032.99L1033.33 63.156C1033.78 62.2027 1034.32 61.4657 1034.96 60.945C1035.6 60.4243 1036.44 60.164 1037.49 60.164C1037.81 60.164 1038.1 60.1897 1038.35 60.241C1038.61 60.285 1038.87 60.3437 1039.13 60.417L1038.59 62.067C1038.35 62.001 1038.13 61.9533 1037.93 61.924C1037.73 61.8873 1037.51 61.869 1037.25 61.869C1036.36 61.869 1035.6 62.1843 1034.96 62.815C1034.32 63.4457 1033.81 64.399 1033.43 65.675V70.581H1035.79V72H1029.78ZM1037.35 64.333V61.814L1037.54 60.417H1039.13L1038.87 64.333H1037.35ZM1052.56 60.417L1047.35 65.631L1053.17 72H1050.74L1045.04 65.675L1050.17 60.417H1052.56ZM1044.83 55.522V72H1042.98V55.753L1044.83 55.522ZM1059.99 70.724C1060.88 70.724 1061.58 70.559 1062.09 70.229C1062.61 69.8917 1062.87 69.4443 1062.87 68.887C1062.87 68.535 1062.81 68.2307 1062.68 67.974C1062.55 67.7173 1062.29 67.4863 1061.89 67.281C1061.5 67.0757 1060.89 66.8703 1060.07 66.665C1059.27 66.467 1058.57 66.2397 1057.98 65.983C1057.39 65.719 1056.93 65.378 1056.6 64.96C1056.28 64.542 1056.12 63.9993 1056.12 63.332C1056.12 62.6793 1056.3 62.1183 1056.67 61.649C1057.04 61.1723 1057.56 60.8093 1058.22 60.56C1058.88 60.3033 1059.65 60.175 1060.52 60.175C1061.45 60.175 1062.26 60.2997 1062.95 60.549C1063.65 60.791 1064.24 61.0917 1064.72 61.451L1063.91 62.705C1063.47 62.4043 1062.98 62.1587 1062.46 61.968C1061.93 61.77 1061.29 61.671 1060.54 61.671C1059.63 61.671 1058.99 61.814 1058.61 62.1C1058.22 62.3787 1058.03 62.7417 1058.03 63.189C1058.03 63.5263 1058.12 63.8087 1058.31 64.036C1058.5 64.256 1058.82 64.4577 1059.27 64.641C1059.71 64.817 1060.33 65.0113 1061.11 65.224C1061.87 65.422 1062.52 65.6603 1063.08 65.939C1063.65 66.2177 1064.09 66.5843 1064.4 67.039C1064.72 67.4937 1064.88 68.0803 1064.88 68.799C1064.88 69.6203 1064.64 70.2877 1064.17 70.801C1063.7 71.307 1063.09 71.6773 1062.35 71.912C1061.6 72.1393 1060.82 72.253 1059.99 72.253C1058.94 72.253 1058.05 72.1027 1057.31 71.802C1056.57 71.494 1055.96 71.1237 1055.46 70.691L1056.52 69.47C1056.97 69.844 1057.49 70.1483 1058.08 70.383C1058.67 70.6103 1059.31 70.724 1059.99 70.724Z" fill="white"/>
<defs>
<filter id="filter0_d_207_3518" x="9.77516e-05" y="5.5665" width="98.8667" height="98.8665" filterUnits="userSpaceOnUse" color-interpolation-filters="sRGB">
<feFlood flood-opacity="0" result="BackgroundImageFix"/>
<feColorMatrix in="SourceAlpha" type="matrix" values="0 0 0 0 0 0 0 0 0 0 0 0 0 0 0 0 0 0 127 0" result="hardAlpha"/>
<feOffset/>
<feGaussianBlur stdDeviation="3.05"/>
<feComposite in2="hardAlpha" operator="out"/>
<feColorMatrix type="matrix" values="0 0 0 0 0.831812 0 0 0 0 0.0826134 0 0 0 0 1 0 0 0 1 0"/>
<feBlend mode="normal" in2="BackgroundImageFix" result="effect1_dropShadow_207_3518"/>
<feBlend mode="normal" in="SourceGraphic" in2="effect1_dropShadow_207_3518" result="shape"/>
</filter>
</defs>
</svg>
