<svg width="568" height="124" viewBox="0 0 568 124" fill="none" xmlns="http://www.w3.org/2000/svg">
<g filter="url(#filter0_d_121_41)">
<circle cx="49.4334" cy="54.9998" r="40.3333" stroke="#AA1EC9" stroke-width="6" shape-rendering="crispEdges"/>
</g>
<rect x="21.1001" y="5" width="100" height="100" rx="50" fill="#A653EB" fill-opacity="0.25"/>
<path d="M117.573 59.5C117.573 73.031 108.171 84 96.5728 84C84.9748 84 75.5728 73.031 75.5728 59.5C75.5728 45.969 84.9748 35 96.5728 35C108.171 35 117.573 45.969 117.573 59.5Z" fill="#A925C4"/>
<path d="M166.098 46C163.654 46 161.86 45.436 160.717 44.308C159.589 43.1643 159.025 41.3705 159.025 38.9265C159.025 36.4825 159.596 34.6887 160.74 33.545C161.884 32.4013 163.67 31.8295 166.098 31.8295H176.791C176.759 29.7615 176.289 28.3202 175.381 27.5055C174.488 26.6752 172.96 26.26 170.798 26.26H168.072C166.082 26.26 164.625 26.4715 163.701 26.8945C162.777 27.3175 162.205 28.0382 161.986 29.0565C161.876 29.4482 161.727 29.738 161.539 29.926C161.367 30.0983 161.085 30.1845 160.693 30.1845C160.286 30.1845 159.965 30.0748 159.73 29.8555C159.51 29.6205 159.432 29.3072 159.495 28.9155C159.698 27.1295 160.505 25.8292 161.915 25.0145C163.341 24.1998 165.393 23.7925 168.072 23.7925H170.798C173.728 23.7925 175.866 24.474 177.214 25.837C178.577 27.1843 179.258 29.3228 179.258 32.2525V44.7545C179.258 45.5848 178.851 46 178.036 46C177.206 46 176.791 45.5848 176.791 44.7545V42.428C175.287 44.8093 172.6 46 168.73 46H166.098ZM166.098 43.5325H168.73C170.25 43.5325 171.581 43.368 172.725 43.039C173.884 42.6943 174.817 42.146 175.522 41.394C176.227 40.642 176.65 39.6393 176.791 38.386V34.297H166.098C164.359 34.297 163.153 34.6338 162.479 35.3075C161.821 35.9655 161.492 37.1718 161.492 38.9265C161.492 40.6655 161.821 41.8718 162.479 42.5455C163.153 43.2035 164.359 43.5325 166.098 43.5325ZM212.517 23.7455C215.039 23.7455 216.841 24.3878 217.922 25.6725C219.019 26.9572 219.567 29.08 219.567 32.041V44.8015C219.567 45.6162 219.16 46.0235 218.345 46.0235C217.515 46.0235 217.099 45.6162 217.099 44.8015V32.041C217.099 29.973 216.747 28.4847 216.042 27.576C215.337 26.6673 214.162 26.213 212.517 26.213H210.566C208.514 26.213 207.041 26.6673 206.148 27.576C205.271 28.4847 204.832 29.973 204.832 32.041V44.8015C204.832 45.6162 204.425 46.0235 203.61 46.0235C202.78 46.0235 202.365 45.6162 202.365 44.8015V32.041C202.365 29.973 202.012 28.4847 201.307 27.576C200.602 26.6673 199.427 26.213 197.782 26.213H195.832C193.78 26.213 192.307 26.6673 191.414 27.576C190.537 28.4847 190.098 29.973 190.098 32.041V44.8015C190.098 45.6162 189.691 46.0235 188.876 46.0235C188.046 46.0235 187.63 45.6162 187.63 44.8015V25.0145C187.63 24.1998 188.046 23.7925 188.876 23.7925C189.691 23.7925 190.098 24.1998 190.098 25.0145V26.8475C190.787 25.7352 191.602 24.944 192.542 24.474C193.498 23.9883 194.704 23.7455 196.161 23.7455H197.782C199.427 23.7455 200.743 24.0353 201.73 24.615C202.733 25.179 203.524 26.1112 204.104 27.4115C204.793 26.1112 205.639 25.179 206.642 24.615C207.645 24.0353 208.953 23.7455 210.566 23.7455H212.517ZM233.615 46C231.171 46 229.377 45.436 228.233 44.308C227.105 43.1643 226.541 41.3705 226.541 38.9265C226.541 36.4825 227.113 34.6887 228.257 33.545C229.4 32.4013 231.186 31.8295 233.615 31.8295H244.307C244.276 29.7615 243.806 28.3202 242.897 27.5055C242.004 26.6752 240.477 26.26 238.315 26.26H235.589C233.599 26.26 232.142 26.4715 231.218 26.8945C230.293 27.3175 229.722 28.0382 229.502 29.0565C229.393 29.4482 229.244 29.738 229.056 29.926C228.883 30.0983 228.601 30.1845 228.21 30.1845C227.802 30.1845 227.481 30.0748 227.246 29.8555C227.027 29.6205 226.949 29.3072 227.011 28.9155C227.215 27.1295 228.022 25.8292 229.432 25.0145C230.857 24.1998 232.91 23.7925 235.589 23.7925H238.315C241.244 23.7925 243.383 24.474 244.73 25.837C246.093 27.1843 246.775 29.3228 246.775 32.2525V44.7545C246.775 45.5848 246.367 46 245.553 46C244.722 46 244.307 45.5848 244.307 44.7545V42.428C242.803 44.8093 240.116 46 236.247 46H233.615ZM233.615 43.5325H236.247C237.766 43.5325 239.098 43.368 240.242 43.039C241.401 42.6943 242.333 42.146 243.038 41.394C243.743 40.642 244.166 39.6393 244.307 38.386V34.297H233.615C231.876 34.297 230.669 34.6338 229.996 35.3075C229.338 35.9655 229.009 37.1718 229.009 38.9265C229.009 40.6655 229.338 41.8718 229.996 42.5455C230.669 43.2035 231.876 43.5325 233.615 43.5325ZM264.218 46C261.335 46 259.228 45.3342 257.896 44.0025C256.565 42.6708 255.899 40.5715 255.899 37.7045V26.26H253.102C252.272 26.26 251.857 25.8448 251.857 25.0145C251.857 24.1998 252.272 23.7925 253.102 23.7925H255.899V18.74C255.899 17.9097 256.306 17.4945 257.121 17.4945C257.951 17.4945 258.366 17.9097 258.366 18.74V23.7925H264.265C265.08 23.7925 265.487 24.1998 265.487 25.0145C265.487 25.8448 265.08 26.26 264.265 26.26H258.366V37.7045C258.366 39.8978 258.789 41.4175 259.635 42.2635C260.497 43.1095 262.025 43.5325 264.218 43.5325C264.672 43.5325 264.993 43.6343 265.181 43.838C265.385 44.0417 265.487 44.3472 265.487 44.7545C265.487 45.5848 265.064 46 264.218 46ZM271.943 35.848V37.5635C271.943 39.7725 272.381 41.3235 273.259 42.2165C274.152 43.0938 275.718 43.5325 277.959 43.5325H281.813C283.787 43.5325 285.22 43.2818 286.113 42.7805C287.022 42.2635 287.562 41.3783 287.735 40.125C287.797 39.7333 287.923 39.4357 288.111 39.232C288.314 39.0283 288.62 38.9265 289.027 38.9265C289.435 38.9265 289.74 39.044 289.944 39.279C290.163 39.4983 290.249 39.8117 290.202 40.219C289.999 42.193 289.207 43.65 287.829 44.59C286.45 45.53 284.445 46 281.813 46H277.959C275.029 46 272.883 45.3263 271.52 43.979C270.157 42.616 269.475 40.4775 269.475 37.5635V32.2525C269.475 29.2915 270.157 27.1373 271.52 25.79C272.883 24.427 275.029 23.7612 277.959 23.7925H281.813C284.742 23.7925 286.881 24.474 288.228 25.837C289.591 27.1843 290.273 29.3228 290.273 32.2525V34.6025C290.273 35.4328 289.866 35.848 289.051 35.848H271.943ZM277.959 26.26C275.718 26.2287 274.152 26.6595 273.259 27.5525C272.381 28.4298 271.943 29.9965 271.943 32.2525V33.3805H287.805V32.2525C287.805 30.0122 287.367 28.4533 286.489 27.576C285.612 26.6987 284.053 26.26 281.813 26.26H277.959ZM317.088 23.7925C317.919 23.7925 318.334 24.1998 318.334 25.0145V44.7545C318.334 45.5848 317.919 46 317.088 46C316.274 46 315.866 45.5848 315.866 44.7545V42.522C314.378 44.8407 311.683 46 307.782 46H306.466C303.537 46 301.39 45.3185 300.027 43.9555C298.68 42.5925 298.006 40.4462 298.006 37.5165V25.0145C298.006 24.1998 298.414 23.7925 299.228 23.7925C300.059 23.7925 300.474 24.1998 300.474 25.0145V37.5165C300.474 39.7568 300.912 41.3235 301.79 42.2165C302.683 43.0938 304.242 43.5325 306.466 43.5325H307.782C310.211 43.5325 312.122 43.1408 313.516 42.3575C314.911 41.5742 315.694 40.3757 315.866 38.762V25.0145C315.866 24.1998 316.274 23.7925 317.088 23.7925ZM328.361 46C327.531 46 327.116 45.5848 327.116 44.7545V25.0145C327.116 24.1998 327.531 23.7925 328.361 23.7925C329.176 23.7925 329.583 24.1998 329.583 25.0145V28.6335C330.398 27.0668 331.573 25.8683 333.108 25.038C334.659 24.2077 336.492 23.7925 338.607 23.7925C339.438 23.7925 339.853 24.1998 339.853 25.0145C339.853 25.8448 339.438 26.26 338.607 26.26C335.819 26.26 333.657 26.8945 332.121 28.1635C330.586 29.4168 329.74 31.2107 329.583 33.545V44.7545C329.583 45.5848 329.176 46 328.361 46ZM178.647 94.339H179.869V102H157.356V100.778L159.941 100.496C160.442 100.433 160.74 100.308 160.834 100.12C160.928 99.932 160.975 99.2897 160.975 98.193V73.847C160.975 72.7503 160.928 72.108 160.834 71.92C160.74 71.732 160.442 71.6067 159.941 71.544L157.356 71.309V70.04H179.258V77.701H178.083L176.72 72.766C176.626 72.39 176.516 72.1237 176.391 71.967C176.297 71.779 176.093 71.6693 175.78 71.638C175.467 71.5753 174.934 71.544 174.182 71.544H165.064V85.127H171.362C172.114 85.127 172.647 85.1113 172.96 85.08C173.273 85.0173 173.477 84.9077 173.571 84.751C173.696 84.563 173.806 84.281 173.9 83.905L174.793 80.38H176.015V91.378H174.793L173.9 87.853C173.806 87.477 173.696 87.2107 173.571 87.054C173.477 86.866 173.273 86.7563 172.96 86.725C172.647 86.6623 172.114 86.631 171.362 86.631H165.064V100.496H174.746C175.498 100.496 176.031 100.48 176.344 100.449C176.657 100.386 176.861 100.277 176.955 100.12C177.08 99.932 177.19 99.65 177.284 99.274L178.647 94.339ZM204.031 71.309V70.04H213.008V71.309L210.423 71.544C209.921 71.6067 209.624 71.7477 209.53 71.967C209.436 72.155 209.389 72.7817 209.389 73.847V102H207.086L189.978 73.142V98.193C189.978 99.2583 190.025 99.9007 190.119 100.12C190.213 100.308 190.51 100.433 191.012 100.496L193.597 100.778V102H184.62V100.778L187.205 100.496C187.706 100.433 188.004 100.308 188.098 100.12C188.192 99.9007 188.239 99.2583 188.239 98.193V73.847C188.239 72.7817 188.192 72.155 188.098 71.967C188.004 71.7477 187.706 71.6067 187.205 71.544L184.62 71.309V70.04H192.751L207.65 95.232V73.847C207.65 72.7817 207.603 72.155 207.509 71.967C207.415 71.7477 207.117 71.6067 206.616 71.544L204.031 71.309ZM215.471 70.04H240.475V77.701H239.253L237.89 72.766C237.796 72.39 237.686 72.1237 237.561 71.967C237.467 71.779 237.263 71.6693 236.95 71.638C236.637 71.5753 236.104 71.544 235.352 71.544H230.041V98.193C230.041 99.2897 230.088 99.932 230.182 100.12C230.276 100.308 230.574 100.433 231.075 100.496L233.66 100.778V102H222.333V100.778L224.918 100.496C225.419 100.433 225.717 100.308 225.811 100.12C225.905 99.932 225.952 99.2897 225.952 98.193V71.544H220.594C219.873 71.544 219.341 71.5753 218.996 71.638C218.683 71.6693 218.463 71.779 218.338 71.967C218.244 72.1237 218.15 72.39 218.056 72.766L216.693 77.701H215.471V70.04ZM243.37 71.309V70.04H256.436C259.506 70.04 261.856 70.7763 263.486 72.249C265.146 73.6903 265.977 75.6173 265.977 78.03V79.487C265.977 81.3983 265.444 83.0277 264.379 84.375C263.345 85.691 261.856 86.5997 259.914 87.101L265.93 98.193C266.337 98.945 266.635 99.4777 266.823 99.791C267.011 100.073 267.183 100.261 267.34 100.355C267.528 100.418 267.778 100.465 268.092 100.496L270.207 100.778V102H263.11L255.684 87.524H251.078V98.193C251.078 99.2897 251.125 99.932 251.219 100.12C251.313 100.308 251.61 100.433 252.112 100.496L254.697 100.778V102H243.37V100.778L245.955 100.496C246.456 100.433 246.754 100.308 246.848 100.12C246.942 99.932 246.989 99.2897 246.989 98.193V73.847C246.989 72.7503 246.942 72.108 246.848 71.92C246.754 71.732 246.456 71.6067 245.955 71.544L243.37 71.309ZM256.436 71.544H251.078V86.02H256.436C258.065 86.02 259.334 85.503 260.243 84.469C261.183 83.4037 261.653 81.8057 261.653 79.675V77.842C261.653 75.7113 261.183 74.129 260.243 73.095C259.334 72.061 258.065 71.544 256.436 71.544ZM294.036 94.339H295.258V102H272.745V100.778L275.33 100.496C275.831 100.433 276.129 100.308 276.223 100.12C276.317 99.932 276.364 99.2897 276.364 98.193V73.847C276.364 72.7503 276.317 72.108 276.223 71.92C276.129 71.732 275.831 71.6067 275.33 71.544L272.745 71.309V70.04H294.647V77.701H293.472L292.109 72.766C292.015 72.39 291.905 72.1237 291.78 71.967C291.686 71.779 291.482 71.6693 291.169 71.638C290.855 71.5753 290.323 71.544 289.571 71.544H280.453V85.127H286.751C287.503 85.127 288.035 85.1113 288.349 85.08C288.662 85.0173 288.866 84.9077 288.96 84.751C289.085 84.563 289.195 84.281 289.289 83.905L290.182 80.38H291.404V91.378H290.182L289.289 87.853C289.195 87.477 289.085 87.2107 288.96 87.054C288.866 86.866 288.662 86.7563 288.349 86.725C288.035 86.6623 287.503 86.631 286.751 86.631H280.453V100.496H290.135C290.887 100.496 291.419 100.48 291.733 100.449C292.046 100.386 292.25 100.277 292.344 100.12C292.469 99.932 292.579 99.65 292.673 99.274L294.036 94.339ZM300.008 71.309V70.04H313.356C316.458 70.04 318.824 70.8233 320.453 72.39C322.083 73.9253 322.897 75.9777 322.897 78.547V79.91C322.897 82.4793 322.083 84.5473 320.453 86.114C318.824 87.6807 316.458 88.464 313.356 88.464H307.716V98.193C307.716 99.2897 307.763 99.9477 307.857 100.167C307.951 100.355 308.249 100.465 308.75 100.496L312.275 100.778V102H300.008V100.778L302.593 100.496C303.095 100.433 303.392 100.308 303.486 100.12C303.58 99.932 303.627 99.2897 303.627 98.193V73.847C303.627 72.7503 303.58 72.108 303.486 71.92C303.392 71.732 303.095 71.6067 302.593 71.544L300.008 71.309ZM313.356 71.544H307.716V86.96H313.356C316.834 86.96 318.573 84.8293 318.573 80.568V77.889C318.573 73.659 316.834 71.544 313.356 71.544ZM326.997 71.309V70.04H340.063C343.133 70.04 345.483 70.7763 347.113 72.249C348.773 73.6903 349.604 75.6173 349.604 78.03V79.487C349.604 81.3983 349.071 83.0277 348.006 84.375C346.972 85.691 345.483 86.5997 343.541 87.101L349.557 98.193C349.964 98.945 350.262 99.4777 350.45 99.791C350.638 100.073 350.81 100.261 350.967 100.355C351.155 100.418 351.405 100.465 351.719 100.496L353.834 100.778V102H346.737L339.311 87.524H334.705V98.193C334.705 99.2897 334.752 99.932 334.846 100.12C334.94 100.308 335.237 100.433 335.739 100.496L338.324 100.778V102H326.997V100.778L329.582 100.496C330.083 100.433 330.381 100.308 330.475 100.12C330.569 99.932 330.616 99.2897 330.616 98.193V73.847C330.616 72.7503 330.569 72.108 330.475 71.92C330.381 71.732 330.083 71.6067 329.582 71.544L326.997 71.309ZM340.063 71.544H334.705V86.02H340.063C341.692 86.02 342.961 85.503 343.87 84.469C344.81 83.4037 345.28 81.8057 345.28 79.675V77.842C345.28 75.7113 344.81 74.129 343.87 73.095C342.961 72.061 341.692 71.544 340.063 71.544ZM377.663 94.339H378.885V102H356.372V100.778L358.957 100.496C359.458 100.433 359.756 100.308 359.85 100.12C359.944 99.932 359.991 99.2897 359.991 98.193V73.847C359.991 72.7503 359.944 72.108 359.85 71.92C359.756 71.732 359.458 71.6067 358.957 71.544L356.372 71.309V70.04H378.274V77.701H377.099L375.736 72.766C375.642 72.39 375.532 72.1237 375.407 71.967C375.313 71.779 375.109 71.6693 374.796 71.638C374.482 71.5753 373.95 71.544 373.198 71.544H364.08V85.127H370.378C371.13 85.127 371.662 85.1113 371.976 85.08C372.289 85.0173 372.493 84.9077 372.587 84.751C372.712 84.563 372.822 84.281 372.916 83.905L373.809 80.38H375.031V91.378H373.809L372.916 87.853C372.822 87.477 372.712 87.2107 372.587 87.054C372.493 86.866 372.289 86.7563 371.976 86.725C371.662 86.6623 371.13 86.631 370.378 86.631H364.08V100.496H373.762C374.514 100.496 375.046 100.48 375.36 100.449C375.673 100.386 375.877 100.277 375.971 100.12C376.096 99.932 376.206 99.65 376.3 99.274L377.663 94.339ZM403.046 71.309V70.04H412.023V71.309L409.438 71.544C408.937 71.6067 408.639 71.7477 408.545 71.967C408.451 72.155 408.404 72.7817 408.404 73.847V102H406.101L388.993 73.142V98.193C388.993 99.2583 389.04 99.9007 389.134 100.12C389.228 100.308 389.526 100.433 390.027 100.496L392.612 100.778V102H383.635V100.778L386.22 100.496C386.722 100.433 387.019 100.308 387.113 100.12C387.207 99.9007 387.254 99.2583 387.254 98.193V73.847C387.254 72.7817 387.207 72.155 387.113 71.967C387.019 71.7477 386.722 71.6067 386.22 71.544L383.635 71.309V70.04H391.766L406.665 95.232V73.847C406.665 72.7817 406.618 72.155 406.524 71.967C406.43 71.7477 406.133 71.6067 405.631 71.544L403.046 71.309ZM437.422 94.339H438.644V102H416.131V100.778L418.716 100.496C419.218 100.433 419.515 100.308 419.609 100.12C419.703 99.932 419.75 99.2897 419.75 98.193V73.847C419.75 72.7503 419.703 72.108 419.609 71.92C419.515 71.732 419.218 71.6067 418.716 71.544L416.131 71.309V70.04H438.033V77.701H436.858L435.495 72.766C435.401 72.39 435.292 72.1237 435.166 71.967C435.072 71.779 434.869 71.6693 434.555 71.638C434.242 71.5753 433.709 71.544 432.957 71.544H423.839V85.127H430.137C430.889 85.127 431.422 85.1113 431.735 85.08C432.049 85.0173 432.252 84.9077 432.346 84.751C432.472 84.563 432.581 84.281 432.675 83.905L433.568 80.38H434.79V91.378H433.568L432.675 87.853C432.581 87.477 432.472 87.2107 432.346 87.054C432.252 86.866 432.049 86.7563 431.735 86.725C431.422 86.6623 430.889 86.631 430.137 86.631H423.839V100.496H433.521C434.273 100.496 434.806 100.48 435.119 100.449C435.433 100.386 435.636 100.277 435.73 100.12C435.856 99.932 435.965 99.65 436.059 99.274L437.422 94.339ZM462.383 71.309V70.04H471.36V71.309L468.775 71.544C468.274 71.6067 467.976 71.732 467.882 71.92C467.788 72.108 467.741 72.7503 467.741 73.847V91.143C467.741 94.715 466.911 97.5037 465.25 99.509C463.621 101.483 461.114 102.47 457.73 102.47C454.033 102.47 451.197 101.389 449.223 99.227C447.28 97.065 446.309 94.0883 446.309 90.297V73.847C446.309 72.7503 446.262 72.108 446.168 71.92C446.074 71.732 445.776 71.6067 445.275 71.544L442.69 71.309V70.04H454.017V71.309L451.432 71.544C450.931 71.6067 450.633 71.732 450.539 71.92C450.445 72.108 450.398 72.7503 450.398 73.847V91.002C450.398 94.3547 451.025 96.8457 452.278 98.475C453.563 100.104 455.505 100.919 458.106 100.919C460.738 100.919 462.712 100.089 464.028 98.428C465.344 96.7673 466.002 94.3547 466.002 91.19V73.847C466.002 72.7503 465.955 72.108 465.861 71.92C465.767 71.732 465.469 71.6067 464.968 71.544L462.383 71.309ZM475.203 71.309V70.04H488.269C491.339 70.04 493.689 70.7763 495.319 72.249C496.979 73.6903 497.81 75.6173 497.81 78.03V79.487C497.81 81.3983 497.277 83.0277 496.212 84.375C495.178 85.691 493.689 86.5997 491.747 87.101L497.763 98.193C498.17 98.945 498.468 99.4777 498.656 99.791C498.844 100.073 499.016 100.261 499.173 100.355C499.361 100.418 499.611 100.465 499.925 100.496L502.04 100.778V102H494.943L487.517 87.524H482.911V98.193C482.911 99.2897 482.958 99.932 483.052 100.12C483.146 100.308 483.443 100.433 483.945 100.496L486.53 100.778V102H475.203V100.778L477.788 100.496C478.289 100.433 478.587 100.308 478.681 100.12C478.775 99.932 478.822 99.2897 478.822 98.193V73.847C478.822 72.7503 478.775 72.108 478.681 71.92C478.587 71.732 478.289 71.6067 477.788 71.544L475.203 71.309ZM488.269 71.544H482.911V86.02H488.269C489.898 86.02 491.167 85.503 492.076 84.469C493.016 83.4037 493.486 81.8057 493.486 79.675V77.842C493.486 75.7113 493.016 74.129 492.076 73.095C491.167 72.061 489.898 71.544 488.269 71.544Z" fill="white"/>
<defs>
<filter id="filter0_d_121_41" x="9.77516e-05" y="5.5665" width="98.8667" height="98.8665" filterUnits="userSpaceOnUse" color-interpolation-filters="sRGB">
<feFlood flood-opacity="0" result="BackgroundImageFix"/>
<feColorMatrix in="SourceAlpha" type="matrix" values="0 0 0 0 0 0 0 0 0 0 0 0 0 0 0 0 0 0 127 0" result="hardAlpha"/>
<feOffset/>
<feGaussianBlur stdDeviation="3.05"/>
<feComposite in2="hardAlpha" operator="out"/>
<feColorMatrix type="matrix" values="0 0 0 0 0.831812 0 0 0 0 0.0826134 0 0 0 0 1 0 0 0 1 0"/>
<feBlend mode="normal" in2="BackgroundImageFix" result="effect1_dropShadow_121_41"/>
<feBlend mode="normal" in="SourceGraphic" in2="effect1_dropShadow_121_41" result="shape"/>
</filter>
</defs>
</svg>
