<svg width="1133" height="133" viewBox="0 0 1133 133" fill="none" xmlns="http://www.w3.org/2000/svg">
<rect width="1133" height="133" fill="white"/>
<path d="M702.092 63.588C702.075 63.588 702.049 63.5967 702.014 63.614C701.997 63.614 701.971 63.614 701.936 63.614C701.763 63.614 701.477 63.6053 701.078 63.588C700.679 63.5533 700.272 63.536 699.856 63.536C699.752 63.536 699.648 63.5447 699.544 63.562C699.44 63.562 699.345 63.562 699.258 63.562L692.732 63.952H692.576V70.27C692.576 70.8073 692.585 71.3273 692.602 71.83C692.637 72.3327 692.654 72.7313 692.654 73.026C692.654 73.1993 692.472 73.286 692.108 73.286C691.831 73.286 691.527 73.2167 691.198 73.078C690.869 72.9567 690.704 72.7833 690.704 72.558C690.704 72.35 690.713 72.0293 690.73 71.596C690.747 71.1453 690.756 70.6947 690.756 70.244V64.16C690.704 64.1773 690.643 64.186 690.574 64.186H690.548C690.323 64.186 690.123 64.03 689.95 63.718C689.794 63.3887 689.716 63.0853 689.716 62.808C689.716 62.5307 689.811 62.392 690.002 62.392H690.028C690.097 62.392 690.193 62.4007 690.314 62.418C690.435 62.418 690.583 62.418 690.756 62.418V57.686C690.756 57.1487 690.739 56.6287 690.704 56.126C690.687 55.6233 690.678 55.2247 690.678 54.93C690.678 54.7567 690.86 54.67 691.224 54.67C691.519 54.67 691.822 54.7393 692.134 54.878C692.463 54.9993 692.628 55.1727 692.628 55.398C692.628 55.606 692.619 55.9353 692.602 56.386C692.585 56.8193 692.576 57.2613 692.576 57.712V62.418H692.706L699.232 62.028C699.631 61.9933 700.038 61.9587 700.454 61.924C700.87 61.8893 701.182 61.8547 701.39 61.82H701.468C701.607 61.82 701.728 61.8807 701.832 62.002C701.936 62.106 702.023 62.2533 702.092 62.444V57.686C702.092 57.1487 702.075 56.6287 702.04 56.126C702.023 55.6233 702.014 55.2247 702.014 54.93C702.014 54.7567 702.196 54.67 702.56 54.67C702.855 54.67 703.158 54.7393 703.47 54.878C703.799 54.9993 703.964 55.1727 703.964 55.398C703.964 55.606 703.955 55.9353 703.938 56.386C703.921 56.8193 703.912 57.2613 703.912 57.712V70.244C703.912 70.7813 703.921 71.3013 703.938 71.804C703.973 72.3067 703.99 72.7053 703.99 73C703.99 73.1733 703.808 73.26 703.444 73.26C703.167 73.26 702.863 73.1907 702.534 73.052C702.205 72.9307 702.04 72.7573 702.04 72.532C702.04 72.324 702.049 72.0033 702.066 71.57C702.083 71.1193 702.092 70.6687 702.092 70.218V63.588ZM711.249 61.43C711.596 61.17 712.012 60.9273 712.497 60.702C712.982 60.4767 713.589 60.364 714.317 60.364C715.305 60.364 716.18 60.6153 716.943 61.118C717.706 61.6207 718.295 62.34 718.711 63.276C719.144 64.1947 719.361 65.3127 719.361 66.63C719.361 67.462 719.222 68.2853 718.945 69.1C718.685 69.8973 718.286 70.634 717.749 71.31C717.229 71.9687 716.579 72.4973 715.799 72.896C715.036 73.2773 714.152 73.468 713.147 73.468C711.414 73.468 710.062 72.948 709.091 71.908C708.138 70.8507 707.661 69.4207 707.661 67.618C707.661 66.8553 707.782 66.1013 708.025 65.356C708.285 64.5933 708.588 63.9 708.935 63.276C709.299 62.652 709.654 62.1493 710.001 61.768C710.348 61.3867 710.616 61.196 710.807 61.196C710.98 61.196 711.128 61.274 711.249 61.43ZM713.147 71.882C713.996 71.882 714.75 71.6567 715.409 71.206C716.085 70.738 716.622 70.1053 717.021 69.308C717.42 68.5107 717.619 67.618 717.619 66.63C717.619 65.1913 717.333 64.0473 716.761 63.198C716.206 62.3487 715.34 61.924 714.161 61.924C713.468 61.924 712.826 62.0887 712.237 62.418C711.665 62.7473 711.162 63.1893 710.729 63.744C710.313 64.2987 709.984 64.914 709.741 65.59C709.516 66.2487 709.403 66.916 709.403 67.592C709.403 69.0133 709.724 70.088 710.365 70.816C711.024 71.5267 711.951 71.882 713.147 71.882ZM737.913 65.382C737.913 64.342 737.739 63.51 737.393 62.886C737.046 62.2447 736.491 61.924 735.729 61.924C735.209 61.924 734.671 62.1147 734.117 62.496C733.579 62.8773 733.12 63.38 732.739 64.004C732.375 64.628 732.193 65.304 732.193 66.032V70.27C732.193 70.7553 732.21 71.2667 732.245 71.804C732.297 72.324 732.323 72.7313 732.323 73.026C732.323 73.1127 732.271 73.1733 732.167 73.208C732.063 73.26 731.941 73.286 731.803 73.286C731.525 73.286 731.231 73.2167 730.919 73.078C730.607 72.9567 730.451 72.7833 730.451 72.558C730.451 72.4193 730.459 72.2113 730.477 71.934C730.494 71.6393 730.511 71.336 730.529 71.024C730.546 70.712 730.555 70.4607 730.555 70.27V65.382C730.555 64.3593 730.407 63.5273 730.113 62.886C729.835 62.2447 729.341 61.924 728.631 61.924C728.267 61.924 727.877 62.0107 727.461 62.184C727.045 62.3573 726.646 62.678 726.265 63.146C725.883 63.5967 725.563 64.2553 725.303 65.122C725.095 65.8153 724.973 66.63 724.939 67.566C724.921 68.4847 724.904 69.386 724.887 70.27C724.887 70.8073 724.904 71.3273 724.939 71.83C724.991 72.3327 725.017 72.7313 725.017 73.026C725.017 73.1993 724.843 73.286 724.497 73.286C724.219 73.286 723.916 73.2167 723.587 73.078C723.275 72.9567 723.119 72.7833 723.119 72.558C723.119 72.4193 723.119 72.194 723.119 71.882C723.136 71.5527 723.145 71.232 723.145 70.92C723.162 70.608 723.171 70.3913 723.171 70.27V63.744C723.171 63.5707 723.162 63.2847 723.145 62.886C723.127 62.4873 723.11 62.08 723.093 61.664C723.093 61.2307 723.093 60.9187 723.093 60.728C723.093 60.5547 723.266 60.468 723.613 60.468C723.89 60.468 724.185 60.5373 724.497 60.676C724.826 60.7973 724.991 60.9707 724.991 61.196C724.991 61.3693 724.982 61.5773 724.965 61.82C724.965 62.0453 724.965 62.3313 724.965 62.678C725.311 61.9673 725.814 61.404 726.473 60.988C727.149 60.572 727.868 60.364 728.631 60.364C729.601 60.364 730.338 60.6067 730.841 61.092C731.343 61.5773 731.673 62.1407 731.829 62.782C732.279 61.9847 732.869 61.3867 733.597 60.988C734.325 60.572 735.061 60.364 735.807 60.364C736.708 60.364 737.436 60.6067 737.991 61.092C738.563 61.56 738.979 62.1753 739.239 62.938C739.499 63.6833 739.629 64.4633 739.629 65.278V70.27C739.629 70.374 739.629 70.608 739.629 70.972C739.646 71.336 739.663 71.7173 739.681 72.116C739.698 72.5147 739.707 72.818 739.707 73.026C739.707 73.1993 739.533 73.286 739.187 73.286C738.909 73.286 738.606 73.2167 738.277 73.078C737.965 72.9567 737.809 72.7833 737.809 72.558C737.809 72.4193 737.817 72.2113 737.835 71.934C737.852 71.6393 737.869 71.336 737.887 71.024C737.904 70.712 737.913 70.4607 737.913 70.27V65.382ZM745.333 67.904V68.164C745.333 69.2907 745.619 70.2007 746.191 70.894C746.781 71.5873 747.509 71.934 748.375 71.934C749.485 71.934 750.499 71.7607 751.417 71.414C752.353 71.05 753.168 70.4953 753.861 69.75C753.983 69.6113 754.095 69.516 754.199 69.464C754.303 69.3947 754.39 69.36 754.459 69.36C754.633 69.36 754.719 69.464 754.719 69.672C754.719 69.828 754.589 70.1053 754.329 70.504C754.087 70.9027 753.705 71.336 753.185 71.804C752.665 72.2547 752.007 72.6447 751.209 72.974C750.412 73.3033 749.467 73.468 748.375 73.468C747.491 73.468 746.685 73.2513 745.957 72.818C745.247 72.3673 744.683 71.726 744.267 70.894C743.851 70.062 743.643 69.074 743.643 67.93V67.566C743.487 67.4447 743.357 67.306 743.253 67.15C743.149 66.994 743.097 66.8553 743.097 66.734C743.097 66.5087 743.262 66.396 743.591 66.396C743.609 66.396 743.643 66.396 743.695 66.396C743.765 66.3787 743.808 66.37 743.825 66.37C743.947 65.746 744.189 65.0873 744.553 64.394C744.935 63.7007 745.411 63.0507 745.983 62.444C746.555 61.82 747.205 61.3173 747.933 60.936C748.679 60.5547 749.476 60.364 750.325 60.364C751.4 60.364 752.249 60.5547 752.873 60.936C753.515 61.3 753.965 61.7767 754.225 62.366C754.503 62.938 754.641 63.536 754.641 64.16C754.641 64.7493 754.589 65.2173 754.485 65.564C754.399 65.9107 754.182 66.1967 753.835 66.422C753.489 66.63 752.925 66.8553 752.145 67.098C751.365 67.3407 750.429 67.54 749.337 67.696C748.263 67.8347 747.041 67.904 745.671 67.904H745.333ZM746.061 66.448C747.344 66.448 748.419 66.3787 749.285 66.24C750.152 66.084 750.871 65.928 751.443 65.772C752.067 65.5813 752.466 65.3733 752.639 65.148C752.83 64.9227 752.925 64.5847 752.925 64.134C752.925 62.626 752.05 61.872 750.299 61.872C749.658 61.872 749.069 62.0193 748.531 62.314C747.994 62.6087 747.517 62.99 747.101 63.458C746.703 63.926 746.365 64.4287 746.087 64.966C745.827 65.486 745.645 65.98 745.541 66.448H746.061Z" fill="#20936F"/>
<path d="M797.292 67.15H797.188C796.91 67.7393 796.633 68.3113 796.356 68.866C796.078 69.4207 795.818 69.9407 795.576 70.426C795.437 70.7033 795.264 71.0847 795.056 71.57C794.865 72.0553 794.718 72.4453 794.614 72.74C794.562 72.8787 794.414 72.9827 794.172 73.052C793.946 73.1387 793.704 73.182 793.444 73.182C793.201 73.182 792.976 73.1387 792.768 73.052C792.577 72.9827 792.482 72.8613 792.482 72.688C792.482 72.584 792.516 72.4887 792.586 72.402C792.655 72.298 792.724 72.1853 792.794 72.064C792.863 71.9253 792.976 71.7 793.132 71.388C793.305 71.076 793.556 70.608 793.886 69.984C794.232 69.3427 794.692 68.4587 795.264 67.332H795.082C794.874 67.332 794.683 67.176 794.51 66.864C794.336 66.5347 794.25 66.24 794.25 65.98C794.25 65.72 794.345 65.59 794.536 65.59H794.588C794.744 65.6073 794.9 65.6247 795.056 65.642C795.212 65.642 795.394 65.642 795.602 65.642H796.096C796.685 64.4633 797.274 63.276 797.864 62.08C798.453 60.8667 798.99 59.7313 799.476 58.674C799.961 57.6167 800.342 56.7327 800.62 56.022C800.689 55.866 800.741 55.632 800.776 55.32C800.81 54.9907 800.871 54.774 800.958 54.67C801.044 54.566 801.209 54.514 801.452 54.514C801.746 54.514 802.05 54.592 802.362 54.748C802.674 54.8867 802.864 55.0427 802.934 55.216C802.934 55.2333 802.934 55.2507 802.934 55.268C802.951 55.2853 802.96 55.3027 802.96 55.32C802.96 55.3893 802.942 55.476 802.908 55.58C802.89 55.6667 802.882 55.7533 802.882 55.84C802.882 55.9267 802.89 55.9873 802.908 56.022C803.41 57.3567 803.991 58.8213 804.65 60.416C805.326 61.9933 806.028 63.588 806.756 65.2C807.484 66.812 808.186 68.3287 808.862 69.75C809 70.0273 809.217 70.426 809.512 70.946C809.806 71.466 810.092 71.9253 810.37 72.324C810.404 72.376 810.43 72.428 810.448 72.48C810.465 72.5147 810.474 72.5493 810.474 72.584C810.474 72.792 810.318 72.948 810.006 73.052C809.694 73.1733 809.39 73.234 809.096 73.234C808.905 73.234 808.732 73.208 808.576 73.156C808.42 73.104 808.324 73.026 808.29 72.922C808.186 72.61 808.038 72.2027 807.848 71.7C807.657 71.18 807.492 70.764 807.354 70.452C807.094 69.8973 806.825 69.3167 806.548 68.71C806.27 68.086 805.984 67.4447 805.69 66.786L797.292 67.15ZM805.04 65.304C804.398 63.8133 803.783 62.3573 803.194 60.936C802.604 59.5147 802.128 58.3273 801.764 57.374C801.469 58.0327 801.114 58.8127 800.698 59.714C800.299 60.6153 799.866 61.5687 799.398 62.574C798.93 63.5793 798.453 64.5847 797.968 65.59L805.04 65.304ZM814.411 72.324C814.376 72.4973 814.229 72.6793 813.969 72.87C813.709 73.0433 813.466 73.13 813.241 73.13C812.946 73.13 812.799 72.9567 812.799 72.61C812.799 72.402 812.808 72.0727 812.825 71.622C812.842 71.154 812.851 70.6947 812.851 70.244V57.582C812.851 57.0447 812.834 56.5247 812.799 56.022C812.782 55.5193 812.773 55.1207 812.773 54.826C812.773 54.6527 812.946 54.566 813.293 54.566C813.57 54.566 813.865 54.6353 814.177 54.774C814.506 54.8953 814.671 55.0687 814.671 55.294C814.671 55.502 814.654 55.8313 814.619 56.282C814.584 56.7153 814.567 57.1573 814.567 57.608V63.406C815.26 62.2273 816.006 61.43 816.803 61.014C817.618 60.5807 818.502 60.364 819.455 60.364C820.755 60.364 821.821 60.8233 822.653 61.742C823.485 62.6607 823.901 64.004 823.901 65.772C823.901 67.228 823.615 68.5367 823.043 69.698C822.471 70.8593 821.7 71.778 820.729 72.454C819.776 73.1127 818.71 73.442 817.531 73.442C816.855 73.442 816.248 73.2947 815.711 73C815.191 72.7053 814.784 72.324 814.489 71.856L814.411 72.324ZM814.515 70.374C814.584 70.3393 814.645 70.322 814.697 70.322C814.888 70.322 815.07 70.4607 815.243 70.738C815.59 71.2233 815.962 71.544 816.361 71.7C816.76 71.856 817.176 71.934 817.609 71.934C818.077 71.934 818.571 71.804 819.091 71.544C819.611 71.2667 820.105 70.868 820.573 70.348C821.041 69.828 821.414 69.1867 821.691 68.424C821.986 67.6613 822.133 66.7947 822.133 65.824C822.133 64.9227 822.003 64.186 821.743 63.614C821.483 63.042 821.145 62.6173 820.729 62.34C820.33 62.0627 819.906 61.924 819.455 61.924C818.727 61.924 818.034 62.1147 817.375 62.496C816.734 62.8773 816.179 63.406 815.711 64.082C815.243 64.758 814.914 65.538 814.723 66.422C814.671 66.6993 814.628 67.0807 814.593 67.566C814.558 68.0513 814.532 68.5453 814.515 69.048C814.515 69.5507 814.515 69.9927 814.515 70.374ZM830.407 61.43C830.754 61.17 831.17 60.9273 831.655 60.702C832.141 60.4767 832.747 60.364 833.475 60.364C834.463 60.364 835.339 60.6153 836.101 61.118C836.864 61.6207 837.453 62.34 837.869 63.276C838.303 64.1947 838.519 65.3127 838.519 66.63C838.519 67.462 838.381 68.2853 838.103 69.1C837.843 69.8973 837.445 70.634 836.907 71.31C836.387 71.9687 835.737 72.4973 834.957 72.896C834.195 73.2773 833.311 73.468 832.305 73.468C830.572 73.468 829.22 72.948 828.249 71.908C827.296 70.8507 826.819 69.4207 826.819 67.618C826.819 66.8553 826.941 66.1013 827.183 65.356C827.443 64.5933 827.747 63.9 828.093 63.276C828.457 62.652 828.813 62.1493 829.159 61.768C829.506 61.3867 829.775 61.196 829.965 61.196C830.139 61.196 830.286 61.274 830.407 61.43ZM832.305 71.882C833.155 71.882 833.909 71.6567 834.567 71.206C835.243 70.738 835.781 70.1053 836.179 69.308C836.578 68.5107 836.777 67.618 836.777 66.63C836.777 65.1913 836.491 64.0473 835.919 63.198C835.365 62.3487 834.498 61.924 833.319 61.924C832.626 61.924 831.985 62.0887 831.395 62.418C830.823 62.7473 830.321 63.1893 829.887 63.744C829.471 64.2987 829.142 64.914 828.899 65.59C828.674 66.2487 828.561 66.916 828.561 67.592C828.561 69.0133 828.882 70.088 829.523 70.816C830.182 71.5267 831.109 71.882 832.305 71.882ZM852.963 61.118C852.911 61.43 852.842 62.0887 852.755 63.094C852.686 64.0993 852.651 65.3473 852.651 66.838C852.651 66.9767 852.651 67.254 852.651 67.67C852.668 68.0687 852.703 68.5367 852.755 69.074C852.824 69.6113 852.928 70.1487 853.067 70.686C853.206 71.2233 853.396 71.6913 853.639 72.09C853.656 72.1247 853.665 72.1767 853.665 72.246C853.665 72.4367 853.544 72.6707 853.301 72.948C853.076 73.208 852.816 73.338 852.521 73.338C852.296 73.338 852.105 73.2253 851.949 73C851.793 72.7573 851.663 72.454 851.559 72.09C851.455 71.726 851.368 71.362 851.299 70.998C851.247 70.6167 851.212 70.296 851.195 70.036C850.727 70.9893 850.051 71.804 849.167 72.48C848.3 73.1387 847.33 73.468 846.255 73.468C845.25 73.468 844.461 73.234 843.889 72.766C843.334 72.298 842.936 71.6913 842.693 70.946C842.468 70.2007 842.355 69.4033 842.355 68.554V63.432C842.355 63.328 842.346 63.094 842.329 62.73C842.312 62.366 842.294 61.9847 842.277 61.586C842.277 61.17 842.277 60.8667 842.277 60.676C842.277 60.5027 842.45 60.416 842.797 60.416C843.074 60.416 843.369 60.4853 843.681 60.624C844.01 60.7453 844.175 60.9187 844.175 61.144C844.175 61.2827 844.166 61.4993 844.149 61.794C844.149 62.0713 844.14 62.366 844.123 62.678C844.123 62.9727 844.123 63.224 844.123 63.432V68.45C844.123 69.4553 844.305 70.2873 844.669 70.946C845.033 71.5873 845.562 71.908 846.255 71.908C846.966 71.908 847.668 71.622 848.361 71.05C849.072 70.478 849.67 69.6893 850.155 68.684C850.658 67.6613 850.944 66.4913 851.013 65.174C851.03 64.8967 851.039 64.5413 851.039 64.108C851.039 63.6573 851.039 63.198 851.039 62.73V60.65C851.039 60.4767 851.221 60.39 851.585 60.39C851.88 60.39 852.183 60.4507 852.495 60.572C852.807 60.6933 852.963 60.858 852.963 61.066V61.118ZM858.237 61.976H858.107C857.725 61.976 857.431 61.9933 857.223 62.028C857.015 62.0453 856.781 62.0627 856.521 62.08H856.495C856.269 62.08 856.079 61.95 855.923 61.69C855.767 61.43 855.689 61.1873 855.689 60.962C855.689 60.7193 855.784 60.598 855.975 60.598H858.237V59.272C858.237 59.0987 858.228 58.83 858.211 58.466C858.211 58.102 858.202 57.7293 858.185 57.348C858.185 56.9667 858.185 56.6807 858.185 56.49C858.185 56.4033 858.237 56.3427 858.341 56.308C858.445 56.256 858.566 56.23 858.705 56.23C858.982 56.23 859.277 56.2993 859.589 56.438C859.901 56.5593 860.057 56.7327 860.057 56.958C860.057 57.0967 860.048 57.3133 860.031 57.608C860.031 57.8853 860.022 58.18 860.005 58.492C860.005 58.804 860.005 59.064 860.005 59.272V60.52L860.733 60.494C861.045 60.4767 861.409 60.4507 861.825 60.416C862.241 60.3813 862.535 60.3553 862.709 60.338H862.735C862.96 60.338 863.151 60.468 863.307 60.728C863.48 60.988 863.567 61.2307 863.567 61.456C863.567 61.716 863.463 61.846 863.255 61.846C863.081 61.846 862.752 61.846 862.267 61.846C861.781 61.846 861.365 61.8547 861.019 61.872L860.005 61.898V70.192C860.005 70.8853 860.065 71.3273 860.187 71.518C860.308 71.7087 860.559 71.804 860.941 71.804C861.235 71.804 861.599 71.7087 862.033 71.518C862.483 71.3273 862.925 71.0673 863.359 70.738C863.653 70.5127 863.887 70.4 864.061 70.4C864.234 70.4 864.321 70.4953 864.321 70.686C864.321 70.842 864.208 71.076 863.983 71.388C863.775 71.6827 863.489 71.9947 863.125 72.324C862.778 72.636 862.388 72.9047 861.955 73.13C861.539 73.3553 861.123 73.468 860.707 73.468C859.805 73.468 859.164 73.1907 858.783 72.636C858.419 72.0813 858.237 71.2493 858.237 70.14V61.976ZM918.551 68.216C918.551 68.3893 918.43 68.684 918.187 69.1C917.962 69.4987 917.624 69.9493 917.173 70.452C916.723 70.9373 916.159 71.414 915.483 71.882C914.825 72.3327 914.062 72.7053 913.195 73C912.329 73.312 911.367 73.468 910.309 73.468C908.801 73.468 907.441 73.1907 906.227 72.636C905.031 72.0813 904.087 71.2147 903.393 70.036C902.7 68.84 902.353 67.2887 902.353 65.382C902.353 63.8567 902.587 62.4353 903.055 61.118C903.523 59.7833 904.173 58.622 905.005 57.634C905.855 56.6287 906.843 55.8487 907.969 55.294C909.096 54.7393 910.318 54.462 911.635 54.462C911.878 54.462 912.225 54.4793 912.675 54.514C913.143 54.5487 913.655 54.6353 914.209 54.774C914.764 54.9127 915.319 55.138 915.873 55.45C916.428 55.7447 916.922 56.152 917.355 56.672C917.407 56.7413 917.433 56.8367 917.433 56.958C917.433 57.2007 917.321 57.4693 917.095 57.764C916.87 58.0587 916.636 58.206 916.393 58.206C916.237 58.206 916.107 58.128 916.003 57.972C915.709 57.5213 915.336 57.1747 914.885 56.932C914.435 56.672 913.975 56.49 913.507 56.386C913.057 56.2647 912.649 56.1953 912.285 56.178C911.921 56.1433 911.67 56.126 911.531 56.126C910.561 56.126 909.633 56.3513 908.749 56.802C907.883 57.2353 907.103 57.868 906.409 58.7C905.733 59.5147 905.196 60.4853 904.797 61.612C904.416 62.7387 904.225 63.978 904.225 65.33C904.225 66.838 904.485 68.0687 905.005 69.022C905.543 69.9753 906.279 70.686 907.215 71.154C908.151 71.6047 909.235 71.83 910.465 71.83C911.263 71.83 912.103 71.6827 912.987 71.388C913.871 71.076 914.721 70.6427 915.535 70.088C916.35 69.5333 917.026 68.9007 917.563 68.19C917.771 67.93 917.979 67.8 918.187 67.8C918.43 67.8 918.551 67.9387 918.551 68.216ZM924.353 61.43C924.699 61.17 925.115 60.9273 925.601 60.702C926.086 60.4767 926.693 60.364 927.421 60.364C928.409 60.364 929.284 60.6153 930.047 61.118C930.809 61.6207 931.399 62.34 931.815 63.276C932.248 64.1947 932.465 65.3127 932.465 66.63C932.465 67.462 932.326 68.2853 932.049 69.1C931.789 69.8973 931.39 70.634 930.853 71.31C930.333 71.9687 929.683 72.4973 928.903 72.896C928.14 73.2773 927.256 73.468 926.251 73.468C924.517 73.468 923.165 72.948 922.195 71.908C921.241 70.8507 920.765 69.4207 920.765 67.618C920.765 66.8553 920.886 66.1013 921.129 65.356C921.389 64.5933 921.692 63.9 922.039 63.276C922.403 62.652 922.758 62.1493 923.105 61.768C923.451 61.3867 923.72 61.196 923.911 61.196C924.084 61.196 924.231 61.274 924.353 61.43ZM926.251 71.882C927.1 71.882 927.854 71.6567 928.513 71.206C929.189 70.738 929.726 70.1053 930.125 69.308C930.523 68.5107 930.723 67.618 930.723 66.63C930.723 65.1913 930.437 64.0473 929.865 63.198C929.31 62.3487 928.443 61.924 927.265 61.924C926.571 61.924 925.93 62.0887 925.341 62.418C924.769 62.7473 924.266 63.1893 923.833 63.744C923.417 64.2987 923.087 64.914 922.845 65.59C922.619 66.2487 922.507 66.916 922.507 67.592C922.507 69.0133 922.827 70.088 923.469 70.816C924.127 71.5267 925.055 71.882 926.251 71.882ZM945.036 72.558C945.054 72.4193 945.062 72.1853 945.062 71.856C945.062 71.5267 945.062 71.1887 945.062 70.842C945.08 70.478 945.088 70.2007 945.088 70.01V65.382C945.088 64.3593 944.95 63.5447 944.672 62.938C944.395 62.314 943.823 62.002 942.956 62.002C942.367 62.002 941.769 62.1147 941.162 62.34C940.573 62.5653 940.036 62.938 939.55 63.458C939.065 63.978 938.692 64.6713 938.432 65.538C938.311 65.9713 938.216 66.4827 938.146 67.072C938.094 67.644 938.06 68.216 938.042 68.788C938.042 69.36 938.034 69.854 938.016 70.27V70.686C938.016 71.102 938.025 71.5093 938.042 71.908C938.06 72.3067 938.077 72.6793 938.094 73.026C938.094 73.1993 937.93 73.286 937.6 73.286C937.323 73.286 937.028 73.2167 936.716 73.078C936.404 72.9567 936.248 72.7833 936.248 72.558C936.248 72.4193 936.248 72.168 936.248 71.804C936.266 71.44 936.274 71.0847 936.274 70.738C936.292 70.374 936.3 70.1313 936.3 70.01V63.536C936.3 63.3627 936.292 63.094 936.274 62.73C936.257 62.366 936.24 61.9933 936.222 61.612C936.222 61.2307 936.222 60.9447 936.222 60.754C936.222 60.5807 936.387 60.494 936.716 60.494C936.994 60.494 937.288 60.5633 937.6 60.702C937.912 60.8233 938.068 60.9967 938.068 61.222C938.068 61.222 938.06 61.3433 938.042 61.586C938.042 61.8287 938.034 62.106 938.016 62.418C938.016 62.73 938.016 62.9987 938.016 63.224C938.571 62.3053 939.29 61.6033 940.174 61.118C941.076 60.6327 942.003 60.39 942.956 60.39C943.788 60.39 944.456 60.546 944.958 60.858C945.478 61.1527 945.868 61.5427 946.128 62.028C946.406 62.5133 946.588 63.042 946.674 63.614C946.761 64.186 946.804 64.7407 946.804 65.278V70.27C946.804 70.374 946.813 70.608 946.83 70.972C946.848 71.336 946.856 71.7173 946.856 72.116C946.874 72.5147 946.882 72.818 946.882 73.026C946.882 73.1993 946.718 73.286 946.388 73.286C946.111 73.286 945.816 73.2167 945.504 73.078C945.192 72.9567 945.036 72.792 945.036 72.584V72.558ZM952.131 61.976H952.001C951.62 61.976 951.325 61.9933 951.117 62.028C950.909 62.0453 950.675 62.0627 950.415 62.08H950.389C950.164 62.08 949.973 61.95 949.817 61.69C949.661 61.43 949.583 61.1873 949.583 60.962C949.583 60.7193 949.679 60.598 949.869 60.598H952.131V59.272C952.131 59.0987 952.123 58.83 952.105 58.466C952.105 58.102 952.097 57.7293 952.079 57.348C952.079 56.9667 952.079 56.6807 952.079 56.49C952.079 56.4033 952.131 56.3427 952.235 56.308C952.339 56.256 952.461 56.23 952.599 56.23C952.877 56.23 953.171 56.2993 953.483 56.438C953.795 56.5593 953.951 56.7327 953.951 56.958C953.951 57.0967 953.943 57.3133 953.925 57.608C953.925 57.8853 953.917 58.18 953.899 58.492C953.899 58.804 953.899 59.064 953.899 59.272V60.52L954.627 60.494C954.939 60.4767 955.303 60.4507 955.719 60.416C956.135 60.3813 956.43 60.3553 956.603 60.338H956.629C956.855 60.338 957.045 60.468 957.201 60.728C957.375 60.988 957.461 61.2307 957.461 61.456C957.461 61.716 957.357 61.846 957.149 61.846C956.976 61.846 956.647 61.846 956.161 61.846C955.676 61.846 955.26 61.8547 954.913 61.872L953.899 61.898V70.192C953.899 70.8853 953.96 71.3273 954.081 71.518C954.203 71.7087 954.454 71.804 954.835 71.804C955.13 71.804 955.494 71.7087 955.927 71.518C956.378 71.3273 956.82 71.0673 957.253 70.738C957.548 70.5127 957.782 70.4 957.955 70.4C958.129 70.4 958.215 70.4953 958.215 70.686C958.215 70.842 958.103 71.076 957.877 71.388C957.669 71.6827 957.383 71.9947 957.019 72.324C956.673 72.636 956.283 72.9047 955.849 73.13C955.433 73.3553 955.017 73.468 954.601 73.468C953.7 73.468 953.059 73.1907 952.677 72.636C952.313 72.0813 952.131 71.2493 952.131 70.14V61.976ZM971.277 61.118C971.225 61.4993 971.173 62.0107 971.121 62.652C971.086 63.276 971.051 63.9433 971.017 64.654C970.999 65.3473 970.982 65.9973 970.965 66.604C970.947 67.2107 970.939 67.67 970.939 67.982C970.939 68.2247 970.947 68.5887 970.965 69.074C970.999 69.542 971.077 70.0447 971.199 70.582C971.337 71.1193 971.554 71.622 971.849 72.09C971.883 72.1593 971.901 72.2113 971.901 72.246C971.901 72.4367 971.779 72.6707 971.537 72.948C971.311 73.208 971.051 73.338 970.757 73.338C970.497 73.338 970.263 73.156 970.055 72.792C969.864 72.4107 969.708 71.96 969.587 71.44C969.483 70.9027 969.405 70.4 969.353 69.932C968.711 71.1453 967.931 72.038 967.013 72.61C966.111 73.182 965.175 73.468 964.205 73.468C962.939 73.468 961.925 73.0433 961.163 72.194C960.4 71.3273 960.019 70.0793 960.019 68.45C960.019 67.3407 960.201 66.3007 960.565 65.33C960.929 64.3593 961.414 63.5013 962.021 62.756C962.645 62.0107 963.338 61.43 964.101 61.014C964.863 60.5807 965.643 60.364 966.441 60.364C967.047 60.364 967.602 60.5027 968.105 60.78C968.607 61.04 969.006 61.4733 969.301 62.08V60.65C969.301 60.4767 969.483 60.39 969.847 60.39C970.141 60.39 970.453 60.4507 970.783 60.572C971.112 60.6933 971.277 60.858 971.277 61.066V61.118ZM969.275 63.12C969.119 63.276 968.971 63.354 968.833 63.354C968.763 63.354 968.703 63.3193 968.651 63.25C968.356 62.7473 968.009 62.392 967.611 62.184C967.229 61.976 966.839 61.872 966.441 61.872C965.903 61.872 965.357 62.0367 964.803 62.366C964.265 62.678 963.763 63.1287 963.295 63.718C962.844 64.29 962.48 64.9747 962.203 65.772C961.925 66.552 961.787 67.4013 961.787 68.32C961.787 69.6373 962.012 70.5647 962.463 71.102C962.913 71.6393 963.485 71.908 964.179 71.908C965.011 71.908 965.799 71.6393 966.545 71.102C967.29 70.5473 967.905 69.7847 968.391 68.814C968.893 67.8433 969.171 66.7167 969.223 65.434C969.24 65.1913 969.249 64.8533 969.249 64.42C969.249 63.9867 969.257 63.5533 969.275 63.12ZM986.154 69.282C986.154 69.386 986.032 69.6633 985.79 70.114C985.547 70.5473 985.174 71.024 984.672 71.544C984.169 72.064 983.528 72.5147 982.748 72.896C981.985 73.2773 981.075 73.468 980.018 73.468C979.116 73.468 978.276 73.26 977.496 72.844C976.733 72.4107 976.118 71.7867 975.65 70.972C975.199 70.14 974.974 69.1347 974.974 67.956C974.974 66.916 975.164 65.9367 975.546 65.018C975.944 64.0993 976.464 63.2933 977.106 62.6C977.747 61.9067 978.466 61.3607 979.264 60.962C980.061 60.5633 980.858 60.364 981.656 60.364C982.366 60.364 982.964 60.468 983.45 60.676C983.935 60.8667 984.316 61.1007 984.594 61.378C984.888 61.6553 985.096 61.9153 985.218 62.158C985.356 62.3833 985.426 62.522 985.426 62.574C985.426 62.8513 985.296 63.12 985.036 63.38C984.776 63.64 984.542 63.77 984.334 63.77C984.23 63.77 984.152 63.7267 984.1 63.64C983.978 63.3973 983.857 63.1633 983.736 62.938C983.614 62.7127 983.458 62.5393 983.268 62.418C982.765 62.0713 982.245 61.898 981.708 61.898C981.17 61.898 980.607 62.054 980.018 62.366C979.446 62.678 978.908 63.1113 978.406 63.666C977.92 64.2033 977.522 64.8273 977.21 65.538C976.898 66.2487 976.742 67.0113 976.742 67.826C976.742 68.7273 976.906 69.49 977.236 70.114C977.582 70.7207 978.007 71.18 978.51 71.492C979.012 71.804 979.515 71.96 980.018 71.96C980.763 71.96 981.456 71.83 982.098 71.57C982.739 71.31 983.328 70.9807 983.866 70.582C984.42 70.166 984.897 69.7587 985.296 69.36C985.556 69.1 985.764 68.97 985.92 68.97C986.076 68.97 986.154 69.074 986.154 69.282ZM990.243 61.976H990.113C989.731 61.976 989.437 61.9933 989.229 62.028C989.021 62.0453 988.787 62.0627 988.527 62.08H988.501C988.275 62.08 988.085 61.95 987.929 61.69C987.773 61.43 987.695 61.1873 987.695 60.962C987.695 60.7193 987.79 60.598 987.981 60.598H990.243V59.272C990.243 59.0987 990.234 58.83 990.217 58.466C990.217 58.102 990.208 57.7293 990.191 57.348C990.191 56.9667 990.191 56.6807 990.191 56.49C990.191 56.4033 990.243 56.3427 990.347 56.308C990.451 56.256 990.572 56.23 990.711 56.23C990.988 56.23 991.283 56.2993 991.595 56.438C991.907 56.5593 992.063 56.7327 992.063 56.958C992.063 57.0967 992.054 57.3133 992.037 57.608C992.037 57.8853 992.028 58.18 992.011 58.492C992.011 58.804 992.011 59.064 992.011 59.272V60.52L992.739 60.494C993.051 60.4767 993.415 60.4507 993.831 60.416C994.247 60.3813 994.541 60.3553 994.715 60.338H994.741C994.966 60.338 995.157 60.468 995.313 60.728C995.486 60.988 995.573 61.2307 995.573 61.456C995.573 61.716 995.469 61.846 995.261 61.846C995.087 61.846 994.758 61.846 994.273 61.846C993.787 61.846 993.371 61.8547 993.025 61.872L992.011 61.898V70.192C992.011 70.8853 992.071 71.3273 992.193 71.518C992.314 71.7087 992.565 71.804 992.947 71.804C993.241 71.804 993.605 71.7087 994.039 71.518C994.489 71.3273 994.931 71.0673 995.365 70.738C995.659 70.5127 995.893 70.4 996.067 70.4C996.24 70.4 996.327 70.4953 996.327 70.686C996.327 70.842 996.214 71.076 995.989 71.388C995.781 71.6827 995.495 71.9947 995.131 72.324C994.784 72.636 994.394 72.9047 993.961 73.13C993.545 73.3553 993.129 73.468 992.713 73.468C991.811 73.468 991.17 73.1907 990.789 72.636C990.425 72.0813 990.243 71.2493 990.243 70.14V61.976ZM1026.7 56.568C1027.36 58.804 1027.96 61.0487 1028.49 63.302C1029.03 65.5553 1029.56 67.9213 1030.08 70.4C1030.69 67.8867 1031.32 65.512 1031.98 63.276C1032.64 61.04 1033.23 58.986 1033.77 57.114C1033.86 56.854 1033.93 56.6027 1033.98 56.36C1034.03 56.1 1034.07 55.84 1034.08 55.58C1034.08 55.3893 1034.18 55.2593 1034.37 55.19C1034.58 55.1033 1034.8 55.06 1035.05 55.06C1035.36 55.06 1035.66 55.112 1035.96 55.216C1036.27 55.32 1036.43 55.4673 1036.45 55.658C1036.48 55.8833 1036.52 56.0567 1036.55 56.178C1036.59 56.282 1036.62 56.412 1036.66 56.568C1037.11 58.076 1037.54 59.6447 1037.96 61.274C1038.39 62.886 1038.8 64.4807 1039.18 66.058C1039.56 67.618 1039.9 69.074 1040.19 70.426C1040.89 67.8953 1041.53 65.5813 1042.12 63.484C1042.72 61.3867 1043.3 59.454 1043.83 57.686C1043.97 57.2527 1044.11 56.7847 1044.25 56.282C1044.39 55.762 1044.52 55.2593 1044.64 54.774C1044.69 54.6007 1044.85 54.514 1045.11 54.514C1045.32 54.514 1045.54 54.566 1045.78 54.67C1046.03 54.7567 1046.23 54.878 1046.41 55.034C1046.58 55.1727 1046.67 55.3287 1046.67 55.502C1046.67 55.554 1046.66 55.5973 1046.64 55.632C1046.45 56.0827 1046.23 56.6633 1045.97 57.374C1045.71 58.0673 1045.38 58.986 1045 60.13C1044.62 61.274 1044.16 62.73 1043.63 64.498C1043.09 66.2487 1042.45 68.398 1041.7 70.946C1041.63 71.2233 1041.56 71.5267 1041.49 71.856C1041.42 72.168 1041.35 72.4887 1041.26 72.818C1041.16 73.2513 1040.9 73.468 1040.48 73.468C1040.18 73.468 1039.87 73.3293 1039.54 73.052C1039.21 72.7747 1038.98 72.3587 1038.84 71.804C1038.48 70.244 1038.1 68.658 1037.7 67.046C1037.32 65.434 1036.93 63.848 1036.53 62.288C1036.13 60.728 1035.74 59.2633 1035.36 57.894C1034.96 59.1593 1034.54 60.5373 1034.11 62.028C1033.69 63.5187 1033.27 65.0353 1032.84 66.578C1032.42 68.1033 1032.01 69.568 1031.61 70.972C1031.54 71.232 1031.47 71.518 1031.41 71.83C1031.34 72.1247 1031.24 72.4627 1031.12 72.844C1030.98 73.2427 1030.73 73.442 1030.37 73.442C1030.09 73.442 1029.79 73.3033 1029.48 73.026C1029.17 72.7487 1028.94 72.3413 1028.81 71.804C1028.51 70.5907 1028.19 69.3167 1027.84 67.982C1027.51 66.6473 1027.18 65.3213 1026.83 64.004C1026.48 62.6867 1026.14 61.4473 1025.82 60.286C1025.49 59.1247 1025.18 58.102 1024.91 57.218C1024.63 56.334 1024.39 55.6667 1024.2 55.216C1024.19 55.1813 1024.18 55.138 1024.18 55.086C1024.18 54.9473 1024.26 54.8433 1024.44 54.774C1024.63 54.7047 1024.84 54.67 1025.09 54.67C1025.38 54.67 1025.65 54.7133 1025.89 54.8C1026.15 54.8867 1026.3 55.0167 1026.34 55.19L1026.7 56.568ZM1051.08 61.43C1051.42 61.17 1051.84 60.9273 1052.33 60.702C1052.81 60.4767 1053.42 60.364 1054.15 60.364C1055.13 60.364 1056.01 60.6153 1056.77 61.118C1057.53 61.6207 1058.12 62.34 1058.54 63.276C1058.97 64.1947 1059.19 65.3127 1059.19 66.63C1059.19 67.462 1059.05 68.2853 1058.77 69.1C1058.51 69.8973 1058.11 70.634 1057.58 71.31C1057.06 71.9687 1056.41 72.4973 1055.63 72.896C1054.86 73.2773 1053.98 73.468 1052.98 73.468C1051.24 73.468 1049.89 72.948 1048.92 71.908C1047.97 70.8507 1047.49 69.4207 1047.49 67.618C1047.49 66.8553 1047.61 66.1013 1047.85 65.356C1048.11 64.5933 1048.42 63.9 1048.76 63.276C1049.13 62.652 1049.48 62.1493 1049.83 61.768C1050.18 61.3867 1050.44 61.196 1050.64 61.196C1050.81 61.196 1050.96 61.274 1051.08 61.43ZM1052.98 71.882C1053.82 71.882 1054.58 71.6567 1055.24 71.206C1055.91 70.738 1056.45 70.1053 1056.85 69.308C1057.25 68.5107 1057.45 67.618 1057.45 66.63C1057.45 65.1913 1057.16 64.0473 1056.59 63.198C1056.03 62.3487 1055.17 61.924 1053.99 61.924C1053.3 61.924 1052.65 62.0887 1052.07 62.418C1051.49 62.7473 1050.99 63.1893 1050.56 63.744C1050.14 64.2987 1049.81 64.914 1049.57 65.59C1049.34 66.2487 1049.23 66.916 1049.23 67.592C1049.23 69.0133 1049.55 70.088 1050.19 70.816C1050.85 71.5267 1051.78 71.882 1052.98 71.882ZM1063.08 63.458C1063.08 63.2847 1063.07 63.016 1063.05 62.652C1063.03 62.288 1063.02 61.9153 1063 61.534C1063 61.1527 1063 60.8667 1063 60.676C1063 60.5027 1063.17 60.416 1063.52 60.416C1063.8 60.416 1064.09 60.4853 1064.4 60.624C1064.73 60.7453 1064.9 60.9187 1064.9 61.144C1064.9 61.3173 1064.88 61.508 1064.84 61.716C1064.83 61.924 1064.82 62.1753 1064.82 62.47C1065.17 61.898 1065.66 61.404 1066.3 60.988C1066.94 60.572 1067.71 60.364 1068.61 60.364C1069.13 60.364 1069.62 60.4507 1070.07 60.624C1070.52 60.7973 1070.89 61.0053 1071.16 61.248C1071.46 61.4907 1071.6 61.716 1071.6 61.924C1071.6 62.2013 1071.5 62.496 1071.29 62.808C1071.1 63.12 1070.89 63.276 1070.67 63.276C1070.53 63.276 1070.41 63.1893 1070.3 63.016C1070.13 62.6867 1069.85 62.444 1069.47 62.288C1069.11 62.132 1068.8 62.054 1068.54 62.054C1067.81 62.054 1067.13 62.2793 1066.51 62.73C1065.9 63.1807 1065.45 63.874 1065.16 64.81C1065.04 65.1913 1064.95 65.616 1064.9 66.084C1064.84 66.552 1064.81 67.1153 1064.79 67.774C1064.79 68.4327 1064.79 69.256 1064.79 70.244C1064.79 70.7813 1064.81 71.3013 1064.84 71.804C1064.9 72.3067 1064.92 72.7053 1064.92 73C1064.92 73.1733 1064.75 73.26 1064.4 73.26C1064.13 73.26 1063.82 73.1907 1063.49 73.052C1063.18 72.9307 1063.02 72.7573 1063.02 72.532C1063.02 72.3933 1063.02 72.168 1063.02 71.856C1063.04 71.5267 1063.05 71.206 1063.05 70.894C1063.07 70.582 1063.08 70.3653 1063.08 70.244V63.458ZM1074.2 57.66C1074.2 57.4867 1074.19 57.218 1074.17 56.854C1074.15 56.49 1074.14 56.1173 1074.12 55.736C1074.12 55.3547 1074.12 55.0687 1074.12 54.878C1074.12 54.7047 1074.29 54.618 1074.64 54.618C1074.92 54.618 1075.21 54.6873 1075.52 54.826C1075.85 54.9473 1076.02 55.1207 1076.02 55.346C1076.02 55.4847 1076.01 55.7013 1075.99 55.996C1075.97 56.2733 1075.96 56.568 1075.94 56.88C1075.92 57.192 1075.91 57.452 1075.91 57.66V64.836L1080.8 61.456C1081.03 61.3 1081.23 61.1353 1081.4 60.962C1081.59 60.7887 1081.74 60.65 1081.84 60.546C1081.91 60.4593 1082.05 60.416 1082.26 60.416C1082.46 60.416 1082.69 60.4593 1082.93 60.546C1083.18 60.6327 1083.38 60.7453 1083.56 60.884C1083.73 61.0053 1083.82 61.1267 1083.82 61.248C1083.82 61.3173 1083.77 61.378 1083.69 61.43C1083.32 61.6727 1082.97 61.898 1082.62 62.106C1082.27 62.2967 1081.99 62.47 1081.76 62.626L1077.81 65.382C1078.31 65.8673 1078.89 66.4653 1079.55 67.176C1080.23 67.8867 1080.91 68.5973 1081.61 69.308C1082.3 70.0187 1082.92 70.6513 1083.45 71.206C1083.64 71.3793 1083.87 71.5613 1084.13 71.752C1084.39 71.9427 1084.66 72.0987 1084.93 72.22C1085.02 72.2547 1085.06 72.3153 1085.06 72.402C1085.06 72.5233 1084.98 72.662 1084.8 72.818C1084.65 72.9567 1084.46 73.078 1084.23 73.182C1084.01 73.3033 1083.8 73.364 1083.61 73.364C1083.49 73.364 1083.4 73.338 1083.35 73.286C1083.12 73.1127 1082.89 72.922 1082.65 72.714C1082.4 72.506 1082.19 72.3067 1082 72.116C1081.65 71.752 1081.24 71.3187 1080.77 70.816C1080.31 70.3133 1079.82 69.7847 1079.32 69.23C1078.82 68.6753 1078.32 68.1467 1077.84 67.644C1077.35 67.124 1076.92 66.6733 1076.54 66.292L1075.91 66.682V70.244C1075.91 70.348 1075.92 70.582 1075.94 70.946C1075.97 71.31 1076 71.6913 1076.02 72.09C1076.03 72.4887 1076.04 72.792 1076.04 73C1076.04 73.1733 1075.87 73.26 1075.52 73.26C1075.25 73.26 1074.94 73.1907 1074.61 73.052C1074.3 72.9307 1074.14 72.7573 1074.14 72.532C1074.14 72.3933 1074.14 72.168 1074.14 71.856C1074.16 71.5267 1074.17 71.206 1074.17 70.894C1074.19 70.582 1074.2 70.3653 1074.2 70.244V57.66ZM1090.13 66.708C1089.16 66.4827 1088.43 66.136 1087.94 65.668C1087.46 65.1827 1087.22 64.5413 1087.22 63.744C1087.22 63.068 1087.43 62.4787 1087.87 61.976C1088.3 61.4733 1088.88 61.0833 1089.61 60.806C1090.34 60.5113 1091.13 60.364 1091.97 60.364C1092.98 60.364 1093.8 60.5113 1094.44 60.806C1095.09 61.0833 1095.65 61.482 1096.13 62.002C1096.17 62.0367 1096.19 62.1147 1096.19 62.236C1096.19 62.4613 1096.09 62.7127 1095.9 62.99C1095.73 63.2673 1095.55 63.406 1095.35 63.406C1095.25 63.406 1095.11 63.2933 1094.94 63.068C1094.68 62.6693 1094.35 62.3833 1093.95 62.21C1093.57 62.0193 1093.2 61.9067 1092.83 61.872C1092.47 61.82 1092.18 61.794 1091.97 61.794C1090.97 61.794 1090.21 61.9933 1089.69 62.392C1089.17 62.7733 1088.91 63.2413 1088.91 63.796C1088.91 64.1427 1089.02 64.4373 1089.24 64.68C1089.49 64.9227 1089.96 65.1307 1090.67 65.304L1093.17 65.902C1094.3 66.162 1095.18 66.5867 1095.82 67.176C1096.48 67.7653 1096.81 68.5973 1096.81 69.672C1096.81 70.3653 1096.6 70.998 1096.19 71.57C1095.79 72.142 1095.22 72.6013 1094.47 72.948C1093.73 73.2947 1092.84 73.468 1091.82 73.468C1090.81 73.468 1089.97 73.3467 1089.3 73.104C1088.64 72.8613 1088.11 72.5753 1087.71 72.246C1087.31 71.9167 1087.03 71.6133 1086.85 71.336C1086.68 71.0587 1086.59 70.8767 1086.59 70.79C1086.59 70.53 1086.71 70.2613 1086.96 69.984C1087.22 69.6893 1087.44 69.542 1087.63 69.542C1087.75 69.542 1087.84 69.6027 1087.89 69.724C1088.03 70.0707 1088.22 70.4173 1088.46 70.764C1088.72 71.1107 1089.11 71.3967 1089.63 71.622C1090.15 71.8473 1090.88 71.96 1091.82 71.96C1092.88 71.96 1093.68 71.7347 1094.24 71.284C1094.81 70.8333 1095.09 70.3133 1095.09 69.724C1095.09 69.1173 1094.94 68.6233 1094.63 68.242C1094.31 67.8607 1093.68 67.5573 1092.73 67.332L1090.13 66.708Z" fill="black"/>
<path d="M688 76.25H756.148V77.55H688V76.25Z" fill="#20936F"/>
<mask id="path-2-inside-1_214_65" fill="white">
<rect width="48.233" height="48.233" rx="6" transform="matrix(0.736148 -0.676821 0.736148 0.676821 35 78.355)"/>
</mask>
<rect width="48.233" height="48.233" rx="6" transform="matrix(0.736148 -0.676821 0.736148 0.676821 35 78.355)" stroke="#843939" stroke-width="22" mask="url(#path-2-inside-1_214_65)"/>
<path d="M70.7852 28.5C86.05 28.5002 97.62 39.7739 97.6201 52.7295C97.6201 65.6852 86.0501 76.9588 70.7852 76.959C55.5201 76.959 43.9492 65.6852 43.9492 52.7295C43.9493 39.7738 55.5201 28.5 70.7852 28.5Z" stroke="#8DAD76" stroke-width="11"/>
<path d="M141.616 59.5806C141.512 59.216 141.303 58.9686 140.991 58.8384C140.705 58.7082 140.379 58.6431 140.014 58.6431C139.676 58.617 139.337 58.63 138.999 58.6821C138.66 58.7342 138.4 58.7603 138.218 58.7603C137.775 58.7342 137.007 58.6821 135.913 58.604C134.819 58.5259 133.634 58.4478 132.358 58.3696C131.108 58.2655 129.936 58.1743 128.843 58.0962C127.749 57.992 126.981 57.9269 126.538 57.9009C126.538 57.8488 126.525 57.7186 126.499 57.5103C126.473 57.3019 126.46 57.1587 126.46 57.0806C126.46 56.716 126.486 56.3905 126.538 56.104C126.616 55.8175 126.876 55.5962 127.319 55.4399C129.767 55.492 132.176 55.479 134.546 55.4009C136.941 55.3228 139.324 55.2186 141.694 55.0884C144.09 54.9321 146.473 54.7889 148.843 54.6587C151.238 54.5285 153.647 54.4634 156.069 54.4634C156.069 55.453 155.835 56.1821 155.366 56.6509C154.897 57.0936 154.311 57.3931 153.608 57.5493C152.931 57.7056 152.176 57.7707 151.343 57.7446C150.509 57.7186 149.702 57.7316 148.921 57.7837C148.165 57.8358 147.488 57.992 146.889 58.2524C146.316 58.4868 145.939 58.9295 145.757 59.5806C145.731 59.7368 145.705 60.0363 145.678 60.479C145.652 60.9217 145.626 61.3905 145.6 61.8853C145.6 62.38 145.587 62.8488 145.561 63.2915C145.561 63.7082 145.561 64.0076 145.561 64.1899C145.561 65.6743 145.744 67.1457 146.108 68.604C146.499 70.0363 146.915 71.4686 147.358 72.9009C147.827 74.3071 148.244 75.7264 148.608 77.1587C148.999 78.5649 149.194 79.9972 149.194 81.4556C149.194 82.5493 148.569 83.0962 147.319 83.0962C146.564 83.0962 145.887 82.5754 145.288 81.5337C144.715 80.492 144.207 79.1639 143.764 77.5493C143.348 75.9347 142.996 74.1769 142.71 72.2759C142.449 70.3748 142.228 68.5519 142.046 66.8071C141.889 65.0623 141.772 63.5259 141.694 62.1978C141.642 60.8696 141.616 59.9972 141.616 59.5806ZM158.257 66.6118C158.257 66.3774 158.27 66.1431 158.296 65.9087C158.322 65.6483 158.374 65.4269 158.452 65.2446C158.53 65.0363 158.647 64.867 158.803 64.7368C158.986 64.6066 159.233 64.5415 159.546 64.5415C159.806 64.5415 160.093 64.7498 160.405 65.1665C160.744 65.5571 161.082 66.0649 161.421 66.6899C161.759 67.2889 162.085 67.953 162.397 68.6821C162.736 69.4113 163.022 70.0884 163.257 70.7134C163.517 71.3123 163.725 71.8332 163.882 72.2759C164.038 72.7186 164.129 72.953 164.155 72.979C164.494 72.0675 164.871 71.078 165.288 70.0103C165.705 68.9425 166.212 67.953 166.811 67.0415C167.436 66.104 168.165 65.3228 168.999 64.6978C169.858 64.0728 170.9 63.7603 172.124 63.7603C172.749 63.7603 173.335 63.8644 173.882 64.0728C174.455 64.255 174.949 64.5415 175.366 64.9321C175.809 65.2967 176.16 65.7394 176.421 66.2603C176.681 66.7811 176.811 67.38 176.811 68.0571C176.811 68.63 176.577 69.0337 176.108 69.2681C175.665 69.5024 175.158 69.6196 174.585 69.6196H174.194L172.514 67.9399C172.462 67.9399 172.423 67.9269 172.397 67.9009C172.345 67.9009 172.293 67.9009 172.241 67.9009C172.215 67.8748 172.176 67.8618 172.124 67.8618C171.212 67.8618 170.496 68.1222 169.975 68.6431C169.481 69.1379 169.103 69.7629 168.843 70.5181C168.582 71.2472 168.413 72.0285 168.335 72.8618C168.283 73.6691 168.257 74.4113 168.257 75.0884C168.257 75.6092 168.309 76.1431 168.413 76.6899C168.517 77.2108 168.634 77.7316 168.764 78.2524C168.895 78.7472 169.012 79.2681 169.116 79.8149C169.22 80.3358 169.272 80.8826 169.272 81.4556C169.272 82.5493 168.686 83.0962 167.514 83.0962C166.863 83.0962 166.186 82.7576 165.483 82.0806C164.78 81.3774 164.077 80.492 163.374 79.4243C162.697 78.3566 162.046 77.1847 161.421 75.9087C160.796 74.6066 160.249 73.3436 159.78 72.1196C159.311 70.8957 158.934 69.7889 158.647 68.7993C158.387 67.8097 158.257 67.0806 158.257 66.6118ZM178.218 72.1587C178.218 70.7524 178.387 69.3462 178.725 67.9399C179.064 66.5337 179.598 65.2707 180.327 64.1509C181.082 63.0311 182.046 62.1196 183.218 61.4165C184.415 60.7134 185.861 60.3618 187.553 60.3618C188.517 60.3618 189.363 60.5441 190.093 60.9087C190.822 61.2472 191.434 61.703 191.928 62.2759C192.423 62.8488 192.788 63.5259 193.022 64.3071C193.283 65.0623 193.413 65.8566 193.413 66.6899C193.413 68.0181 193.1 69.3071 192.475 70.5571C191.876 71.8071 191.056 72.9139 190.014 73.8774C188.999 74.8149 187.827 75.5311 186.499 76.0259C185.171 76.4946 183.816 76.5988 182.436 76.3384C182.462 77.0936 182.71 77.7056 183.178 78.1743C183.673 78.617 184.259 78.9556 184.936 79.1899C185.613 79.4243 186.316 79.5806 187.046 79.6587C187.775 79.7108 188.426 79.7368 188.999 79.7368C189.598 79.7368 190.158 79.6847 190.678 79.5806C191.199 79.4764 191.72 79.3592 192.241 79.229C192.762 79.0988 193.283 78.9816 193.803 78.8774C194.35 78.7733 194.923 78.7212 195.522 78.7212C195.757 78.7212 195.991 78.7342 196.225 78.7603C196.46 78.7863 196.681 78.8514 196.889 78.9556C197.098 79.0337 197.267 79.1769 197.397 79.3853C197.527 79.5675 197.593 79.8019 197.593 80.0884C197.593 80.5832 197.41 80.9998 197.046 81.3384C196.681 81.6509 196.212 81.9243 195.639 82.1587C195.093 82.3931 194.481 82.5754 193.803 82.7056C193.126 82.8097 192.462 82.9009 191.811 82.979C191.186 83.0311 190.6 83.0571 190.053 83.0571C189.533 83.0832 189.142 83.0962 188.882 83.0962C187.215 83.0962 185.718 82.8358 184.389 82.3149C183.061 81.7681 181.941 81.0259 181.03 80.0884C180.119 79.1248 179.415 77.979 178.921 76.6509C178.452 75.2967 178.218 73.7993 178.218 72.1587ZM182.358 69.6196C182.358 70.5311 182.475 71.1951 182.71 71.6118C182.97 72.0285 183.582 72.2368 184.546 72.2368C185.223 72.2368 185.887 72.1196 186.538 71.8853C187.189 71.6248 187.775 71.2733 188.296 70.8306C188.843 70.3879 189.272 69.867 189.585 69.2681C189.897 68.6691 190.053 68.0181 190.053 67.3149C190.053 66.9243 190.014 66.5207 189.936 66.104C189.884 65.6873 189.754 65.3097 189.546 64.9712C189.337 64.6066 189.064 64.3201 188.725 64.1118C188.413 63.8774 187.996 63.7603 187.475 63.7603C186.694 63.7603 185.978 63.9425 185.327 64.3071C184.702 64.6457 184.168 65.1014 183.725 65.6743C183.283 66.2212 182.944 66.8462 182.71 67.5493C182.475 68.2264 182.358 68.9165 182.358 69.6196ZM200.014 72.1587C200.014 70.7524 200.184 69.3462 200.522 67.9399C200.861 66.5337 201.395 65.2707 202.124 64.1509C202.879 63.0311 203.843 62.1196 205.014 61.4165C206.212 60.7134 207.658 60.3618 209.35 60.3618C210.314 60.3618 211.16 60.5441 211.889 60.9087C212.619 61.2472 213.231 61.703 213.725 62.2759C214.22 62.8488 214.585 63.5259 214.819 64.3071C215.08 65.0623 215.21 65.8566 215.21 66.6899C215.21 68.0181 214.897 69.3071 214.272 70.5571C213.673 71.8071 212.853 72.9139 211.811 73.8774C210.796 74.8149 209.624 75.5311 208.296 76.0259C206.968 76.4946 205.613 76.5988 204.233 76.3384C204.259 77.0936 204.507 77.7056 204.975 78.1743C205.47 78.617 206.056 78.9556 206.733 79.1899C207.41 79.4243 208.113 79.5806 208.843 79.6587C209.572 79.7108 210.223 79.7368 210.796 79.7368C211.395 79.7368 211.955 79.6847 212.475 79.5806C212.996 79.4764 213.517 79.3592 214.038 79.229C214.559 79.0988 215.08 78.9816 215.6 78.8774C216.147 78.7733 216.72 78.7212 217.319 78.7212C217.553 78.7212 217.788 78.7342 218.022 78.7603C218.257 78.7863 218.478 78.8514 218.686 78.9556C218.895 79.0337 219.064 79.1769 219.194 79.3853C219.324 79.5675 219.389 79.8019 219.389 80.0884C219.389 80.5832 219.207 80.9998 218.843 81.3384C218.478 81.6509 218.009 81.9243 217.436 82.1587C216.889 82.3931 216.277 82.5754 215.6 82.7056C214.923 82.8097 214.259 82.9009 213.608 82.979C212.983 83.0311 212.397 83.0571 211.85 83.0571C211.33 83.0832 210.939 83.0962 210.678 83.0962C209.012 83.0962 207.514 82.8358 206.186 82.3149C204.858 81.7681 203.738 81.0259 202.827 80.0884C201.915 79.1248 201.212 77.979 200.718 76.6509C200.249 75.2967 200.014 73.7993 200.014 72.1587ZM204.155 69.6196C204.155 70.5311 204.272 71.1951 204.507 71.6118C204.767 72.0285 205.379 72.2368 206.343 72.2368C207.02 72.2368 207.684 72.1196 208.335 71.8853C208.986 71.6248 209.572 71.2733 210.093 70.8306C210.639 70.3879 211.069 69.867 211.382 69.2681C211.694 68.6691 211.85 68.0181 211.85 67.3149C211.85 66.9243 211.811 66.5207 211.733 66.104C211.681 65.6873 211.551 65.3097 211.343 64.9712C211.134 64.6066 210.861 64.3201 210.522 64.1118C210.21 63.8774 209.793 63.7603 209.272 63.7603C208.491 63.7603 207.775 63.9425 207.124 64.3071C206.499 64.6457 205.965 65.1014 205.522 65.6743C205.08 66.2212 204.741 66.8462 204.507 67.5493C204.272 68.2264 204.155 68.9165 204.155 69.6196ZM239.428 52.1587C239.428 51.3514 239.572 50.6873 239.858 50.1665C240.171 49.6457 240.587 49.229 241.108 48.9165C241.629 48.578 242.202 48.3306 242.827 48.1743C243.478 48.0181 244.142 47.9139 244.819 47.8618C245.522 47.7837 246.199 47.7576 246.85 47.7837C247.501 47.7837 248.1 47.7837 248.647 47.7837C249.715 47.7837 250.783 47.8879 251.85 48.0962C252.918 48.3045 253.856 48.6691 254.663 49.1899C255.496 49.7108 256.173 50.4139 256.694 51.2993C257.215 52.1587 257.475 53.2394 257.475 54.5415C257.475 55.6873 257.241 56.8332 256.772 57.979C256.33 59.0988 255.744 60.1795 255.014 61.2212C254.311 62.2368 253.504 63.1743 252.593 64.0337C251.681 64.867 250.77 65.5832 249.858 66.1821C248.973 66.7811 248.113 67.2498 247.28 67.5884C246.473 67.9269 245.796 68.0571 245.249 67.979C244.936 68.9946 244.741 70.0884 244.663 71.2603C244.611 72.4061 244.598 73.5389 244.624 74.6587C244.65 75.7524 244.689 76.8071 244.741 77.8228C244.793 78.8123 244.741 79.6717 244.585 80.4009C244.455 81.104 244.194 81.6379 243.803 82.0024C243.413 82.341 242.814 82.4451 242.007 82.3149C241.772 80.466 241.59 78.591 241.46 76.6899C241.356 74.7889 241.264 72.9009 241.186 71.0259C241.108 69.1509 241.03 67.328 240.952 65.5571C240.9 63.7603 240.809 62.0545 240.678 60.4399C240.574 58.8254 240.418 57.3149 240.21 55.9087C240.001 54.5024 239.741 53.2524 239.428 52.1587ZM249.077 51.1431C248.686 51.1431 248.205 51.1561 247.632 51.1821C247.059 51.2082 246.499 51.2993 245.952 51.4556C245.431 51.5858 244.988 51.8332 244.624 52.1978C244.259 52.5363 244.077 53.0311 244.077 53.6821V63.9165C245.145 63.9165 246.277 63.63 247.475 63.0571C248.673 62.4842 249.767 61.755 250.757 60.8696C251.746 59.9842 252.566 58.9816 253.218 57.8618C253.869 56.742 254.194 55.6353 254.194 54.5415C254.194 53.7342 254.038 53.1092 253.725 52.6665C253.439 52.2238 253.048 51.8853 252.553 51.6509C252.085 51.4165 251.551 51.2733 250.952 51.2212C250.353 51.1691 249.728 51.1431 249.077 51.1431ZM260.014 60.9087C260.014 60.1535 259.962 59.4243 259.858 58.7212C259.754 57.992 259.728 57.354 259.78 56.8071C259.832 56.2342 260.027 55.7785 260.366 55.4399C260.731 55.1014 261.382 54.9321 262.319 54.9321C262.606 55.5311 262.879 56.4425 263.139 57.6665C263.426 58.8905 263.699 60.2967 263.96 61.8853C264.22 63.4738 264.468 65.2056 264.702 67.0806C264.936 68.9295 265.145 70.7915 265.327 72.6665C265.535 74.5415 265.705 76.3905 265.835 78.2134C265.991 80.0103 266.108 81.6509 266.186 83.1353C265.327 83.7082 264.637 83.7472 264.116 83.2524C263.595 82.7576 263.165 81.9243 262.827 80.7524C262.488 79.5545 262.228 78.1092 262.046 76.4165C261.863 74.6978 261.681 72.9269 261.499 71.104C261.343 69.255 261.147 67.4451 260.913 65.6743C260.678 63.8774 260.379 62.2889 260.014 60.9087ZM285.014 77.979C284.025 78.6561 283.165 79.2681 282.436 79.8149C281.733 80.3358 281.043 80.7785 280.366 81.1431C279.689 81.5076 278.96 81.7811 278.178 81.9634C277.423 82.1457 276.486 82.2368 275.366 82.2368C272.944 82.2368 271.147 81.5988 269.975 80.3228C268.803 79.0207 268.218 77.0936 268.218 74.5415C268.218 73.5519 268.348 72.5233 268.608 71.4556C268.869 70.3879 269.246 69.3332 269.741 68.2915C270.262 67.2238 270.874 66.2212 271.577 65.2837C272.28 64.3201 273.074 63.4738 273.96 62.7446C274.845 62.0155 275.783 61.4425 276.772 61.0259C277.788 60.5832 278.856 60.3618 279.975 60.3618C281.85 60.5441 283.322 61.0129 284.389 61.7681C285.457 62.4972 286.264 63.4478 286.811 64.6196C287.358 65.7655 287.736 67.0545 287.944 68.4868C288.152 69.8931 288.309 71.3514 288.413 72.8618C288.543 74.3722 288.699 75.8826 288.882 77.3931C289.064 78.9035 289.441 80.2967 290.014 81.5728C289.676 82.4321 289.35 83.0311 289.038 83.3696C288.751 83.7342 288.426 83.7993 288.061 83.5649C287.697 83.3306 287.267 82.7576 286.772 81.8462C286.303 80.9347 285.718 79.6457 285.014 77.979ZM271.538 74.6196C271.538 76.104 271.811 77.1978 272.358 77.9009C272.931 78.578 273.934 78.9165 275.366 78.9165C276.434 78.9165 277.449 78.7342 278.413 78.3696C279.402 77.979 280.262 77.4582 280.991 76.8071C281.72 76.13 282.306 75.3228 282.749 74.3853C283.191 73.4478 283.413 72.4061 283.413 71.2603C283.413 70.7915 283.426 70.1405 283.452 69.3071C283.478 68.4478 283.426 67.6014 283.296 66.7681C283.165 65.9347 282.918 65.2186 282.553 64.6196C282.189 63.9946 281.642 63.6821 280.913 63.6821C279.559 63.6821 278.309 64.0337 277.163 64.7368C276.017 65.4139 275.027 66.2863 274.194 67.354C273.361 68.4217 272.71 69.6066 272.241 70.9087C271.772 72.1847 271.538 73.4217 271.538 74.6196ZM292.475 69.854C292.475 69.1769 292.645 68.6951 292.983 68.4087C293.322 68.0962 293.869 67.9399 294.624 67.9399H295.014C295.093 68.3566 295.184 68.8384 295.288 69.3853C295.392 69.9321 295.548 70.492 295.757 71.0649C295.965 71.6379 296.212 72.1717 296.499 72.6665C296.785 73.1353 297.137 73.5129 297.553 73.7993C297.58 72.8879 297.801 72.0155 298.218 71.1821C298.66 70.3228 299.194 69.5675 299.819 68.9165C300.47 68.2394 301.173 67.6795 301.928 67.2368C302.71 66.7681 303.478 66.4556 304.233 66.2993H305.093C306.343 66.2993 307.41 66.5858 308.296 67.1587C309.181 67.7056 309.91 68.4347 310.483 69.3462C311.082 70.2316 311.538 71.2472 311.85 72.3931C312.163 73.5389 312.397 74.7108 312.553 75.9087C312.736 77.0806 312.84 78.2264 312.866 79.3462C312.918 80.4399 312.944 81.3774 312.944 82.1587H310.093C309.936 80.5962 309.741 79.0988 309.507 77.6665C309.428 77.0936 309.324 76.4946 309.194 75.8696C309.064 75.2186 308.921 74.6196 308.764 74.0728C308.608 73.4998 308.439 72.979 308.257 72.5103C308.074 72.0155 307.866 71.5988 307.632 71.2603C307.527 71.1561 307.384 71.0129 307.202 70.8306C307.046 70.6483 306.876 70.466 306.694 70.2837C306.512 70.1014 306.343 69.9451 306.186 69.8149C306.03 69.6847 305.939 69.6196 305.913 69.6196C305.132 69.4113 304.455 69.5675 303.882 70.0884C303.309 70.5832 302.801 71.2603 302.358 72.1196C301.915 72.979 301.551 73.9556 301.264 75.0493C301.004 76.1431 300.783 77.1978 300.6 78.2134C300.418 79.203 300.288 80.0754 300.21 80.8306C300.132 81.5597 300.08 82.0024 300.053 82.1587C299.402 82.6274 298.79 82.7707 298.218 82.5884C297.645 82.38 297.098 81.9634 296.577 81.3384C296.082 80.7134 295.626 79.9321 295.21 78.9946C294.819 78.0571 294.455 77.0675 294.116 76.0259C293.777 74.9582 293.465 73.8905 293.178 72.8228C292.918 71.755 292.684 70.7655 292.475 69.854ZM314.233 63.3306C314.233 63.2524 314.246 63.1873 314.272 63.1353C314.272 63.0832 314.285 63.0181 314.311 62.9399C314.415 62.8097 314.572 62.6405 314.78 62.4321C314.988 62.2238 315.119 62.1196 315.171 62.1196H323.022C323.022 61.8332 322.983 61.3774 322.905 60.7524C322.827 60.1274 322.749 59.4373 322.671 58.6821C322.619 57.9269 322.606 57.1457 322.632 56.3384C322.658 55.505 322.762 54.7629 322.944 54.1118C323.152 53.4347 323.465 52.8879 323.882 52.4712C324.324 52.0285 324.936 51.8071 325.718 51.8071C325.718 54.4373 325.9 56.5467 326.264 58.1353C326.629 59.7238 327.111 60.9478 327.71 61.8071C328.335 62.6665 329.038 63.2264 329.819 63.4868C330.6 63.7472 331.395 63.8644 332.202 63.8384C333.035 63.7863 333.843 63.6561 334.624 63.4478C335.405 63.2394 336.095 63.0962 336.694 63.0181C337.319 62.9399 337.814 63.005 338.178 63.2134C338.543 63.3957 338.725 63.8514 338.725 64.5806C338.725 65.1274 338.595 65.5181 338.335 65.7524C338.1 65.9868 337.632 66.1691 336.928 66.2993C336.72 66.3254 336.369 66.3774 335.874 66.4556C335.405 66.5076 334.871 66.5597 334.272 66.6118C333.673 66.6639 333.035 66.729 332.358 66.8071C331.681 66.8592 331.043 66.9113 330.444 66.9634C329.845 67.0155 329.298 67.0545 328.803 67.0806C328.309 67.0806 327.944 67.0806 327.71 67.0806C327.71 67.2108 327.697 67.4321 327.671 67.7446C327.645 68.0571 327.632 68.2655 327.632 68.3696C327.632 69.5155 327.814 70.6353 328.178 71.729C328.543 72.7967 328.934 73.8644 329.35 74.9321C329.793 75.9998 330.197 77.0675 330.561 78.1353C330.926 79.203 331.108 80.3097 331.108 81.4556C331.108 81.6639 331.082 81.8853 331.03 82.1196C331.004 82.328 330.926 82.5233 330.796 82.7056C330.691 82.8618 330.522 82.979 330.288 83.0571C330.08 83.1613 329.78 83.1483 329.389 83.0181C328.4 82.7576 327.658 82.1978 327.163 81.3384C326.694 80.479 326.343 79.4634 326.108 78.2915C325.874 77.0936 325.718 75.8306 325.639 74.5024C325.561 73.1743 325.431 71.9373 325.249 70.7915C325.093 69.6196 324.832 68.63 324.468 67.8228C324.103 66.9894 323.517 66.4816 322.71 66.2993L315.171 64.5806C315.066 64.5806 314.91 64.4764 314.702 64.2681C314.494 64.0337 314.363 63.8644 314.311 63.7603C314.285 63.7082 314.272 63.6431 314.272 63.5649C314.246 63.5129 314.233 63.4347 314.233 63.3306ZM341.85 68.3696C341.85 68.2134 341.85 67.966 341.85 67.6274C341.876 67.2629 341.889 66.8853 341.889 66.4946C341.915 66.104 341.928 65.7264 341.928 65.3618C341.955 64.9972 341.968 64.7368 341.968 64.5806C342.254 64.1639 342.619 63.8254 343.061 63.5649C343.53 63.3045 343.999 63.0962 344.468 62.9399C344.546 64.3462 344.767 65.8436 345.132 67.4321C345.496 69.0207 345.887 70.6222 346.303 72.2368C346.72 73.8254 347.085 75.4009 347.397 76.9634C347.736 78.5259 347.905 79.9842 347.905 81.3384C347.905 82.5103 347.306 83.0962 346.108 83.0962C345.379 83.0962 344.767 82.7967 344.272 82.1978C343.777 81.5988 343.374 80.8436 343.061 79.9321C342.775 78.9946 342.54 77.966 342.358 76.8462C342.176 75.7004 342.046 74.5806 341.968 73.4868C341.915 72.3931 341.876 71.3905 341.85 70.479C341.85 69.5675 341.85 68.8644 341.85 68.3696ZM342.397 53.7212C342.892 53.9295 343.309 54.2681 343.647 54.7368C343.986 55.2056 344.129 55.6353 344.077 56.0259C344.051 56.3905 343.764 56.6509 343.218 56.8071C342.671 56.9373 341.759 56.7811 340.483 56.3384C340.483 55.6353 340.613 55.0233 340.874 54.5024C341.16 53.9816 341.668 53.7212 342.397 53.7212ZM349.428 69.854C349.428 69.1769 349.598 68.6951 349.936 68.4087C350.275 68.0962 350.822 67.9399 351.577 67.9399H351.968C352.046 68.3566 352.137 68.8384 352.241 69.3853C352.345 69.9321 352.501 70.492 352.71 71.0649C352.918 71.6379 353.165 72.1717 353.452 72.6665C353.738 73.1353 354.09 73.5129 354.507 73.7993C354.533 72.8879 354.754 72.0155 355.171 71.1821C355.613 70.3228 356.147 69.5675 356.772 68.9165C357.423 68.2394 358.126 67.6795 358.882 67.2368C359.663 66.7681 360.431 66.4556 361.186 66.2993H362.046C363.296 66.2993 364.363 66.5858 365.249 67.1587C366.134 67.7056 366.863 68.4347 367.436 69.3462C368.035 70.2316 368.491 71.2472 368.803 72.3931C369.116 73.5389 369.35 74.7108 369.507 75.9087C369.689 77.0806 369.793 78.2264 369.819 79.3462C369.871 80.4399 369.897 81.3774 369.897 82.1587H367.046C366.889 80.5962 366.694 79.0988 366.46 77.6665C366.382 77.0936 366.277 76.4946 366.147 75.8696C366.017 75.2186 365.874 74.6196 365.718 74.0728C365.561 73.4998 365.392 72.979 365.21 72.5103C365.027 72.0155 364.819 71.5988 364.585 71.2603C364.481 71.1561 364.337 71.0129 364.155 70.8306C363.999 70.6483 363.83 70.466 363.647 70.2837C363.465 70.1014 363.296 69.9451 363.139 69.8149C362.983 69.6847 362.892 69.6196 362.866 69.6196C362.085 69.4113 361.408 69.5675 360.835 70.0884C360.262 70.5832 359.754 71.2603 359.311 72.1196C358.869 72.979 358.504 73.9556 358.218 75.0493C357.957 76.1431 357.736 77.1978 357.553 78.2134C357.371 79.203 357.241 80.0754 357.163 80.8306C357.085 81.5597 357.033 82.0024 357.007 82.1587C356.356 82.6274 355.744 82.7707 355.171 82.5884C354.598 82.38 354.051 81.9634 353.53 81.3384C353.035 80.7134 352.58 79.9321 352.163 78.9946C351.772 78.0571 351.408 77.0675 351.069 76.0259C350.731 74.9582 350.418 73.8905 350.132 72.8228C349.871 71.755 349.637 70.7655 349.428 69.854ZM382.124 103.799C383.582 103.799 384.884 103.526 386.03 102.979C387.176 102.458 388.139 101.729 388.921 100.792C389.728 99.88 390.34 98.8254 390.757 97.6274C391.199 96.4556 391.421 95.2316 391.421 93.9556C391.421 93.3045 391.382 92.4451 391.303 91.3774C391.251 90.3097 391.16 89.1509 391.03 87.9009C390.9 86.6509 390.705 85.3748 390.444 84.0728C390.21 82.7707 389.91 81.5467 389.546 80.4009C389.181 79.229 388.725 78.2134 388.178 77.354C387.658 76.4686 387.046 75.8436 386.343 75.479C385.665 75.9998 385.001 76.4816 384.35 76.9243C383.699 77.341 383.022 77.6925 382.319 77.979C381.616 78.2655 380.887 78.4998 380.132 78.6821C379.376 78.8384 378.569 78.9165 377.71 78.9165C376.59 78.9165 375.626 78.8123 374.819 78.604C374.038 78.3957 373.374 78.0441 372.827 77.5493C372.306 77.0545 371.915 76.4035 371.655 75.5962C371.395 74.7889 371.264 73.7733 371.264 72.5493C371.264 71.6899 371.473 70.8566 371.889 70.0493C372.306 69.216 372.853 68.4478 373.53 67.7446C374.233 67.0155 375.014 66.3514 375.874 65.7524C376.759 65.1535 377.658 64.6326 378.569 64.1899C379.507 63.7472 380.418 63.4087 381.303 63.1743C382.215 62.9399 383.022 62.8228 383.725 62.8228C384.402 62.8228 384.962 62.8488 385.405 62.9009C385.848 62.9269 386.225 63.0311 386.538 63.2134C386.85 63.3696 387.111 63.63 387.319 63.9946C387.553 64.3332 387.775 64.8019 387.983 65.4009C388.582 67.4321 389.272 69.6196 390.053 71.9634C390.835 74.3071 391.577 76.716 392.28 79.1899C392.983 81.6639 393.569 84.1509 394.038 86.6509C394.533 89.1769 394.78 91.6118 394.78 93.9556C394.78 96.0389 394.481 97.7967 393.882 99.229C393.309 100.687 392.54 101.872 391.577 102.784C390.639 103.721 389.559 104.437 388.335 104.932C387.137 105.427 385.926 105.739 384.702 105.87C383.478 106.026 382.293 106.065 381.147 105.987C380.001 105.909 379.012 105.752 378.178 105.518C377.345 105.31 376.707 105.062 376.264 104.776C375.848 104.489 375.744 104.242 375.952 104.034C376.186 103.851 376.785 103.721 377.749 103.643C378.712 103.565 380.171 103.617 382.124 103.799ZM382.671 66.104C380.744 66.5207 379.181 67.1066 377.983 67.8618C376.811 68.591 375.926 69.3853 375.327 70.2446C374.754 71.078 374.441 71.9243 374.389 72.7837C374.337 73.617 374.494 74.3332 374.858 74.9321C375.223 75.5311 375.744 75.9868 376.421 76.2993C377.124 76.5858 377.918 76.5988 378.803 76.3384C379.689 76.0519 380.626 75.453 381.616 74.5415C382.632 73.63 383.647 72.2759 384.663 70.479C384.663 70.0363 384.663 69.5545 384.663 69.0337C384.689 68.5129 384.65 68.0441 384.546 67.6274C384.441 67.1847 384.246 66.8201 383.96 66.5337C383.673 66.2472 383.244 66.104 382.671 66.104ZM412.671 69.6196C412.671 68.7342 412.788 67.7707 413.022 66.729C413.283 65.6873 413.634 64.6457 414.077 63.604C414.52 62.5363 415.053 61.5076 415.678 60.5181C416.303 59.5024 417.007 58.617 417.788 57.8618C418.569 57.0806 419.415 56.4686 420.327 56.0259C421.238 55.5571 422.202 55.3228 423.218 55.3228C424.051 55.3228 424.832 55.4399 425.561 55.6743C426.29 55.8826 426.915 56.2082 427.436 56.6509C427.957 57.0936 428.361 57.6535 428.647 58.3306C428.96 58.9816 429.116 59.7629 429.116 60.6743C428.543 60.6743 428.074 60.5311 427.71 60.2446C427.371 59.9321 427.046 59.5936 426.733 59.229C426.447 58.8644 426.121 58.5389 425.757 58.2524C425.418 57.966 424.975 57.8228 424.428 57.8228C423.621 57.8228 422.84 58.0311 422.085 58.4478C421.356 58.8644 420.665 59.4243 420.014 60.1274C419.389 60.8306 418.83 61.6248 418.335 62.5103C417.866 63.3957 417.449 64.2941 417.085 65.2056C416.746 66.091 416.473 66.9634 416.264 67.8228C416.082 68.6821 415.991 69.4243 415.991 70.0493C415.991 71.4035 416.186 72.6795 416.577 73.8774C416.994 75.0493 417.58 76.078 418.335 76.9634C419.09 77.8228 420.027 78.4998 421.147 78.9946C422.267 79.4894 423.543 79.7368 424.975 79.7368C425.887 79.7368 426.746 79.6066 427.553 79.3462C428.387 79.0597 429.181 78.7603 429.936 78.4478C430.718 78.1092 431.486 77.7967 432.241 77.5103C432.996 77.2238 433.751 77.0806 434.507 77.0806C434.611 77.0806 434.754 77.0936 434.936 77.1196C435.145 77.1196 435.327 77.1457 435.483 77.1978C435.665 77.2498 435.822 77.341 435.952 77.4712C436.082 77.5754 436.147 77.7446 436.147 77.979C436.147 78.9165 435.783 79.7108 435.053 80.3618C434.35 81.0129 433.504 81.5467 432.514 81.9634C431.525 82.354 430.496 82.6405 429.428 82.8228C428.361 83.005 427.488 83.0962 426.811 83.0962C424.832 83.0962 422.983 82.7837 421.264 82.1587C419.546 81.5076 418.048 80.5962 416.772 79.4243C415.496 78.2524 414.494 76.8462 413.764 75.2056C413.035 73.5389 412.671 71.6769 412.671 69.6196ZM454.585 77.979C453.595 78.6561 452.736 79.2681 452.007 79.8149C451.303 80.3358 450.613 80.7785 449.936 81.1431C449.259 81.5076 448.53 81.7811 447.749 81.9634C446.994 82.1457 446.056 82.2368 444.936 82.2368C442.514 82.2368 440.718 81.5988 439.546 80.3228C438.374 79.0207 437.788 77.0936 437.788 74.5415C437.788 73.5519 437.918 72.5233 438.178 71.4556C438.439 70.3879 438.816 69.3332 439.311 68.2915C439.832 67.2238 440.444 66.2212 441.147 65.2837C441.85 64.3201 442.645 63.4738 443.53 62.7446C444.415 62.0155 445.353 61.4425 446.343 61.0259C447.358 60.5832 448.426 60.3618 449.546 60.3618C451.421 60.5441 452.892 61.0129 453.96 61.7681C455.027 62.4972 455.835 63.4478 456.382 64.6196C456.928 65.7655 457.306 67.0545 457.514 68.4868C457.723 69.8931 457.879 71.3514 457.983 72.8618C458.113 74.3722 458.27 75.8826 458.452 77.3931C458.634 78.9035 459.012 80.2967 459.585 81.5728C459.246 82.4321 458.921 83.0311 458.608 83.3696C458.322 83.7342 457.996 83.7993 457.632 83.5649C457.267 83.3306 456.837 82.7576 456.343 81.8462C455.874 80.9347 455.288 79.6457 454.585 77.979ZM441.108 74.6196C441.108 76.104 441.382 77.1978 441.928 77.9009C442.501 78.578 443.504 78.9165 444.936 78.9165C446.004 78.9165 447.02 78.7342 447.983 78.3696C448.973 77.979 449.832 77.4582 450.561 76.8071C451.29 76.13 451.876 75.3228 452.319 74.3853C452.762 73.4478 452.983 72.4061 452.983 71.2603C452.983 70.7915 452.996 70.1405 453.022 69.3071C453.048 68.4478 452.996 67.6014 452.866 66.7681C452.736 65.9347 452.488 65.2186 452.124 64.6196C451.759 63.9946 451.212 63.6821 450.483 63.6821C449.129 63.6821 447.879 64.0337 446.733 64.7368C445.587 65.4139 444.598 66.2863 443.764 67.354C442.931 68.4217 442.28 69.6066 441.811 70.9087C441.343 72.1847 441.108 73.4217 441.108 74.6196ZM461.186 66.6118C461.186 65.9608 461.29 65.453 461.499 65.0884C461.733 64.7238 462.215 64.5415 462.944 64.5415C463.022 64.5415 463.165 64.5545 463.374 64.5806C463.608 64.5806 463.751 64.5806 463.803 64.5806C463.986 65.3879 464.168 66.2733 464.35 67.2368C464.559 68.1743 464.793 69.1248 465.053 70.0884C465.314 71.0519 465.6 72.0024 465.913 72.9399C466.251 73.8774 466.655 74.7238 467.124 75.479C467.593 74.9842 467.931 74.3983 468.139 73.7212C468.348 73.0441 468.504 72.367 468.608 71.6899C468.712 70.9868 468.803 70.3228 468.882 69.6978C468.986 69.0467 469.181 68.4998 469.468 68.0571C469.754 67.5884 470.171 67.2498 470.718 67.0415C471.29 66.8332 472.072 66.8332 473.061 67.0415C474.155 67.0415 475.027 67.2498 475.678 67.6665C476.33 68.0571 476.889 68.5649 477.358 69.1899C477.853 69.7889 478.322 70.4399 478.764 71.1431C479.233 71.8201 479.819 72.4321 480.522 72.979C480.678 72.6405 480.874 72.2238 481.108 71.729C481.343 71.2082 481.629 70.6743 481.968 70.1274C482.332 69.5545 482.71 68.9946 483.1 68.4478C483.517 67.8748 483.947 67.367 484.389 66.9243C484.832 66.4556 485.288 66.078 485.757 65.7915C486.225 65.479 486.681 65.3228 487.124 65.3228C488.191 65.3228 489.116 65.6613 489.897 66.3384C490.678 66.9894 491.343 67.8228 491.889 68.8384C492.462 69.828 492.931 70.9478 493.296 72.1978C493.66 73.4217 493.947 74.6066 494.155 75.7524C494.363 76.8983 494.507 77.953 494.585 78.9165C494.689 79.854 494.741 80.5311 494.741 80.9478C494.741 81.2863 494.663 81.5467 494.507 81.729C494.35 81.9113 494.155 82.0545 493.921 82.1587C493.686 82.2368 493.426 82.2889 493.139 82.3149C492.879 82.341 492.632 82.354 492.397 82.354C492.345 82.354 492.267 82.354 492.163 82.354C492.059 82.328 491.941 82.3019 491.811 82.2759C491.707 82.2498 491.564 82.2108 491.382 82.1587L488.843 70.479C488.843 70.4009 488.738 70.2576 488.53 70.0493C488.322 69.8149 488.165 69.6717 488.061 69.6196C487.983 69.6196 487.918 69.6066 487.866 69.5806C487.814 69.5806 487.775 69.5806 487.749 69.5806C487.723 69.5545 487.697 69.5415 487.671 69.5415C487.124 69.5415 486.603 69.7629 486.108 70.2056C485.639 70.6483 485.197 71.2082 484.78 71.8853C484.363 72.5623 483.973 73.3175 483.608 74.1509C483.244 74.9842 482.918 75.8175 482.632 76.6509C482.345 77.4582 482.085 78.2134 481.85 78.9165C481.642 79.5936 481.473 80.1144 481.343 80.479C481.238 80.5311 481.03 80.5832 480.718 80.6353C480.405 80.6613 480.197 80.6743 480.093 80.6743C479.363 80.6743 478.803 80.4269 478.413 79.9321C478.022 79.4113 477.697 78.7733 477.436 78.0181C477.202 77.2629 476.994 76.4425 476.811 75.5571C476.655 74.6457 476.447 73.8123 476.186 73.0571C475.952 72.3019 475.613 71.6769 475.171 71.1821C474.754 70.6613 474.155 70.4009 473.374 70.4009C473.087 70.4009 472.814 70.6873 472.553 71.2603C472.293 71.8332 472.059 72.5623 471.85 73.4478C471.642 74.3071 471.447 75.2446 471.264 76.2603C471.082 77.2498 470.926 78.1873 470.796 79.0728C470.691 79.9321 470.613 80.6613 470.561 81.2603C470.509 81.8592 470.483 82.1587 470.483 82.1587C470.431 82.2368 470.327 82.328 470.171 82.4321C470.014 82.5103 469.845 82.6014 469.663 82.7056C469.507 82.8097 469.337 82.8879 469.155 82.9399C468.999 82.992 468.882 83.0181 468.803 83.0181C468.074 83.0181 467.371 82.6925 466.694 82.0415C466.017 81.3644 465.392 80.505 464.819 79.4634C464.272 78.3957 463.764 77.2238 463.296 75.9478C462.853 74.6717 462.475 73.4217 462.163 72.1978C461.85 70.9738 461.603 69.867 461.421 68.8774C461.264 67.8879 461.186 67.1326 461.186 66.6118ZM496.343 68.604C496.343 66.078 496.928 64.203 498.1 62.979C499.272 61.755 501.069 61.1431 503.491 61.1431C504.481 61.1431 505.496 61.2342 506.538 61.4165C507.606 61.5988 508.582 61.9243 509.468 62.3931C510.353 62.8358 511.069 63.4608 511.616 64.2681C512.189 65.0754 512.475 66.117 512.475 67.3931C512.475 68.7993 512.163 70.1274 511.538 71.3774C510.939 72.6014 510.171 73.7603 509.233 74.854C508.322 75.9217 507.306 76.9243 506.186 77.8618C505.093 78.7733 504.064 79.6457 503.1 80.479C503.048 80.5832 502.996 80.8045 502.944 81.1431C502.918 81.4556 502.905 81.6639 502.905 81.7681C502.905 82.6274 503.152 83.4868 503.647 84.3462C504.168 85.2316 504.728 86.117 505.327 87.0024C505.926 87.9139 506.473 88.8514 506.968 89.8149C507.462 90.7785 507.71 91.7811 507.71 92.8228C507.71 93.4478 507.58 93.8123 507.319 93.9165C507.059 94.0467 506.512 94.1118 505.678 94.1118C505.158 93.9035 504.637 93.4087 504.116 92.6274C503.621 91.8722 503.113 90.9347 502.593 89.8149C502.098 88.6951 501.603 87.4321 501.108 86.0259C500.639 84.6457 500.184 83.2394 499.741 81.8071C499.324 80.3488 498.921 78.9165 498.53 77.5103C498.165 76.078 497.84 74.7629 497.553 73.5649C497.267 72.367 497.007 71.3384 496.772 70.479C496.564 69.5936 496.421 68.9686 496.343 68.604ZM499.663 68.9556C499.663 69.3462 499.689 69.9191 499.741 70.6743C499.793 71.4035 499.897 72.1326 500.053 72.8618C500.236 73.591 500.496 74.229 500.835 74.7759C501.173 75.2967 501.642 75.5571 502.241 75.5571C503.048 75.5571 503.856 75.2837 504.663 74.7368C505.496 74.1899 506.225 73.4998 506.85 72.6665C507.501 71.8332 508.022 70.9478 508.413 70.0103C508.83 69.0467 509.038 68.1743 509.038 67.3931C509.038 66.742 508.882 66.2342 508.569 65.8696C508.257 65.479 507.853 65.1795 507.358 64.9712C506.889 64.7368 506.382 64.5936 505.835 64.5415C505.288 64.4634 504.767 64.4243 504.272 64.4243C502.788 64.4243 501.642 64.828 500.835 65.6353C500.053 66.4165 499.663 67.5233 499.663 68.9556Z" fill="black"/>
<path d="M499.371 41.4359C499.687 40.6905 500.096 40.1375 500.597 39.7769C501.101 39.4035 501.631 39.1887 502.189 39.1325C502.759 39.0789 503.334 39.1594 503.914 39.3741C504.51 39.5787 505.044 39.8836 505.518 40.2889C506.005 40.6968 506.403 41.1792 506.712 41.7361C507.024 42.2804 507.2 42.8693 507.24 43.503C507.283 44.1239 507.149 44.7611 506.839 45.4146C506.529 46.0681 506.005 46.6967 505.267 47.3003C505.691 47.5621 506.083 47.8172 506.444 48.0656C506.804 48.314 507.093 48.5874 507.31 48.8855C507.539 49.1864 507.695 49.5249 507.775 49.901C507.856 50.2772 507.843 50.7201 507.737 51.2299C507.648 51.6505 507.479 52.0805 507.227 52.52C506.975 52.9595 506.661 53.3793 506.285 53.7794C505.921 54.1821 505.51 54.555 505.052 54.8982C504.61 55.2313 504.145 55.513 503.658 55.7436C503.171 55.9741 502.684 56.1382 502.198 56.2359C501.727 56.3236 501.282 56.3234 500.861 56.2353C500.581 56.1766 500.344 55.9408 500.151 55.5279C499.958 55.115 499.796 54.5887 499.664 53.9491C499.532 53.3095 499.425 52.582 499.343 51.7666C499.261 50.9512 499.203 50.1144 499.17 49.256C499.14 48.3849 499.126 47.5306 499.128 46.693C499.133 45.8427 499.144 45.0601 499.161 44.3452C499.191 43.633 499.219 43.0203 499.247 42.5073C499.29 41.9842 499.331 41.627 499.371 41.4359ZM501.04 50.426C500.995 50.6426 500.986 50.9401 501.013 51.3183C501.04 51.6965 501.093 52.08 501.171 52.4689C501.262 52.8604 501.371 53.2291 501.498 53.575C501.628 53.9082 501.791 54.1484 501.986 54.2958C502.143 54.4351 502.355 54.4728 502.621 54.4088C502.89 54.3321 503.172 54.1916 503.467 53.9874C503.778 53.7732 504.083 53.5244 504.382 53.2411C504.683 52.9451 504.958 52.6501 505.206 52.3561C505.466 52.0648 505.677 51.7896 505.838 51.5306C506.014 51.2615 506.118 51.0505 506.15 50.8976C506.219 50.5662 506.231 50.2892 506.184 50.0666C506.14 49.8313 506.043 49.6312 505.891 49.4664C505.752 49.3043 505.567 49.1723 505.335 49.0706C505.116 48.9716 504.867 48.8927 504.587 48.834C504.268 48.7673 503.92 48.7475 503.541 48.7747C503.163 48.8019 502.801 48.8791 502.455 49.0062C502.122 49.136 501.818 49.3184 501.542 49.5533C501.28 49.791 501.112 50.0819 501.04 50.426ZM501.178 43.6701C501.13 43.8995 501.064 44.185 500.979 44.5264C500.897 44.8551 500.825 45.1992 500.763 45.5587C500.701 45.9182 500.664 46.283 500.653 46.6532C500.642 47.0234 500.693 47.3533 500.805 47.6429C501.454 47.659 502.041 47.5558 502.566 47.3333C503.104 47.1134 503.558 46.8226 503.926 46.4607C504.31 46.0888 504.617 45.6741 504.845 45.2165C505.074 44.7589 505.218 44.2967 505.276 43.8299C505.346 43.3658 505.326 42.9225 505.215 42.5002C505.116 42.0805 504.923 41.734 504.634 41.4606C504.348 41.1746 503.97 40.9822 503.498 40.8834C503.027 40.7846 502.453 40.8241 501.777 41.0019C501.756 41.1038 501.712 41.2809 501.646 41.5331C501.592 41.788 501.53 42.0543 501.459 42.332C501.4 42.6124 501.344 42.88 501.29 43.1349C501.237 43.3898 501.2 43.5682 501.178 43.6701ZM508.7 52.7287C508.844 52.0405 509.071 51.3697 509.381 50.7162C509.69 50.0627 510.081 49.4993 510.553 49.0261C511.037 48.5555 511.602 48.2082 512.248 47.9842C512.906 47.7629 513.649 47.739 514.478 47.9125C514.949 48.0113 515.345 48.1873 515.664 48.4404C515.986 48.6808 516.239 48.9666 516.423 49.2977C516.606 49.6288 516.715 49.9975 516.75 50.4039C516.8 50.8001 516.782 51.2022 516.697 51.61C516.56 52.26 516.275 52.8588 515.841 53.4064C515.42 53.9568 514.905 54.4143 514.297 54.7791C513.704 55.1338 513.057 55.3641 512.356 55.4701C511.658 55.5634 510.985 55.4755 510.336 55.2066C510.271 55.5789 510.33 55.9037 510.511 56.1812C510.708 56.4485 510.96 56.6743 511.267 56.8584C511.574 57.0425 511.902 57.191 512.251 57.304C512.603 57.4042 512.919 57.4837 513.199 57.5424C513.492 57.6038 513.771 57.6357 514.037 57.6381C514.303 57.6405 514.57 57.6366 514.838 57.6262C515.106 57.6159 515.373 57.6119 515.638 57.6144C515.917 57.6194 516.202 57.6527 516.496 57.7141C516.61 57.7381 516.724 57.7685 516.836 57.8053C516.948 57.842 517.049 57.8966 517.141 57.9689C517.235 58.0285 517.303 58.1159 517.345 58.2312C517.39 58.3338 517.398 58.4552 517.369 58.5954C517.318 58.8375 517.186 59.0227 516.973 59.151C516.762 59.2666 516.505 59.3524 516.201 59.4083C515.909 59.467 515.591 59.4935 515.246 59.4878C514.904 59.4693 514.57 59.4459 514.243 59.4174C513.932 59.3788 513.642 59.3315 513.375 59.2754C513.117 59.2348 512.925 59.2011 512.797 59.1744C511.982 59.0036 511.276 58.7226 510.679 58.3316C510.085 57.9279 509.613 57.4499 509.263 56.8976C508.916 56.3327 508.689 55.6999 508.583 54.9992C508.493 54.2884 508.532 53.5316 508.7 52.7287ZM510.986 51.9106C510.893 52.3566 510.882 52.6936 510.954 52.9216C511.039 53.1522 511.317 53.3168 511.789 53.4156C512.12 53.485 512.457 53.4957 512.8 53.4478C513.145 53.3871 513.468 53.2751 513.768 53.1118C514.081 52.9512 514.345 52.7404 514.559 52.4793C514.773 52.2182 514.916 51.9156 514.988 51.5715C515.029 51.3803 515.051 51.1788 515.055 50.9669C515.072 50.7576 515.047 50.5595 514.98 50.3725C514.916 50.1727 514.811 50.0045 514.667 49.8678C514.538 49.7211 514.346 49.621 514.091 49.5677C513.709 49.4876 513.34 49.5034 512.984 49.6151C512.643 49.7167 512.335 49.885 512.06 50.12C511.787 50.3422 511.557 50.6134 511.371 50.9334C511.186 51.2408 511.058 51.5665 510.986 51.9106ZM519.851 50.5546C519.859 50.5164 519.872 50.4858 519.89 50.463C519.895 50.4375 519.909 50.407 519.929 50.3714C519.994 50.3184 520.087 50.2516 520.211 50.171C520.334 50.0904 520.408 50.0527 520.434 50.0581L524.276 50.8629C524.306 50.7227 524.333 50.4957 524.359 50.1818C524.385 49.8679 524.417 49.5222 524.457 49.1446C524.509 48.7697 524.582 48.386 524.678 47.9936C524.776 47.5885 524.903 47.2359 525.059 46.936C525.23 46.626 525.439 46.3904 525.686 46.2292C525.948 46.058 526.27 46.0124 526.652 46.0924C526.383 47.3796 526.256 48.4306 526.271 49.2454C526.287 50.0601 526.397 50.7085 526.602 51.1904C526.82 51.6751 527.107 52.0211 527.462 52.2287C527.818 52.4362 528.195 52.575 528.593 52.645C529.006 52.7049 529.414 52.7239 529.818 52.7021C530.221 52.6802 530.574 52.6808 530.875 52.704C531.189 52.7298 531.424 52.8124 531.581 52.9517C531.741 53.0783 531.784 53.32 531.709 53.6769C531.653 53.9445 531.549 54.1223 531.398 54.2103C531.259 54.301 531.011 54.3421 530.653 54.3338C530.549 54.3252 530.371 54.3146 530.121 54.3021C529.886 54.2796 529.62 54.2504 529.321 54.2144C529.023 54.1785 528.704 54.145 528.365 54.1138C528.028 54.0699 527.71 54.03 527.412 53.9941C527.113 53.9582 526.842 53.9212 526.597 53.8833C526.355 53.8326 526.176 53.7952 526.062 53.7712C526.048 53.8349 526.019 53.9419 525.975 54.0921C525.93 54.2424 525.902 54.343 525.891 54.394C525.774 54.9547 525.748 55.5214 525.815 56.0941C525.884 56.6539 525.965 57.2165 526.06 57.7817C526.167 58.3496 526.255 58.9135 526.324 59.4734C526.393 60.0333 526.369 60.5936 526.251 61.1544C526.23 61.2563 526.195 61.362 526.145 61.4713C526.111 61.5706 526.053 61.6582 525.97 61.734C525.903 61.7998 525.809 61.8398 525.686 61.854C525.573 61.8837 525.428 61.8466 525.25 61.7428C524.793 61.514 524.487 61.1639 524.333 60.6926C524.191 60.224 524.123 59.6909 524.129 59.0934C524.137 58.4831 524.19 57.849 524.288 57.1911C524.386 56.5331 524.449 55.9144 524.477 55.335C524.521 54.7455 524.495 54.2345 524.399 53.802C524.306 53.3568 524.071 53.0483 523.695 52.8763L520.182 51.2624C520.131 51.2517 520.065 51.1847 519.984 51.0614C519.906 50.9254 519.86 50.8292 519.845 50.7729C519.838 50.7447 519.838 50.7115 519.846 50.6733C519.839 50.6451 519.84 50.6056 519.851 50.5546ZM539.282 62.1077C538.728 62.3376 538.245 62.549 537.832 62.7419C537.435 62.9247 537.051 63.0706 536.683 63.1796C536.314 63.2886 535.929 63.3477 535.528 63.3568C535.14 63.3686 534.672 63.3172 534.124 63.2024C532.939 62.9541 532.125 62.4577 531.682 61.7131C531.242 60.9558 531.153 59.9526 531.414 58.7037C531.516 58.2194 531.685 57.7294 531.922 57.2335C532.159 56.7377 532.452 56.2603 532.8 55.8012C533.165 55.3321 533.567 54.9042 534.007 54.5175C534.45 54.118 534.926 53.7852 535.434 53.5191C535.942 53.2531 536.459 53.0688 536.986 52.9663C537.529 52.8538 538.074 52.8549 538.622 52.9697C539.521 53.2511 540.193 53.6313 540.638 54.1103C541.086 54.5766 541.383 55.1245 541.531 55.7541C541.681 56.3709 541.734 57.0404 541.689 57.7627C541.646 58.4722 541.573 59.2019 541.47 59.9518C541.379 60.7043 541.3 61.4595 541.235 62.2173C541.169 62.9752 541.211 63.6957 541.36 64.3789C541.107 64.7648 540.886 65.0245 540.698 65.1582C540.521 65.3072 540.355 65.3057 540.2 65.1536C540.046 65.0016 539.895 64.6772 539.746 64.1804C539.61 63.6863 539.455 62.9954 539.282 62.1077ZM533.031 59.0823C532.879 59.8087 532.901 60.372 533.096 60.7721C533.307 61.1622 533.763 61.4307 534.464 61.5775C534.987 61.6869 535.502 61.7018 536.011 61.6222C536.536 61.5324 537.01 61.3656 537.433 61.1218C537.859 60.8652 538.229 60.5302 538.542 60.1167C538.854 59.7033 539.069 59.2162 539.187 58.6555C539.235 58.4261 539.308 58.1088 539.406 57.7037C539.507 57.2858 539.568 56.8663 539.59 56.4451C539.612 56.0239 539.564 55.6481 539.447 55.3176C539.333 54.9744 539.097 54.7654 538.74 54.6907C538.078 54.5518 537.43 54.5958 536.797 54.8224C536.167 55.0363 535.593 55.3618 535.076 55.7989C534.559 56.236 534.118 56.7491 533.756 57.3383C533.395 57.9147 533.154 58.496 533.031 59.0823Z" fill="#6ED2D6"/>
<rect x="486.129" y="30.1838" width="80" height="29" rx="4" transform="rotate(11.83 486.129 30.1838)" stroke="#4BC4C9" stroke-width="2"/>
</svg>
