<svg width="496" height="88" viewBox="0 0 496 88" fill="none" xmlns="http://www.w3.org/2000/svg">
<mask id="path-1-inside-1_123_45" fill="white">
<rect width="48.233" height="48.233" rx="6" transform="matrix(0.736148 -0.676821 0.736148 0.676821 0 55.355)"/>
</mask>
<rect width="48.233" height="48.233" rx="6" transform="matrix(0.736148 -0.676821 0.736148 0.676821 0 55.355)" stroke="#843939" stroke-width="22" mask="url(#path-1-inside-1_123_45)"/>
<path d="M35.7852 5.5C51.05 5.50015 62.62 16.7739 62.6201 29.7295C62.6201 42.6852 51.0501 53.9588 35.7852 53.959C20.5201 53.959 8.94922 42.6852 8.94922 29.7295C8.94933 16.7738 20.5201 5.5 35.7852 5.5Z" stroke="#8DAD76" stroke-width="11"/>
<path d="M106.616 36.5806C106.512 36.216 106.303 35.9686 105.991 35.8384C105.705 35.7082 105.379 35.6431 105.014 35.6431C104.676 35.617 104.337 35.63 103.999 35.6821C103.66 35.7342 103.4 35.7603 103.218 35.7603C102.775 35.7342 102.007 35.6821 100.913 35.604C99.8191 35.5259 98.6342 35.4478 97.3582 35.3696C96.1082 35.2655 94.9363 35.1743 93.8425 35.0962C92.7488 34.992 91.9806 34.9269 91.5378 34.9009C91.5378 34.8488 91.5248 34.7186 91.4988 34.5103C91.4727 34.3019 91.4597 34.1587 91.4597 34.0806C91.4597 33.716 91.4858 33.3905 91.5378 33.104C91.616 32.8175 91.8764 32.5962 92.3191 32.4399C94.767 32.492 97.1759 32.479 99.5457 32.4009C101.941 32.3228 104.324 32.2186 106.694 32.0884C109.09 31.9321 111.473 31.7889 113.843 31.6587C116.238 31.5285 118.647 31.4634 121.069 31.4634C121.069 32.453 120.835 33.1821 120.366 33.6509C119.897 34.0936 119.311 34.3931 118.608 34.5493C117.931 34.7056 117.176 34.7707 116.343 34.7446C115.509 34.7186 114.702 34.7316 113.921 34.7837C113.165 34.8358 112.488 34.992 111.889 35.2524C111.316 35.4868 110.939 35.9295 110.757 36.5806C110.731 36.7368 110.705 37.0363 110.678 37.479C110.652 37.9217 110.626 38.3905 110.6 38.8853C110.6 39.38 110.587 39.8488 110.561 40.2915C110.561 40.7082 110.561 41.0076 110.561 41.1899C110.561 42.6743 110.744 44.1457 111.108 45.604C111.499 47.0363 111.915 48.4686 112.358 49.9009C112.827 51.3071 113.244 52.7264 113.608 54.1587C113.999 55.5649 114.194 56.9972 114.194 58.4556C114.194 59.5493 113.569 60.0962 112.319 60.0962C111.564 60.0962 110.887 59.5754 110.288 58.5337C109.715 57.492 109.207 56.1639 108.764 54.5493C108.348 52.9347 107.996 51.1769 107.71 49.2759C107.449 47.3748 107.228 45.5519 107.046 43.8071C106.889 42.0623 106.772 40.5259 106.694 39.1978C106.642 37.8696 106.616 36.9972 106.616 36.5806ZM123.257 43.6118C123.257 43.3774 123.27 43.1431 123.296 42.9087C123.322 42.6483 123.374 42.4269 123.452 42.2446C123.53 42.0363 123.647 41.867 123.803 41.7368C123.986 41.6066 124.233 41.5415 124.546 41.5415C124.806 41.5415 125.093 41.7498 125.405 42.1665C125.744 42.5571 126.082 43.0649 126.421 43.6899C126.759 44.2889 127.085 44.953 127.397 45.6821C127.736 46.4113 128.022 47.0884 128.257 47.7134C128.517 48.3123 128.725 48.8332 128.882 49.2759C129.038 49.7186 129.129 49.953 129.155 49.979C129.494 49.0675 129.871 48.078 130.288 47.0103C130.705 45.9425 131.212 44.953 131.811 44.0415C132.436 43.104 133.165 42.3228 133.999 41.6978C134.858 41.0728 135.9 40.7603 137.124 40.7603C137.749 40.7603 138.335 40.8644 138.882 41.0728C139.455 41.255 139.949 41.5415 140.366 41.9321C140.809 42.2967 141.16 42.7394 141.421 43.2603C141.681 43.7811 141.811 44.38 141.811 45.0571C141.811 45.63 141.577 46.0337 141.108 46.2681C140.665 46.5024 140.158 46.6196 139.585 46.6196H139.194L137.514 44.9399C137.462 44.9399 137.423 44.9269 137.397 44.9009C137.345 44.9009 137.293 44.9009 137.241 44.9009C137.215 44.8748 137.176 44.8618 137.124 44.8618C136.212 44.8618 135.496 45.1222 134.975 45.6431C134.481 46.1379 134.103 46.7629 133.843 47.5181C133.582 48.2472 133.413 49.0285 133.335 49.8618C133.283 50.6691 133.257 51.4113 133.257 52.0884C133.257 52.6092 133.309 53.1431 133.413 53.6899C133.517 54.2108 133.634 54.7316 133.764 55.2524C133.895 55.7472 134.012 56.2681 134.116 56.8149C134.22 57.3358 134.272 57.8826 134.272 58.4556C134.272 59.5493 133.686 60.0962 132.514 60.0962C131.863 60.0962 131.186 59.7576 130.483 59.0806C129.78 58.3774 129.077 57.492 128.374 56.4243C127.697 55.3566 127.046 54.1847 126.421 52.9087C125.796 51.6066 125.249 50.3436 124.78 49.1196C124.311 47.8957 123.934 46.7889 123.647 45.7993C123.387 44.8097 123.257 44.0806 123.257 43.6118ZM143.218 49.1587C143.218 47.7524 143.387 46.3462 143.725 44.9399C144.064 43.5337 144.598 42.2707 145.327 41.1509C146.082 40.0311 147.046 39.1196 148.218 38.4165C149.415 37.7134 150.861 37.3618 152.553 37.3618C153.517 37.3618 154.363 37.5441 155.093 37.9087C155.822 38.2472 156.434 38.703 156.928 39.2759C157.423 39.8488 157.788 40.5259 158.022 41.3071C158.283 42.0623 158.413 42.8566 158.413 43.6899C158.413 45.0181 158.1 46.3071 157.475 47.5571C156.876 48.8071 156.056 49.9139 155.014 50.8774C153.999 51.8149 152.827 52.5311 151.499 53.0259C150.171 53.4946 148.816 53.5988 147.436 53.3384C147.462 54.0936 147.71 54.7056 148.178 55.1743C148.673 55.617 149.259 55.9556 149.936 56.1899C150.613 56.4243 151.316 56.5806 152.046 56.6587C152.775 56.7108 153.426 56.7368 153.999 56.7368C154.598 56.7368 155.158 56.6847 155.678 56.5806C156.199 56.4764 156.72 56.3592 157.241 56.229C157.762 56.0988 158.283 55.9816 158.803 55.8774C159.35 55.7733 159.923 55.7212 160.522 55.7212C160.757 55.7212 160.991 55.7342 161.225 55.7603C161.46 55.7863 161.681 55.8514 161.889 55.9556C162.098 56.0337 162.267 56.1769 162.397 56.3853C162.527 56.5675 162.593 56.8019 162.593 57.0884C162.593 57.5832 162.41 57.9998 162.046 58.3384C161.681 58.6509 161.212 58.9243 160.639 59.1587C160.093 59.3931 159.481 59.5754 158.803 59.7056C158.126 59.8097 157.462 59.9009 156.811 59.979C156.186 60.0311 155.6 60.0571 155.053 60.0571C154.533 60.0832 154.142 60.0962 153.882 60.0962C152.215 60.0962 150.718 59.8358 149.389 59.3149C148.061 58.7681 146.941 58.0259 146.03 57.0884C145.119 56.1248 144.415 54.979 143.921 53.6509C143.452 52.2967 143.218 50.7993 143.218 49.1587ZM147.358 46.6196C147.358 47.5311 147.475 48.1951 147.71 48.6118C147.97 49.0285 148.582 49.2368 149.546 49.2368C150.223 49.2368 150.887 49.1196 151.538 48.8853C152.189 48.6248 152.775 48.2733 153.296 47.8306C153.843 47.3879 154.272 46.867 154.585 46.2681C154.897 45.6691 155.053 45.0181 155.053 44.3149C155.053 43.9243 155.014 43.5207 154.936 43.104C154.884 42.6873 154.754 42.3097 154.546 41.9712C154.337 41.6066 154.064 41.3201 153.725 41.1118C153.413 40.8774 152.996 40.7603 152.475 40.7603C151.694 40.7603 150.978 40.9425 150.327 41.3071C149.702 41.6457 149.168 42.1014 148.725 42.6743C148.283 43.2212 147.944 43.8462 147.71 44.5493C147.475 45.2264 147.358 45.9165 147.358 46.6196ZM165.014 49.1587C165.014 47.7524 165.184 46.3462 165.522 44.9399C165.861 43.5337 166.395 42.2707 167.124 41.1509C167.879 40.0311 168.843 39.1196 170.014 38.4165C171.212 37.7134 172.658 37.3618 174.35 37.3618C175.314 37.3618 176.16 37.5441 176.889 37.9087C177.619 38.2472 178.231 38.703 178.725 39.2759C179.22 39.8488 179.585 40.5259 179.819 41.3071C180.08 42.0623 180.21 42.8566 180.21 43.6899C180.21 45.0181 179.897 46.3071 179.272 47.5571C178.673 48.8071 177.853 49.9139 176.811 50.8774C175.796 51.8149 174.624 52.5311 173.296 53.0259C171.968 53.4946 170.613 53.5988 169.233 53.3384C169.259 54.0936 169.507 54.7056 169.975 55.1743C170.47 55.617 171.056 55.9556 171.733 56.1899C172.41 56.4243 173.113 56.5806 173.843 56.6587C174.572 56.7108 175.223 56.7368 175.796 56.7368C176.395 56.7368 176.955 56.6847 177.475 56.5806C177.996 56.4764 178.517 56.3592 179.038 56.229C179.559 56.0988 180.08 55.9816 180.6 55.8774C181.147 55.7733 181.72 55.7212 182.319 55.7212C182.553 55.7212 182.788 55.7342 183.022 55.7603C183.257 55.7863 183.478 55.8514 183.686 55.9556C183.895 56.0337 184.064 56.1769 184.194 56.3853C184.324 56.5675 184.389 56.8019 184.389 57.0884C184.389 57.5832 184.207 57.9998 183.843 58.3384C183.478 58.6509 183.009 58.9243 182.436 59.1587C181.889 59.3931 181.277 59.5754 180.6 59.7056C179.923 59.8097 179.259 59.9009 178.608 59.979C177.983 60.0311 177.397 60.0571 176.85 60.0571C176.33 60.0832 175.939 60.0962 175.678 60.0962C174.012 60.0962 172.514 59.8358 171.186 59.3149C169.858 58.7681 168.738 58.0259 167.827 57.0884C166.915 56.1248 166.212 54.979 165.718 53.6509C165.249 52.2967 165.014 50.7993 165.014 49.1587ZM169.155 46.6196C169.155 47.5311 169.272 48.1951 169.507 48.6118C169.767 49.0285 170.379 49.2368 171.343 49.2368C172.02 49.2368 172.684 49.1196 173.335 48.8853C173.986 48.6248 174.572 48.2733 175.093 47.8306C175.639 47.3879 176.069 46.867 176.382 46.2681C176.694 45.6691 176.85 45.0181 176.85 44.3149C176.85 43.9243 176.811 43.5207 176.733 43.104C176.681 42.6873 176.551 42.3097 176.343 41.9712C176.134 41.6066 175.861 41.3201 175.522 41.1118C175.21 40.8774 174.793 40.7603 174.272 40.7603C173.491 40.7603 172.775 40.9425 172.124 41.3071C171.499 41.6457 170.965 42.1014 170.522 42.6743C170.08 43.2212 169.741 43.8462 169.507 44.5493C169.272 45.2264 169.155 45.9165 169.155 46.6196ZM204.428 29.1587C204.428 28.3514 204.572 27.6873 204.858 27.1665C205.171 26.6457 205.587 26.229 206.108 25.9165C206.629 25.578 207.202 25.3306 207.827 25.1743C208.478 25.0181 209.142 24.9139 209.819 24.8618C210.522 24.7837 211.199 24.7576 211.85 24.7837C212.501 24.7837 213.1 24.7837 213.647 24.7837C214.715 24.7837 215.783 24.8879 216.85 25.0962C217.918 25.3045 218.856 25.6691 219.663 26.1899C220.496 26.7108 221.173 27.4139 221.694 28.2993C222.215 29.1587 222.475 30.2394 222.475 31.5415C222.475 32.6873 222.241 33.8332 221.772 34.979C221.33 36.0988 220.744 37.1795 220.014 38.2212C219.311 39.2368 218.504 40.1743 217.593 41.0337C216.681 41.867 215.77 42.5832 214.858 43.1821C213.973 43.7811 213.113 44.2498 212.28 44.5884C211.473 44.9269 210.796 45.0571 210.249 44.979C209.936 45.9946 209.741 47.0884 209.663 48.2603C209.611 49.4061 209.598 50.5389 209.624 51.6587C209.65 52.7524 209.689 53.8071 209.741 54.8228C209.793 55.8123 209.741 56.6717 209.585 57.4009C209.455 58.104 209.194 58.6379 208.803 59.0024C208.413 59.341 207.814 59.4451 207.007 59.3149C206.772 57.466 206.59 55.591 206.46 53.6899C206.356 51.7889 206.264 49.9009 206.186 48.0259C206.108 46.1509 206.03 44.328 205.952 42.5571C205.9 40.7603 205.809 39.0545 205.678 37.4399C205.574 35.8254 205.418 34.3149 205.21 32.9087C205.001 31.5024 204.741 30.2524 204.428 29.1587ZM214.077 28.1431C213.686 28.1431 213.205 28.1561 212.632 28.1821C212.059 28.2082 211.499 28.2993 210.952 28.4556C210.431 28.5858 209.988 28.8332 209.624 29.1978C209.259 29.5363 209.077 30.0311 209.077 30.6821V40.9165C210.145 40.9165 211.277 40.63 212.475 40.0571C213.673 39.4842 214.767 38.755 215.757 37.8696C216.746 36.9842 217.566 35.9816 218.218 34.8618C218.869 33.742 219.194 32.6353 219.194 31.5415C219.194 30.7342 219.038 30.1092 218.725 29.6665C218.439 29.2238 218.048 28.8853 217.553 28.6509C217.085 28.4165 216.551 28.2733 215.952 28.2212C215.353 28.1691 214.728 28.1431 214.077 28.1431ZM225.014 37.9087C225.014 37.1535 224.962 36.4243 224.858 35.7212C224.754 34.992 224.728 34.354 224.78 33.8071C224.832 33.2342 225.027 32.7785 225.366 32.4399C225.731 32.1014 226.382 31.9321 227.319 31.9321C227.606 32.5311 227.879 33.4425 228.139 34.6665C228.426 35.8905 228.699 37.2967 228.96 38.8853C229.22 40.4738 229.468 42.2056 229.702 44.0806C229.936 45.9295 230.145 47.7915 230.327 49.6665C230.535 51.5415 230.705 53.3905 230.835 55.2134C230.991 57.0103 231.108 58.6509 231.186 60.1353C230.327 60.7082 229.637 60.7472 229.116 60.2524C228.595 59.7576 228.165 58.9243 227.827 57.7524C227.488 56.5545 227.228 55.1092 227.046 53.4165C226.863 51.6978 226.681 49.9269 226.499 48.104C226.343 46.255 226.147 44.4451 225.913 42.6743C225.678 40.8774 225.379 39.2889 225.014 37.9087ZM250.014 54.979C249.025 55.6561 248.165 56.2681 247.436 56.8149C246.733 57.3358 246.043 57.7785 245.366 58.1431C244.689 58.5076 243.96 58.7811 243.178 58.9634C242.423 59.1457 241.486 59.2368 240.366 59.2368C237.944 59.2368 236.147 58.5988 234.975 57.3228C233.803 56.0207 233.218 54.0936 233.218 51.5415C233.218 50.5519 233.348 49.5233 233.608 48.4556C233.869 47.3879 234.246 46.3332 234.741 45.2915C235.262 44.2238 235.874 43.2212 236.577 42.2837C237.28 41.3201 238.074 40.4738 238.96 39.7446C239.845 39.0155 240.783 38.4425 241.772 38.0259C242.788 37.5832 243.856 37.3618 244.975 37.3618C246.85 37.5441 248.322 38.0129 249.389 38.7681C250.457 39.4972 251.264 40.4478 251.811 41.6196C252.358 42.7655 252.736 44.0545 252.944 45.4868C253.152 46.8931 253.309 48.3514 253.413 49.8618C253.543 51.3722 253.699 52.8826 253.882 54.3931C254.064 55.9035 254.441 57.2967 255.014 58.5728C254.676 59.4321 254.35 60.0311 254.038 60.3696C253.751 60.7342 253.426 60.7993 253.061 60.5649C252.697 60.3306 252.267 59.7576 251.772 58.8462C251.303 57.9347 250.718 56.6457 250.014 54.979ZM236.538 51.6196C236.538 53.104 236.811 54.1978 237.358 54.9009C237.931 55.578 238.934 55.9165 240.366 55.9165C241.434 55.9165 242.449 55.7342 243.413 55.3696C244.402 54.979 245.262 54.4582 245.991 53.8071C246.72 53.13 247.306 52.3228 247.749 51.3853C248.191 50.4478 248.413 49.4061 248.413 48.2603C248.413 47.7915 248.426 47.1405 248.452 46.3071C248.478 45.4478 248.426 44.6014 248.296 43.7681C248.165 42.9347 247.918 42.2186 247.553 41.6196C247.189 40.9946 246.642 40.6821 245.913 40.6821C244.559 40.6821 243.309 41.0337 242.163 41.7368C241.017 42.4139 240.027 43.2863 239.194 44.354C238.361 45.4217 237.71 46.6066 237.241 47.9087C236.772 49.1847 236.538 50.4217 236.538 51.6196ZM257.475 46.854C257.475 46.1769 257.645 45.6951 257.983 45.4087C258.322 45.0962 258.869 44.9399 259.624 44.9399H260.014C260.093 45.3566 260.184 45.8384 260.288 46.3853C260.392 46.9321 260.548 47.492 260.757 48.0649C260.965 48.6379 261.212 49.1717 261.499 49.6665C261.785 50.1353 262.137 50.5129 262.553 50.7993C262.58 49.8879 262.801 49.0155 263.218 48.1821C263.66 47.3228 264.194 46.5675 264.819 45.9165C265.47 45.2394 266.173 44.6795 266.928 44.2368C267.71 43.7681 268.478 43.4556 269.233 43.2993H270.093C271.343 43.2993 272.41 43.5858 273.296 44.1587C274.181 44.7056 274.91 45.4347 275.483 46.3462C276.082 47.2316 276.538 48.2472 276.85 49.3931C277.163 50.5389 277.397 51.7108 277.553 52.9087C277.736 54.0806 277.84 55.2264 277.866 56.3462C277.918 57.4399 277.944 58.3774 277.944 59.1587H275.093C274.936 57.5962 274.741 56.0988 274.507 54.6665C274.428 54.0936 274.324 53.4946 274.194 52.8696C274.064 52.2186 273.921 51.6196 273.764 51.0728C273.608 50.4998 273.439 49.979 273.257 49.5103C273.074 49.0155 272.866 48.5988 272.632 48.2603C272.527 48.1561 272.384 48.0129 272.202 47.8306C272.046 47.6483 271.876 47.466 271.694 47.2837C271.512 47.1014 271.343 46.9451 271.186 46.8149C271.03 46.6847 270.939 46.6196 270.913 46.6196C270.132 46.4113 269.455 46.5675 268.882 47.0884C268.309 47.5832 267.801 48.2603 267.358 49.1196C266.915 49.979 266.551 50.9556 266.264 52.0493C266.004 53.1431 265.783 54.1978 265.6 55.2134C265.418 56.203 265.288 57.0754 265.21 57.8306C265.132 58.5597 265.08 59.0024 265.053 59.1587C264.402 59.6274 263.79 59.7707 263.218 59.5884C262.645 59.38 262.098 58.9634 261.577 58.3384C261.082 57.7134 260.626 56.9321 260.21 55.9946C259.819 55.0571 259.455 54.0675 259.116 53.0259C258.777 51.9582 258.465 50.8905 258.178 49.8228C257.918 48.755 257.684 47.7655 257.475 46.854ZM279.233 40.3306C279.233 40.2524 279.246 40.1873 279.272 40.1353C279.272 40.0832 279.285 40.0181 279.311 39.9399C279.415 39.8097 279.572 39.6405 279.78 39.4321C279.988 39.2238 280.119 39.1196 280.171 39.1196H288.022C288.022 38.8332 287.983 38.3774 287.905 37.7524C287.827 37.1274 287.749 36.4373 287.671 35.6821C287.619 34.9269 287.606 34.1457 287.632 33.3384C287.658 32.505 287.762 31.7629 287.944 31.1118C288.152 30.4347 288.465 29.8879 288.882 29.4712C289.324 29.0285 289.936 28.8071 290.718 28.8071C290.718 31.4373 290.9 33.5467 291.264 35.1353C291.629 36.7238 292.111 37.9478 292.71 38.8071C293.335 39.6665 294.038 40.2264 294.819 40.4868C295.6 40.7472 296.395 40.8644 297.202 40.8384C298.035 40.7863 298.843 40.6561 299.624 40.4478C300.405 40.2394 301.095 40.0962 301.694 40.0181C302.319 39.9399 302.814 40.005 303.178 40.2134C303.543 40.3957 303.725 40.8514 303.725 41.5806C303.725 42.1274 303.595 42.5181 303.335 42.7524C303.1 42.9868 302.632 43.1691 301.928 43.2993C301.72 43.3254 301.369 43.3774 300.874 43.4556C300.405 43.5076 299.871 43.5597 299.272 43.6118C298.673 43.6639 298.035 43.729 297.358 43.8071C296.681 43.8592 296.043 43.9113 295.444 43.9634C294.845 44.0155 294.298 44.0545 293.803 44.0806C293.309 44.0806 292.944 44.0806 292.71 44.0806C292.71 44.2108 292.697 44.4321 292.671 44.7446C292.645 45.0571 292.632 45.2655 292.632 45.3696C292.632 46.5155 292.814 47.6353 293.178 48.729C293.543 49.7967 293.934 50.8644 294.35 51.9321C294.793 52.9998 295.197 54.0675 295.561 55.1353C295.926 56.203 296.108 57.3097 296.108 58.4556C296.108 58.6639 296.082 58.8853 296.03 59.1196C296.004 59.328 295.926 59.5233 295.796 59.7056C295.691 59.8618 295.522 59.979 295.288 60.0571C295.08 60.1613 294.78 60.1483 294.389 60.0181C293.4 59.7576 292.658 59.1978 292.163 58.3384C291.694 57.479 291.343 56.4634 291.108 55.2915C290.874 54.0936 290.718 52.8306 290.639 51.5024C290.561 50.1743 290.431 48.9373 290.249 47.7915C290.093 46.6196 289.832 45.63 289.468 44.8228C289.103 43.9894 288.517 43.4816 287.71 43.2993L280.171 41.5806C280.066 41.5806 279.91 41.4764 279.702 41.2681C279.494 41.0337 279.363 40.8644 279.311 40.7603C279.285 40.7082 279.272 40.6431 279.272 40.5649C279.246 40.5129 279.233 40.4347 279.233 40.3306ZM306.85 45.3696C306.85 45.2134 306.85 44.966 306.85 44.6274C306.876 44.2629 306.889 43.8853 306.889 43.4946C306.915 43.104 306.928 42.7264 306.928 42.3618C306.955 41.9972 306.968 41.7368 306.968 41.5806C307.254 41.1639 307.619 40.8254 308.061 40.5649C308.53 40.3045 308.999 40.0962 309.468 39.9399C309.546 41.3462 309.767 42.8436 310.132 44.4321C310.496 46.0207 310.887 47.6222 311.303 49.2368C311.72 50.8254 312.085 52.4009 312.397 53.9634C312.736 55.5259 312.905 56.9842 312.905 58.3384C312.905 59.5103 312.306 60.0962 311.108 60.0962C310.379 60.0962 309.767 59.7967 309.272 59.1978C308.777 58.5988 308.374 57.8436 308.061 56.9321C307.775 55.9946 307.54 54.966 307.358 53.8462C307.176 52.7004 307.046 51.5806 306.968 50.4868C306.915 49.3931 306.876 48.3905 306.85 47.479C306.85 46.5675 306.85 45.8644 306.85 45.3696ZM307.397 30.7212C307.892 30.9295 308.309 31.2681 308.647 31.7368C308.986 32.2056 309.129 32.6353 309.077 33.0259C309.051 33.3905 308.764 33.6509 308.218 33.8071C307.671 33.9373 306.759 33.7811 305.483 33.3384C305.483 32.6353 305.613 32.0233 305.874 31.5024C306.16 30.9816 306.668 30.7212 307.397 30.7212ZM314.428 46.854C314.428 46.1769 314.598 45.6951 314.936 45.4087C315.275 45.0962 315.822 44.9399 316.577 44.9399H316.968C317.046 45.3566 317.137 45.8384 317.241 46.3853C317.345 46.9321 317.501 47.492 317.71 48.0649C317.918 48.6379 318.165 49.1717 318.452 49.6665C318.738 50.1353 319.09 50.5129 319.507 50.7993C319.533 49.8879 319.754 49.0155 320.171 48.1821C320.613 47.3228 321.147 46.5675 321.772 45.9165C322.423 45.2394 323.126 44.6795 323.882 44.2368C324.663 43.7681 325.431 43.4556 326.186 43.2993H327.046C328.296 43.2993 329.363 43.5858 330.249 44.1587C331.134 44.7056 331.863 45.4347 332.436 46.3462C333.035 47.2316 333.491 48.2472 333.803 49.3931C334.116 50.5389 334.35 51.7108 334.507 52.9087C334.689 54.0806 334.793 55.2264 334.819 56.3462C334.871 57.4399 334.897 58.3774 334.897 59.1587H332.046C331.889 57.5962 331.694 56.0988 331.46 54.6665C331.382 54.0936 331.277 53.4946 331.147 52.8696C331.017 52.2186 330.874 51.6196 330.718 51.0728C330.561 50.4998 330.392 49.979 330.21 49.5103C330.027 49.0155 329.819 48.5988 329.585 48.2603C329.481 48.1561 329.337 48.0129 329.155 47.8306C328.999 47.6483 328.83 47.466 328.647 47.2837C328.465 47.1014 328.296 46.9451 328.139 46.8149C327.983 46.6847 327.892 46.6196 327.866 46.6196C327.085 46.4113 326.408 46.5675 325.835 47.0884C325.262 47.5832 324.754 48.2603 324.311 49.1196C323.869 49.979 323.504 50.9556 323.218 52.0493C322.957 53.1431 322.736 54.1978 322.553 55.2134C322.371 56.203 322.241 57.0754 322.163 57.8306C322.085 58.5597 322.033 59.0024 322.007 59.1587C321.356 59.6274 320.744 59.7707 320.171 59.5884C319.598 59.38 319.051 58.9634 318.53 58.3384C318.035 57.7134 317.58 56.9321 317.163 55.9946C316.772 55.0571 316.408 54.0675 316.069 53.0259C315.731 51.9582 315.418 50.8905 315.132 49.8228C314.871 48.755 314.637 47.7655 314.428 46.854ZM347.124 80.7993C348.582 80.7993 349.884 80.5259 351.03 79.979C352.176 79.4582 353.139 78.729 353.921 77.7915C354.728 76.88 355.34 75.8254 355.757 74.6274C356.199 73.4556 356.421 72.2316 356.421 70.9556C356.421 70.3045 356.382 69.4451 356.303 68.3774C356.251 67.3097 356.16 66.1509 356.03 64.9009C355.9 63.6509 355.705 62.3748 355.444 61.0728C355.21 59.7707 354.91 58.5467 354.546 57.4009C354.181 56.229 353.725 55.2134 353.178 54.354C352.658 53.4686 352.046 52.8436 351.343 52.479C350.665 52.9998 350.001 53.4816 349.35 53.9243C348.699 54.341 348.022 54.6925 347.319 54.979C346.616 55.2655 345.887 55.4998 345.132 55.6821C344.376 55.8384 343.569 55.9165 342.71 55.9165C341.59 55.9165 340.626 55.8123 339.819 55.604C339.038 55.3957 338.374 55.0441 337.827 54.5493C337.306 54.0545 336.915 53.4035 336.655 52.5962C336.395 51.7889 336.264 50.7733 336.264 49.5493C336.264 48.6899 336.473 47.8566 336.889 47.0493C337.306 46.216 337.853 45.4478 338.53 44.7446C339.233 44.0155 340.014 43.3514 340.874 42.7524C341.759 42.1535 342.658 41.6326 343.569 41.1899C344.507 40.7472 345.418 40.4087 346.303 40.1743C347.215 39.9399 348.022 39.8228 348.725 39.8228C349.402 39.8228 349.962 39.8488 350.405 39.9009C350.848 39.9269 351.225 40.0311 351.538 40.2134C351.85 40.3696 352.111 40.63 352.319 40.9946C352.553 41.3332 352.775 41.8019 352.983 42.4009C353.582 44.4321 354.272 46.6196 355.053 48.9634C355.835 51.3071 356.577 53.716 357.28 56.1899C357.983 58.6639 358.569 61.1509 359.038 63.6509C359.533 66.1769 359.78 68.6118 359.78 70.9556C359.78 73.0389 359.481 74.7967 358.882 76.229C358.309 77.6873 357.54 78.8722 356.577 79.7837C355.639 80.7212 354.559 81.4373 353.335 81.9321C352.137 82.4269 350.926 82.7394 349.702 82.8696C348.478 83.0259 347.293 83.0649 346.147 82.9868C345.001 82.9087 344.012 82.7524 343.178 82.5181C342.345 82.3097 341.707 82.0623 341.264 81.7759C340.848 81.4894 340.744 81.242 340.952 81.0337C341.186 80.8514 341.785 80.7212 342.749 80.6431C343.712 80.5649 345.171 80.617 347.124 80.7993ZM347.671 43.104C345.744 43.5207 344.181 44.1066 342.983 44.8618C341.811 45.591 340.926 46.3853 340.327 47.2446C339.754 48.078 339.441 48.9243 339.389 49.7837C339.337 50.617 339.494 51.3332 339.858 51.9321C340.223 52.5311 340.744 52.9868 341.421 53.2993C342.124 53.5858 342.918 53.5988 343.803 53.3384C344.689 53.0519 345.626 52.453 346.616 51.5415C347.632 50.63 348.647 49.2759 349.663 47.479C349.663 47.0363 349.663 46.5545 349.663 46.0337C349.689 45.5129 349.65 45.0441 349.546 44.6274C349.441 44.1847 349.246 43.8201 348.96 43.5337C348.673 43.2472 348.244 43.104 347.671 43.104ZM377.671 46.6196C377.671 45.7342 377.788 44.7707 378.022 43.729C378.283 42.6873 378.634 41.6457 379.077 40.604C379.52 39.5363 380.053 38.5076 380.678 37.5181C381.303 36.5024 382.007 35.617 382.788 34.8618C383.569 34.0806 384.415 33.4686 385.327 33.0259C386.238 32.5571 387.202 32.3228 388.218 32.3228C389.051 32.3228 389.832 32.4399 390.561 32.6743C391.29 32.8826 391.915 33.2082 392.436 33.6509C392.957 34.0936 393.361 34.6535 393.647 35.3306C393.96 35.9816 394.116 36.7629 394.116 37.6743C393.543 37.6743 393.074 37.5311 392.71 37.2446C392.371 36.9321 392.046 36.5936 391.733 36.229C391.447 35.8644 391.121 35.5389 390.757 35.2524C390.418 34.966 389.975 34.8228 389.428 34.8228C388.621 34.8228 387.84 35.0311 387.085 35.4478C386.356 35.8644 385.665 36.4243 385.014 37.1274C384.389 37.8306 383.83 38.6248 383.335 39.5103C382.866 40.3957 382.449 41.2941 382.085 42.2056C381.746 43.091 381.473 43.9634 381.264 44.8228C381.082 45.6821 380.991 46.4243 380.991 47.0493C380.991 48.4035 381.186 49.6795 381.577 50.8774C381.994 52.0493 382.58 53.078 383.335 53.9634C384.09 54.8228 385.027 55.4998 386.147 55.9946C387.267 56.4894 388.543 56.7368 389.975 56.7368C390.887 56.7368 391.746 56.6066 392.553 56.3462C393.387 56.0597 394.181 55.7603 394.936 55.4478C395.718 55.1092 396.486 54.7967 397.241 54.5103C397.996 54.2238 398.751 54.0806 399.507 54.0806C399.611 54.0806 399.754 54.0936 399.936 54.1196C400.145 54.1196 400.327 54.1457 400.483 54.1978C400.665 54.2498 400.822 54.341 400.952 54.4712C401.082 54.5754 401.147 54.7446 401.147 54.979C401.147 55.9165 400.783 56.7108 400.053 57.3618C399.35 58.0129 398.504 58.5467 397.514 58.9634C396.525 59.354 395.496 59.6405 394.428 59.8228C393.361 60.005 392.488 60.0962 391.811 60.0962C389.832 60.0962 387.983 59.7837 386.264 59.1587C384.546 58.5076 383.048 57.5962 381.772 56.4243C380.496 55.2524 379.494 53.8462 378.764 52.2056C378.035 50.5389 377.671 48.6769 377.671 46.6196ZM419.585 54.979C418.595 55.6561 417.736 56.2681 417.007 56.8149C416.303 57.3358 415.613 57.7785 414.936 58.1431C414.259 58.5076 413.53 58.7811 412.749 58.9634C411.994 59.1457 411.056 59.2368 409.936 59.2368C407.514 59.2368 405.718 58.5988 404.546 57.3228C403.374 56.0207 402.788 54.0936 402.788 51.5415C402.788 50.5519 402.918 49.5233 403.178 48.4556C403.439 47.3879 403.816 46.3332 404.311 45.2915C404.832 44.2238 405.444 43.2212 406.147 42.2837C406.85 41.3201 407.645 40.4738 408.53 39.7446C409.415 39.0155 410.353 38.4425 411.343 38.0259C412.358 37.5832 413.426 37.3618 414.546 37.3618C416.421 37.5441 417.892 38.0129 418.96 38.7681C420.027 39.4972 420.835 40.4478 421.382 41.6196C421.928 42.7655 422.306 44.0545 422.514 45.4868C422.723 46.8931 422.879 48.3514 422.983 49.8618C423.113 51.3722 423.27 52.8826 423.452 54.3931C423.634 55.9035 424.012 57.2967 424.585 58.5728C424.246 59.4321 423.921 60.0311 423.608 60.3696C423.322 60.7342 422.996 60.7993 422.632 60.5649C422.267 60.3306 421.837 59.7576 421.343 58.8462C420.874 57.9347 420.288 56.6457 419.585 54.979ZM406.108 51.6196C406.108 53.104 406.382 54.1978 406.928 54.9009C407.501 55.578 408.504 55.9165 409.936 55.9165C411.004 55.9165 412.02 55.7342 412.983 55.3696C413.973 54.979 414.832 54.4582 415.561 53.8071C416.29 53.13 416.876 52.3228 417.319 51.3853C417.762 50.4478 417.983 49.4061 417.983 48.2603C417.983 47.7915 417.996 47.1405 418.022 46.3071C418.048 45.4478 417.996 44.6014 417.866 43.7681C417.736 42.9347 417.488 42.2186 417.124 41.6196C416.759 40.9946 416.212 40.6821 415.483 40.6821C414.129 40.6821 412.879 41.0337 411.733 41.7368C410.587 42.4139 409.598 43.2863 408.764 44.354C407.931 45.4217 407.28 46.6066 406.811 47.9087C406.343 49.1847 406.108 50.4217 406.108 51.6196ZM426.186 43.6118C426.186 42.9608 426.29 42.453 426.499 42.0884C426.733 41.7238 427.215 41.5415 427.944 41.5415C428.022 41.5415 428.165 41.5545 428.374 41.5806C428.608 41.5806 428.751 41.5806 428.803 41.5806C428.986 42.3879 429.168 43.2733 429.35 44.2368C429.559 45.1743 429.793 46.1248 430.053 47.0884C430.314 48.0519 430.6 49.0024 430.913 49.9399C431.251 50.8774 431.655 51.7238 432.124 52.479C432.593 51.9842 432.931 51.3983 433.139 50.7212C433.348 50.0441 433.504 49.367 433.608 48.6899C433.712 47.9868 433.803 47.3228 433.882 46.6978C433.986 46.0467 434.181 45.4998 434.468 45.0571C434.754 44.5884 435.171 44.2498 435.718 44.0415C436.29 43.8332 437.072 43.8332 438.061 44.0415C439.155 44.0415 440.027 44.2498 440.678 44.6665C441.33 45.0571 441.889 45.5649 442.358 46.1899C442.853 46.7889 443.322 47.4399 443.764 48.1431C444.233 48.8201 444.819 49.4321 445.522 49.979C445.678 49.6405 445.874 49.2238 446.108 48.729C446.343 48.2082 446.629 47.6743 446.968 47.1274C447.332 46.5545 447.71 45.9946 448.1 45.4478C448.517 44.8748 448.947 44.367 449.389 43.9243C449.832 43.4556 450.288 43.078 450.757 42.7915C451.225 42.479 451.681 42.3228 452.124 42.3228C453.191 42.3228 454.116 42.6613 454.897 43.3384C455.678 43.9894 456.343 44.8228 456.889 45.8384C457.462 46.828 457.931 47.9478 458.296 49.1978C458.66 50.4217 458.947 51.6066 459.155 52.7524C459.363 53.8983 459.507 54.953 459.585 55.9165C459.689 56.854 459.741 57.5311 459.741 57.9478C459.741 58.2863 459.663 58.5467 459.507 58.729C459.35 58.9113 459.155 59.0545 458.921 59.1587C458.686 59.2368 458.426 59.2889 458.139 59.3149C457.879 59.341 457.632 59.354 457.397 59.354C457.345 59.354 457.267 59.354 457.163 59.354C457.059 59.328 456.941 59.3019 456.811 59.2759C456.707 59.2498 456.564 59.2108 456.382 59.1587L453.843 47.479C453.843 47.4009 453.738 47.2576 453.53 47.0493C453.322 46.8149 453.165 46.6717 453.061 46.6196C452.983 46.6196 452.918 46.6066 452.866 46.5806C452.814 46.5806 452.775 46.5806 452.749 46.5806C452.723 46.5545 452.697 46.5415 452.671 46.5415C452.124 46.5415 451.603 46.7629 451.108 47.2056C450.639 47.6483 450.197 48.2082 449.78 48.8853C449.363 49.5623 448.973 50.3175 448.608 51.1509C448.244 51.9842 447.918 52.8175 447.632 53.6509C447.345 54.4582 447.085 55.2134 446.85 55.9165C446.642 56.5936 446.473 57.1144 446.343 57.479C446.238 57.5311 446.03 57.5832 445.718 57.6353C445.405 57.6613 445.197 57.6743 445.093 57.6743C444.363 57.6743 443.803 57.4269 443.413 56.9321C443.022 56.4113 442.697 55.7733 442.436 55.0181C442.202 54.2629 441.994 53.4425 441.811 52.5571C441.655 51.6457 441.447 50.8123 441.186 50.0571C440.952 49.3019 440.613 48.6769 440.171 48.1821C439.754 47.6613 439.155 47.4009 438.374 47.4009C438.087 47.4009 437.814 47.6873 437.553 48.2603C437.293 48.8332 437.059 49.5623 436.85 50.4478C436.642 51.3071 436.447 52.2446 436.264 53.2603C436.082 54.2498 435.926 55.1873 435.796 56.0728C435.691 56.9321 435.613 57.6613 435.561 58.2603C435.509 58.8592 435.483 59.1587 435.483 59.1587C435.431 59.2368 435.327 59.328 435.171 59.4321C435.014 59.5103 434.845 59.6014 434.663 59.7056C434.507 59.8097 434.337 59.8879 434.155 59.9399C433.999 59.992 433.882 60.0181 433.803 60.0181C433.074 60.0181 432.371 59.6925 431.694 59.0415C431.017 58.3644 430.392 57.505 429.819 56.4634C429.272 55.3957 428.764 54.2238 428.296 52.9478C427.853 51.6717 427.475 50.4217 427.163 49.1978C426.85 47.9738 426.603 46.867 426.421 45.8774C426.264 44.8879 426.186 44.1326 426.186 43.6118ZM461.343 45.604C461.343 43.078 461.928 41.203 463.1 39.979C464.272 38.755 466.069 38.1431 468.491 38.1431C469.481 38.1431 470.496 38.2342 471.538 38.4165C472.606 38.5988 473.582 38.9243 474.468 39.3931C475.353 39.8358 476.069 40.4608 476.616 41.2681C477.189 42.0754 477.475 43.117 477.475 44.3931C477.475 45.7993 477.163 47.1274 476.538 48.3774C475.939 49.6014 475.171 50.7603 474.233 51.854C473.322 52.9217 472.306 53.9243 471.186 54.8618C470.093 55.7733 469.064 56.6457 468.1 57.479C468.048 57.5832 467.996 57.8045 467.944 58.1431C467.918 58.4556 467.905 58.6639 467.905 58.7681C467.905 59.6274 468.152 60.4868 468.647 61.3462C469.168 62.2316 469.728 63.117 470.327 64.0024C470.926 64.9139 471.473 65.8514 471.968 66.8149C472.462 67.7785 472.71 68.7811 472.71 69.8228C472.71 70.4478 472.58 70.8123 472.319 70.9165C472.059 71.0467 471.512 71.1118 470.678 71.1118C470.158 70.9035 469.637 70.4087 469.116 69.6274C468.621 68.8722 468.113 67.9347 467.593 66.8149C467.098 65.6951 466.603 64.4321 466.108 63.0259C465.639 61.6457 465.184 60.2394 464.741 58.8071C464.324 57.3488 463.921 55.9165 463.53 54.5103C463.165 53.078 462.84 51.7629 462.553 50.5649C462.267 49.367 462.007 48.3384 461.772 47.479C461.564 46.5936 461.421 45.9686 461.343 45.604ZM464.663 45.9556C464.663 46.3462 464.689 46.9191 464.741 47.6743C464.793 48.4035 464.897 49.1326 465.053 49.8618C465.236 50.591 465.496 51.229 465.835 51.7759C466.173 52.2967 466.642 52.5571 467.241 52.5571C468.048 52.5571 468.856 52.2837 469.663 51.7368C470.496 51.1899 471.225 50.4998 471.85 49.6665C472.501 48.8332 473.022 47.9478 473.413 47.0103C473.83 46.0467 474.038 45.1743 474.038 44.3931C474.038 43.742 473.882 43.2342 473.569 42.8696C473.257 42.479 472.853 42.1795 472.358 41.9712C471.889 41.7368 471.382 41.5936 470.835 41.5415C470.288 41.4634 469.767 41.4243 469.272 41.4243C467.788 41.4243 466.642 41.828 465.835 42.6353C465.053 43.4165 464.663 44.5233 464.663 45.9556Z" fill="black"/>
</svg>
