<svg width="1164" height="99" viewBox="0 0 1164 99" fill="none" xmlns="http://www.w3.org/2000/svg">
<rect y="99" width="5" height="1164" transform="rotate(-90 0 99)" fill="url(#paint0_linear_214_63)"/>
<rect x="29" y="52.6553" width="74.4658" height="30.1861" transform="rotate(-45 29 52.6553)" fill="url(#paint1_linear_214_63)"/>
<rect x="30.2352" y="31.6035" width="43.9299" height="43.9299" transform="rotate(-45.5799 30.2352 31.6035)" fill="url(#paint2_linear_214_63)"/>
<rect x="58.1099" y="19.2153" width="7.46457" height="7.05884" transform="rotate(-45 58.1099 19.2153)" fill="url(#paint3_linear_214_63)"/>
<rect x="44.9061" y="30.9521" width="7.46457" height="7.05884" transform="rotate(-45 44.9061 30.9521)" fill="url(#paint4_linear_214_63)"/>
<path d="M119 23.2143H121.679V25.8929H119V23.2143ZM121.679 23.2143H124.357V25.8929H121.679V23.2143ZM121.679 25.8929H124.357V28.5714H121.679V25.8929ZM121.679 28.5714H124.357V31.25H121.679V28.5714ZM121.679 31.25H124.357V33.9286H121.679V31.25ZM119 31.25H121.679V33.9286H119V31.25ZM119 28.5714H121.679V31.25H119V28.5714ZM119 25.8929H121.679V28.5714H119V25.8929ZM119 33.9286H121.679V36.6071H119V33.9286ZM119 36.6071H121.679V39.2857H119V36.6071ZM119 39.2857H121.679V41.9643H119V39.2857ZM121.679 36.6071H124.357V39.2857H121.679V36.6071ZM121.679 33.9286H124.357V36.6071H121.679V33.9286ZM121.679 39.2857H124.357V41.9643H121.679V39.2857ZM121.679 41.9643H124.357V44.6429H121.679V41.9643ZM119 44.6429H121.679V47.3214H119V44.6429ZM119 41.9643H121.679V44.6429H119V41.9643ZM119 47.3214H121.679V50H119V47.3214ZM121.679 47.3214H124.357V50H121.679V47.3214ZM121.679 44.6429H124.357V47.3214H121.679V44.6429ZM124.357 47.3214H127.036V50H124.357V47.3214ZM127.036 47.3214H129.714V50H127.036V47.3214ZM129.714 47.3214H132.393V50H129.714V47.3214ZM129.714 44.6429H132.393V47.3214H129.714V44.6429ZM127.036 44.6429H129.714V47.3214H127.036V44.6429ZM124.357 44.6429H127.036V47.3214H124.357V44.6429ZM124.357 23.2143H127.036V25.8929H124.357V23.2143ZM127.036 23.2143H129.714V25.8929H127.036V23.2143ZM129.714 23.2143H132.393V25.8929H129.714V23.2143ZM132.393 23.2143H135.071V25.8929H132.393V23.2143ZM129.714 25.8929H132.393V28.5714H129.714V25.8929ZM127.036 25.8929H129.714V28.5714H127.036V25.8929ZM124.357 25.8929H127.036V28.5714H124.357V25.8929ZM124.357 36.6071H127.036V39.2857H124.357V36.6071ZM127.036 33.9286H129.714V36.6071H127.036V33.9286ZM124.357 33.9286H127.036V36.6071H124.357V33.9286ZM127.036 36.6071H129.714V39.2857H127.036V36.6071ZM132.393 25.8929H135.071V28.5714H132.393V25.8929ZM132.393 44.6429H135.071V47.3214H132.393V44.6429ZM132.393 47.3214H135.071V50H132.393V47.3214ZM129.714 33.9286H132.393V36.6071H129.714V33.9286ZM129.714 36.6071H132.393V39.2857H129.714V36.6071ZM143.107 23.2143H145.786V25.8929H143.107V23.2143ZM140.429 23.2143H143.107V25.8929H140.429V23.2143ZM140.429 25.8929H143.107V28.5714H140.429V25.8929ZM143.107 25.8929H145.786V28.5714H143.107V25.8929ZM145.786 25.8929H148.464V28.5714H145.786V25.8929ZM145.786 23.2143H148.464V25.8929H145.786V23.2143ZM148.464 23.2143H151.143V25.8929H148.464V23.2143ZM151.143 23.2143H153.821V25.8929H151.143V23.2143ZM151.143 25.8929H153.821V28.5714H151.143V25.8929ZM148.464 25.8929H151.143V28.5714H148.464V25.8929ZM148.464 28.5714H151.143V31.25H148.464V28.5714ZM151.143 28.5714H153.821V31.25H151.143V28.5714ZM153.821 25.8929H156.5V28.5714H153.821V25.8929ZM153.821 28.5714H156.5V31.25H153.821V28.5714ZM153.821 31.25H156.5V33.9286H153.821V31.25ZM153.821 33.9286H156.5V36.6071H153.821V33.9286ZM153.821 36.6071H156.5V39.2857H153.821V36.6071ZM153.821 39.2857H156.5V41.9643H153.821V39.2857ZM153.821 41.9643H156.5V44.6429H153.821V41.9643ZM153.821 44.6429H156.5V47.3214H153.821V44.6429ZM151.143 44.6429H153.821V47.3214H151.143V44.6429ZM151.143 41.9643H153.821V44.6429H151.143V41.9643ZM151.143 39.2857H153.821V41.9643H151.143V39.2857ZM151.143 36.6071H153.821V39.2857H151.143V36.6071ZM151.143 33.9286H153.821V36.6071H151.143V33.9286ZM151.143 31.25H153.821V33.9286H151.143V31.25ZM148.464 41.9643H151.143V44.6429H148.464V41.9643ZM148.464 44.6429H151.143V47.3214H148.464V44.6429ZM151.143 47.3214H153.821V50H151.143V47.3214ZM148.464 47.3214H151.143V50H148.464V47.3214ZM145.786 47.3214H148.464V50H145.786V47.3214ZM145.786 44.6429H148.464V47.3214H145.786V44.6429ZM143.107 47.3214H145.786V50H143.107V47.3214ZM140.429 47.3214H143.107V50H140.429V47.3214ZM140.429 44.6429H143.107V47.3214H140.429V44.6429ZM143.107 44.6429H145.786V47.3214H143.107V44.6429ZM140.429 41.9643H143.107V44.6429H140.429V41.9643ZM137.75 44.6429H140.429V47.3214H137.75V44.6429ZM137.75 41.9643H140.429V44.6429H137.75V41.9643ZM137.75 39.2857H140.429V41.9643H137.75V39.2857ZM137.75 36.6071H140.429V39.2857H137.75V36.6071ZM137.75 33.9286H140.429V36.6071H137.75V33.9286ZM137.75 31.25H140.429V33.9286H137.75V31.25ZM137.75 28.5714H140.429V31.25H137.75V28.5714ZM140.429 28.5714H143.107V31.25H140.429V28.5714ZM137.75 25.8929H140.429V28.5714H137.75V25.8929ZM140.429 31.25H143.107V33.9286H140.429V31.25ZM140.429 33.9286H143.107V36.6071H140.429V33.9286ZM140.429 36.6071H143.107V39.2857H140.429V36.6071ZM140.429 39.2857H143.107V41.9643H140.429V39.2857ZM137.75 47.3214H140.429V50H137.75V47.3214ZM137.75 23.2143H140.429V25.8929H137.75V23.2143ZM161.864 25.8929H164.543V28.5714H161.864V25.8929ZM172.578 25.8929H175.257V28.5714H172.578V25.8929ZM172.578 28.5714H175.257V31.25H172.578V28.5714ZM175.257 25.8929H177.936V28.5714H175.257V25.8929ZM175.257 28.5714H177.936V31.25H175.257V28.5714ZM175.257 31.25H177.936V33.9286H175.257V31.25ZM175.257 33.9286H177.936V36.6071H175.257V33.9286ZM175.257 36.6071H177.936V39.2857H175.257V36.6071ZM175.257 39.2857H177.936V41.9643H175.257V39.2857ZM175.257 41.9643H177.936V44.6429H175.257V41.9643ZM175.257 44.6429H177.936V47.3214H175.257V44.6429ZM172.578 44.6429H175.257V47.3214H172.578V44.6429ZM172.578 41.9643H175.257V44.6429H172.578V41.9643ZM172.578 39.2857H175.257V41.9643H172.578V39.2857ZM172.578 36.6071H175.257V39.2857H172.578V36.6071ZM172.578 33.9286H175.257V36.6071H172.578V33.9286ZM172.578 31.25H175.257V33.9286H172.578V31.25ZM169.9 41.9643H172.578V44.6429H169.9V41.9643ZM169.9 44.6429H172.578V47.3214H169.9V44.6429ZM172.578 47.3214H175.257V50H172.578V47.3214ZM169.9 47.3214H172.578V50H169.9V47.3214ZM167.221 47.3214H169.9V50H167.221V47.3214ZM167.221 44.6429H169.9V47.3214H167.221V44.6429ZM164.543 47.3214H167.221V50H164.543V47.3214ZM161.864 47.3214H164.543V50H161.864V47.3214ZM161.864 44.6429H164.543V47.3214H161.864V44.6429ZM164.543 44.6429H167.221V47.3214H164.543V44.6429ZM164.543 41.9643H167.221V44.6429H164.543V41.9643ZM161.864 41.9643H164.543V44.6429H161.864V41.9643ZM159.186 44.6429H161.864V47.3214H159.186V44.6429ZM159.186 41.9643H161.864V44.6429H159.186V41.9643ZM159.186 39.2857H161.864V41.9643H159.186V39.2857ZM159.186 36.6071H161.864V39.2857H159.186V36.6071ZM159.186 33.9286H161.864V36.6071H159.186V33.9286ZM159.186 31.25H161.864V33.9286H159.186V31.25ZM159.186 28.5714H161.864V31.25H159.186V28.5714ZM161.864 28.5714H164.543V31.25H161.864V28.5714ZM159.186 25.8929H161.864V28.5714H159.186V25.8929ZM161.864 31.25H164.543V33.9286H161.864V31.25ZM161.864 33.9286H164.543V36.6071H161.864V33.9286ZM161.864 36.6071H164.543V39.2857H161.864V36.6071ZM161.864 39.2857H164.543V41.9643H161.864V39.2857ZM159.186 23.2143H161.864V25.8929H159.186V23.2143ZM161.864 23.2143H164.543V25.8929H161.864V23.2143ZM172.578 23.2143H175.257V25.8929H172.578V23.2143ZM175.257 23.2143H177.936V25.8929H175.257V23.2143ZM196.672 23.2143H199.35V25.8929H196.672V23.2143ZM193.993 23.2143H196.672V25.8929H193.993V23.2143ZM193.993 25.8929H196.672V28.5714H193.993V25.8929ZM196.672 25.8929H199.35V28.5714H196.672V25.8929ZM199.35 25.8929H202.029V28.5714H199.35V25.8929ZM199.35 23.2143H202.029V25.8929H199.35V23.2143ZM202.029 23.2143H204.707V25.8929H202.029V23.2143ZM204.707 23.2143H207.386V25.8929H204.707V23.2143ZM204.707 25.8929H207.386V28.5714H204.707V25.8929ZM202.029 25.8929H204.707V28.5714H202.029V25.8929ZM204.707 28.5714H207.386V31.25H204.707V28.5714ZM207.386 25.8929H210.064V28.5714H207.386V25.8929ZM207.386 28.5714H210.064V31.25H207.386V28.5714ZM207.386 41.9643H210.064V44.6429H207.386V41.9643ZM207.386 44.6429H210.064V47.3214H207.386V44.6429ZM204.707 44.6429H207.386V47.3214H204.707V44.6429ZM204.707 41.9643H207.386V44.6429H204.707V41.9643ZM202.029 44.6429H204.707V47.3214H202.029V44.6429ZM204.707 47.3214H207.386V50H204.707V47.3214ZM202.029 47.3214H204.707V50H202.029V47.3214ZM199.35 47.3214H202.029V50H199.35V47.3214ZM199.35 44.6429H202.029V47.3214H199.35V44.6429ZM196.672 47.3214H199.35V50H196.672V47.3214ZM193.993 47.3214H196.672V50H193.993V47.3214ZM193.993 44.6429H196.672V47.3214H193.993V44.6429ZM196.672 44.6429H199.35V47.3214H196.672V44.6429ZM196.672 41.9643H199.35V44.6429H196.672V41.9643ZM193.993 41.9643H196.672V44.6429H193.993V41.9643ZM191.314 44.6429H193.993V47.3214H191.314V44.6429ZM191.314 41.9643H193.993V44.6429H191.314V41.9643ZM191.314 39.2857H193.993V41.9643H191.314V39.2857ZM191.314 36.6071H193.993V39.2857H191.314V36.6071ZM191.314 33.9286H193.993V36.6071H191.314V33.9286ZM191.314 31.25H193.993V33.9286H191.314V31.25ZM191.314 28.5714H193.993V31.25H191.314V28.5714ZM193.993 28.5714H196.672V31.25H193.993V28.5714ZM191.314 25.8929H193.993V28.5714H191.314V25.8929ZM196.672 28.5714H199.35V31.25H196.672V28.5714ZM193.993 31.25H196.672V33.9286H193.993V31.25ZM193.993 33.9286H196.672V36.6071H193.993V33.9286ZM193.993 36.6071H196.672V39.2857H193.993V36.6071ZM193.993 39.2857H196.672V41.9643H193.993V39.2857ZM207.386 39.2857H210.064V41.9643H207.386V39.2857ZM204.707 39.2857H207.386V41.9643H204.707V39.2857ZM204.707 36.6071H207.386V39.2857H204.707V36.6071ZM207.386 36.6071H210.064V39.2857H207.386V36.6071ZM207.386 33.9286H210.064V36.6071H207.386V33.9286ZM204.707 33.9286H207.386V36.6071H204.707V33.9286ZM202.029 33.9286H204.707V36.6071H202.029V33.9286ZM199.35 33.9286H202.029V36.6071H199.35V33.9286ZM199.35 36.6071H202.029V39.2857H199.35V36.6071ZM202.029 36.6071H204.707V39.2857H202.029V36.6071ZM218.107 25.8929H220.786V28.5714H218.107V25.8929ZM220.786 25.8929H223.464V28.5714H220.786V25.8929ZM220.786 23.2143H223.464V25.8929H220.786V23.2143ZM223.464 25.8929H226.143V28.5714H223.464V25.8929ZM223.464 28.5714H226.143V31.25H223.464V28.5714ZM226.143 28.5714H228.821V31.25H226.143V28.5714ZM220.786 28.5714H223.464V31.25H220.786V28.5714ZM218.107 28.5714H220.786V31.25H218.107V28.5714ZM215.429 28.5714H218.107V31.25H215.429V28.5714ZM215.429 31.25H218.107V33.9286H215.429V31.25ZM212.75 31.25H215.429V33.9286H212.75V31.25ZM218.107 31.25H220.786V33.9286H218.107V31.25ZM215.429 33.9286H218.107V36.6071H215.429V33.9286ZM215.429 36.6071H218.107V39.2857H215.429V36.6071ZM215.429 39.2857H218.107V41.9643H215.429V39.2857ZM218.107 39.2857H220.786V41.9643H218.107V39.2857ZM220.786 39.2857H223.464V41.9643H220.786V39.2857ZM223.464 39.2857H226.143V41.9643H223.464V39.2857ZM226.143 39.2857H228.821V41.9643H226.143V39.2857ZM228.821 39.2857H231.5V41.9643H228.821V39.2857ZM228.821 36.6071H231.5V39.2857H228.821V36.6071ZM228.821 33.9286H231.5V36.6071H228.821V33.9286ZM228.821 31.25H231.5V33.9286H228.821V31.25ZM226.143 31.25H228.821V33.9286H226.143V31.25ZM223.464 31.25H226.143V33.9286H223.464V31.25ZM226.143 33.9286H228.821V36.6071H226.143V33.9286ZM226.143 36.6071H228.821V39.2857H226.143V36.6071ZM226.143 41.9643H228.821V44.6429H226.143V41.9643ZM228.821 41.9643H231.5V44.6429H228.821V41.9643ZM228.821 44.6429H231.5V47.3214H228.821V44.6429ZM228.821 47.3214H231.5V50H228.821V47.3214ZM226.143 47.3214H228.821V50H226.143V47.3214ZM226.143 44.6429H228.821V47.3214H226.143V44.6429ZM223.464 41.9643H226.143V44.6429H223.464V41.9643ZM220.786 41.9643H223.464V44.6429H220.786V41.9643ZM218.107 41.9643H220.786V44.6429H218.107V41.9643ZM215.429 41.9643H218.107V44.6429H215.429V41.9643ZM215.429 44.6429H218.107V47.3214H215.429V44.6429ZM215.429 47.3214H218.107V50H215.429V47.3214ZM212.75 47.3214H215.429V50H212.75V47.3214ZM212.75 44.6429H215.429V47.3214H212.75V44.6429ZM212.75 41.9643H215.429V44.6429H212.75V41.9643ZM212.75 39.2857H215.429V41.9643H212.75V39.2857ZM212.75 36.6071H215.429V39.2857H212.75V36.6071ZM212.75 33.9286H215.429V36.6071H212.75V33.9286ZM234.186 47.3214H236.864V50H234.186V47.3214ZM234.186 44.6429H236.864V47.3214H234.186V44.6429ZM234.186 41.9643H236.864V44.6429H234.186V41.9643ZM234.186 39.2857H236.864V41.9643H234.186V39.2857ZM234.186 36.6071H236.864V39.2857H234.186V36.6071ZM234.186 33.9286H236.864V36.6071H234.186V33.9286ZM236.864 33.9286H239.543V36.6071H236.864V33.9286ZM236.864 31.25H239.543V33.9286H236.864V31.25ZM236.864 28.5714H239.543V31.25H236.864V28.5714ZM236.864 25.8929H239.543V28.5714H236.864V25.8929ZM234.186 25.8929H236.864V28.5714H234.186V25.8929ZM234.186 23.2143H236.864V25.8929H234.186V23.2143ZM234.186 28.5714H236.864V31.25H234.186V28.5714ZM234.186 31.25H236.864V33.9286H234.186V31.25ZM236.864 23.2143H239.543V25.8929H236.864V23.2143ZM236.864 36.6071H239.543V39.2857H236.864V36.6071ZM236.864 39.2857H239.543V41.9643H236.864V39.2857ZM236.864 41.9643H239.543V44.6429H236.864V41.9643ZM236.864 44.6429H239.543V47.3214H236.864V44.6429ZM236.864 47.3214H239.543V50H236.864V47.3214ZM239.543 28.5714H242.221V31.25H239.543V28.5714ZM239.543 31.25H242.221V33.9286H239.543V31.25ZM242.221 31.25H244.9V33.9286H242.221V31.25ZM242.221 33.9286H244.9V36.6071H242.221V33.9286ZM244.9 33.9286H247.578V36.6071H244.9V33.9286ZM244.9 36.6071H247.578V39.2857H244.9V36.6071ZM247.578 33.9286H250.257V36.6071H247.578V33.9286ZM247.578 31.25H250.257V33.9286H247.578V31.25ZM250.257 31.25H252.936V33.9286H250.257V31.25ZM250.257 28.5714H252.936V31.25H250.257V28.5714ZM252.936 23.2143H255.614V25.8929H252.936V23.2143ZM252.936 25.8929H255.614V28.5714H252.936V25.8929ZM252.936 28.5714H255.614V31.25H252.936V28.5714ZM252.936 31.25H255.614V33.9286H252.936V31.25ZM252.936 33.9286H255.614V36.6071H252.936V33.9286ZM252.936 36.6071H255.614V39.2857H252.936V36.6071ZM252.936 39.2857H255.614V41.9643H252.936V39.2857ZM252.936 41.9643H255.614V44.6429H252.936V41.9643ZM252.936 44.6429H255.614V47.3214H252.936V44.6429ZM252.936 47.3214H255.614V50H252.936V47.3214ZM255.614 47.3214H258.293V50H255.614V47.3214ZM255.614 44.6429H258.293V47.3214H255.614V44.6429ZM255.614 41.9643H258.293V44.6429H255.614V41.9643ZM255.614 39.2857H258.293V41.9643H255.614V39.2857ZM255.614 36.6071H258.293V39.2857H255.614V36.6071ZM255.614 33.9286H258.293V36.6071H255.614V33.9286ZM255.614 31.25H258.293V33.9286H255.614V31.25ZM255.614 28.5714H258.293V31.25H255.614V28.5714ZM255.614 25.8929H258.293V28.5714H255.614V25.8929ZM255.614 23.2143H258.293V25.8929H255.614V23.2143ZM239.543 25.8929H242.221V28.5714H239.543V25.8929ZM242.221 28.5714H244.9V31.25H242.221V28.5714ZM244.9 31.25H247.578V33.9286H244.9V31.25ZM247.578 28.5714H250.257V31.25H247.578V28.5714ZM250.257 25.8929H252.936V28.5714H250.257V25.8929ZM260.992 23.2143H263.671V25.8929H260.992V23.2143ZM263.671 23.2143H266.349V25.8929H263.671V23.2143ZM263.671 25.8929H266.349V28.5714H263.671V25.8929ZM263.671 28.5714H266.349V31.25H263.671V28.5714ZM263.671 31.25H266.349V33.9286H263.671V31.25ZM260.992 31.25H263.671V33.9286H260.992V31.25ZM260.992 28.5714H263.671V31.25H260.992V28.5714ZM260.992 25.8929H263.671V28.5714H260.992V25.8929ZM260.992 33.9286H263.671V36.6071H260.992V33.9286ZM260.992 36.6071H263.671V39.2857H260.992V36.6071ZM260.992 39.2857H263.671V41.9643H260.992V39.2857ZM263.671 36.6071H266.349V39.2857H263.671V36.6071ZM263.671 33.9286H266.349V36.6071H263.671V33.9286ZM263.671 39.2857H266.349V41.9643H263.671V39.2857ZM263.671 41.9643H266.349V44.6429H263.671V41.9643ZM260.992 44.6429H263.671V47.3214H260.992V44.6429ZM260.992 41.9643H263.671V44.6429H260.992V41.9643ZM260.992 47.3214H263.671V50H260.992V47.3214ZM263.671 47.3214H266.349V50H263.671V47.3214ZM263.671 44.6429H266.349V47.3214H263.671V44.6429ZM266.349 47.3214H269.028V50H266.349V47.3214ZM269.028 47.3214H271.706V50H269.028V47.3214ZM271.706 47.3214H274.385V50H271.706V47.3214ZM271.706 44.6429H274.385V47.3214H271.706V44.6429ZM269.028 44.6429H271.706V47.3214H269.028V44.6429ZM266.349 44.6429H269.028V47.3214H266.349V44.6429ZM266.349 23.2143H269.028V25.8929H266.349V23.2143ZM269.028 23.2143H271.706V25.8929H269.028V23.2143ZM271.706 23.2143H274.385V25.8929H271.706V23.2143ZM274.385 23.2143H277.064V25.8929H274.385V23.2143ZM271.706 25.8929H274.385V28.5714H271.706V25.8929ZM269.028 25.8929H271.706V28.5714H269.028V25.8929ZM266.349 25.8929H269.028V28.5714H266.349V25.8929ZM266.349 36.6071H269.028V39.2857H266.349V36.6071ZM269.028 33.9286H271.706V36.6071H269.028V33.9286ZM266.349 33.9286H269.028V36.6071H266.349V33.9286ZM269.028 36.6071H271.706V39.2857H269.028V36.6071ZM274.385 25.8929H277.064V28.5714H274.385V25.8929ZM274.385 44.6429H277.064V47.3214H274.385V44.6429ZM274.385 47.3214H277.064V50H274.385V47.3214ZM271.706 33.9286H274.385V36.6071H271.706V33.9286ZM271.706 36.6071H274.385V39.2857H271.706V36.6071ZM306.507 28.5714H309.186V31.25H306.507V28.5714ZM303.828 28.5714H306.507V31.25H303.828V28.5714ZM303.828 25.8929H306.507V28.5714H303.828V25.8929ZM306.507 25.8929H309.186V28.5714H306.507V25.8929ZM303.828 23.2143H306.507V25.8929H303.828V23.2143ZM301.15 23.2143H303.828V25.8929H301.15V23.2143ZM301.15 25.8929H303.828V28.5714H301.15V25.8929ZM298.471 25.8929H301.15V28.5714H298.471V25.8929ZM295.793 25.8929H298.471V28.5714H295.793V25.8929ZM295.793 23.2143H298.471V25.8929H295.793V23.2143ZM293.114 23.2143H295.793V25.8929H293.114V23.2143ZM298.471 23.2143H301.15V25.8929H298.471V23.2143ZM293.114 25.8929H295.793V28.5714H293.114V25.8929ZM290.436 25.8929H293.114V28.5714H290.436V25.8929ZM290.436 28.5714H293.114V31.25H290.436V28.5714ZM293.114 28.5714H295.793V31.25H293.114V28.5714ZM293.114 31.25H295.793V33.9286H293.114V31.25ZM293.114 33.9286H295.793V36.6071H293.114V33.9286ZM290.436 33.9286H293.114V36.6071H290.436V33.9286ZM290.436 31.25H293.114V33.9286H290.436V31.25ZM293.114 36.6071H295.793V39.2857H293.114V36.6071ZM295.793 36.6071H298.471V39.2857H295.793V36.6071ZM295.793 33.9286H298.471V36.6071H295.793V33.9286ZM298.471 33.9286H301.15V36.6071H298.471V33.9286ZM301.15 33.9286H303.828V36.6071H301.15V33.9286ZM303.828 33.9286H306.507V36.6071H303.828V33.9286ZM303.828 36.6071H306.507V39.2857H303.828V36.6071ZM301.15 36.6071H303.828V39.2857H301.15V36.6071ZM298.471 36.6071H301.15V39.2857H298.471V36.6071ZM306.507 36.6071H309.186V39.2857H306.507V36.6071ZM306.507 39.2857H309.186V41.9643H306.507V39.2857ZM303.828 39.2857H306.507V41.9643H303.828V39.2857ZM301.15 44.6429H303.828V47.3214H301.15V44.6429ZM303.828 44.6429H306.507V47.3214H303.828V44.6429ZM303.828 41.9643H306.507V44.6429H303.828V41.9643ZM306.507 41.9643H309.186V44.6429H306.507V41.9643ZM306.507 44.6429H309.186V47.3214H306.507V44.6429ZM303.828 47.3214H306.507V50H303.828V47.3214ZM301.15 47.3214H303.828V50H301.15V47.3214ZM298.471 47.3214H301.15V50H298.471V47.3214ZM295.793 47.3214H298.471V50H295.793V47.3214ZM293.114 47.3214H295.793V50H293.114V47.3214ZM293.114 44.6429H295.793V47.3214H293.114V44.6429ZM295.793 44.6429H298.471V47.3214H295.793V44.6429ZM298.471 44.6429H301.15V47.3214H298.471V44.6429ZM290.436 44.6429H293.114V47.3214H290.436V44.6429ZM290.436 41.9643H293.114V44.6429H290.436V41.9643ZM293.114 41.9643H295.793V44.6429H293.114V41.9643ZM311.871 23.2143H314.55V25.8929H311.871V23.2143ZM314.55 23.2143H317.228V25.8929H314.55V23.2143ZM317.228 23.2143H319.907V25.8929H317.228V23.2143ZM319.907 23.2143H322.585V25.8929H319.907V23.2143ZM322.585 23.2143H325.264V25.8929H322.585V23.2143ZM325.264 23.2143H327.943V25.8929H325.264V23.2143ZM325.264 25.8929H327.943V28.5714H325.264V25.8929ZM322.585 25.8929H325.264V28.5714H322.585V25.8929ZM319.907 25.8929H322.585V28.5714H319.907V25.8929ZM317.228 25.8929H319.907V28.5714H317.228V25.8929ZM314.55 25.8929H317.228V28.5714H314.55V25.8929ZM311.871 25.8929H314.55V28.5714H311.871V25.8929ZM317.228 28.5714H319.907V31.25H317.228V28.5714ZM317.228 31.25H319.907V33.9286H317.228V31.25ZM317.228 33.9286H319.907V36.6071H317.228V33.9286ZM317.228 36.6071H319.907V39.2857H317.228V36.6071ZM317.228 39.2857H319.907V41.9643H317.228V39.2857ZM317.228 41.9643H319.907V44.6429H317.228V41.9643ZM319.907 39.2857H322.585V41.9643H319.907V39.2857ZM319.907 36.6071H322.585V39.2857H319.907V36.6071ZM319.907 33.9286H322.585V36.6071H319.907V33.9286ZM319.907 31.25H322.585V33.9286H319.907V31.25ZM319.907 28.5714H322.585V31.25H319.907V28.5714ZM319.907 41.9643H322.585V44.6429H319.907V41.9643ZM319.907 44.6429H322.585V47.3214H319.907V44.6429ZM319.907 47.3214H322.585V50H319.907V47.3214ZM317.228 47.3214H319.907V50H317.228V47.3214ZM317.228 44.6429H319.907V47.3214H317.228V44.6429ZM333.3 25.8929H335.978V28.5714H333.3V25.8929ZM344.014 25.8929H346.693V28.5714H344.014V25.8929ZM344.014 28.5714H346.693V31.25H344.014V28.5714ZM346.693 25.8929H349.371V28.5714H346.693V25.8929ZM346.693 28.5714H349.371V31.25H346.693V28.5714ZM346.693 31.25H349.371V33.9286H346.693V31.25ZM346.693 33.9286H349.371V36.6071H346.693V33.9286ZM346.693 36.6071H349.371V39.2857H346.693V36.6071ZM346.693 39.2857H349.371V41.9643H346.693V39.2857ZM346.693 41.9643H349.371V44.6429H346.693V41.9643ZM346.693 44.6429H349.371V47.3214H346.693V44.6429ZM344.014 44.6429H346.693V47.3214H344.014V44.6429ZM344.014 41.9643H346.693V44.6429H344.014V41.9643ZM344.014 39.2857H346.693V41.9643H344.014V39.2857ZM344.014 36.6071H346.693V39.2857H344.014V36.6071ZM344.014 33.9286H346.693V36.6071H344.014V33.9286ZM344.014 31.25H346.693V33.9286H344.014V31.25ZM341.335 41.9643H344.014V44.6429H341.335V41.9643ZM341.335 44.6429H344.014V47.3214H341.335V44.6429ZM344.014 47.3214H346.693V50H344.014V47.3214ZM341.335 47.3214H344.014V50H341.335V47.3214ZM338.657 47.3214H341.335V50H338.657V47.3214ZM338.657 44.6429H341.335V47.3214H338.657V44.6429ZM335.978 47.3214H338.657V50H335.978V47.3214ZM333.3 47.3214H335.978V50H333.3V47.3214ZM333.3 44.6429H335.978V47.3214H333.3V44.6429ZM335.978 44.6429H338.657V47.3214H335.978V44.6429ZM335.978 41.9643H338.657V44.6429H335.978V41.9643ZM333.3 41.9643H335.978V44.6429H333.3V41.9643ZM330.621 44.6429H333.3V47.3214H330.621V44.6429ZM330.621 41.9643H333.3V44.6429H330.621V41.9643ZM330.621 39.2857H333.3V41.9643H330.621V39.2857ZM330.621 36.6071H333.3V39.2857H330.621V36.6071ZM330.621 33.9286H333.3V36.6071H330.621V33.9286ZM330.621 31.25H333.3V33.9286H330.621V31.25ZM330.621 28.5714H333.3V31.25H330.621V28.5714ZM333.3 28.5714H335.978V31.25H333.3V28.5714ZM330.621 25.8929H333.3V28.5714H330.621V25.8929ZM333.3 31.25H335.978V33.9286H333.3V31.25ZM333.3 33.9286H335.978V36.6071H333.3V33.9286ZM333.3 36.6071H335.978V39.2857H333.3V36.6071ZM333.3 39.2857H335.978V41.9643H333.3V39.2857ZM330.621 23.2143H333.3V25.8929H330.621V23.2143ZM333.3 23.2143H335.978V25.8929H333.3V23.2143ZM344.014 23.2143H346.693V25.8929H344.014V23.2143ZM346.693 23.2143H349.371V25.8929H346.693V23.2143ZM357.414 23.2143H360.092V25.8929H357.414V23.2143ZM354.735 23.2143H357.414V25.8929H354.735V23.2143ZM354.735 25.8929H357.414V28.5714H354.735V25.8929ZM357.414 25.8929H360.092V28.5714H357.414V25.8929ZM360.092 25.8929H362.771V28.5714H360.092V25.8929ZM360.092 23.2143H362.771V25.8929H360.092V23.2143ZM362.771 23.2143H365.449V25.8929H362.771V23.2143ZM365.449 23.2143H368.128V25.8929H365.449V23.2143ZM365.449 25.8929H368.128V28.5714H365.449V25.8929ZM362.771 25.8929H365.449V28.5714H362.771V25.8929ZM362.771 28.5714H365.449V31.25H362.771V28.5714ZM365.449 28.5714H368.128V31.25H365.449V28.5714ZM368.128 25.8929H370.807V28.5714H368.128V25.8929ZM368.128 28.5714H370.807V31.25H368.128V28.5714ZM368.128 31.25H370.807V33.9286H368.128V31.25ZM368.128 33.9286H370.807V36.6071H368.128V33.9286ZM368.128 36.6071H370.807V39.2857H368.128V36.6071ZM368.128 39.2857H370.807V41.9643H368.128V39.2857ZM368.128 41.9643H370.807V44.6429H368.128V41.9643ZM368.128 44.6429H370.807V47.3214H368.128V44.6429ZM365.449 44.6429H368.128V47.3214H365.449V44.6429ZM365.449 41.9643H368.128V44.6429H365.449V41.9643ZM365.449 39.2857H368.128V41.9643H365.449V39.2857ZM365.449 36.6071H368.128V39.2857H365.449V36.6071ZM365.449 33.9286H368.128V36.6071H365.449V33.9286ZM365.449 31.25H368.128V33.9286H365.449V31.25ZM362.771 41.9643H365.449V44.6429H362.771V41.9643ZM362.771 44.6429H365.449V47.3214H362.771V44.6429ZM365.449 47.3214H368.128V50H365.449V47.3214ZM362.771 47.3214H365.449V50H362.771V47.3214ZM360.092 47.3214H362.771V50H360.092V47.3214ZM360.092 44.6429H362.771V47.3214H360.092V44.6429ZM357.414 47.3214H360.092V50H357.414V47.3214ZM354.735 47.3214H357.414V50H354.735V47.3214ZM354.735 44.6429H357.414V47.3214H354.735V44.6429ZM357.414 44.6429H360.092V47.3214H357.414V44.6429ZM354.735 41.9643H357.414V44.6429H354.735V41.9643ZM352.057 44.6429H354.735V47.3214H352.057V44.6429ZM352.057 41.9643H354.735V44.6429H352.057V41.9643ZM352.057 39.2857H354.735V41.9643H352.057V39.2857ZM352.057 36.6071H354.735V39.2857H352.057V36.6071ZM352.057 33.9286H354.735V36.6071H352.057V33.9286ZM352.057 31.25H354.735V33.9286H352.057V31.25ZM352.057 28.5714H354.735V31.25H352.057V28.5714ZM354.735 28.5714H357.414V31.25H354.735V28.5714ZM352.057 25.8929H354.735V28.5714H352.057V25.8929ZM354.735 31.25H357.414V33.9286H354.735V31.25ZM354.735 33.9286H357.414V36.6071H354.735V33.9286ZM354.735 36.6071H357.414V39.2857H354.735V36.6071ZM354.735 39.2857H357.414V41.9643H354.735V39.2857ZM352.057 47.3214H354.735V50H352.057V47.3214ZM352.057 23.2143H354.735V25.8929H352.057V23.2143ZM373.492 47.3214H376.171V50H373.492V47.3214ZM376.171 47.3214H378.849V50H376.171V47.3214ZM376.171 44.6429H378.849V47.3214H376.171V44.6429ZM376.171 41.9643H378.849V44.6429H376.171V41.9643ZM376.171 39.2857H378.849V41.9643H376.171V39.2857ZM376.171 36.6071H378.849V39.2857H376.171V36.6071ZM376.171 33.9286H378.849V36.6071H376.171V33.9286ZM373.492 33.9286H376.171V36.6071H373.492V33.9286ZM373.492 36.6071H376.171V39.2857H373.492V36.6071ZM373.492 39.2857H376.171V41.9643H373.492V39.2857ZM373.492 41.9643H376.171V44.6429H373.492V41.9643ZM373.492 44.6429H376.171V47.3214H373.492V44.6429ZM373.492 31.25H376.171V33.9286H373.492V31.25ZM376.171 31.25H378.849V33.9286H376.171V31.25ZM376.171 28.5714H378.849V31.25H376.171V28.5714ZM376.171 25.8929H378.849V28.5714H376.171V25.8929ZM376.171 23.2143H378.849V25.8929H376.171V23.2143ZM373.492 23.2143H376.171V25.8929H373.492V23.2143ZM373.492 25.8929H376.171V28.5714H373.492V25.8929ZM373.492 28.5714H376.171V31.25H373.492V28.5714ZM386.906 23.2143H389.585V25.8929H386.906V23.2143ZM384.227 23.2143H386.906V25.8929H384.227V23.2143ZM384.227 25.8929H386.906V28.5714H384.227V25.8929ZM386.906 25.8929H389.585V28.5714H386.906V25.8929ZM389.585 25.8929H392.263V28.5714H389.585V25.8929ZM389.585 23.2143H392.263V25.8929H389.585V23.2143ZM392.263 23.2143H394.942V25.8929H392.263V23.2143ZM394.942 23.2143H397.62V25.8929H394.942V23.2143ZM394.942 25.8929H397.62V28.5714H394.942V25.8929ZM392.263 25.8929H394.942V28.5714H392.263V25.8929ZM392.263 28.5714H394.942V31.25H392.263V28.5714ZM394.942 28.5714H397.62V31.25H394.942V28.5714ZM397.62 25.8929H400.299V28.5714H397.62V25.8929ZM397.62 28.5714H400.299V31.25H397.62V28.5714ZM397.62 31.25H400.299V33.9286H397.62V31.25ZM397.62 33.9286H400.299V36.6071H397.62V33.9286ZM397.62 36.6071H400.299V39.2857H397.62V36.6071ZM397.62 39.2857H400.299V41.9643H397.62V39.2857ZM397.62 41.9643H400.299V44.6429H397.62V41.9643ZM397.62 44.6429H400.299V47.3214H397.62V44.6429ZM394.942 44.6429H397.62V47.3214H394.942V44.6429ZM394.942 41.9643H397.62V44.6429H394.942V41.9643ZM394.942 39.2857H397.62V41.9643H394.942V39.2857ZM394.942 36.6071H397.62V39.2857H394.942V36.6071ZM394.942 33.9286H397.62V36.6071H394.942V33.9286ZM394.942 31.25H397.62V33.9286H394.942V31.25ZM392.263 41.9643H394.942V44.6429H392.263V41.9643ZM392.263 44.6429H394.942V47.3214H392.263V44.6429ZM394.942 47.3214H397.62V50H394.942V47.3214ZM392.263 47.3214H394.942V50H392.263V47.3214ZM389.585 47.3214H392.263V50H389.585V47.3214ZM389.585 44.6429H392.263V47.3214H389.585V44.6429ZM386.906 47.3214H389.585V50H386.906V47.3214ZM384.227 47.3214H386.906V50H384.227V47.3214ZM384.227 44.6429H386.906V47.3214H384.227V44.6429ZM386.906 44.6429H389.585V47.3214H386.906V44.6429ZM386.906 41.9643H389.585V44.6429H386.906V41.9643ZM384.227 41.9643H386.906V44.6429H384.227V41.9643ZM381.549 44.6429H384.227V47.3214H381.549V44.6429ZM381.549 41.9643H384.227V44.6429H381.549V41.9643ZM381.549 39.2857H384.227V41.9643H381.549V39.2857ZM381.549 36.6071H384.227V39.2857H381.549V36.6071ZM381.549 33.9286H384.227V36.6071H381.549V33.9286ZM381.549 31.25H384.227V33.9286H381.549V31.25ZM381.549 28.5714H384.227V31.25H381.549V28.5714ZM384.227 28.5714H386.906V31.25H384.227V28.5714ZM381.549 25.8929H384.227V28.5714H381.549V25.8929ZM386.906 28.5714H389.585V31.25H386.906V28.5714ZM384.227 31.25H386.906V33.9286H384.227V31.25ZM384.227 33.9286H386.906V36.6071H384.227V33.9286ZM384.227 36.6071H386.906V39.2857H384.227V36.6071ZM384.227 39.2857H386.906V41.9643H384.227V39.2857Z" fill="white"/>
<path d="M390.904 27.8858L393.774 14.1831L399.353 15.3517C399.943 15.7205 400.424 16.2505 400.797 16.9416C401.17 17.6328 401.269 18.3959 401.094 19.2311C400.785 20.7058 400.087 21.6356 398.998 22.0206L398.981 22.0989C400.043 23.0159 400.424 24.1857 400.126 25.6082C399.785 27.2394 398.674 28.41 396.796 29.1199L390.904 27.8858ZM395.251 20.398L397.189 20.8039C397.837 20.5718 398.236 20.0969 398.386 19.3792C398.537 18.6614 398.388 18.0377 397.941 17.508L395.944 17.0898L395.251 20.398ZM394.041 26.1727L396.058 26.595C396.328 26.4745 396.593 26.2508 396.852 25.9236C397.124 25.5992 397.299 25.2543 397.375 24.8889C397.452 24.5235 397.443 24.1743 397.35 23.8414C397.256 23.5084 397.107 23.2456 396.902 23.0528L394.788 22.61L394.041 26.1727ZM406.799 22.919L405.331 22.6115C405.086 22.8054 404.854 23.0974 404.636 23.4877C404.431 23.8807 404.288 24.273 404.206 24.6645L407.005 25.2508C407.113 24.8648 407.146 24.4493 407.103 24.0043C407.063 23.5463 406.961 23.1846 406.799 22.919ZM408.227 29.3687L407.797 31.4241L402.824 30.3827C402.039 29.578 401.552 28.6858 401.362 27.706C401.188 26.716 401.198 25.7577 401.392 24.8311C401.84 22.6909 402.997 21.203 404.861 20.3675L408.032 21.0317C408.772 21.8543 409.224 22.6573 409.387 23.4406C409.55 24.224 409.555 24.9811 409.402 25.7119C409.249 26.4427 409.059 27.0568 408.832 27.5542L403.958 26.5332C403.934 26.8416 403.972 27.2107 404.073 27.6404C404.19 28.0599 404.341 28.3777 404.527 28.5938L408.227 29.3687ZM410.812 27.4989L411.562 23.9167L410.212 23.6338L410.642 21.5784L411.993 21.8613L412.563 19.1403L415.166 19.6857L414.596 22.4066L416.201 22.7428L415.771 24.7982L414.166 24.462L413.284 28.6707C413.118 29.4667 413.137 30.0566 413.343 30.4402L414.537 30.6904L414.106 32.7458L411.327 32.1635C410.769 31.3792 410.496 30.6001 410.508 29.8261C410.522 29.1751 410.623 28.3994 410.812 27.4989ZM420.978 29.4648L418.883 29.026C418.538 29.3079 418.312 29.7034 418.206 30.2123C418.099 30.7213 418.159 31.1494 418.386 31.4966L420.461 31.9312L420.978 29.4648ZM417.917 23.1022L422.772 24.119C423.456 24.7528 423.858 25.4024 423.978 26.0677C424.1 26.7199 424.052 27.568 423.833 28.612L423.218 31.5483C422.991 32.6315 422.81 33.6288 422.673 34.5401L420.442 34.0727L420.237 33.2942C419.63 33.6574 418.863 33.742 417.936 33.5479L416.703 33.2896C415.747 32.3265 415.412 31.1597 415.699 29.7895C415.989 28.4062 416.785 27.4354 418.087 26.8771L419.927 27.2625C420.436 27.3692 420.879 27.6255 421.257 28.0317L421.462 27.0529C421.569 26.5439 421.418 26.1582 421.01 25.8956L417.487 25.1576L417.917 23.1022Z" fill="#EFA44E"/>
<rect x="374.129" y="1.18377" width="80" height="29" rx="4" transform="rotate(11.83 374.129 1.18377)" stroke="#EFA44E" stroke-width="2"/>
<path d="M708.81 50H705.248V31.8H708.81V39.132H712.97V31.8H716.532V50H712.97V42.46H708.81V50ZM726.809 50H721.141C719.408 48.388 718.541 46.1867 718.541 43.396C718.541 41.992 718.732 40.77 719.113 39.73C719.512 38.69 720.136 37.6847 720.985 36.714H727.069C727.97 37.754 728.586 38.768 728.915 39.756C729.244 40.7267 729.409 41.94 729.409 43.396C729.409 46.1867 728.542 48.388 726.809 50ZM722.987 47.27H724.963C725.587 46.0567 725.899 44.6787 725.899 43.136C725.899 41.5933 725.578 40.3627 724.937 39.444H722.987C722.363 40.328 722.051 41.5847 722.051 43.214C722.051 44.826 722.363 46.178 722.987 47.27ZM737.042 36.714H738.888L739.538 37.624C739.902 37.2947 740.249 37.0607 740.578 36.922C740.925 36.7833 741.436 36.714 742.112 36.714H744.998C745.761 37.6847 746.281 38.6553 746.558 39.626C746.836 40.5967 746.974 41.81 746.974 43.266V50H743.516V43.006C743.516 41.4113 743.274 40.224 742.788 39.444H740.292C740.674 40.1893 740.864 41.2033 740.864 42.486V50H737.406V43.006C737.406 41.3593 737.181 40.172 736.73 39.444H734.728V50H731.27V36.714H733.974L734.442 37.65C734.824 37.3033 735.179 37.0607 735.508 36.922C735.855 36.7833 736.366 36.714 737.042 36.714ZM755.101 39.444H753.151C752.891 39.756 752.674 40.1893 752.501 40.744C752.345 41.2987 752.267 41.836 752.267 42.356H755.985C756.019 41.836 755.95 41.2987 755.777 40.744C755.603 40.172 755.378 39.7387 755.101 39.444ZM758.637 47.27V50H752.033C750.819 49.1853 749.961 48.18 749.459 46.984C748.973 45.7707 748.731 44.5487 748.731 43.318C748.731 40.4753 749.805 38.274 751.955 36.714H756.167C757.328 37.5633 758.117 38.4647 758.533 39.418C758.949 40.3713 759.157 41.3333 759.157 42.304C759.157 43.2747 759.079 44.1067 758.923 44.8H752.449C752.501 45.1987 752.648 45.658 752.891 46.178C753.151 46.6807 753.428 47.0447 753.723 47.27H758.637Z" fill="#EFA34D"/>
<path d="M814.584 50L814.038 47.114H809.93L809.384 50H805.848L809.358 31.8H814.74L818.068 50H814.584ZM811.932 35.18L810.918 41.238L810.346 44.332H813.596L812.998 41.238L811.984 35.18H811.932ZM819.452 31.8H822.884V37.65C823.265 37.3033 823.621 37.0607 823.95 36.922C824.297 36.7833 824.808 36.714 825.484 36.714H827.564C828.292 37.4247 828.864 38.3433 829.28 39.47C829.696 40.5967 829.904 41.836 829.904 43.188C829.904 46.0827 829.037 48.3533 827.304 50H824.834C823.985 50 823.274 49.6793 822.702 49.038L822.234 50H819.452V31.8ZM822.91 47.27H825.406C826.047 46.178 826.368 44.852 826.368 43.292C826.368 41.732 826.039 40.4493 825.38 39.444H822.91V47.27ZM839.67 50H834.002C832.269 48.388 831.402 46.1867 831.402 43.396C831.402 41.992 831.593 40.77 831.974 39.73C832.373 38.69 832.997 37.6847 833.846 36.714H839.93C840.832 37.754 841.447 38.768 841.776 39.756C842.106 40.7267 842.27 41.94 842.27 43.396C842.27 46.1867 841.404 48.388 839.67 50ZM835.848 47.27H837.824C838.448 46.0567 838.76 44.6787 838.76 43.136C838.76 41.5933 838.44 40.3627 837.798 39.444H835.848C835.224 40.328 834.912 41.5847 834.912 43.214C834.912 44.826 835.224 46.178 835.848 47.27ZM848.734 50H846.004C845.241 49.0293 844.721 48.0587 844.444 47.088C844.166 46.1173 844.028 44.904 844.028 43.448V36.714H847.486V43.708C847.486 45.2853 847.798 46.4727 848.422 47.27H850.84V36.714H854.298V50H851.568L851.1 49.064C850.441 49.688 849.652 50 848.734 50ZM857.302 44.202V39.444H855.508V36.714H857.302V33.1H860.76V36.714H862.892V39.444H860.76V45.034C860.76 46.0913 860.942 46.8367 861.306 47.27H862.892V50H859.2C858.282 49.1507 857.727 48.232 857.536 47.244C857.38 46.412 857.302 45.398 857.302 44.202ZM911.437 46.984H916.013V50H909.409C908.265 48.9253 907.398 47.5647 906.809 45.918C906.219 44.2713 905.925 42.5813 905.925 40.848C905.925 39.0973 906.254 37.416 906.913 35.804C907.571 34.192 908.551 32.8573 909.851 31.8H916.013V34.92H911.437C910.969 35.4573 910.561 36.324 910.215 37.52C909.885 38.716 909.721 39.86 909.721 40.952C909.721 42.044 909.885 43.188 910.215 44.384C910.561 45.58 910.969 46.4467 911.437 46.984ZM925.44 50H919.772C918.039 48.388 917.172 46.1867 917.172 43.396C917.172 41.992 917.363 40.77 917.744 39.73C918.143 38.69 918.767 37.6847 919.616 36.714H925.7C926.601 37.754 927.217 38.768 927.546 39.756C927.875 40.7267 928.04 41.94 928.04 43.396C928.04 46.1867 927.173 48.388 925.44 50ZM921.618 47.27H923.594C924.218 46.0567 924.53 44.6787 924.53 43.136C924.53 41.5933 924.209 40.3627 923.568 39.444H921.618C920.994 40.328 920.682 41.5847 920.682 43.214C920.682 44.826 920.994 46.178 921.618 47.27ZM935.673 36.714H938.429C939.192 37.6847 939.712 38.6553 939.989 39.626C940.267 40.5967 940.405 41.81 940.405 43.266V50H936.947V43.006C936.947 41.3593 936.722 40.172 936.271 39.444H933.359V50H929.901V36.714H932.605L933.073 37.65C933.455 37.3033 933.81 37.0607 934.139 36.922C934.486 36.7833 934.997 36.714 935.673 36.714ZM942.919 44.202V39.444H941.125V36.714H942.919V33.1H946.377V36.714H948.509V39.444H946.377V45.034C946.377 46.0913 946.559 46.8367 946.923 47.27H948.509V50H944.817C943.899 49.1507 943.344 48.232 943.153 47.244C942.997 46.412 942.919 45.398 942.919 44.202ZM956.378 43.994H953.596C953.232 44.4447 953.05 45.008 953.05 45.684C953.05 46.36 953.241 46.8887 953.622 47.27H956.378V43.994ZM950.788 36.714H957.236C958.276 37.338 958.961 38.0573 959.29 38.872C959.619 39.6693 959.784 40.7613 959.784 42.148V46.048C959.784 47.4867 959.819 48.804 959.888 50H956.924L956.456 49.064C955.78 49.688 954.827 50 953.596 50H951.958C950.485 49.0293 949.748 47.634 949.748 45.814C949.748 43.9767 950.502 42.5293 952.01 41.472H954.454C955.13 41.472 955.763 41.68 956.352 42.096V40.796C956.352 40.12 956.057 39.6693 955.468 39.444H950.788V36.714ZM965.244 43.24C965.244 43.968 965.357 44.7133 965.582 45.476C965.808 46.2213 966.12 46.8193 966.518 47.27H970.418V50H964.724C962.679 48.3707 961.656 46.1173 961.656 43.24C961.656 40.3627 962.748 38.1873 964.932 36.714H970.418V39.444H966.518C965.669 40.328 965.244 41.5933 965.244 43.24ZM972.931 44.202V39.444H971.137V36.714H972.931V33.1H976.389V36.714H978.521V39.444H976.389V45.034C976.389 46.0913 976.571 46.8367 976.935 47.27H978.521V50H974.829C973.911 49.1507 973.356 48.232 973.165 47.244C973.009 46.412 972.931 45.398 972.931 44.202ZM1022.66 50L1020.84 39.262H1020.74L1018.87 50H1015.23L1012.71 31.8H1016.19L1016.92 37.156L1017.46 43.188H1017.59L1018.56 37.182L1019.36 31.8H1022.3L1023.08 37.182L1024.07 43.188H1024.2L1024.72 37.156L1025.45 31.8H1028.93L1026.41 50H1022.66ZM1037.69 50H1032.02C1030.29 48.388 1029.42 46.1867 1029.42 43.396C1029.42 41.992 1029.61 40.77 1030 39.73C1030.39 38.69 1031.02 37.6847 1031.87 36.714H1037.95C1038.85 37.754 1039.47 38.768 1039.8 39.756C1040.13 40.7267 1040.29 41.94 1040.29 43.396C1040.29 46.1867 1039.43 48.388 1037.69 50ZM1033.87 47.27H1035.85C1036.47 46.0567 1036.78 44.6787 1036.78 43.136C1036.78 41.5933 1036.46 40.3627 1035.82 39.444H1033.87C1033.25 40.328 1032.93 41.5847 1032.93 43.214C1032.93 44.826 1033.25 46.178 1033.87 47.27ZM1042.18 50V36.714H1044.65L1045.3 38.118C1045.99 37.182 1046.87 36.714 1047.93 36.714H1048.94V40.198H1045.64V50H1042.18ZM1050.43 50V31.8H1053.89V41.446H1054.25L1056.7 36.714H1060.08L1057.01 42.512L1060.1 50H1056.67L1054.28 44.176H1053.89V50H1050.43ZM1062.8 36.714H1068.55V39.444H1064.49L1066.96 43.11C1068.07 44.6873 1068.69 45.7707 1068.81 46.36C1068.88 46.6373 1068.91 46.9233 1068.91 47.218C1068.91 48.4487 1068.45 49.376 1067.53 50H1060.9V47.27H1065.66L1062.88 43.188C1062.76 42.9973 1062.57 42.7287 1062.31 42.382C1062.06 42.0353 1061.87 41.758 1061.73 41.55C1061.6 41.3247 1061.5 41.16 1061.45 41.056C1061.4 40.952 1061.33 40.822 1061.24 40.666C1061.15 40.4927 1061.09 40.3453 1061.06 40.224C1060.99 39.8947 1060.95 39.626 1060.95 39.418C1060.95 38.1527 1061.57 37.2513 1062.8 36.714Z" fill="white"/>
<path d="M704 52.6H759.783V53.9H704V52.6Z" fill="#EFA34D"/>
<defs>
<linearGradient id="paint0_linear_214_63" x1="2.5" y1="99" x2="2.5" y2="1263" gradientUnits="userSpaceOnUse">
<stop stop-color="#EFA44E"/>
<stop offset="1" stop-color="#F66B14"/>
</linearGradient>
<linearGradient id="paint1_linear_214_63" x1="66.2329" y1="52.6553" x2="66.2329" y2="82.8413" gradientUnits="userSpaceOnUse">
<stop stop-color="#D2733C"/>
<stop offset="1" stop-color="#793109"/>
</linearGradient>
<linearGradient id="paint2_linear_214_63" x1="52.2002" y1="31.6035" x2="52.2002" y2="75.5334" gradientUnits="userSpaceOnUse">
<stop stop-color="#EFA44E"/>
<stop offset="1" stop-color="#F66B14"/>
</linearGradient>
<linearGradient id="paint3_linear_214_63" x1="61.8421" y1="19.2153" x2="61.8421" y2="26.2742" gradientUnits="userSpaceOnUse">
<stop stop-color="#D2733C"/>
<stop offset="1" stop-color="#793109"/>
</linearGradient>
<linearGradient id="paint4_linear_214_63" x1="48.6384" y1="30.9521" x2="48.6384" y2="38.011" gradientUnits="userSpaceOnUse">
<stop stop-color="#D2733C"/>
<stop offset="1" stop-color="#793109"/>
</linearGradient>
</defs>
</svg>
