<svg width="374" height="74" viewBox="0 0 374 74" fill="none" xmlns="http://www.w3.org/2000/svg">
<rect y="52.6553" width="74.4658" height="30.1861" transform="rotate(-45 0 52.6553)" fill="url(#paint0_linear_119_15)"/>
<rect x="1.23523" y="31.6035" width="43.9299" height="43.9299" transform="rotate(-45.5799 1.23523 31.6035)" fill="url(#paint1_linear_119_15)"/>
<rect x="29.1099" y="19.2153" width="7.46457" height="7.05884" transform="rotate(-45 29.1099 19.2153)" fill="url(#paint2_linear_119_15)"/>
<rect x="15.9061" y="30.9521" width="7.46457" height="7.05884" transform="rotate(-45 15.9061 30.9521)" fill="url(#paint3_linear_119_15)"/>
<path d="M90 23.2143H92.6786V25.8929H90V23.2143ZM92.6786 23.2143H95.3571V25.8929H92.6786V23.2143ZM92.6786 25.8929H95.3571V28.5714H92.6786V25.8929ZM92.6786 28.5714H95.3571V31.25H92.6786V28.5714ZM92.6786 31.25H95.3571V33.9286H92.6786V31.25ZM90 31.25H92.6786V33.9286H90V31.25ZM90 28.5714H92.6786V31.25H90V28.5714ZM90 25.8929H92.6786V28.5714H90V25.8929ZM90 33.9286H92.6786V36.6071H90V33.9286ZM90 36.6071H92.6786V39.2857H90V36.6071ZM90 39.2857H92.6786V41.9643H90V39.2857ZM92.6786 36.6071H95.3571V39.2857H92.6786V36.6071ZM92.6786 33.9286H95.3571V36.6071H92.6786V33.9286ZM92.6786 39.2857H95.3571V41.9643H92.6786V39.2857ZM92.6786 41.9643H95.3571V44.6429H92.6786V41.9643ZM90 44.6429H92.6786V47.3214H90V44.6429ZM90 41.9643H92.6786V44.6429H90V41.9643ZM90 47.3214H92.6786V50H90V47.3214ZM92.6786 47.3214H95.3571V50H92.6786V47.3214ZM92.6786 44.6429H95.3571V47.3214H92.6786V44.6429ZM95.3571 47.3214H98.0357V50H95.3571V47.3214ZM98.0357 47.3214H100.714V50H98.0357V47.3214ZM100.714 47.3214H103.393V50H100.714V47.3214ZM100.714 44.6429H103.393V47.3214H100.714V44.6429ZM98.0357 44.6429H100.714V47.3214H98.0357V44.6429ZM95.3571 44.6429H98.0357V47.3214H95.3571V44.6429ZM95.3571 23.2143H98.0357V25.8929H95.3571V23.2143ZM98.0357 23.2143H100.714V25.8929H98.0357V23.2143ZM100.714 23.2143H103.393V25.8929H100.714V23.2143ZM103.393 23.2143H106.071V25.8929H103.393V23.2143ZM100.714 25.8929H103.393V28.5714H100.714V25.8929ZM98.0357 25.8929H100.714V28.5714H98.0357V25.8929ZM95.3571 25.8929H98.0357V28.5714H95.3571V25.8929ZM95.3571 36.6071H98.0357V39.2857H95.3571V36.6071ZM98.0357 33.9286H100.714V36.6071H98.0357V33.9286ZM95.3571 33.9286H98.0357V36.6071H95.3571V33.9286ZM98.0357 36.6071H100.714V39.2857H98.0357V36.6071ZM103.393 25.8929H106.071V28.5714H103.393V25.8929ZM103.393 44.6429H106.071V47.3214H103.393V44.6429ZM103.393 47.3214H106.071V50H103.393V47.3214ZM100.714 33.9286H103.393V36.6071H100.714V33.9286ZM100.714 36.6071H103.393V39.2857H100.714V36.6071ZM114.107 23.2143H116.786V25.8929H114.107V23.2143ZM111.429 23.2143H114.107V25.8929H111.429V23.2143ZM111.429 25.8929H114.107V28.5714H111.429V25.8929ZM114.107 25.8929H116.786V28.5714H114.107V25.8929ZM116.786 25.8929H119.464V28.5714H116.786V25.8929ZM116.786 23.2143H119.464V25.8929H116.786V23.2143ZM119.464 23.2143H122.143V25.8929H119.464V23.2143ZM122.143 23.2143H124.821V25.8929H122.143V23.2143ZM122.143 25.8929H124.821V28.5714H122.143V25.8929ZM119.464 25.8929H122.143V28.5714H119.464V25.8929ZM119.464 28.5714H122.143V31.25H119.464V28.5714ZM122.143 28.5714H124.821V31.25H122.143V28.5714ZM124.821 25.8929H127.5V28.5714H124.821V25.8929ZM124.821 28.5714H127.5V31.25H124.821V28.5714ZM124.821 31.25H127.5V33.9286H124.821V31.25ZM124.821 33.9286H127.5V36.6071H124.821V33.9286ZM124.821 36.6071H127.5V39.2857H124.821V36.6071ZM124.821 39.2857H127.5V41.9643H124.821V39.2857ZM124.821 41.9643H127.5V44.6429H124.821V41.9643ZM124.821 44.6429H127.5V47.3214H124.821V44.6429ZM122.143 44.6429H124.821V47.3214H122.143V44.6429ZM122.143 41.9643H124.821V44.6429H122.143V41.9643ZM122.143 39.2857H124.821V41.9643H122.143V39.2857ZM122.143 36.6071H124.821V39.2857H122.143V36.6071ZM122.143 33.9286H124.821V36.6071H122.143V33.9286ZM122.143 31.25H124.821V33.9286H122.143V31.25ZM119.464 41.9643H122.143V44.6429H119.464V41.9643ZM119.464 44.6429H122.143V47.3214H119.464V44.6429ZM122.143 47.3214H124.821V50H122.143V47.3214ZM119.464 47.3214H122.143V50H119.464V47.3214ZM116.786 47.3214H119.464V50H116.786V47.3214ZM116.786 44.6429H119.464V47.3214H116.786V44.6429ZM114.107 47.3214H116.786V50H114.107V47.3214ZM111.429 47.3214H114.107V50H111.429V47.3214ZM111.429 44.6429H114.107V47.3214H111.429V44.6429ZM114.107 44.6429H116.786V47.3214H114.107V44.6429ZM111.429 41.9643H114.107V44.6429H111.429V41.9643ZM108.75 44.6429H111.429V47.3214H108.75V44.6429ZM108.75 41.9643H111.429V44.6429H108.75V41.9643ZM108.75 39.2857H111.429V41.9643H108.75V39.2857ZM108.75 36.6071H111.429V39.2857H108.75V36.6071ZM108.75 33.9286H111.429V36.6071H108.75V33.9286ZM108.75 31.25H111.429V33.9286H108.75V31.25ZM108.75 28.5714H111.429V31.25H108.75V28.5714ZM111.429 28.5714H114.107V31.25H111.429V28.5714ZM108.75 25.8929H111.429V28.5714H108.75V25.8929ZM111.429 31.25H114.107V33.9286H111.429V31.25ZM111.429 33.9286H114.107V36.6071H111.429V33.9286ZM111.429 36.6071H114.107V39.2857H111.429V36.6071ZM111.429 39.2857H114.107V41.9643H111.429V39.2857ZM108.75 47.3214H111.429V50H108.75V47.3214ZM108.75 23.2143H111.429V25.8929H108.75V23.2143ZM132.864 25.8929H135.543V28.5714H132.864V25.8929ZM143.578 25.8929H146.257V28.5714H143.578V25.8929ZM143.578 28.5714H146.257V31.25H143.578V28.5714ZM146.257 25.8929H148.936V28.5714H146.257V25.8929ZM146.257 28.5714H148.936V31.25H146.257V28.5714ZM146.257 31.25H148.936V33.9286H146.257V31.25ZM146.257 33.9286H148.936V36.6071H146.257V33.9286ZM146.257 36.6071H148.936V39.2857H146.257V36.6071ZM146.257 39.2857H148.936V41.9643H146.257V39.2857ZM146.257 41.9643H148.936V44.6429H146.257V41.9643ZM146.257 44.6429H148.936V47.3214H146.257V44.6429ZM143.578 44.6429H146.257V47.3214H143.578V44.6429ZM143.578 41.9643H146.257V44.6429H143.578V41.9643ZM143.578 39.2857H146.257V41.9643H143.578V39.2857ZM143.578 36.6071H146.257V39.2857H143.578V36.6071ZM143.578 33.9286H146.257V36.6071H143.578V33.9286ZM143.578 31.25H146.257V33.9286H143.578V31.25ZM140.9 41.9643H143.578V44.6429H140.9V41.9643ZM140.9 44.6429H143.578V47.3214H140.9V44.6429ZM143.578 47.3214H146.257V50H143.578V47.3214ZM140.9 47.3214H143.578V50H140.9V47.3214ZM138.221 47.3214H140.9V50H138.221V47.3214ZM138.221 44.6429H140.9V47.3214H138.221V44.6429ZM135.543 47.3214H138.221V50H135.543V47.3214ZM132.864 47.3214H135.543V50H132.864V47.3214ZM132.864 44.6429H135.543V47.3214H132.864V44.6429ZM135.543 44.6429H138.221V47.3214H135.543V44.6429ZM135.543 41.9643H138.221V44.6429H135.543V41.9643ZM132.864 41.9643H135.543V44.6429H132.864V41.9643ZM130.186 44.6429H132.864V47.3214H130.186V44.6429ZM130.186 41.9643H132.864V44.6429H130.186V41.9643ZM130.186 39.2857H132.864V41.9643H130.186V39.2857ZM130.186 36.6071H132.864V39.2857H130.186V36.6071ZM130.186 33.9286H132.864V36.6071H130.186V33.9286ZM130.186 31.25H132.864V33.9286H130.186V31.25ZM130.186 28.5714H132.864V31.25H130.186V28.5714ZM132.864 28.5714H135.543V31.25H132.864V28.5714ZM130.186 25.8929H132.864V28.5714H130.186V25.8929ZM132.864 31.25H135.543V33.9286H132.864V31.25ZM132.864 33.9286H135.543V36.6071H132.864V33.9286ZM132.864 36.6071H135.543V39.2857H132.864V36.6071ZM132.864 39.2857H135.543V41.9643H132.864V39.2857ZM130.186 23.2143H132.864V25.8929H130.186V23.2143ZM132.864 23.2143H135.543V25.8929H132.864V23.2143ZM143.578 23.2143H146.257V25.8929H143.578V23.2143ZM146.257 23.2143H148.936V25.8929H146.257V23.2143ZM167.672 23.2143H170.35V25.8929H167.672V23.2143ZM164.993 23.2143H167.672V25.8929H164.993V23.2143ZM164.993 25.8929H167.672V28.5714H164.993V25.8929ZM167.672 25.8929H170.35V28.5714H167.672V25.8929ZM170.35 25.8929H173.029V28.5714H170.35V25.8929ZM170.35 23.2143H173.029V25.8929H170.35V23.2143ZM173.029 23.2143H175.707V25.8929H173.029V23.2143ZM175.707 23.2143H178.386V25.8929H175.707V23.2143ZM175.707 25.8929H178.386V28.5714H175.707V25.8929ZM173.029 25.8929H175.707V28.5714H173.029V25.8929ZM175.707 28.5714H178.386V31.25H175.707V28.5714ZM178.386 25.8929H181.064V28.5714H178.386V25.8929ZM178.386 28.5714H181.064V31.25H178.386V28.5714ZM178.386 41.9643H181.064V44.6429H178.386V41.9643ZM178.386 44.6429H181.064V47.3214H178.386V44.6429ZM175.707 44.6429H178.386V47.3214H175.707V44.6429ZM175.707 41.9643H178.386V44.6429H175.707V41.9643ZM173.029 44.6429H175.707V47.3214H173.029V44.6429ZM175.707 47.3214H178.386V50H175.707V47.3214ZM173.029 47.3214H175.707V50H173.029V47.3214ZM170.35 47.3214H173.029V50H170.35V47.3214ZM170.35 44.6429H173.029V47.3214H170.35V44.6429ZM167.672 47.3214H170.35V50H167.672V47.3214ZM164.993 47.3214H167.672V50H164.993V47.3214ZM164.993 44.6429H167.672V47.3214H164.993V44.6429ZM167.672 44.6429H170.35V47.3214H167.672V44.6429ZM167.672 41.9643H170.35V44.6429H167.672V41.9643ZM164.993 41.9643H167.672V44.6429H164.993V41.9643ZM162.314 44.6429H164.993V47.3214H162.314V44.6429ZM162.314 41.9643H164.993V44.6429H162.314V41.9643ZM162.314 39.2857H164.993V41.9643H162.314V39.2857ZM162.314 36.6071H164.993V39.2857H162.314V36.6071ZM162.314 33.9286H164.993V36.6071H162.314V33.9286ZM162.314 31.25H164.993V33.9286H162.314V31.25ZM162.314 28.5714H164.993V31.25H162.314V28.5714ZM164.993 28.5714H167.672V31.25H164.993V28.5714ZM162.314 25.8929H164.993V28.5714H162.314V25.8929ZM167.672 28.5714H170.35V31.25H167.672V28.5714ZM164.993 31.25H167.672V33.9286H164.993V31.25ZM164.993 33.9286H167.672V36.6071H164.993V33.9286ZM164.993 36.6071H167.672V39.2857H164.993V36.6071ZM164.993 39.2857H167.672V41.9643H164.993V39.2857ZM178.386 39.2857H181.064V41.9643H178.386V39.2857ZM175.707 39.2857H178.386V41.9643H175.707V39.2857ZM175.707 36.6071H178.386V39.2857H175.707V36.6071ZM178.386 36.6071H181.064V39.2857H178.386V36.6071ZM178.386 33.9286H181.064V36.6071H178.386V33.9286ZM175.707 33.9286H178.386V36.6071H175.707V33.9286ZM173.029 33.9286H175.707V36.6071H173.029V33.9286ZM170.35 33.9286H173.029V36.6071H170.35V33.9286ZM170.35 36.6071H173.029V39.2857H170.35V36.6071ZM173.029 36.6071H175.707V39.2857H173.029V36.6071ZM189.107 25.8929H191.786V28.5714H189.107V25.8929ZM191.786 25.8929H194.464V28.5714H191.786V25.8929ZM191.786 23.2143H194.464V25.8929H191.786V23.2143ZM194.464 25.8929H197.143V28.5714H194.464V25.8929ZM194.464 28.5714H197.143V31.25H194.464V28.5714ZM197.143 28.5714H199.821V31.25H197.143V28.5714ZM191.786 28.5714H194.464V31.25H191.786V28.5714ZM189.107 28.5714H191.786V31.25H189.107V28.5714ZM186.429 28.5714H189.107V31.25H186.429V28.5714ZM186.429 31.25H189.107V33.9286H186.429V31.25ZM183.75 31.25H186.429V33.9286H183.75V31.25ZM189.107 31.25H191.786V33.9286H189.107V31.25ZM186.429 33.9286H189.107V36.6071H186.429V33.9286ZM186.429 36.6071H189.107V39.2857H186.429V36.6071ZM186.429 39.2857H189.107V41.9643H186.429V39.2857ZM189.107 39.2857H191.786V41.9643H189.107V39.2857ZM191.786 39.2857H194.464V41.9643H191.786V39.2857ZM194.464 39.2857H197.143V41.9643H194.464V39.2857ZM197.143 39.2857H199.821V41.9643H197.143V39.2857ZM199.821 39.2857H202.5V41.9643H199.821V39.2857ZM199.821 36.6071H202.5V39.2857H199.821V36.6071ZM199.821 33.9286H202.5V36.6071H199.821V33.9286ZM199.821 31.25H202.5V33.9286H199.821V31.25ZM197.143 31.25H199.821V33.9286H197.143V31.25ZM194.464 31.25H197.143V33.9286H194.464V31.25ZM197.143 33.9286H199.821V36.6071H197.143V33.9286ZM197.143 36.6071H199.821V39.2857H197.143V36.6071ZM197.143 41.9643H199.821V44.6429H197.143V41.9643ZM199.821 41.9643H202.5V44.6429H199.821V41.9643ZM199.821 44.6429H202.5V47.3214H199.821V44.6429ZM199.821 47.3214H202.5V50H199.821V47.3214ZM197.143 47.3214H199.821V50H197.143V47.3214ZM197.143 44.6429H199.821V47.3214H197.143V44.6429ZM194.464 41.9643H197.143V44.6429H194.464V41.9643ZM191.786 41.9643H194.464V44.6429H191.786V41.9643ZM189.107 41.9643H191.786V44.6429H189.107V41.9643ZM186.429 41.9643H189.107V44.6429H186.429V41.9643ZM186.429 44.6429H189.107V47.3214H186.429V44.6429ZM186.429 47.3214H189.107V50H186.429V47.3214ZM183.75 47.3214H186.429V50H183.75V47.3214ZM183.75 44.6429H186.429V47.3214H183.75V44.6429ZM183.75 41.9643H186.429V44.6429H183.75V41.9643ZM183.75 39.2857H186.429V41.9643H183.75V39.2857ZM183.75 36.6071H186.429V39.2857H183.75V36.6071ZM183.75 33.9286H186.429V36.6071H183.75V33.9286ZM205.186 47.3214H207.864V50H205.186V47.3214ZM205.186 44.6429H207.864V47.3214H205.186V44.6429ZM205.186 41.9643H207.864V44.6429H205.186V41.9643ZM205.186 39.2857H207.864V41.9643H205.186V39.2857ZM205.186 36.6071H207.864V39.2857H205.186V36.6071ZM205.186 33.9286H207.864V36.6071H205.186V33.9286ZM207.864 33.9286H210.543V36.6071H207.864V33.9286ZM207.864 31.25H210.543V33.9286H207.864V31.25ZM207.864 28.5714H210.543V31.25H207.864V28.5714ZM207.864 25.8929H210.543V28.5714H207.864V25.8929ZM205.186 25.8929H207.864V28.5714H205.186V25.8929ZM205.186 23.2143H207.864V25.8929H205.186V23.2143ZM205.186 28.5714H207.864V31.25H205.186V28.5714ZM205.186 31.25H207.864V33.9286H205.186V31.25ZM207.864 23.2143H210.543V25.8929H207.864V23.2143ZM207.864 36.6071H210.543V39.2857H207.864V36.6071ZM207.864 39.2857H210.543V41.9643H207.864V39.2857ZM207.864 41.9643H210.543V44.6429H207.864V41.9643ZM207.864 44.6429H210.543V47.3214H207.864V44.6429ZM207.864 47.3214H210.543V50H207.864V47.3214ZM210.543 28.5714H213.221V31.25H210.543V28.5714ZM210.543 31.25H213.221V33.9286H210.543V31.25ZM213.221 31.25H215.9V33.9286H213.221V31.25ZM213.221 33.9286H215.9V36.6071H213.221V33.9286ZM215.9 33.9286H218.578V36.6071H215.9V33.9286ZM215.9 36.6071H218.578V39.2857H215.9V36.6071ZM218.578 33.9286H221.257V36.6071H218.578V33.9286ZM218.578 31.25H221.257V33.9286H218.578V31.25ZM221.257 31.25H223.936V33.9286H221.257V31.25ZM221.257 28.5714H223.936V31.25H221.257V28.5714ZM223.936 23.2143H226.614V25.8929H223.936V23.2143ZM223.936 25.8929H226.614V28.5714H223.936V25.8929ZM223.936 28.5714H226.614V31.25H223.936V28.5714ZM223.936 31.25H226.614V33.9286H223.936V31.25ZM223.936 33.9286H226.614V36.6071H223.936V33.9286ZM223.936 36.6071H226.614V39.2857H223.936V36.6071ZM223.936 39.2857H226.614V41.9643H223.936V39.2857ZM223.936 41.9643H226.614V44.6429H223.936V41.9643ZM223.936 44.6429H226.614V47.3214H223.936V44.6429ZM223.936 47.3214H226.614V50H223.936V47.3214ZM226.614 47.3214H229.293V50H226.614V47.3214ZM226.614 44.6429H229.293V47.3214H226.614V44.6429ZM226.614 41.9643H229.293V44.6429H226.614V41.9643ZM226.614 39.2857H229.293V41.9643H226.614V39.2857ZM226.614 36.6071H229.293V39.2857H226.614V36.6071ZM226.614 33.9286H229.293V36.6071H226.614V33.9286ZM226.614 31.25H229.293V33.9286H226.614V31.25ZM226.614 28.5714H229.293V31.25H226.614V28.5714ZM226.614 25.8929H229.293V28.5714H226.614V25.8929ZM226.614 23.2143H229.293V25.8929H226.614V23.2143ZM210.543 25.8929H213.221V28.5714H210.543V25.8929ZM213.221 28.5714H215.9V31.25H213.221V28.5714ZM215.9 31.25H218.578V33.9286H215.9V31.25ZM218.578 28.5714H221.257V31.25H218.578V28.5714ZM221.257 25.8929H223.936V28.5714H221.257V25.8929ZM231.992 23.2143H234.671V25.8929H231.992V23.2143ZM234.671 23.2143H237.349V25.8929H234.671V23.2143ZM234.671 25.8929H237.349V28.5714H234.671V25.8929ZM234.671 28.5714H237.349V31.25H234.671V28.5714ZM234.671 31.25H237.349V33.9286H234.671V31.25ZM231.992 31.25H234.671V33.9286H231.992V31.25ZM231.992 28.5714H234.671V31.25H231.992V28.5714ZM231.992 25.8929H234.671V28.5714H231.992V25.8929ZM231.992 33.9286H234.671V36.6071H231.992V33.9286ZM231.992 36.6071H234.671V39.2857H231.992V36.6071ZM231.992 39.2857H234.671V41.9643H231.992V39.2857ZM234.671 36.6071H237.349V39.2857H234.671V36.6071ZM234.671 33.9286H237.349V36.6071H234.671V33.9286ZM234.671 39.2857H237.349V41.9643H234.671V39.2857ZM234.671 41.9643H237.349V44.6429H234.671V41.9643ZM231.992 44.6429H234.671V47.3214H231.992V44.6429ZM231.992 41.9643H234.671V44.6429H231.992V41.9643ZM231.992 47.3214H234.671V50H231.992V47.3214ZM234.671 47.3214H237.349V50H234.671V47.3214ZM234.671 44.6429H237.349V47.3214H234.671V44.6429ZM237.349 47.3214H240.028V50H237.349V47.3214ZM240.028 47.3214H242.706V50H240.028V47.3214ZM242.706 47.3214H245.385V50H242.706V47.3214ZM242.706 44.6429H245.385V47.3214H242.706V44.6429ZM240.028 44.6429H242.706V47.3214H240.028V44.6429ZM237.349 44.6429H240.028V47.3214H237.349V44.6429ZM237.349 23.2143H240.028V25.8929H237.349V23.2143ZM240.028 23.2143H242.706V25.8929H240.028V23.2143ZM242.706 23.2143H245.385V25.8929H242.706V23.2143ZM245.385 23.2143H248.064V25.8929H245.385V23.2143ZM242.706 25.8929H245.385V28.5714H242.706V25.8929ZM240.028 25.8929H242.706V28.5714H240.028V25.8929ZM237.349 25.8929H240.028V28.5714H237.349V25.8929ZM237.349 36.6071H240.028V39.2857H237.349V36.6071ZM240.028 33.9286H242.706V36.6071H240.028V33.9286ZM237.349 33.9286H240.028V36.6071H237.349V33.9286ZM240.028 36.6071H242.706V39.2857H240.028V36.6071ZM245.385 25.8929H248.064V28.5714H245.385V25.8929ZM245.385 44.6429H248.064V47.3214H245.385V44.6429ZM245.385 47.3214H248.064V50H245.385V47.3214ZM242.706 33.9286H245.385V36.6071H242.706V33.9286ZM242.706 36.6071H245.385V39.2857H242.706V36.6071ZM277.507 28.5714H280.186V31.25H277.507V28.5714ZM274.828 28.5714H277.507V31.25H274.828V28.5714ZM274.828 25.8929H277.507V28.5714H274.828V25.8929ZM277.507 25.8929H280.186V28.5714H277.507V25.8929ZM274.828 23.2143H277.507V25.8929H274.828V23.2143ZM272.15 23.2143H274.828V25.8929H272.15V23.2143ZM272.15 25.8929H274.828V28.5714H272.15V25.8929ZM269.471 25.8929H272.15V28.5714H269.471V25.8929ZM266.793 25.8929H269.471V28.5714H266.793V25.8929ZM266.793 23.2143H269.471V25.8929H266.793V23.2143ZM264.114 23.2143H266.793V25.8929H264.114V23.2143ZM269.471 23.2143H272.15V25.8929H269.471V23.2143ZM264.114 25.8929H266.793V28.5714H264.114V25.8929ZM261.436 25.8929H264.114V28.5714H261.436V25.8929ZM261.436 28.5714H264.114V31.25H261.436V28.5714ZM264.114 28.5714H266.793V31.25H264.114V28.5714ZM264.114 31.25H266.793V33.9286H264.114V31.25ZM264.114 33.9286H266.793V36.6071H264.114V33.9286ZM261.436 33.9286H264.114V36.6071H261.436V33.9286ZM261.436 31.25H264.114V33.9286H261.436V31.25ZM264.114 36.6071H266.793V39.2857H264.114V36.6071ZM266.793 36.6071H269.471V39.2857H266.793V36.6071ZM266.793 33.9286H269.471V36.6071H266.793V33.9286ZM269.471 33.9286H272.15V36.6071H269.471V33.9286ZM272.15 33.9286H274.828V36.6071H272.15V33.9286ZM274.828 33.9286H277.507V36.6071H274.828V33.9286ZM274.828 36.6071H277.507V39.2857H274.828V36.6071ZM272.15 36.6071H274.828V39.2857H272.15V36.6071ZM269.471 36.6071H272.15V39.2857H269.471V36.6071ZM277.507 36.6071H280.186V39.2857H277.507V36.6071ZM277.507 39.2857H280.186V41.9643H277.507V39.2857ZM274.828 39.2857H277.507V41.9643H274.828V39.2857ZM272.15 44.6429H274.828V47.3214H272.15V44.6429ZM274.828 44.6429H277.507V47.3214H274.828V44.6429ZM274.828 41.9643H277.507V44.6429H274.828V41.9643ZM277.507 41.9643H280.186V44.6429H277.507V41.9643ZM277.507 44.6429H280.186V47.3214H277.507V44.6429ZM274.828 47.3214H277.507V50H274.828V47.3214ZM272.15 47.3214H274.828V50H272.15V47.3214ZM269.471 47.3214H272.15V50H269.471V47.3214ZM266.793 47.3214H269.471V50H266.793V47.3214ZM264.114 47.3214H266.793V50H264.114V47.3214ZM264.114 44.6429H266.793V47.3214H264.114V44.6429ZM266.793 44.6429H269.471V47.3214H266.793V44.6429ZM269.471 44.6429H272.15V47.3214H269.471V44.6429ZM261.436 44.6429H264.114V47.3214H261.436V44.6429ZM261.436 41.9643H264.114V44.6429H261.436V41.9643ZM264.114 41.9643H266.793V44.6429H264.114V41.9643ZM282.871 23.2143H285.55V25.8929H282.871V23.2143ZM285.55 23.2143H288.228V25.8929H285.55V23.2143ZM288.228 23.2143H290.907V25.8929H288.228V23.2143ZM290.907 23.2143H293.585V25.8929H290.907V23.2143ZM293.585 23.2143H296.264V25.8929H293.585V23.2143ZM296.264 23.2143H298.943V25.8929H296.264V23.2143ZM296.264 25.8929H298.943V28.5714H296.264V25.8929ZM293.585 25.8929H296.264V28.5714H293.585V25.8929ZM290.907 25.8929H293.585V28.5714H290.907V25.8929ZM288.228 25.8929H290.907V28.5714H288.228V25.8929ZM285.55 25.8929H288.228V28.5714H285.55V25.8929ZM282.871 25.8929H285.55V28.5714H282.871V25.8929ZM288.228 28.5714H290.907V31.25H288.228V28.5714ZM288.228 31.25H290.907V33.9286H288.228V31.25ZM288.228 33.9286H290.907V36.6071H288.228V33.9286ZM288.228 36.6071H290.907V39.2857H288.228V36.6071ZM288.228 39.2857H290.907V41.9643H288.228V39.2857ZM288.228 41.9643H290.907V44.6429H288.228V41.9643ZM290.907 39.2857H293.585V41.9643H290.907V39.2857ZM290.907 36.6071H293.585V39.2857H290.907V36.6071ZM290.907 33.9286H293.585V36.6071H290.907V33.9286ZM290.907 31.25H293.585V33.9286H290.907V31.25ZM290.907 28.5714H293.585V31.25H290.907V28.5714ZM290.907 41.9643H293.585V44.6429H290.907V41.9643ZM290.907 44.6429H293.585V47.3214H290.907V44.6429ZM290.907 47.3214H293.585V50H290.907V47.3214ZM288.228 47.3214H290.907V50H288.228V47.3214ZM288.228 44.6429H290.907V47.3214H288.228V44.6429ZM304.3 25.8929H306.978V28.5714H304.3V25.8929ZM315.014 25.8929H317.693V28.5714H315.014V25.8929ZM315.014 28.5714H317.693V31.25H315.014V28.5714ZM317.693 25.8929H320.371V28.5714H317.693V25.8929ZM317.693 28.5714H320.371V31.25H317.693V28.5714ZM317.693 31.25H320.371V33.9286H317.693V31.25ZM317.693 33.9286H320.371V36.6071H317.693V33.9286ZM317.693 36.6071H320.371V39.2857H317.693V36.6071ZM317.693 39.2857H320.371V41.9643H317.693V39.2857ZM317.693 41.9643H320.371V44.6429H317.693V41.9643ZM317.693 44.6429H320.371V47.3214H317.693V44.6429ZM315.014 44.6429H317.693V47.3214H315.014V44.6429ZM315.014 41.9643H317.693V44.6429H315.014V41.9643ZM315.014 39.2857H317.693V41.9643H315.014V39.2857ZM315.014 36.6071H317.693V39.2857H315.014V36.6071ZM315.014 33.9286H317.693V36.6071H315.014V33.9286ZM315.014 31.25H317.693V33.9286H315.014V31.25ZM312.335 41.9643H315.014V44.6429H312.335V41.9643ZM312.335 44.6429H315.014V47.3214H312.335V44.6429ZM315.014 47.3214H317.693V50H315.014V47.3214ZM312.335 47.3214H315.014V50H312.335V47.3214ZM309.657 47.3214H312.335V50H309.657V47.3214ZM309.657 44.6429H312.335V47.3214H309.657V44.6429ZM306.978 47.3214H309.657V50H306.978V47.3214ZM304.3 47.3214H306.978V50H304.3V47.3214ZM304.3 44.6429H306.978V47.3214H304.3V44.6429ZM306.978 44.6429H309.657V47.3214H306.978V44.6429ZM306.978 41.9643H309.657V44.6429H306.978V41.9643ZM304.3 41.9643H306.978V44.6429H304.3V41.9643ZM301.621 44.6429H304.3V47.3214H301.621V44.6429ZM301.621 41.9643H304.3V44.6429H301.621V41.9643ZM301.621 39.2857H304.3V41.9643H301.621V39.2857ZM301.621 36.6071H304.3V39.2857H301.621V36.6071ZM301.621 33.9286H304.3V36.6071H301.621V33.9286ZM301.621 31.25H304.3V33.9286H301.621V31.25ZM301.621 28.5714H304.3V31.25H301.621V28.5714ZM304.3 28.5714H306.978V31.25H304.3V28.5714ZM301.621 25.8929H304.3V28.5714H301.621V25.8929ZM304.3 31.25H306.978V33.9286H304.3V31.25ZM304.3 33.9286H306.978V36.6071H304.3V33.9286ZM304.3 36.6071H306.978V39.2857H304.3V36.6071ZM304.3 39.2857H306.978V41.9643H304.3V39.2857ZM301.621 23.2143H304.3V25.8929H301.621V23.2143ZM304.3 23.2143H306.978V25.8929H304.3V23.2143ZM315.014 23.2143H317.693V25.8929H315.014V23.2143ZM317.693 23.2143H320.371V25.8929H317.693V23.2143ZM328.414 23.2143H331.092V25.8929H328.414V23.2143ZM325.735 23.2143H328.414V25.8929H325.735V23.2143ZM325.735 25.8929H328.414V28.5714H325.735V25.8929ZM328.414 25.8929H331.092V28.5714H328.414V25.8929ZM331.092 25.8929H333.771V28.5714H331.092V25.8929ZM331.092 23.2143H333.771V25.8929H331.092V23.2143ZM333.771 23.2143H336.449V25.8929H333.771V23.2143ZM336.449 23.2143H339.128V25.8929H336.449V23.2143ZM336.449 25.8929H339.128V28.5714H336.449V25.8929ZM333.771 25.8929H336.449V28.5714H333.771V25.8929ZM333.771 28.5714H336.449V31.25H333.771V28.5714ZM336.449 28.5714H339.128V31.25H336.449V28.5714ZM339.128 25.8929H341.807V28.5714H339.128V25.8929ZM339.128 28.5714H341.807V31.25H339.128V28.5714ZM339.128 31.25H341.807V33.9286H339.128V31.25ZM339.128 33.9286H341.807V36.6071H339.128V33.9286ZM339.128 36.6071H341.807V39.2857H339.128V36.6071ZM339.128 39.2857H341.807V41.9643H339.128V39.2857ZM339.128 41.9643H341.807V44.6429H339.128V41.9643ZM339.128 44.6429H341.807V47.3214H339.128V44.6429ZM336.449 44.6429H339.128V47.3214H336.449V44.6429ZM336.449 41.9643H339.128V44.6429H336.449V41.9643ZM336.449 39.2857H339.128V41.9643H336.449V39.2857ZM336.449 36.6071H339.128V39.2857H336.449V36.6071ZM336.449 33.9286H339.128V36.6071H336.449V33.9286ZM336.449 31.25H339.128V33.9286H336.449V31.25ZM333.771 41.9643H336.449V44.6429H333.771V41.9643ZM333.771 44.6429H336.449V47.3214H333.771V44.6429ZM336.449 47.3214H339.128V50H336.449V47.3214ZM333.771 47.3214H336.449V50H333.771V47.3214ZM331.092 47.3214H333.771V50H331.092V47.3214ZM331.092 44.6429H333.771V47.3214H331.092V44.6429ZM328.414 47.3214H331.092V50H328.414V47.3214ZM325.735 47.3214H328.414V50H325.735V47.3214ZM325.735 44.6429H328.414V47.3214H325.735V44.6429ZM328.414 44.6429H331.092V47.3214H328.414V44.6429ZM325.735 41.9643H328.414V44.6429H325.735V41.9643ZM323.057 44.6429H325.735V47.3214H323.057V44.6429ZM323.057 41.9643H325.735V44.6429H323.057V41.9643ZM323.057 39.2857H325.735V41.9643H323.057V39.2857ZM323.057 36.6071H325.735V39.2857H323.057V36.6071ZM323.057 33.9286H325.735V36.6071H323.057V33.9286ZM323.057 31.25H325.735V33.9286H323.057V31.25ZM323.057 28.5714H325.735V31.25H323.057V28.5714ZM325.735 28.5714H328.414V31.25H325.735V28.5714ZM323.057 25.8929H325.735V28.5714H323.057V25.8929ZM325.735 31.25H328.414V33.9286H325.735V31.25ZM325.735 33.9286H328.414V36.6071H325.735V33.9286ZM325.735 36.6071H328.414V39.2857H325.735V36.6071ZM325.735 39.2857H328.414V41.9643H325.735V39.2857ZM323.057 47.3214H325.735V50H323.057V47.3214ZM323.057 23.2143H325.735V25.8929H323.057V23.2143ZM344.492 47.3214H347.171V50H344.492V47.3214ZM347.171 47.3214H349.849V50H347.171V47.3214ZM347.171 44.6429H349.849V47.3214H347.171V44.6429ZM347.171 41.9643H349.849V44.6429H347.171V41.9643ZM347.171 39.2857H349.849V41.9643H347.171V39.2857ZM347.171 36.6071H349.849V39.2857H347.171V36.6071ZM347.171 33.9286H349.849V36.6071H347.171V33.9286ZM344.492 33.9286H347.171V36.6071H344.492V33.9286ZM344.492 36.6071H347.171V39.2857H344.492V36.6071ZM344.492 39.2857H347.171V41.9643H344.492V39.2857ZM344.492 41.9643H347.171V44.6429H344.492V41.9643ZM344.492 44.6429H347.171V47.3214H344.492V44.6429ZM344.492 31.25H347.171V33.9286H344.492V31.25ZM347.171 31.25H349.849V33.9286H347.171V31.25ZM347.171 28.5714H349.849V31.25H347.171V28.5714ZM347.171 25.8929H349.849V28.5714H347.171V25.8929ZM347.171 23.2143H349.849V25.8929H347.171V23.2143ZM344.492 23.2143H347.171V25.8929H344.492V23.2143ZM344.492 25.8929H347.171V28.5714H344.492V25.8929ZM344.492 28.5714H347.171V31.25H344.492V28.5714ZM357.906 23.2143H360.585V25.8929H357.906V23.2143ZM355.227 23.2143H357.906V25.8929H355.227V23.2143ZM355.227 25.8929H357.906V28.5714H355.227V25.8929ZM357.906 25.8929H360.585V28.5714H357.906V25.8929ZM360.585 25.8929H363.263V28.5714H360.585V25.8929ZM360.585 23.2143H363.263V25.8929H360.585V23.2143ZM363.263 23.2143H365.942V25.8929H363.263V23.2143ZM365.942 23.2143H368.62V25.8929H365.942V23.2143ZM365.942 25.8929H368.62V28.5714H365.942V25.8929ZM363.263 25.8929H365.942V28.5714H363.263V25.8929ZM363.263 28.5714H365.942V31.25H363.263V28.5714ZM365.942 28.5714H368.62V31.25H365.942V28.5714ZM368.62 25.8929H371.299V28.5714H368.62V25.8929ZM368.62 28.5714H371.299V31.25H368.62V28.5714ZM368.62 31.25H371.299V33.9286H368.62V31.25ZM368.62 33.9286H371.299V36.6071H368.62V33.9286ZM368.62 36.6071H371.299V39.2857H368.62V36.6071ZM368.62 39.2857H371.299V41.9643H368.62V39.2857ZM368.62 41.9643H371.299V44.6429H368.62V41.9643ZM368.62 44.6429H371.299V47.3214H368.62V44.6429ZM365.942 44.6429H368.62V47.3214H365.942V44.6429ZM365.942 41.9643H368.62V44.6429H365.942V41.9643ZM365.942 39.2857H368.62V41.9643H365.942V39.2857ZM365.942 36.6071H368.62V39.2857H365.942V36.6071ZM365.942 33.9286H368.62V36.6071H365.942V33.9286ZM365.942 31.25H368.62V33.9286H365.942V31.25ZM363.263 41.9643H365.942V44.6429H363.263V41.9643ZM363.263 44.6429H365.942V47.3214H363.263V44.6429ZM365.942 47.3214H368.62V50H365.942V47.3214ZM363.263 47.3214H365.942V50H363.263V47.3214ZM360.585 47.3214H363.263V50H360.585V47.3214ZM360.585 44.6429H363.263V47.3214H360.585V44.6429ZM357.906 47.3214H360.585V50H357.906V47.3214ZM355.227 47.3214H357.906V50H355.227V47.3214ZM355.227 44.6429H357.906V47.3214H355.227V44.6429ZM357.906 44.6429H360.585V47.3214H357.906V44.6429ZM357.906 41.9643H360.585V44.6429H357.906V41.9643ZM355.227 41.9643H357.906V44.6429H355.227V41.9643ZM352.549 44.6429H355.227V47.3214H352.549V44.6429ZM352.549 41.9643H355.227V44.6429H352.549V41.9643ZM352.549 39.2857H355.227V41.9643H352.549V39.2857ZM352.549 36.6071H355.227V39.2857H352.549V36.6071ZM352.549 33.9286H355.227V36.6071H352.549V33.9286ZM352.549 31.25H355.227V33.9286H352.549V31.25ZM352.549 28.5714H355.227V31.25H352.549V28.5714ZM355.227 28.5714H357.906V31.25H355.227V28.5714ZM352.549 25.8929H355.227V28.5714H352.549V25.8929ZM357.906 28.5714H360.585V31.25H357.906V28.5714ZM355.227 31.25H357.906V33.9286H355.227V31.25ZM355.227 33.9286H357.906V36.6071H355.227V33.9286ZM355.227 36.6071H357.906V39.2857H355.227V36.6071ZM355.227 39.2857H357.906V41.9643H355.227V39.2857Z" fill="white"/>
<defs>
<linearGradient id="paint0_linear_119_15" x1="37.2329" y1="52.6553" x2="37.2329" y2="82.8413" gradientUnits="userSpaceOnUse">
<stop stop-color="#D2733C"/>
<stop offset="1" stop-color="#793109"/>
</linearGradient>
<linearGradient id="paint1_linear_119_15" x1="23.2002" y1="31.6035" x2="23.2002" y2="75.5334" gradientUnits="userSpaceOnUse">
<stop stop-color="#EFA44E"/>
<stop offset="1" stop-color="#F66B14"/>
</linearGradient>
<linearGradient id="paint2_linear_119_15" x1="32.8421" y1="19.2153" x2="32.8421" y2="26.2742" gradientUnits="userSpaceOnUse">
<stop stop-color="#D2733C"/>
<stop offset="1" stop-color="#793109"/>
</linearGradient>
<linearGradient id="paint3_linear_119_15" x1="19.6384" y1="30.9521" x2="19.6384" y2="38.011" gradientUnits="userSpaceOnUse">
<stop stop-color="#D2733C"/>
<stop offset="1" stop-color="#793109"/>
</linearGradient>
</defs>
</svg>
