<svg width="1165" height="156" viewBox="0 0 1165 156" fill="none" xmlns="http://www.w3.org/2000/svg">
<path d="M759.445 62.3037C760.215 62.3037 760.601 61.4362 760.601 59.7012V44.8604C760.601 44.3018 760.562 43.9717 760.486 43.8701C760.41 43.777 760.241 43.7008 759.979 43.6416L759.115 43.4512H756.386C755.59 43.4512 755.023 43.8786 754.685 44.7334C754.532 45.1143 754.456 45.4951 754.456 45.876C754.456 47.611 754.841 48.4785 755.611 48.4785C755.747 48.4785 755.963 48.3516 756.259 48.0977C756.733 47.7422 757.131 47.5518 757.452 47.5264C758.019 47.5264 758.32 47.7845 758.354 48.3008C758.379 48.6478 758.218 48.9186 757.871 49.1133C757.693 49.2064 757.507 49.2529 757.312 49.2529C756.339 49.2529 755.641 49.181 755.218 49.0371C753.584 48.487 752.763 47.391 752.755 45.749C752.755 44.6234 753.288 43.8109 754.354 43.3115C754.955 43.0322 755.632 42.8926 756.386 42.8926H764.054V43.4258L763.317 43.5781C762.852 43.6712 762.568 43.8574 762.467 44.1367C762.365 44.416 762.314 44.89 762.314 45.5586V49.6973H771.43V45.5586C771.43 44.7884 771.366 44.2848 771.239 44.0479C771.112 43.8109 770.85 43.6543 770.452 43.5781L769.703 43.4258V42.8926H774.629V43.4512L773.766 43.6416C773.461 43.7093 773.283 43.8024 773.232 43.9209C773.173 44.0479 773.144 44.361 773.144 44.8604V56.0576C773.144 56.5993 773.182 56.9209 773.258 57.0225C773.342 57.1156 773.512 57.1917 773.766 57.251L774.629 57.4414V58H769.703V57.4668L770.439 57.3145C770.896 57.2214 771.176 57.0352 771.277 56.7559C771.379 56.4766 771.43 56.0026 771.43 55.334V50.4844H762.314V58.9521C762.213 60.3825 761.836 61.4235 761.185 62.0752C760.533 62.7354 759.488 63.0654 758.049 63.0654C757.524 63.0654 757.169 62.9723 756.982 62.7861C756.805 62.6084 756.716 62.3841 756.716 62.1133C756.75 61.6055 757.046 61.3516 757.604 61.3516C757.96 61.3516 758.303 61.5039 758.633 61.8086C758.971 62.1217 759.242 62.2868 759.445 62.3037ZM776.051 53.1377C776.051 51.5973 776.491 50.2939 777.371 49.2275C778.251 48.1527 779.322 47.6152 780.583 47.6152C781.861 47.6152 782.978 48.1146 783.935 49.1133C784.891 50.112 785.369 51.3688 785.369 52.8838C785.369 54.3988 784.954 55.6598 784.125 56.667C783.169 57.8265 782.068 58.4062 780.824 58.4062C779.495 58.4147 778.37 57.9196 777.447 56.9209C776.525 55.9137 776.059 54.6527 776.051 53.1377ZM780.393 48.5674C779.495 48.5674 778.806 48.9736 778.323 49.7861C777.841 50.5986 777.6 51.61 777.6 52.8203C777.6 54.0221 777.904 55.097 778.514 56.0449C779.132 56.9844 779.944 57.4583 780.951 57.4668C781.891 57.4668 782.593 57.0563 783.059 56.2354C783.533 55.4059 783.77 54.4326 783.77 53.3154C783.77 52.1221 783.482 51.0345 782.906 50.0527C782.331 49.071 781.493 48.5758 780.393 48.5674ZM793.329 48.6943C792.119 48.6943 791.057 49.016 790.143 49.6592V55.3467C790.143 56.1253 790.198 56.6331 790.308 56.8701C790.418 57.0986 790.676 57.2552 791.082 57.3398L791.831 57.4795V58H787.02V57.4668L787.896 57.2764C788.209 57.2087 788.403 57.1113 788.479 56.9844C788.547 56.8405 788.581 56.5316 788.581 56.0576V50.3447C788.581 49.7523 788.522 49.3545 788.403 49.1514C788.276 48.9398 787.836 48.834 787.083 48.834L787.02 48.4023L790.143 47.6152V48.7324C791.581 47.9453 792.842 47.556 793.926 47.5645C795.018 47.5645 795.809 48.0342 796.3 48.9736C797.916 48.0257 799.33 47.5518 800.54 47.5518C801.759 47.5518 802.592 48.1273 803.041 49.2783C803.261 49.8369 803.371 50.5182 803.371 51.3223V55.3721C803.371 56.1507 803.426 56.6585 803.536 56.8955C803.655 57.124 803.909 57.2764 804.298 57.3525L805.047 57.5049V58H800.248V57.4795L801.111 57.3018C801.433 57.234 801.628 57.1325 801.695 56.9971C801.763 56.8532 801.797 56.5443 801.797 56.0703V51.7285C801.78 49.7227 801.158 48.7113 799.931 48.6943C798.72 48.6943 797.603 49.0286 796.579 49.6973C796.706 50.1628 796.77 50.7044 796.77 51.3223V55.3721C796.77 56.1507 796.825 56.6585 796.935 56.8955C797.053 57.124 797.307 57.2764 797.696 57.3525L798.445 57.5049V58H793.646V57.4795L794.51 57.3018C794.831 57.234 795.026 57.1325 795.094 56.9971C795.161 56.8532 795.195 56.5443 795.195 56.0703V51.7285C795.178 49.7227 794.556 48.7113 793.329 48.6943ZM811.026 47.5137C812.651 47.5137 813.671 48.1484 814.086 49.418C814.272 49.9935 814.323 50.5563 814.238 51.1064H808.157C808.047 51.7158 807.992 52.2829 807.992 52.8076C807.992 54.5934 808.525 55.8122 809.592 56.4639C810.159 56.8109 810.84 56.9844 811.636 56.9844C812.465 56.9844 813.299 56.6797 814.137 56.0703L814.505 56.4512L814.149 56.8701C813.185 57.8773 812.042 58.3851 810.722 58.3936C809.935 58.3936 809.207 58.1566 808.538 57.6826C807.192 56.7262 806.52 55.279 806.52 53.3408C806.52 51.2926 807.091 49.7396 808.233 48.6816C809.097 47.9284 810.028 47.5391 811.026 47.5137ZM808.284 50.2812H812.601C812.601 49.6126 812.448 49.1175 812.144 48.7959C811.839 48.4658 811.45 48.3008 810.976 48.3008C810.239 48.3008 809.638 48.5208 809.173 48.9609C808.707 49.3926 808.411 49.8327 808.284 50.2812Z" fill="#CC9344"/>
<path d="M853.695 42.6895C854.736 42.6895 855.54 42.863 856.107 43.21C856.895 43.7093 857.525 44.6445 857.999 46.0156C859.709 51.0007 860.792 54.0941 861.249 55.2959C861.723 56.5485 862.303 57.2425 862.988 57.3779L863.56 57.4795V58H858.329V57.4668L859.307 57.251C859.704 57.1494 859.908 56.9294 859.916 56.5908C859.916 56.3877 859.857 56.1126 859.738 55.7656L858.799 52.9473H853.657C852.938 55.224 852.57 56.4342 852.553 56.5781C852.553 56.9505 852.849 57.2044 853.441 57.3398L854.19 57.4795V58H849.404V57.4668L850.115 57.3398C850.742 57.2214 851.287 56.4893 851.753 55.1436L854.495 47.1836C854.994 45.7194 855.257 44.8392 855.282 44.543C855.316 44.2467 855.219 44.0986 854.99 44.0986C854.719 44.0986 854.461 44.1452 854.216 44.2383C853.979 44.3314 853.826 44.3779 853.759 44.3779C853.353 44.3779 853.077 44.1917 852.934 43.8193C852.891 43.6924 852.87 43.5612 852.87 43.4258C852.929 42.9603 853.204 42.7148 853.695 42.6895ZM856.26 45.127L853.924 52.1602H858.558L856.26 45.127ZM866.276 49.9131C865.777 50.7933 865.527 51.8301 865.527 53.0234C865.527 54.2083 865.853 55.1732 866.505 55.918C867.157 56.6628 867.986 57.0394 868.993 57.0479C870 57.0479 870.923 56.832 871.761 56.4004L872.167 56.8447C871.761 57.234 871.452 57.5007 871.24 57.6445C870.479 58.1523 869.607 58.4105 868.625 58.4189C866.704 58.4189 865.354 57.6022 864.575 55.9688C864.16 55.1055 863.953 54.1406 863.953 53.0742C863.953 51.2884 864.495 49.8835 865.578 48.8594C866.501 47.9876 867.571 47.5518 868.79 47.5518C870.026 47.5518 871.228 47.9665 872.396 48.7959C872.539 48.889 872.556 49.1175 872.446 49.4814C872.336 49.8454 872.108 50.0993 871.761 50.2432C871.498 50.2432 871.228 50.0485 870.948 49.6592C870.677 49.2614 870.521 49.0413 870.479 48.999C870.064 48.542 869.522 48.3092 868.854 48.3008C867.753 48.3008 866.894 48.8382 866.276 49.9131ZM878.845 48.7705H876.204V53.8232C876.204 54.5511 876.213 55.2367 876.229 55.8799C876.246 56.5146 876.344 56.9505 876.521 57.1875C876.708 57.416 876.974 57.5303 877.321 57.5303C877.939 57.5303 878.599 57.361 879.302 57.0225V57.708C878.405 58.182 877.639 58.4189 877.004 58.4189C876.403 58.4189 875.938 58.3174 875.607 58.1143C875.286 57.9196 875.049 57.6657 874.896 57.3525C874.753 57.0309 874.668 56.6712 874.643 56.2734C874.617 55.8757 874.604 55.4779 874.604 55.0801V49.6338C874.604 49.4476 874.6 49.3037 874.592 49.2021C874.592 49.1006 874.575 49.0117 874.541 48.9355C874.516 48.8594 874.448 48.8128 874.338 48.7959C874.228 48.779 874.063 48.7705 873.843 48.7705H873.132V48.1738C873.944 47.8268 874.503 47.4925 874.808 47.1709C875.112 46.8493 875.438 46.2907 875.785 45.4951H876.204V47.8184H878.845V48.7705ZM883.783 47.6152V55.3467C883.783 56.1253 883.838 56.6331 883.948 56.8701C884.058 57.0986 884.316 57.2552 884.723 57.3398L885.472 57.4795V58H880.66V57.4668L881.536 57.2764C881.849 57.2087 882.044 57.1113 882.12 56.9844C882.188 56.8405 882.222 56.5316 882.222 56.0576V50.3447C882.222 49.7607 882.196 49.4053 882.146 49.2783C882.027 48.9821 881.553 48.834 880.724 48.834L880.66 48.4023L883.783 47.6152ZM881.612 42.6514C881.612 42.3551 881.71 42.1055 881.904 41.9023C882.107 41.6908 882.357 41.585 882.653 41.585C882.941 41.585 883.187 41.6908 883.39 41.9023C883.601 42.1055 883.707 42.3551 883.707 42.6514C883.707 42.9391 883.601 43.1846 883.39 43.3877C883.187 43.5824 882.941 43.6797 882.653 43.6797C882.357 43.6797 882.107 43.5824 881.904 43.3877C881.71 43.1846 881.612 42.9391 881.612 42.6514ZM886.005 48.377V47.793H890.321V48.377C889.602 48.377 889.217 48.5589 889.166 48.9229C889.141 49.1344 889.221 49.5026 889.407 50.0273L891.591 56.0195L894.003 49.3037C894.164 48.8721 893.999 48.5885 893.508 48.4531C893.33 48.4023 893.131 48.377 892.911 48.377V47.793H896.428V48.377C895.861 48.3939 895.467 48.5716 895.247 48.9102C895.154 49.054 895.002 49.401 894.79 49.9512L891.667 58.1396H890.867L887.858 50.3193C887.554 49.5238 887.266 49.0033 886.995 48.7578C886.733 48.5039 886.403 48.377 886.005 48.377ZM900.389 47.6152V55.3467C900.389 56.1253 900.444 56.6331 900.554 56.8701C900.664 57.0986 900.922 57.2552 901.328 57.3398L902.077 57.4795V58H897.266V57.4668L898.142 57.2764C898.455 57.2087 898.649 57.1113 898.726 56.9844C898.793 56.8405 898.827 56.5316 898.827 56.0576V50.3447C898.827 49.7607 898.802 49.4053 898.751 49.2783C898.632 48.9821 898.159 48.834 897.329 48.834L897.266 48.4023L900.389 47.6152ZM898.218 42.6514C898.218 42.3551 898.315 42.1055 898.51 41.9023C898.713 41.6908 898.963 41.585 899.259 41.585C899.547 41.585 899.792 41.6908 899.995 41.9023C900.207 42.1055 900.312 42.3551 900.312 42.6514C900.312 42.9391 900.207 43.1846 899.995 43.3877C899.792 43.5824 899.547 43.6797 899.259 43.6797C898.963 43.6797 898.713 43.5824 898.51 43.3877C898.315 43.1846 898.218 42.9391 898.218 42.6514ZM908.831 48.7705H906.19V53.8232C906.19 54.5511 906.199 55.2367 906.216 55.8799C906.233 56.5146 906.33 56.9505 906.508 57.1875C906.694 57.416 906.961 57.5303 907.308 57.5303C907.925 57.5303 908.586 57.361 909.288 57.0225V57.708C908.391 58.182 907.625 58.4189 906.99 58.4189C906.389 58.4189 905.924 58.3174 905.594 58.1143C905.272 57.9196 905.035 57.6657 904.883 57.3525C904.739 57.0309 904.654 56.6712 904.629 56.2734C904.604 55.8757 904.591 55.4779 904.591 55.0801V49.6338C904.591 49.4476 904.587 49.3037 904.578 49.2021C904.578 49.1006 904.561 49.0117 904.527 48.9355C904.502 48.8594 904.434 48.8128 904.324 48.7959C904.214 48.779 904.049 48.7705 903.829 48.7705H903.118V48.1738C903.931 47.8268 904.489 47.4925 904.794 47.1709C905.099 46.8493 905.424 46.2907 905.771 45.4951H906.19V47.8184H908.831V48.7705ZM913.77 47.6152V55.3467C913.77 56.1253 913.825 56.6331 913.935 56.8701C914.045 57.0986 914.303 57.2552 914.709 57.3398L915.458 57.4795V58H910.646V57.4668L911.522 57.2764C911.836 57.2087 912.03 57.1113 912.106 56.9844C912.174 56.8405 912.208 56.5316 912.208 56.0576V50.3447C912.208 49.7607 912.183 49.4053 912.132 49.2783C912.013 48.9821 911.539 48.834 910.71 48.834L910.646 48.4023L913.77 47.6152ZM911.599 42.6514C911.599 42.3551 911.696 42.1055 911.891 41.9023C912.094 41.6908 912.343 41.585 912.64 41.585C912.927 41.585 913.173 41.6908 913.376 41.9023C913.588 42.1055 913.693 42.3551 913.693 42.6514C913.693 42.9391 913.588 43.1846 913.376 43.3877C913.173 43.5824 912.927 43.6797 912.64 43.6797C912.343 43.6797 912.094 43.5824 911.891 43.3877C911.696 43.1846 911.599 42.9391 911.599 42.6514ZM921.526 47.5137C923.151 47.5137 924.171 48.1484 924.586 49.418C924.772 49.9935 924.823 50.5563 924.738 51.1064H918.657C918.547 51.7158 918.492 52.2829 918.492 52.8076C918.492 54.5934 919.025 55.8122 920.092 56.4639C920.659 56.8109 921.34 56.9844 922.136 56.9844C922.965 56.9844 923.799 56.6797 924.637 56.0703L925.005 56.4512L924.649 56.8701C923.685 57.8773 922.542 58.3851 921.222 58.3936C920.435 58.3936 919.707 58.1566 919.038 57.6826C917.692 56.7262 917.02 55.279 917.02 53.3408C917.02 51.2926 917.591 49.7396 918.733 48.6816C919.597 47.9284 920.528 47.5391 921.526 47.5137ZM918.784 50.2812H923.101C923.101 49.6126 922.948 49.1175 922.644 48.7959C922.339 48.4658 921.95 48.3008 921.476 48.3008C920.739 48.3008 920.138 48.5208 919.673 48.9609C919.207 49.3926 918.911 49.8327 918.784 50.2812ZM932.711 48.2754L932.647 50.2432H931.987C931.937 49.3714 931.674 48.7917 931.2 48.5039C930.912 48.3346 930.553 48.25 930.121 48.25C929.656 48.25 929.3 48.3981 929.055 48.6943C928.818 48.9821 928.699 49.3545 928.699 49.8115C928.708 50.3447 929.017 50.8652 929.626 51.373L931.302 52.833C931.996 53.4508 932.444 53.9671 932.647 54.3818C932.859 54.7881 932.965 55.1943 932.965 55.6006C932.965 56.5824 932.559 57.3356 931.746 57.8604C931.162 58.2327 930.426 58.4147 929.537 58.4062C928.657 58.4062 927.785 58.182 926.922 57.7334L926.77 55.7275H927.392C927.561 56.4554 927.785 56.9632 928.064 57.251C928.344 57.5303 928.818 57.6699 929.486 57.6699C930.138 57.6699 930.642 57.4837 930.997 57.1113C931.353 56.7389 931.526 56.3496 931.518 55.9434C931.518 55.3763 931.137 54.7585 930.375 54.0898L928.699 52.6553C927.684 51.792 927.172 50.9668 927.163 50.1797C927.163 49.2487 927.476 48.5801 928.103 48.1738C928.737 47.7591 929.465 47.5518 930.286 47.5518C931.141 47.5518 931.949 47.793 932.711 48.2754ZM972.473 42.6895C973.514 42.6895 974.318 42.863 974.885 43.21C975.672 43.7093 976.302 44.6445 976.776 46.0156C978.486 51.0007 979.569 54.0941 980.026 55.2959C980.5 56.5485 981.08 57.2425 981.766 57.3779L982.337 57.4795V58H977.106V57.4668L978.084 57.251C978.482 57.1494 978.685 56.9294 978.693 56.5908C978.693 56.3877 978.634 56.1126 978.516 55.7656L977.576 52.9473H972.435C971.715 55.224 971.347 56.4342 971.33 56.5781C971.33 56.9505 971.626 57.2044 972.219 57.3398L972.968 57.4795V58H968.182V57.4668L968.893 57.3398C969.519 57.2214 970.065 56.4893 970.53 55.1436L973.272 47.1836C973.772 45.7194 974.034 44.8392 974.06 44.543C974.093 44.2467 973.996 44.0986 973.768 44.0986C973.497 44.0986 973.239 44.1452 972.993 44.2383C972.756 44.3314 972.604 44.3779 972.536 44.3779C972.13 44.3779 971.855 44.1917 971.711 43.8193C971.669 43.6924 971.647 43.5612 971.647 43.4258C971.707 42.9603 971.982 42.7148 972.473 42.6895ZM975.037 45.127L972.701 52.1602H977.335L975.037 45.127ZM986.044 40.4932V48.4785C986.89 47.8607 987.893 47.5518 989.053 47.5518C990.221 47.5518 991.232 48.0003 992.087 48.8975C992.95 49.7861 993.382 51.0684 993.382 52.7441C993.382 54.4115 992.895 55.7572 991.922 56.7812C990.881 57.873 989.658 58.4189 988.253 58.4189C987.66 58.4189 987.047 58.3428 986.412 58.1904C985.786 58.0381 985.308 57.8857 984.978 57.7334L984.482 57.5049V43.2227C984.482 42.6387 984.457 42.2832 984.406 42.1562C984.288 41.86 983.814 41.7119 982.984 41.7119L982.921 41.2803L986.044 40.4932ZM986.044 56.8193C986.729 57.234 987.453 57.4414 988.215 57.4414C989.104 57.4414 989.929 57.1156 990.69 56.4639C991.452 55.8122 991.833 54.7458 991.833 53.2646C991.833 51.335 991.219 49.9977 989.992 49.2529C989.425 48.9144 988.82 48.7451 988.177 48.7451C987.432 48.7367 986.721 49.0075 986.044 49.5576V56.8193ZM994.842 53.1377C994.842 51.5973 995.282 50.2939 996.162 49.2275C997.042 48.1527 998.113 47.6152 999.374 47.6152C1000.65 47.6152 1001.77 48.1146 1002.73 49.1133C1003.68 50.112 1004.16 51.3688 1004.16 52.8838C1004.16 54.3988 1003.75 55.6598 1002.92 56.667C1001.96 57.8265 1000.86 58.4062 999.615 58.4062C998.286 58.4147 997.161 57.9196 996.238 56.9209C995.316 55.9137 994.85 54.6527 994.842 53.1377ZM999.184 48.5674C998.286 48.5674 997.597 48.9736 997.114 49.7861C996.632 50.5986 996.391 51.61 996.391 52.8203C996.391 54.0221 996.695 55.097 997.305 56.0449C997.923 56.9844 998.735 57.4583 999.742 57.4668C1000.68 57.4668 1001.38 57.0563 1001.85 56.2354C1002.32 55.4059 1002.56 54.4326 1002.56 53.3154C1002.56 52.1221 1002.27 51.0345 1001.7 50.0527C1001.12 49.071 1000.28 48.5758 999.184 48.5674ZM1005.3 48.3008V47.793H1008.21V53.0996C1008.21 53.2181 1008.2 53.6243 1008.17 54.3184C1008.1 56.2904 1008.79 57.2848 1010.24 57.3018C1011.05 57.3018 1011.74 56.9801 1012.34 56.3369C1012.93 55.6937 1013.22 54.9658 1013.22 54.1533V51.0684C1013.22 49.9427 1013.17 49.2275 1013.07 48.9229C1012.94 48.5166 1012.45 48.3135 1011.62 48.3135V47.793H1014.8V55.2451C1014.8 56.1676 1014.99 56.7178 1015.37 56.8955C1015.55 56.9717 1015.89 56.9971 1016.39 56.9717L1016.45 57.416L1013.68 58.3682L1013.22 56.6924L1012.81 57.0986C1011.82 57.9535 1010.77 58.3851 1009.68 58.3936C1008.33 58.3936 1007.44 57.8773 1007 56.8447C1006.75 56.2354 1006.62 55.4059 1006.62 54.3564V50.3828C1006.62 49.3418 1006.41 48.6816 1005.98 48.4023C1005.78 48.2839 1005.56 48.25 1005.3 48.3008ZM1023.32 48.7705H1020.68V53.8232C1020.68 54.5511 1020.69 55.2367 1020.7 55.8799C1020.72 56.5146 1020.82 56.9505 1020.99 57.1875C1021.18 57.416 1021.45 57.5303 1021.79 57.5303C1022.41 57.5303 1023.07 57.361 1023.77 57.0225V57.708C1022.88 58.182 1022.11 58.4189 1021.48 58.4189C1020.88 58.4189 1020.41 58.3174 1020.08 58.1143C1019.76 57.9196 1019.52 57.6657 1019.37 57.3525C1019.23 57.0309 1019.14 56.6712 1019.12 56.2734C1019.09 55.8757 1019.08 55.4779 1019.08 55.0801V49.6338C1019.08 49.4476 1019.07 49.3037 1019.06 49.2021C1019.06 49.1006 1019.05 49.0117 1019.01 48.9355C1018.99 48.8594 1018.92 48.8128 1018.81 48.7959C1018.7 48.779 1018.54 48.7705 1018.32 48.7705H1017.6V48.1738C1018.42 47.8268 1018.98 47.4925 1019.28 47.1709C1019.58 46.8493 1019.91 46.2907 1020.26 45.4951H1020.68V47.8184H1023.32V48.7705ZM1061.95 42.7529C1063.6 42.7614 1065.1 43.1465 1066.44 43.9082C1066.76 44.0775 1066.98 44.2214 1067.12 44.3398L1067.32 44.5303V47.4248H1066.7C1066.65 47.0693 1066.47 46.6123 1066.15 46.0537C1065.21 44.4287 1063.79 43.612 1061.9 43.6035C1060.34 43.6035 1059.03 44.2383 1057.95 45.5078C1056.82 46.8451 1056.25 48.4277 1056.25 50.2559C1056.25 51.6016 1056.54 52.8838 1057.12 54.1025C1058.2 56.3623 1059.93 57.4964 1062.3 57.5049C1064.39 57.5049 1065.74 56.7516 1066.37 55.2451C1066.54 54.8304 1066.65 54.3776 1066.7 53.8867H1067.32V56.7559C1065.68 57.8646 1063.85 58.4189 1061.83 58.4189C1059.42 58.4189 1057.55 57.543 1056.21 55.791C1055.08 54.3014 1054.51 52.5622 1054.51 50.5732C1054.51 48.1442 1055.22 46.2357 1056.64 44.8477C1058.07 43.4512 1059.84 42.7529 1061.95 42.7529ZM1069.08 53.1377C1069.08 51.5973 1069.52 50.2939 1070.4 49.2275C1071.28 48.1527 1072.36 47.6152 1073.62 47.6152C1074.89 47.6152 1076.01 48.1146 1076.97 49.1133C1077.92 50.112 1078.4 51.3688 1078.4 52.8838C1078.4 54.3988 1077.99 55.6598 1077.16 56.667C1076.2 57.8265 1075.1 58.4062 1073.86 58.4062C1072.53 58.4147 1071.4 57.9196 1070.48 56.9209C1069.56 55.9137 1069.09 54.6527 1069.08 53.1377ZM1073.43 48.5674C1072.53 48.5674 1071.84 48.9736 1071.36 49.7861C1070.87 50.5986 1070.63 51.61 1070.63 52.8203C1070.63 54.0221 1070.94 55.097 1071.55 56.0449C1072.16 56.9844 1072.98 57.4583 1073.98 57.4668C1074.92 57.4668 1075.63 57.0563 1076.09 56.2354C1076.57 55.4059 1076.8 54.4326 1076.8 53.3154C1076.8 52.1221 1076.51 51.0345 1075.94 50.0527C1075.36 49.071 1074.53 48.5758 1073.43 48.5674ZM1086.36 48.6943C1085.15 48.6943 1084.09 49.016 1083.18 49.6592V55.3467C1083.18 56.1253 1083.23 56.6331 1083.34 56.8701C1083.45 57.0986 1083.71 57.2552 1084.12 57.3398L1084.86 57.4795V58H1080.05V57.4668L1080.93 57.2764C1081.24 57.2087 1081.44 57.1113 1081.51 56.9844C1081.58 56.8405 1081.61 56.5316 1081.61 56.0576V50.3447C1081.61 49.7354 1081.56 49.3503 1081.45 49.1895C1081.25 48.9609 1080.8 48.8424 1080.12 48.834L1080.05 48.4023L1083.18 47.6152V48.7324C1084.61 47.9453 1085.85 47.5518 1086.87 47.5518C1088.16 47.5518 1089.02 48.1273 1089.47 49.2783C1089.69 49.8369 1089.8 50.5182 1089.8 51.3223V55.3721C1089.8 56.1507 1089.86 56.6585 1089.97 56.8955C1090.09 57.124 1090.34 57.2764 1090.73 57.3525L1091.48 57.5049V58H1086.68V57.4795L1087.54 57.3018C1087.86 57.234 1088.06 57.1325 1088.13 56.9971C1088.19 56.8532 1088.23 56.5443 1088.23 56.0703V51.7285C1088.21 49.7227 1087.59 48.7113 1086.36 48.6943ZM1098.12 48.7705H1095.48V53.8232C1095.48 54.5511 1095.49 55.2367 1095.5 55.8799C1095.52 56.5146 1095.62 56.9505 1095.79 57.1875C1095.98 57.416 1096.25 57.5303 1096.59 57.5303C1097.21 57.5303 1097.87 57.361 1098.58 57.0225V57.708C1097.68 58.182 1096.91 58.4189 1096.28 58.4189C1095.68 58.4189 1095.21 58.3174 1094.88 58.1143C1094.56 57.9196 1094.32 57.6657 1094.17 57.3525C1094.03 57.0309 1093.94 56.6712 1093.92 56.2734C1093.89 55.8757 1093.88 55.4779 1093.88 55.0801V49.6338C1093.88 49.4476 1093.87 49.3037 1093.87 49.2021C1093.87 49.1006 1093.85 49.0117 1093.81 48.9355C1093.79 48.8594 1093.72 48.8128 1093.61 48.7959C1093.5 48.779 1093.34 48.7705 1093.12 48.7705H1092.41V48.1738C1093.22 47.8268 1093.78 47.4925 1094.08 47.1709C1094.39 46.8493 1094.71 46.2907 1095.06 45.4951H1095.48V47.8184H1098.12V48.7705ZM1109.12 56.9209C1109.11 56.9632 1109.04 57.0648 1108.93 57.2256C1108.83 57.3864 1108.7 57.5557 1108.53 57.7334C1108.37 57.9111 1108.18 58.0677 1107.97 58.2031C1107.76 58.347 1107.54 58.4189 1107.31 58.4189C1106.98 58.4189 1106.71 58.3428 1106.51 58.1904C1106.31 58.0381 1106.15 57.8477 1106.03 57.6191C1105.91 57.3906 1105.82 57.1494 1105.77 56.8955C1105.72 56.6331 1105.69 56.4004 1105.67 56.1973C1105.61 56.248 1105.5 56.3919 1105.34 56.6289C1105.18 56.8659 1104.97 57.1198 1104.69 57.3906C1104.42 57.653 1104.09 57.89 1103.69 58.1016C1103.3 58.3132 1102.85 58.4189 1102.33 58.4189C1102.08 58.4189 1101.81 58.3851 1101.53 58.3174C1101.26 58.2497 1101.02 58.1354 1100.8 57.9746C1100.58 57.8053 1100.39 57.5811 1100.25 57.3018C1100.11 57.014 1100.04 56.6585 1100.04 56.2354C1100.04 55.6344 1100.23 55.1351 1100.63 54.7373C1101.03 54.3395 1101.52 54.0264 1102.12 53.7979C1102.71 53.5693 1103.25 53.4043 1103.74 53.3027C1104.24 53.1927 1104.83 53.07 1105.52 52.9346V50.8145C1105.52 50.6283 1105.51 50.3955 1105.49 50.1162C1105.49 49.8285 1105.43 49.5534 1105.34 49.291C1105.26 49.0202 1105.11 48.7917 1104.91 48.6055C1104.72 48.4108 1104.43 48.3135 1104.06 48.3135C1103.6 48.3135 1103.23 48.4023 1102.93 48.5801C1102.64 48.7578 1102.43 48.9186 1102.29 49.0625C1102.16 49.2064 1101.97 49.418 1101.74 49.6973C1101.45 49.7311 1101.22 49.7269 1101.05 49.6846C1100.89 49.6338 1100.75 49.5618 1100.64 49.4688C1100.54 49.3672 1100.49 49.2318 1100.49 49.0625C1100.49 48.8171 1100.68 48.5843 1101.05 48.3643C1101.42 48.1442 1101.91 47.9495 1102.5 47.7803C1103.1 47.6025 1103.67 47.5137 1104.2 47.5137C1104.68 47.5137 1105.09 47.5856 1105.42 47.7295C1105.75 47.8649 1106.02 48.0553 1106.23 48.3008C1106.44 48.5378 1106.6 48.8171 1106.71 49.1387C1106.82 49.4518 1106.9 49.7861 1106.94 50.1416C1106.99 50.4971 1107.02 50.861 1107.02 51.2334C1107.03 51.6058 1107.03 51.9655 1107.03 52.3125C1107.03 52.9557 1107.02 53.582 1107 54.1914C1106.99 54.8008 1106.99 55.3467 1107.02 55.8291C1107.04 56.3031 1107.11 56.6882 1107.21 56.9844C1107.32 57.2721 1107.5 57.416 1107.74 57.416C1108.05 57.416 1108.37 57.1283 1108.69 56.5527L1109.12 56.9209ZM1105.52 53.7725C1104.83 53.874 1104.25 53.9883 1103.75 54.1152C1103.27 54.2422 1102.89 54.403 1102.6 54.5977C1102.32 54.7923 1102.1 55.0124 1101.95 55.2578C1101.81 55.4948 1101.74 55.7868 1101.74 56.1338C1101.74 56.9801 1102.11 57.4033 1102.85 57.4033C1103.12 57.4033 1103.4 57.306 1103.69 57.1113C1103.98 56.9167 1104.25 56.6839 1104.49 56.4131C1104.74 56.1338 1104.95 55.846 1105.14 55.5498C1105.32 55.2536 1105.45 55.0081 1105.52 54.8135V53.7725ZM1112.41 49.9131C1111.91 50.7933 1111.66 51.8301 1111.66 53.0234C1111.66 54.2083 1111.99 55.1732 1112.64 55.918C1113.29 56.6628 1114.12 57.0394 1115.13 57.0479C1116.14 57.0479 1117.06 56.832 1117.9 56.4004L1118.3 56.8447C1117.9 57.234 1117.59 57.5007 1117.38 57.6445C1116.62 58.1523 1115.74 58.4105 1114.76 58.4189C1112.84 58.4189 1111.49 57.6022 1110.71 55.9688C1110.3 55.1055 1110.09 54.1406 1110.09 53.0742C1110.09 51.2884 1110.63 49.8835 1111.71 48.8594C1112.64 47.9876 1113.71 47.5518 1114.93 47.5518C1116.16 47.5518 1117.36 47.9665 1118.53 48.7959C1118.68 48.889 1118.69 49.1175 1118.58 49.4814C1118.47 49.8454 1118.24 50.0993 1117.9 50.2432C1117.64 50.2432 1117.36 50.0485 1117.08 49.6592C1116.81 49.2614 1116.66 49.0413 1116.62 48.999C1116.2 48.542 1115.66 48.3092 1114.99 48.3008C1113.89 48.3008 1113.03 48.8382 1112.41 49.9131ZM1124.98 48.7705H1122.34V53.8232C1122.34 54.5511 1122.35 55.2367 1122.37 55.8799C1122.38 56.5146 1122.48 56.9505 1122.66 57.1875C1122.84 57.416 1123.11 57.5303 1123.46 57.5303C1124.08 57.5303 1124.74 57.361 1125.44 57.0225V57.708C1124.54 58.182 1123.78 58.4189 1123.14 58.4189C1122.54 58.4189 1122.07 58.3174 1121.74 58.1143C1121.42 57.9196 1121.19 57.6657 1121.03 57.3525C1120.89 57.0309 1120.8 56.6712 1120.78 56.2734C1120.75 55.8757 1120.74 55.4779 1120.74 55.0801V49.6338C1120.74 49.4476 1120.74 49.3037 1120.73 49.2021C1120.73 49.1006 1120.71 49.0117 1120.68 48.9355C1120.65 48.8594 1120.58 48.8128 1120.47 48.7959C1120.36 48.779 1120.2 48.7705 1119.98 48.7705H1119.27V48.1738C1120.08 47.8268 1120.64 47.4925 1120.94 47.1709C1121.25 46.8493 1121.57 46.2907 1121.92 45.4951H1122.34V47.8184H1124.98V48.7705Z" fill="black"/>
<path d="M753.009 58.6348H759.968V59.2695H753.009V58.6348ZM762.948 58.6348H815.343V59.2695H762.948V58.6348Z" fill="#CC9344"/>
<path d="M159.289 69V40.4H173.889V42.08H161.209V52.6H172.809V54.24H161.209V69H159.289ZM180.77 59.08L176.65 69H174.61L186.65 40.2H187.77L199.85 69H197.69L193.57 59.08H180.77ZM187.09 43.4C187.063 43.4267 187.01 43.5867 186.93 43.88C186.556 45.0267 186.196 46 185.85 46.8L181.45 57.44H192.89L188.49 46.84C187.556 44.8133 187.09 43.6667 187.09 43.4ZM205.773 69V40.52C208.306 40.3333 210.426 40.24 212.133 40.24C214.853 40.24 217.093 40.9467 218.853 42.36C220.613 43.7467 221.493 45.72 221.493 48.28C221.493 50.0133 220.986 51.6267 219.973 53.12C218.96 54.6133 217.826 55.8 216.573 56.68C217.56 58.04 218.773 59.6667 220.213 61.56C221.68 63.4267 222.626 64.6 223.053 65.08C224.68 66.8133 226.52 67.8 228.573 68.04L228.533 69.32C226.906 69.2933 225.586 69.0533 224.573 68.6C223.56 68.12 222.586 67.4 221.653 66.44C220.746 65.48 218.466 62.4933 214.813 57.48C212.2 57.48 209.826 57.4 207.693 57.24V69H205.773ZM213.653 55.88C214.826 55.88 216.08 55.1067 217.413 53.56C218.746 52.0133 219.413 50.2267 219.413 48.2C219.413 46.1467 218.72 44.6 217.333 43.56C215.973 42.4933 214.16 41.96 211.893 41.96C210.693 41.96 209.293 42.0133 207.693 42.12V55.68C209.826 55.8133 211.813 55.88 213.653 55.88ZM245.621 67.52H244.541L236.181 47.28C235.701 46.16 235.315 45.1733 235.021 44.32L234.621 47.36L231.341 69H229.381L234.101 40.16H235.221L244.141 61.36C244.595 62.3467 244.955 63.28 245.221 64.16C245.301 63.8667 245.715 62.9467 246.461 61.4L256.421 40.16H257.501L261.861 69H259.861L256.741 47.28C256.528 45.92 256.421 44.8933 256.421 44.2C256.395 44.2267 256.328 44.36 256.221 44.6C256.141 44.8133 255.981 45.1867 255.741 45.72C255.528 46.2267 255.301 46.76 255.061 47.32L245.621 67.52ZM305.693 69V54.68H286.053V69H284.133V40.4H286.053V52.96H305.693V40.4H307.613V69H305.693ZM320.436 65.2C317.796 62.3467 316.476 58.84 316.476 54.68C316.476 50.52 317.796 47.0267 320.436 44.2C323.103 41.3467 326.463 39.92 330.516 39.92C334.569 39.92 337.929 41.3467 340.596 44.2C343.263 47.0267 344.596 50.52 344.596 54.68C344.596 58.84 343.263 62.3467 340.596 65.2C337.929 68.0533 334.569 69.48 330.516 69.48C326.463 69.48 323.103 68.0533 320.436 65.2ZM321.876 45.44C319.663 47.92 318.556 51 318.556 54.68C318.556 58.36 319.663 61.4533 321.876 63.96C324.116 66.4667 326.996 67.72 330.516 67.72C334.063 67.72 336.943 66.4667 339.156 63.96C341.396 61.4533 342.516 58.36 342.516 54.68C342.516 51 341.396 47.92 339.156 45.44C336.943 42.9333 334.063 41.68 330.516 41.68C326.969 41.68 324.089 42.9333 321.876 45.44ZM372.748 66.24C370.908 68.4 368.108 69.48 364.348 69.48C360.588 69.48 357.775 68.3867 355.908 66.2C354.068 64.0133 353.148 61.0267 353.148 57.24V40.4H355.068V57.24C355.068 64.28 358.148 67.8 364.308 67.8C370.495 67.8 373.588 64.28 373.588 57.24V40.4H375.508V57.24C375.508 61.0533 374.588 64.0533 372.748 66.24ZM398.094 42.92C396.147 42.0933 394.214 41.68 392.294 41.68C388.401 41.68 386.454 43.12 386.454 46C386.454 47.2533 386.894 48.4267 387.774 49.52C388.654 50.5867 389.721 51.5467 390.974 52.4C392.227 53.2267 393.481 54.08 394.734 54.96C395.987 55.84 397.054 56.8933 397.934 58.12C398.814 59.3467 399.254 60.68 399.254 62.12C399.254 64.5467 398.441 66.3867 396.814 67.64C395.187 68.8667 392.934 69.48 390.054 69.48C387.201 69.48 384.761 68.7467 382.734 67.28L383.694 65.84C385.614 67.0933 387.721 67.72 390.014 67.72C392.307 67.72 394.067 67.2667 395.294 66.36C396.521 65.4267 397.134 64.0933 397.134 62.36C397.134 61.16 396.694 60.0267 395.814 58.96C394.934 57.8667 393.867 56.8933 392.614 56.04C391.361 55.16 390.107 54.2667 388.854 53.36C387.601 52.4533 386.534 51.3733 385.654 50.12C384.774 48.8667 384.334 47.52 384.334 46.08C384.334 44.1867 385.027 42.6933 386.414 41.6C387.827 40.48 389.721 39.92 392.094 39.92C394.494 39.92 396.721 40.4 398.774 41.36L398.094 42.92ZM407.609 69V40.4H420.889V42.08H409.529V52.6H419.809V54.24H409.529V67.32H421.329V69H407.609ZM443.429 69V40.52C445.963 40.3333 448.083 40.24 449.789 40.24C452.509 40.24 454.749 40.9467 456.509 42.36C458.269 43.7467 459.149 45.72 459.149 48.28C459.149 50.0133 458.643 51.6267 457.629 53.12C456.616 54.6133 455.483 55.8 454.229 56.68C455.216 58.04 456.429 59.6667 457.869 61.56C459.336 63.4267 460.283 64.6 460.709 65.08C462.336 66.8133 464.176 67.8 466.229 68.04L466.189 69.32C464.563 69.2933 463.243 69.0533 462.229 68.6C461.216 68.12 460.243 67.4 459.309 66.44C458.403 65.48 456.123 62.4933 452.469 57.48C449.856 57.48 447.483 57.4 445.349 57.24V69H443.429ZM451.309 55.88C452.483 55.88 453.736 55.1067 455.069 53.56C456.403 52.0133 457.069 50.2267 457.069 48.2C457.069 46.1467 456.376 44.6 454.989 43.56C453.629 42.4933 451.816 41.96 449.549 41.96C448.349 41.96 446.949 42.0133 445.349 42.12V55.68C447.483 55.8133 449.469 55.88 451.309 55.88ZM469.758 69V40.4H483.038V42.08H471.678V52.6H481.958V54.24H471.678V67.32H483.478V69H469.758ZM496.444 42.08H486.764V40.4H508.044V42.08H498.364V69H496.444V42.08ZM514.211 69V40.52C516.744 40.3333 518.864 40.24 520.571 40.24C523.291 40.24 525.531 40.9467 527.291 42.36C529.051 43.7467 529.931 45.72 529.931 48.28C529.931 50.0133 529.424 51.6267 528.411 53.12C527.397 54.6133 526.264 55.8 525.011 56.68C525.997 58.04 527.211 59.6667 528.651 61.56C530.117 63.4267 531.064 64.6 531.491 65.08C533.117 66.8133 534.957 67.8 537.011 68.04L536.971 69.32C535.344 69.2933 534.024 69.0533 533.011 68.6C531.997 68.12 531.024 67.4 530.091 66.44C529.184 65.48 526.904 62.4933 523.251 57.48C520.637 57.48 518.264 57.4 516.131 57.24V69H514.211ZM522.091 55.88C523.264 55.88 524.517 55.1067 525.851 53.56C527.184 52.0133 527.851 50.2267 527.851 48.2C527.851 46.1467 527.157 44.6 525.771 43.56C524.411 42.4933 522.597 41.96 520.331 41.96C519.131 41.96 517.731 42.0133 516.131 42.12V55.68C518.264 55.8133 520.251 55.88 522.091 55.88ZM540.539 69V40.4H553.819V42.08H542.459V52.6H552.739V54.24H542.459V67.32H554.259V69H540.539ZM563.465 59.08L559.345 69H557.305L569.345 40.2H570.465L582.545 69H580.385L576.265 59.08H563.465ZM569.785 43.4C569.758 43.4267 569.705 43.5867 569.625 43.88C569.252 45.0267 568.892 46 568.545 46.8L564.145 57.44H575.585L571.185 46.84C570.252 44.8133 569.785 43.6667 569.785 43.4ZM590.702 42.08H581.022V40.4H602.302V42.08H592.622V69H590.702V42.08Z" fill="black"/>
<path d="M92.0186 27.0989C94.4201 24.1243 98.954 24.1243 101.356 27.0989L121.802 52.4243C124.97 56.3485 122.177 62.1934 117.133 62.1934H76.2408C71.1973 62.1934 68.4042 56.3485 71.5724 52.4243L92.0186 27.0989Z" fill="#EDC25B"/>
<rect x="76.6968" y="55.269" width="39.9811" height="28.5915" rx="12" fill="#ECC25A"/>
<rect x="88.5659" y="61.5234" width="16.867" height="22.3371" rx="2" fill="#8D7029"/>
<path d="M96.0088 21.5C106.655 21.5 116.218 22.4427 123.054 23.9326C126.492 24.682 129.106 25.5416 130.799 26.4141C131.648 26.8519 132.142 27.2303 132.394 27.498L132.395 27.5L132.394 27.502C132.142 27.7697 131.648 28.1481 130.799 28.5859C129.106 29.4584 126.492 30.318 123.054 31.0674C116.218 32.5573 106.655 33.5 96.0088 33.5C85.363 33.5 75.7998 32.5573 68.9639 31.0674C65.5256 30.318 62.9119 29.4584 61.2188 28.5859C60.4752 28.2028 60.004 27.8653 59.7295 27.6074L59.6221 27.5L59.7295 27.3926C60.004 27.1347 60.4752 26.7972 61.2188 26.4141C62.9119 25.5416 65.5256 24.682 68.9639 23.9326C75.7998 22.4427 85.363 21.5 96.0088 21.5Z" stroke="#9F8954" stroke-width="5"/>
<path d="M587.287 122.15C588.064 123.443 589.937 123.443 590.714 122.15L597.552 110.781C598.354 109.448 597.394 107.75 595.838 107.75H582.163C580.607 107.75 579.647 109.448 580.449 110.781L587.287 122.15Z" fill="#FFF4D8"/>
<path d="M602.143 113.902C603.712 116.305 607.233 116.305 608.802 113.902V113.902C610.53 111.257 608.632 107.75 605.472 107.75V107.75C602.313 107.75 600.414 111.257 602.143 113.902V113.902Z" fill="#FFF4D8"/>
<path d="M612.461 142.156C612.551 143.393 614.367 143.393 614.456 142.156L616.408 115.072C616.449 114.493 615.991 114 615.41 114H611.508C610.927 114 610.468 114.493 610.51 115.072L612.461 142.156Z" fill="#FFF4D8"/>
<path d="M564.544 142.156C564.633 143.393 566.449 143.393 566.538 142.156L568.49 115.072C568.531 114.493 568.073 114 567.492 114H563.59C563.009 114 562.55 114.493 562.592 115.072L564.544 142.156Z" fill="#FFF4D8"/>
<path d="M569.199 113.902C570.768 116.305 574.289 116.305 575.858 113.902V113.902C577.586 111.257 575.688 107.75 572.528 107.75V107.75C569.369 107.75 567.471 111.257 569.199 113.902V113.902Z" fill="#FFF4D8"/>
<path d="M0.00878906 110L554.06 111.998" stroke="#E5CF9A" stroke-width="5"/>
<path d="M623.941 112H1171.01" stroke="#E5CF9A" stroke-width="5"/>
<path d="M569.501 20.0749C570.639 19.3648 571.769 19.2219 572.891 19.6462C574.151 20.1224 574.91 20.9227 575.17 22.047C575.429 23.1713 575.252 24.5441 574.639 26.1654C574.054 27.7119 573.24 28.8294 572.195 29.518C571.156 30.194 570.019 30.2987 568.784 29.8319C567.649 29.4028 566.913 28.6541 566.576 27.5858L566.074 28.5723L564.69 28.049L569.917 14.2239L571.559 14.6309L569.501 20.0749ZM568.91 28.4254C569.733 28.7366 570.485 28.6504 571.167 28.1669C571.861 27.6881 572.451 26.8064 572.937 25.5218C573.417 24.2497 573.581 23.2139 573.427 22.4145C573.286 21.6198 572.828 21.0763 572.055 20.784C571.556 20.5954 571.038 20.5706 570.501 20.7096C569.976 20.8533 569.473 21.0907 568.991 21.4218L567.146 26.3046C567.257 26.8027 567.463 27.2371 567.765 27.6077C568.066 27.9784 568.448 28.2509 568.91 28.4254ZM578.816 28.3859C578.443 29.4851 578.415 30.4081 578.731 31.1549C579.06 31.9064 579.63 32.4354 580.44 32.7419C580.927 32.9257 581.395 33.0245 581.846 33.0382C582.315 33.0441 582.836 32.9847 583.411 32.8598L583.744 34.1833C583.146 34.3705 582.51 34.4507 581.836 34.424C581.174 34.4019 580.544 34.2777 579.945 34.0514C578.523 33.5139 577.588 32.6328 577.139 31.4081C576.707 30.1757 576.785 28.78 577.375 27.221C577.747 26.2357 578.254 25.4225 578.896 24.7812C579.542 24.1275 580.272 23.705 581.085 23.5137C581.904 23.3099 582.743 23.3706 583.604 23.696C584.851 24.1675 585.665 24.9741 586.046 26.1159C586.444 27.2499 586.36 28.5652 585.794 30.0619C585.686 30.3487 585.567 30.6246 585.438 30.8896L578.816 28.3859ZM583.134 24.9939C582.373 24.7063 581.652 24.7472 580.971 25.1168C580.294 25.474 579.727 26.1646 579.268 27.1886L584.394 29.1265C584.773 28.0866 584.848 27.2098 584.619 26.496C584.39 25.7822 583.895 25.2815 583.134 24.9939ZM595.154 38.9886C594.733 39.0858 594.255 39.1048 593.721 39.0457C593.2 38.9912 592.703 38.8744 592.229 38.6952C591.194 38.3039 590.485 37.7293 590.101 36.9714C589.722 36.201 589.7 35.3731 590.035 34.4876L592.256 28.6134L589.992 27.7576L590.459 26.5229L592.723 27.3786L593.564 25.1524L595.206 25.5594L594.294 27.9727L597.718 29.267L597.045 30.4239L593.827 29.2074L591.614 35.063C591.401 35.6242 591.393 36.0986 591.589 36.4861C591.784 36.8737 592.213 37.1924 592.874 37.4423C593.547 37.6969 594.236 37.7791 594.94 37.6889L595.154 38.9886ZM606.227 41.2931C606.081 41.6797 606.035 41.9901 606.089 42.2244C606.147 42.4461 606.304 42.6549 606.558 42.8506L605.74 43.8246C604.827 43.3368 604.405 42.6428 604.475 41.7425C603.956 42.0595 603.383 42.2351 602.758 42.2693C602.144 42.3083 601.513 42.2051 600.865 41.96C599.879 41.5875 599.204 41.0184 598.837 40.2528C598.484 39.4918 598.481 38.6499 598.83 37.727C599.212 36.7168 599.9 36.0858 600.893 35.8341C601.898 35.5871 603.143 35.7441 604.627 36.3052L606.087 36.8568L606.391 36.0524C606.655 35.354 606.644 34.7797 606.358 34.3295C606.077 33.8668 605.556 33.4917 604.795 33.204C604.047 32.9211 603.129 32.7665 602.041 32.7402L602.063 31.3803C603.379 31.4072 604.535 31.6092 605.533 31.9864C606.73 32.4391 607.535 33.0639 607.946 33.8609C608.37 34.6626 608.393 35.5623 608.016 36.56L606.227 41.2931ZM601.703 40.9299C602.189 41.1138 602.698 41.1635 603.229 41.0791C603.772 40.9994 604.27 40.7955 604.722 40.4674L605.676 37.9419L604.255 37.4044C603.207 37.0083 602.386 36.8977 601.793 37.0724C601.199 37.2472 600.775 37.6713 600.521 38.3448C600.049 39.592 600.443 40.4537 601.703 40.9299Z" fill="#D2733C"/>
<rect x="555.143" y="1.28901" width="79.6734" height="30.6699" rx="4" transform="rotate(20.7091 555.143 1.28901)" stroke="#D26C00" stroke-width="2"/>
</svg>
