<svg width="1166" height="162" viewBox="0 0 1166 162" fill="none" xmlns="http://www.w3.org/2000/svg">
<path d="M766.437 68.3037C767.207 68.3037 767.592 67.4362 767.592 65.7012V50.8604C767.592 50.3018 767.554 49.9717 767.478 49.8701C767.401 49.777 767.232 49.7008 766.97 49.6416L766.106 49.4512H763.377C762.581 49.4512 762.014 49.8786 761.676 50.7334C761.523 51.1143 761.447 51.4951 761.447 51.876C761.447 53.611 761.832 54.4785 762.603 54.4785C762.738 54.4785 762.954 54.3516 763.25 54.0977C763.724 53.7422 764.122 53.5518 764.443 53.5264C765.01 53.5264 765.311 53.7845 765.345 54.3008C765.37 54.6478 765.209 54.9186 764.862 55.1133C764.685 55.2064 764.498 55.2529 764.304 55.2529C763.33 55.2529 762.632 55.181 762.209 55.0371C760.576 54.487 759.755 53.391 759.746 51.749C759.746 50.6234 760.279 49.8109 761.346 49.3115C761.947 49.0322 762.624 48.8926 763.377 48.8926H771.045V49.4258L770.309 49.5781C769.843 49.6712 769.56 49.8574 769.458 50.1367C769.356 50.416 769.306 50.89 769.306 51.5586V55.6973H778.421V51.5586C778.421 50.7884 778.357 50.2848 778.23 50.0479C778.104 49.8109 777.841 49.6543 777.443 49.5781L776.694 49.4258V48.8926H781.62V49.4512L780.757 49.6416C780.452 49.7093 780.274 49.8024 780.224 49.9209C780.164 50.0479 780.135 50.361 780.135 50.8604V62.0576C780.135 62.5993 780.173 62.9209 780.249 63.0225C780.334 63.1156 780.503 63.1917 780.757 63.251L781.62 63.4414V64H776.694V63.4668L777.431 63.3145C777.888 63.2214 778.167 63.0352 778.269 62.7559C778.37 62.4766 778.421 62.0026 778.421 61.334V56.4844H769.306V64.9521C769.204 66.3825 768.827 67.4235 768.176 68.0752C767.524 68.7354 766.479 69.0654 765.04 69.0654C764.515 69.0654 764.16 68.9723 763.974 68.7861C763.796 68.6084 763.707 68.3841 763.707 68.1133C763.741 67.6055 764.037 67.3516 764.596 67.3516C764.951 67.3516 765.294 67.5039 765.624 67.8086C765.963 68.1217 766.233 68.2868 766.437 68.3037ZM783.042 59.1377C783.042 57.5973 783.482 56.2939 784.362 55.2275C785.243 54.1527 786.313 53.6152 787.574 53.6152C788.852 53.6152 789.969 54.1146 790.926 55.1133C791.882 56.112 792.36 57.3688 792.36 58.8838C792.36 60.3988 791.946 61.6598 791.116 62.667C790.16 63.8265 789.06 64.4062 787.815 64.4062C786.487 64.4147 785.361 63.9196 784.438 62.9209C783.516 61.9137 783.05 60.6527 783.042 59.1377ZM787.384 54.5674C786.487 54.5674 785.797 54.9736 785.314 55.7861C784.832 56.5986 784.591 57.61 784.591 58.8203C784.591 60.0221 784.896 61.097 785.505 62.0449C786.123 62.9844 786.935 63.4583 787.942 63.4668C788.882 63.4668 789.584 63.0563 790.05 62.2354C790.524 61.4059 790.761 60.4326 790.761 59.3154C790.761 58.1221 790.473 57.0345 789.897 56.0527C789.322 55.071 788.484 54.5758 787.384 54.5674ZM800.32 54.6943C799.11 54.6943 798.048 55.016 797.134 55.6592V61.3467C797.134 62.1253 797.189 62.6331 797.299 62.8701C797.409 63.0986 797.667 63.2552 798.073 63.3398L798.822 63.4795V64H794.011V63.4668L794.887 63.2764C795.2 63.2087 795.395 63.1113 795.471 62.9844C795.538 62.8405 795.572 62.5316 795.572 62.0576V56.3447C795.572 55.7523 795.513 55.3545 795.395 55.1514C795.268 54.9398 794.827 54.834 794.074 54.834L794.011 54.4023L797.134 53.6152V54.7324C798.573 53.9453 799.834 53.556 800.917 53.5645C802.009 53.5645 802.8 54.0342 803.291 54.9736C804.908 54.0257 806.321 53.5518 807.531 53.5518C808.75 53.5518 809.584 54.1273 810.032 55.2783C810.252 55.8369 810.362 56.5182 810.362 57.3223V61.3721C810.362 62.1507 810.417 62.6585 810.527 62.8955C810.646 63.124 810.9 63.2764 811.289 63.3525L812.038 63.5049V64H807.239V63.4795L808.103 63.3018C808.424 63.234 808.619 63.1325 808.687 62.9971C808.754 62.8532 808.788 62.5443 808.788 62.0703V57.7285C808.771 55.7227 808.149 54.7113 806.922 54.6943C805.712 54.6943 804.594 55.0286 803.57 55.6973C803.697 56.1628 803.761 56.7044 803.761 57.3223V61.3721C803.761 62.1507 803.816 62.6585 803.926 62.8955C804.044 63.124 804.298 63.2764 804.688 63.3525L805.437 63.5049V64H800.638V63.4795L801.501 63.3018C801.823 63.234 802.017 63.1325 802.085 62.9971C802.153 62.8532 802.187 62.5443 802.187 62.0703V57.7285C802.17 55.7227 801.548 54.7113 800.32 54.6943ZM818.018 53.5137C819.643 53.5137 820.662 54.1484 821.077 55.418C821.263 55.9935 821.314 56.5563 821.229 57.1064H815.148C815.038 57.7158 814.983 58.2829 814.983 58.8076C814.983 60.5934 815.517 61.8122 816.583 62.4639C817.15 62.8109 817.831 62.9844 818.627 62.9844C819.456 62.9844 820.29 62.6797 821.128 62.0703L821.496 62.4512L821.141 62.8701C820.176 63.8773 819.033 64.3851 817.713 64.3936C816.926 64.3936 816.198 64.1566 815.529 63.6826C814.184 62.7262 813.511 61.279 813.511 59.3408C813.511 57.2926 814.082 55.7396 815.225 54.6816C816.088 53.9284 817.019 53.5391 818.018 53.5137ZM815.275 56.2812H819.592C819.592 55.6126 819.439 55.1175 819.135 54.7959C818.83 54.4658 818.441 54.3008 817.967 54.3008C817.23 54.3008 816.63 54.5208 816.164 54.9609C815.699 55.3926 815.402 55.8327 815.275 56.2812Z" fill="#CC9344"/>
<path d="M860.687 48.6895C861.728 48.6895 862.532 48.863 863.099 49.21C863.886 49.7093 864.516 50.6445 864.99 52.0156C866.7 57.0007 867.783 60.0941 868.24 61.2959C868.714 62.5485 869.294 63.2425 869.979 63.3779L870.551 63.4795V64H865.32V63.4668L866.298 63.251C866.696 63.1494 866.899 62.9294 866.907 62.5908C866.907 62.3877 866.848 62.1126 866.729 61.7656L865.79 58.9473H860.648C859.929 61.224 859.561 62.4342 859.544 62.5781C859.544 62.9505 859.84 63.2044 860.433 63.3398L861.182 63.4795V64H856.396V63.4668L857.106 63.3398C857.733 63.2214 858.279 62.4893 858.744 61.1436L861.486 53.1836C861.986 51.7194 862.248 50.8392 862.273 50.543C862.307 50.2467 862.21 50.0986 861.981 50.0986C861.711 50.0986 861.452 50.1452 861.207 50.2383C860.97 50.3314 860.818 50.3779 860.75 50.3779C860.344 50.3779 860.069 50.1917 859.925 49.8193C859.882 49.6924 859.861 49.5612 859.861 49.4258C859.921 48.9603 860.196 48.7148 860.687 48.6895ZM863.251 51.127L860.915 58.1602H865.549L863.251 51.127ZM874.258 46.4932V54.4785C875.104 53.8607 876.107 53.5518 877.267 53.5518C878.435 53.5518 879.446 54.0003 880.301 54.8975C881.164 55.7861 881.596 57.0684 881.596 58.7441C881.596 60.4115 881.109 61.7572 880.136 62.7812C879.095 63.873 877.872 64.4189 876.467 64.4189C875.874 64.4189 875.261 64.3428 874.626 64.1904C874 64.0381 873.521 63.8857 873.191 63.7334L872.696 63.5049V49.2227C872.696 48.6387 872.671 48.2832 872.62 48.1562C872.502 47.86 872.028 47.7119 871.198 47.7119L871.135 47.2803L874.258 46.4932ZM874.258 62.8193C874.943 63.234 875.667 63.4414 876.429 63.4414C877.317 63.4414 878.143 63.1156 878.904 62.4639C879.666 61.8122 880.047 60.7458 880.047 59.2646C880.047 57.335 879.433 55.9977 878.206 55.2529C877.639 54.9144 877.034 54.7451 876.391 54.7451C875.646 54.7367 874.935 55.0075 874.258 55.5576V62.8193ZM883.056 59.1377C883.056 57.5973 883.496 56.2939 884.376 55.2275C885.256 54.1527 886.327 53.6152 887.588 53.6152C888.866 53.6152 889.983 54.1146 890.939 55.1133C891.896 56.112 892.374 57.3688 892.374 58.8838C892.374 60.3988 891.959 61.6598 891.13 62.667C890.174 63.8265 889.073 64.4062 887.829 64.4062C886.5 64.4147 885.375 63.9196 884.452 62.9209C883.53 61.9137 883.064 60.6527 883.056 59.1377ZM887.397 54.5674C886.5 54.5674 885.811 54.9736 885.328 55.7861C884.846 56.5986 884.604 57.61 884.604 58.8203C884.604 60.0221 884.909 61.097 885.519 62.0449C886.136 62.9844 886.949 63.4583 887.956 63.4668C888.896 63.4668 889.598 63.0563 890.063 62.2354C890.537 61.4059 890.774 60.4326 890.774 59.3154C890.774 58.1221 890.487 57.0345 889.911 56.0527C889.336 55.071 888.498 54.5758 887.397 54.5674ZM893.517 54.3008V53.793H896.424V59.0996C896.424 59.2181 896.411 59.6243 896.386 60.3184C896.318 62.2904 897.008 63.2848 898.455 63.3018C899.259 63.3018 899.957 62.9801 900.55 62.3369C901.142 61.6937 901.438 60.9658 901.438 60.1533V57.0684C901.438 55.9427 901.388 55.2275 901.286 54.9229C901.151 54.5166 900.668 54.3135 899.839 54.3135V53.793H903.013V61.2451C903.013 62.1676 903.203 62.7178 903.584 62.8955C903.762 62.9717 904.1 62.9971 904.6 62.9717L904.663 63.416L901.896 64.3682L901.438 62.6924L901.02 63.0986C900.029 63.9535 898.988 64.3851 897.896 64.3936C896.542 64.3936 895.649 63.8773 895.218 62.8447C894.964 62.2354 894.837 61.4059 894.837 60.3564V56.3828C894.837 55.3418 894.621 54.6816 894.189 54.4023C893.995 54.2839 893.771 54.25 893.517 54.3008ZM911.531 54.7705H908.891V59.8232C908.891 60.5511 908.899 61.2367 908.916 61.8799C908.933 62.5146 909.03 62.9505 909.208 63.1875C909.394 63.416 909.661 63.5303 910.008 63.5303C910.626 63.5303 911.286 63.361 911.988 63.0225V63.708C911.091 64.182 910.325 64.4189 909.69 64.4189C909.09 64.4189 908.624 64.3174 908.294 64.1143C907.972 63.9196 907.735 63.6657 907.583 63.3525C907.439 63.0309 907.354 62.6712 907.329 62.2734C907.304 61.8757 907.291 61.4779 907.291 61.0801V55.6338C907.291 55.4476 907.287 55.3037 907.278 55.2021C907.278 55.1006 907.261 55.0117 907.228 54.9355C907.202 54.8594 907.134 54.8128 907.024 54.7959C906.914 54.779 906.749 54.7705 906.529 54.7705H905.818V54.1738C906.631 53.8268 907.189 53.4925 907.494 53.1709C907.799 52.8493 908.125 52.2907 908.472 51.4951H908.891V53.8184H911.531V54.7705ZM950.163 48.7529C951.813 48.7614 953.312 49.1465 954.657 49.9082C954.97 50.0775 955.195 50.2214 955.33 50.3398L955.533 50.5303V53.4248H954.911C954.869 53.0693 954.687 52.6123 954.365 52.0537C953.426 50.4287 952.008 49.612 950.112 49.6035C948.555 49.6035 947.239 50.2383 946.164 51.5078C945.03 52.8451 944.463 54.4277 944.463 56.2559C944.463 57.6016 944.755 58.8838 945.339 60.1025C946.414 62.3623 948.14 63.4964 950.519 63.5049C952.601 63.5049 953.955 62.7516 954.581 61.2451C954.75 60.8304 954.86 60.3776 954.911 59.8867H955.533V62.7559C953.891 63.8646 952.063 64.4189 950.049 64.4189C947.637 64.4189 945.762 63.543 944.425 61.791C943.291 60.3014 942.724 58.5622 942.724 56.5732C942.724 54.1442 943.435 52.2357 944.856 50.8477C946.287 49.4512 948.056 48.7529 950.163 48.7529ZM957.298 59.1377C957.298 57.5973 957.738 56.2939 958.618 55.2275C959.498 54.1527 960.569 53.6152 961.83 53.6152C963.108 53.6152 964.225 54.1146 965.182 55.1133C966.138 56.112 966.616 57.3688 966.616 58.8838C966.616 60.3988 966.201 61.6598 965.372 62.667C964.416 63.8265 963.315 64.4062 962.071 64.4062C960.743 64.4147 959.617 63.9196 958.694 62.9209C957.772 61.9137 957.306 60.6527 957.298 59.1377ZM961.64 54.5674C960.743 54.5674 960.053 54.9736 959.57 55.7861C959.088 56.5986 958.847 57.61 958.847 58.8203C958.847 60.0221 959.151 61.097 959.761 62.0449C960.379 62.9844 961.191 63.4583 962.198 63.4668C963.138 63.4668 963.84 63.0563 964.306 62.2354C964.78 61.4059 965.017 60.4326 965.017 59.3154C965.017 58.1221 964.729 57.0345 964.153 56.0527C963.578 55.071 962.74 54.5758 961.64 54.5674ZM974.576 54.6943C973.366 54.6943 972.304 55.016 971.39 55.6592V61.3467C971.39 62.1253 971.445 62.6331 971.555 62.8701C971.665 63.0986 971.923 63.2552 972.329 63.3398L973.078 63.4795V64H968.267V63.4668L969.143 63.2764C969.456 63.2087 969.65 63.1113 969.727 62.9844C969.794 62.8405 969.828 62.5316 969.828 62.0576V56.3447C969.828 55.7354 969.773 55.3503 969.663 55.1895C969.46 54.9609 969.016 54.8424 968.33 54.834L968.267 54.4023L971.39 53.6152V54.7324C972.828 53.9453 974.06 53.5518 975.084 53.5518C976.37 53.5518 977.238 54.1273 977.687 55.2783C977.907 55.8369 978.017 56.5182 978.017 57.3223V61.3721C978.017 62.1507 978.072 62.6585 978.182 62.8955C978.3 63.124 978.554 63.2764 978.943 63.3525L979.692 63.5049V64H974.894V63.4795L975.757 63.3018C976.078 63.234 976.273 63.1325 976.341 62.9971C976.409 62.8532 976.442 62.5443 976.442 62.0703V57.7285C976.425 55.7227 975.803 54.7113 974.576 54.6943ZM986.332 54.7705H983.691V59.8232C983.691 60.5511 983.7 61.2367 983.717 61.8799C983.734 62.5146 983.831 62.9505 984.009 63.1875C984.195 63.416 984.462 63.5303 984.809 63.5303C985.426 63.5303 986.087 63.361 986.789 63.0225V63.708C985.892 64.182 985.126 64.4189 984.491 64.4189C983.89 64.4189 983.425 64.3174 983.095 64.1143C982.773 63.9196 982.536 63.6657 982.384 63.3525C982.24 63.0309 982.155 62.6712 982.13 62.2734C982.104 61.8757 982.092 61.4779 982.092 61.0801V55.6338C982.092 55.4476 982.088 55.3037 982.079 55.2021C982.079 55.1006 982.062 55.0117 982.028 54.9355C982.003 54.8594 981.935 54.8128 981.825 54.7959C981.715 54.779 981.55 54.7705 981.33 54.7705H980.619V54.1738C981.432 53.8268 981.99 53.4925 982.295 53.1709C982.6 52.8493 982.925 52.2907 983.272 51.4951H983.691V53.8184H986.332V54.7705ZM997.339 62.9209C997.322 62.9632 997.258 63.0648 997.148 63.2256C997.047 63.3864 996.911 63.5557 996.742 63.7334C996.581 63.9111 996.395 64.0677 996.184 64.2031C995.972 64.347 995.752 64.4189 995.523 64.4189C995.193 64.4189 994.927 64.3428 994.724 64.1904C994.521 64.0381 994.36 63.8477 994.241 63.6191C994.123 63.3906 994.038 63.1494 993.987 62.8955C993.937 62.6331 993.903 62.4004 993.886 62.1973C993.826 62.248 993.716 62.3919 993.556 62.6289C993.395 62.8659 993.179 63.1198 992.908 63.3906C992.637 63.653 992.303 63.89 991.905 64.1016C991.516 64.3132 991.063 64.4189 990.547 64.4189C990.293 64.4189 990.026 64.3851 989.747 64.3174C989.476 64.2497 989.231 64.1354 989.011 63.9746C988.791 63.8053 988.609 63.5811 988.465 63.3018C988.321 63.014 988.249 62.6585 988.249 62.2354C988.249 61.6344 988.448 61.1351 988.846 60.7373C989.243 60.3395 989.739 60.0264 990.331 59.7979C990.924 59.5693 991.465 59.4043 991.956 59.3027C992.455 59.1927 993.048 59.07 993.733 58.9346V56.8145C993.733 56.6283 993.725 56.3955 993.708 56.1162C993.7 55.8285 993.649 55.5534 993.556 55.291C993.471 55.0202 993.327 54.7917 993.124 54.6055C992.929 54.4108 992.646 54.3135 992.273 54.3135C991.816 54.3135 991.44 54.4023 991.144 54.5801C990.856 54.7578 990.644 54.9186 990.509 55.0625C990.373 55.2064 990.187 55.418 989.95 55.6973C989.662 55.7311 989.434 55.7269 989.265 55.6846C989.104 55.6338 988.968 55.5618 988.858 55.4688C988.757 55.3672 988.706 55.2318 988.706 55.0625C988.706 54.8171 988.892 54.5843 989.265 54.3643C989.637 54.1442 990.119 53.9495 990.712 53.7803C991.313 53.6025 991.88 53.5137 992.413 53.5137C992.896 53.5137 993.302 53.5856 993.632 53.7295C993.962 53.8649 994.233 54.0553 994.444 54.3008C994.656 54.5378 994.817 54.8171 994.927 55.1387C995.037 55.4518 995.113 55.7861 995.155 56.1416C995.206 56.4971 995.231 56.861 995.231 57.2334C995.24 57.6058 995.244 57.9655 995.244 58.3125C995.244 58.9557 995.236 59.582 995.219 60.1914C995.202 60.8008 995.206 61.3467 995.231 61.8291C995.257 62.3031 995.32 62.6882 995.422 62.9844C995.532 63.2721 995.71 63.416 995.955 63.416C996.268 63.416 996.586 63.1283 996.907 62.5527L997.339 62.9209ZM993.733 59.7725C993.048 59.874 992.46 59.9883 991.969 60.1152C991.486 60.2422 991.101 60.403 990.813 60.5977C990.534 60.7923 990.318 61.0124 990.166 61.2578C990.022 61.4948 989.95 61.7868 989.95 62.1338C989.95 62.9801 990.323 63.4033 991.067 63.4033C991.338 63.4033 991.618 63.306 991.905 63.1113C992.193 62.9167 992.46 62.6839 992.705 62.4131C992.951 62.1338 993.166 61.846 993.353 61.5498C993.539 61.2536 993.666 61.0081 993.733 60.8135V59.7725ZM1000.63 55.9131C1000.13 56.7933 999.878 57.8301 999.878 59.0234C999.878 60.2083 1000.2 61.1732 1000.86 61.918C1001.51 62.6628 1002.34 63.0394 1003.34 63.0479C1004.35 63.0479 1005.27 62.832 1006.11 62.4004L1006.52 62.8447C1006.11 63.234 1005.8 63.5007 1005.59 63.6445C1004.83 64.1523 1003.96 64.4105 1002.98 64.4189C1001.05 64.4189 999.704 63.6022 998.926 61.9688C998.511 61.1055 998.304 60.1406 998.304 59.0742C998.304 57.2884 998.845 55.8835 999.929 54.8594C1000.85 53.9876 1001.92 53.5518 1003.14 53.5518C1004.38 53.5518 1005.58 53.9665 1006.75 54.7959C1006.89 54.889 1006.91 55.1175 1006.8 55.4814C1006.69 55.8454 1006.46 56.0993 1006.11 56.2432C1005.85 56.2432 1005.58 56.0485 1005.3 55.6592C1005.03 55.2614 1004.87 55.0413 1004.83 54.999C1004.41 54.542 1003.87 54.3092 1003.2 54.3008C1002.1 54.3008 1001.24 54.8382 1000.63 55.9131ZM1013.2 54.7705H1010.55V59.8232C1010.55 60.5511 1010.56 61.2367 1010.58 61.8799C1010.6 62.5146 1010.69 62.9505 1010.87 63.1875C1011.06 63.416 1011.32 63.5303 1011.67 63.5303C1012.29 63.5303 1012.95 63.361 1013.65 63.0225V63.708C1012.76 64.182 1011.99 64.4189 1011.35 64.4189C1010.75 64.4189 1010.29 64.3174 1009.96 64.1143C1009.64 63.9196 1009.4 63.6657 1009.25 63.3525C1009.1 63.0309 1009.02 62.6712 1008.99 62.2734C1008.97 61.8757 1008.96 61.4779 1008.96 61.0801V55.6338C1008.96 55.4476 1008.95 55.3037 1008.94 55.2021C1008.94 55.1006 1008.93 55.0117 1008.89 54.9355C1008.87 54.8594 1008.8 54.8128 1008.69 54.7959C1008.58 54.779 1008.41 54.7705 1008.19 54.7705H1007.48V54.1738C1008.29 53.8268 1008.85 53.4925 1009.16 53.1709C1009.46 52.8493 1009.79 52.2907 1010.14 51.4951H1010.55V53.8184H1013.2V54.7705ZM1039.08 49.8066C1039.08 49.2057 1039.51 48.901 1040.36 48.8926H1048.67C1049.81 48.8926 1050.79 49.2015 1051.6 49.8193C1052.41 50.4372 1052.81 51.3851 1052.8 52.6631C1052.79 55.3968 1051.35 56.7637 1048.5 56.7637C1047.29 56.7298 1046.67 56.4251 1046.63 55.8496C1046.66 55.2064 1047.02 54.8805 1047.71 54.8721C1048.08 54.8721 1048.36 55.016 1048.56 55.3037C1048.77 55.5915 1048.9 55.7607 1048.96 55.8115C1049.08 55.9046 1049.24 55.9512 1049.42 55.9512C1050.45 55.9512 1050.96 54.9229 1050.96 52.8662C1050.96 51.7406 1050.57 50.873 1049.8 50.2637C1049.31 49.8828 1048.78 49.6924 1048.21 49.6924H1045.77V62.083C1045.77 62.6331 1045.82 62.9632 1045.91 63.0732C1046 63.1748 1046.19 63.251 1046.46 63.3018L1047.32 63.4795V64H1042.38V63.5049L1043.12 63.3525C1043.57 63.2594 1043.83 63.0859 1043.92 62.832C1044.01 62.5781 1044.06 62.0915 1044.06 61.3721V51.876C1044.01 50.7165 1043.74 50.0055 1043.26 49.7432C1043.09 49.6585 1042.89 49.6162 1042.65 49.6162C1042.42 49.6162 1042.1 49.7812 1041.68 50.1113C1041.12 50.5599 1040.63 50.7884 1040.21 50.7969C1039.8 50.7969 1039.5 50.6868 1039.33 50.4668C1039.17 50.2383 1039.08 50.0182 1039.08 49.8066ZM1060.12 55.4561L1058.73 55.291C1058.04 55.2995 1057.47 55.6507 1057.03 56.3447C1056.88 56.5986 1056.8 56.9837 1056.8 57.5V62.0195C1056.8 62.6458 1057.08 63.0648 1057.63 63.2764C1057.64 63.2848 1057.79 63.3314 1058.09 63.416C1058.38 63.4922 1058.54 63.5345 1058.57 63.543V64H1053.76V63.543C1053.78 63.526 1053.87 63.5007 1054.01 63.4668C1054.62 63.3229 1055.01 63.0986 1055.18 62.7939C1055.26 62.6247 1055.31 62.4385 1055.32 62.2354V55.9893C1055.32 55.583 1055.1 55.3376 1054.67 55.2529C1054.54 55.2275 1054.27 55.2064 1053.85 55.1895L1053.78 54.7451L1056.91 53.5518L1056.93 55.5576L1057.38 55.0879C1058.33 54.1992 1059.27 53.7549 1060.18 53.7549C1060.72 53.7549 1061 54.0173 1061.01 54.542C1061.01 54.9652 1060.83 55.2487 1060.49 55.3926C1060.37 55.4349 1060.24 55.4561 1060.12 55.4561ZM1064.88 53.6152V61.3467C1064.88 62.1253 1064.93 62.6331 1065.04 62.8701C1065.15 63.0986 1065.41 63.2552 1065.82 63.3398L1066.57 63.4795V64H1061.75V63.4668L1062.63 63.2764C1062.94 63.2087 1063.14 63.1113 1063.21 62.9844C1063.28 62.8405 1063.32 62.5316 1063.32 62.0576V56.3447C1063.32 55.7607 1063.29 55.4053 1063.24 55.2783C1063.12 54.9821 1062.65 54.834 1061.82 54.834L1061.75 54.4023L1064.88 53.6152ZM1062.71 48.6514C1062.71 48.3551 1062.8 48.1055 1063 47.9023C1063.2 47.6908 1063.45 47.585 1063.75 47.585C1064.04 47.585 1064.28 47.6908 1064.48 47.9023C1064.7 48.1055 1064.8 48.3551 1064.8 48.6514C1064.8 48.9391 1064.7 49.1846 1064.48 49.3877C1064.28 49.5824 1064.04 49.6797 1063.75 49.6797C1063.45 49.6797 1063.2 49.5824 1063 49.3877C1062.8 49.1846 1062.71 48.9391 1062.71 48.6514ZM1070.45 55.9131C1069.95 56.7933 1069.7 57.8301 1069.7 59.0234C1069.7 60.2083 1070.03 61.1732 1070.68 61.918C1071.33 62.6628 1072.16 63.0394 1073.17 63.0479C1074.18 63.0479 1075.1 62.832 1075.94 62.4004L1076.34 62.8447C1075.94 63.234 1075.63 63.5007 1075.42 63.6445C1074.65 64.1523 1073.78 64.4105 1072.8 64.4189C1070.88 64.4189 1069.53 63.6022 1068.75 61.9688C1068.34 61.1055 1068.13 60.1406 1068.13 59.0742C1068.13 57.2884 1068.67 55.8835 1069.75 54.8594C1070.68 53.9876 1071.75 53.5518 1072.96 53.5518C1074.2 53.5518 1075.4 53.9665 1076.57 54.7959C1076.71 54.889 1076.73 55.1175 1076.62 55.4814C1076.51 55.8454 1076.28 56.0993 1075.94 56.2432C1075.67 56.2432 1075.4 56.0485 1075.12 55.6592C1074.85 55.2614 1074.7 55.0413 1074.65 54.999C1074.24 54.542 1073.7 54.3092 1073.03 54.3008C1071.93 54.3008 1071.07 54.8382 1070.45 55.9131ZM1081.15 53.6152V61.3467C1081.15 62.1253 1081.21 62.6331 1081.32 62.8701C1081.43 63.0986 1081.69 63.2552 1082.09 63.3398L1082.84 63.4795V64H1078.03V63.4668L1078.91 63.2764C1079.22 63.2087 1079.41 63.1113 1079.49 62.9844C1079.56 62.8405 1079.59 62.5316 1079.59 62.0576V56.3447C1079.59 55.7607 1079.57 55.4053 1079.52 55.2783C1079.4 54.9821 1078.92 54.834 1078.09 54.834L1078.03 54.4023L1081.15 53.6152ZM1078.98 48.6514C1078.98 48.3551 1079.08 48.1055 1079.27 47.9023C1079.48 47.6908 1079.73 47.585 1080.02 47.585C1080.31 47.585 1080.56 47.6908 1080.76 47.9023C1080.97 48.1055 1081.08 48.3551 1081.08 48.6514C1081.08 48.9391 1080.97 49.1846 1080.76 49.3877C1080.56 49.5824 1080.31 49.6797 1080.02 49.6797C1079.73 49.6797 1079.48 49.5824 1079.27 49.3877C1079.08 49.1846 1078.98 48.9391 1078.98 48.6514ZM1090.92 54.6943C1089.71 54.6943 1088.64 55.016 1087.73 55.6592V61.3467C1087.73 62.1253 1087.78 62.6331 1087.89 62.8701C1088 63.0986 1088.26 63.2552 1088.67 63.3398L1089.42 63.4795V64H1084.61V63.4668L1085.48 63.2764C1085.8 63.2087 1085.99 63.1113 1086.07 62.9844C1086.13 62.8405 1086.17 62.5316 1086.17 62.0576V56.3447C1086.17 55.7354 1086.11 55.3503 1086 55.1895C1085.8 54.9609 1085.36 54.8424 1084.67 54.834L1084.61 54.4023L1087.73 53.6152V54.7324C1089.17 53.9453 1090.4 53.5518 1091.42 53.5518C1092.71 53.5518 1093.58 54.1273 1094.03 55.2783C1094.25 55.8369 1094.36 56.5182 1094.36 57.3223V61.3721C1094.36 62.1507 1094.41 62.6585 1094.52 62.8955C1094.64 63.124 1094.89 63.2764 1095.28 63.3525L1096.03 63.5049V64H1091.23V63.4795L1092.1 63.3018C1092.42 63.234 1092.61 63.1325 1092.68 62.9971C1092.75 62.8532 1092.78 62.5443 1092.78 62.0703V57.7285C1092.77 55.7227 1092.14 54.7113 1090.92 54.6943ZM1108.08 54.707H1105.99C1106.06 54.9609 1106.12 55.4095 1106.16 56.0527C1106.21 56.696 1106.24 57.0895 1106.24 57.2334C1106.24 58.9007 1105.51 60.0518 1104.06 60.6865C1103.18 61.0674 1102.32 61.2113 1101.48 61.1182C1100.81 61.6514 1100.41 62.0322 1100.27 62.2607C1100.15 62.4893 1100.08 62.7262 1100.08 62.9717C1100.08 63.5303 1100.73 63.8519 1102.04 63.9365C1102.36 63.9535 1103.1 63.9619 1104.26 63.9619C1105.43 63.9619 1106.36 64.2539 1107.05 64.8379C1107.75 65.4219 1108.09 66.1624 1108.09 67.0596C1108.09 68.4307 1107.55 69.6748 1106.46 70.792C1105.36 71.9092 1103.83 72.4678 1101.85 72.4678C1101.03 72.4678 1100.23 72.2393 1099.45 71.7822C1098.36 71.1221 1097.82 70.2588 1097.81 69.1924C1097.81 67.8044 1098.55 66.5771 1100.04 65.5107L1100.59 65.1426C1099.65 64.8548 1099.02 64.5755 1098.7 64.3047C1098.36 64.0085 1098.19 63.6911 1098.19 63.3525C1098.2 62.8532 1098.57 62.3073 1099.29 61.7148C1099.62 61.4609 1099.99 61.1816 1100.42 60.877C1100.05 60.6569 1099.62 60.2591 1099.12 59.6836C1098.62 59.1081 1098.37 58.4225 1098.37 57.627C1098.37 56.1966 1098.77 55.1598 1099.56 54.5166C1100.37 53.8734 1101.27 53.5518 1102.27 53.5518C1103.11 53.5687 1103.86 53.6237 1104.51 53.7168C1105.16 53.8099 1105.63 53.8564 1105.9 53.8564H1108.08V54.707ZM1100.74 71.084C1101.2 71.321 1101.66 71.4437 1102.11 71.4521C1103.52 71.4521 1104.6 71.0713 1105.35 70.3096C1106.1 69.5563 1106.49 68.765 1106.52 67.9355C1106.5 66.2344 1105.52 65.3796 1103.56 65.3711C1102.83 65.3711 1102.35 65.3838 1102.11 65.4092C1101.88 65.4346 1101.56 65.5107 1101.15 65.6377C1100.01 66.7718 1099.45 67.8128 1099.45 68.7607C1099.45 69.8441 1099.88 70.6185 1100.74 71.084ZM1102.28 54.3135C1100.71 54.3304 1099.93 55.4222 1099.92 57.5889C1099.92 58.3506 1100.11 59.0023 1100.49 59.5439C1100.87 60.0771 1101.42 60.348 1102.15 60.3564C1103.34 60.3564 1104.11 59.7217 1104.46 58.4521C1104.57 58.029 1104.63 57.5762 1104.64 57.0938C1104.64 56.0443 1104.34 55.2741 1103.75 54.7832C1103.35 54.4701 1102.86 54.3135 1102.28 54.3135Z" fill="black"/>
<path d="M760 64.6348H766.959V65.2695H760V64.6348ZM769.939 64.6348H822.334V65.2695H769.939V64.6348Z" fill="#CC9344"/>
<path d="M155.28 75V46.4H169.88V48.08H157.2V58.6H168.8V60.24H157.2V75H155.28ZM176.761 65.08L172.641 75H170.601L182.641 46.2H183.761L195.841 75H193.681L189.561 65.08H176.761ZM183.081 49.4C183.054 49.4267 183.001 49.5867 182.921 49.88C182.548 51.0267 182.188 52 181.841 52.8L177.441 63.44H188.881L184.481 52.84C183.548 50.8133 183.081 49.6667 183.081 49.4ZM201.764 75V46.52C204.298 46.3333 206.418 46.24 208.124 46.24C210.844 46.24 213.084 46.9467 214.844 48.36C216.604 49.7467 217.484 51.72 217.484 54.28C217.484 56.0133 216.978 57.6267 215.964 59.12C214.951 60.6133 213.818 61.8 212.564 62.68C213.551 64.04 214.764 65.6667 216.204 67.56C217.671 69.4267 218.618 70.6 219.044 71.08C220.671 72.8133 222.511 73.8 224.564 74.04L224.524 75.32C222.898 75.2933 221.578 75.0533 220.564 74.6C219.551 74.12 218.578 73.4 217.644 72.44C216.738 71.48 214.458 68.4933 210.804 63.48C208.191 63.48 205.818 63.4 203.684 63.24V75H201.764ZM209.644 61.88C210.818 61.88 212.071 61.1067 213.404 59.56C214.738 58.0133 215.404 56.2267 215.404 54.2C215.404 52.1467 214.711 50.6 213.324 49.56C211.964 48.4933 210.151 47.96 207.884 47.96C206.684 47.96 205.284 48.0133 203.684 48.12V61.68C205.818 61.8133 207.804 61.88 209.644 61.88ZM241.613 73.52H240.533L232.173 53.28C231.693 52.16 231.306 51.1733 231.013 50.32L230.613 53.36L227.333 75H225.373L230.093 46.16H231.213L240.133 67.36C240.586 68.3467 240.946 69.28 241.213 70.16C241.293 69.8667 241.706 68.9467 242.453 67.4L252.413 46.16H253.493L257.853 75H255.853L252.733 53.28C252.519 51.92 252.413 50.8933 252.413 50.2C252.386 50.2267 252.319 50.36 252.213 50.6C252.133 50.8133 251.973 51.1867 251.733 51.72C251.519 52.2267 251.293 52.76 251.053 53.32L241.613 73.52ZM301.684 75V60.68H282.044V75H280.124V46.4H282.044V58.96H301.684V46.4H303.604V75H301.684ZM316.427 71.2C313.787 68.3467 312.467 64.84 312.467 60.68C312.467 56.52 313.787 53.0267 316.427 50.2C319.094 47.3467 322.454 45.92 326.507 45.92C330.561 45.92 333.921 47.3467 336.587 50.2C339.254 53.0267 340.587 56.52 340.587 60.68C340.587 64.84 339.254 68.3467 336.587 71.2C333.921 74.0533 330.561 75.48 326.507 75.48C322.454 75.48 319.094 74.0533 316.427 71.2ZM317.867 51.44C315.654 53.92 314.547 57 314.547 60.68C314.547 64.36 315.654 67.4533 317.867 69.96C320.107 72.4667 322.987 73.72 326.507 73.72C330.054 73.72 332.934 72.4667 335.147 69.96C337.387 67.4533 338.507 64.36 338.507 60.68C338.507 57 337.387 53.92 335.147 51.44C332.934 48.9333 330.054 47.68 326.507 47.68C322.961 47.68 320.081 48.9333 317.867 51.44ZM368.74 72.24C366.9 74.4 364.1 75.48 360.34 75.48C356.58 75.48 353.766 74.3867 351.9 72.2C350.06 70.0133 349.14 67.0267 349.14 63.24V46.4H351.06V63.24C351.06 70.28 354.14 73.8 360.3 73.8C366.486 73.8 369.58 70.28 369.58 63.24V46.4H371.5V63.24C371.5 67.0533 370.58 70.0533 368.74 72.24ZM394.085 48.92C392.139 48.0933 390.205 47.68 388.285 47.68C384.392 47.68 382.445 49.12 382.445 52C382.445 53.2533 382.885 54.4267 383.765 55.52C384.645 56.5867 385.712 57.5467 386.965 58.4C388.219 59.2267 389.472 60.08 390.725 60.96C391.979 61.84 393.045 62.8933 393.925 64.12C394.805 65.3467 395.245 66.68 395.245 68.12C395.245 70.5467 394.432 72.3867 392.805 73.64C391.179 74.8667 388.925 75.48 386.045 75.48C383.192 75.48 380.752 74.7467 378.725 73.28L379.685 71.84C381.605 73.0933 383.712 73.72 386.005 73.72C388.299 73.72 390.059 73.2667 391.285 72.36C392.512 71.4267 393.125 70.0933 393.125 68.36C393.125 67.16 392.685 66.0267 391.805 64.96C390.925 63.8667 389.859 62.8933 388.605 62.04C387.352 61.16 386.099 60.2667 384.845 59.36C383.592 58.4533 382.525 57.3733 381.645 56.12C380.765 54.8667 380.325 53.52 380.325 52.08C380.325 50.1867 381.019 48.6933 382.405 47.6C383.819 46.48 385.712 45.92 388.085 45.92C390.485 45.92 392.712 46.4 394.765 47.36L394.085 48.92ZM403.6 75V46.4H416.88V48.08H405.52V58.6H415.8V60.24H405.52V73.32H417.32V75H403.6ZM439.421 75V46.52C441.954 46.3333 444.074 46.24 445.781 46.24C448.501 46.24 450.741 46.9467 452.501 48.36C454.261 49.7467 455.141 51.72 455.141 54.28C455.141 56.0133 454.634 57.6267 453.621 59.12C452.607 60.6133 451.474 61.8 450.221 62.68C451.207 64.04 452.421 65.6667 453.861 67.56C455.327 69.4267 456.274 70.6 456.701 71.08C458.327 72.8133 460.167 73.8 462.221 74.04L462.181 75.32C460.554 75.2933 459.234 75.0533 458.221 74.6C457.207 74.12 456.234 73.4 455.301 72.44C454.394 71.48 452.114 68.4933 448.461 63.48C445.847 63.48 443.474 63.4 441.341 63.24V75H439.421ZM447.301 61.88C448.474 61.88 449.727 61.1067 451.061 59.56C452.394 58.0133 453.061 56.2267 453.061 54.2C453.061 52.1467 452.367 50.6 450.981 49.56C449.621 48.4933 447.807 47.96 445.541 47.96C444.341 47.96 442.941 48.0133 441.341 48.12V61.68C443.474 61.8133 445.461 61.88 447.301 61.88ZM465.749 75V46.4H479.029V48.08H467.669V58.6H477.949V60.24H467.669V73.32H479.469V75H465.749ZM492.435 48.08H482.755V46.4H504.035V48.08H494.355V75H492.435V48.08ZM510.202 75V46.52C512.735 46.3333 514.855 46.24 516.562 46.24C519.282 46.24 521.522 46.9467 523.282 48.36C525.042 49.7467 525.922 51.72 525.922 54.28C525.922 56.0133 525.415 57.6267 524.402 59.12C523.389 60.6133 522.255 61.8 521.002 62.68C521.989 64.04 523.202 65.6667 524.642 67.56C526.109 69.4267 527.055 70.6 527.482 71.08C529.109 72.8133 530.949 73.8 533.002 74.04L532.962 75.32C531.335 75.2933 530.015 75.0533 529.002 74.6C527.989 74.12 527.015 73.4 526.082 72.44C525.175 71.48 522.895 68.4933 519.242 63.48C516.629 63.48 514.255 63.4 512.122 63.24V75H510.202ZM518.082 61.88C519.255 61.88 520.509 61.1067 521.842 59.56C523.175 58.0133 523.842 56.2267 523.842 54.2C523.842 52.1467 523.149 50.6 521.762 49.56C520.402 48.4933 518.589 47.96 516.322 47.96C515.122 47.96 513.722 48.0133 512.122 48.12V61.68C514.255 61.8133 516.242 61.88 518.082 61.88ZM536.53 75V46.4H549.81V48.08H538.45V58.6H548.73V60.24H538.45V73.32H550.25V75H536.53ZM559.456 65.08L555.336 75H553.296L565.336 46.2H566.456L578.536 75H576.376L572.256 65.08H559.456ZM565.776 49.4C565.75 49.4267 565.696 49.5867 565.616 49.88C565.243 51.0267 564.883 52 564.536 52.8L560.136 63.44H571.576L567.176 52.84C566.243 50.8133 565.776 49.6667 565.776 49.4ZM586.693 48.08H577.013V46.4H598.293V48.08H588.613V75H586.693V48.08Z" fill="black"/>
<path d="M88.0098 33.0989C90.4114 30.1243 94.9452 30.1243 97.3467 33.0989L117.793 58.4243C120.961 62.3485 118.168 68.1934 113.125 68.1934H72.232C67.1886 68.1934 64.3954 62.3485 67.5636 58.4243L88.0098 33.0989Z" fill="#EDC25B"/>
<rect x="72.688" y="61.269" width="39.9811" height="28.5915" rx="12" fill="#ECC25A"/>
<rect x="84.5571" y="67.5234" width="16.867" height="22.3371" rx="2" fill="#8D7029"/>
<path d="M92 27.5C102.646 27.5 112.209 28.4427 119.045 29.9326C122.483 30.682 125.097 31.5416 126.79 32.4141C127.64 32.8519 128.133 33.2303 128.385 33.498L128.386 33.5L128.385 33.502C128.133 33.7697 127.64 34.1481 126.79 34.5859C125.097 35.4584 122.483 36.318 119.045 37.0674C112.209 38.5573 102.646 39.5 92 39.5C81.3542 39.5 71.791 38.5573 64.9551 37.0674C61.5168 36.318 58.9031 35.4584 57.21 34.5859C56.4664 34.2028 55.9952 33.8653 55.7207 33.6074L55.6133 33.5L55.7207 33.3926C55.9952 33.1347 56.4664 32.7972 57.21 32.4141C58.9031 31.5416 61.5168 30.682 64.9551 29.9326C71.791 28.4427 81.3542 27.5 92 27.5Z" stroke="#9F8954" stroke-width="5"/>
<path d="M584.287 128.156C585.064 129.447 586.936 129.447 587.713 128.156L594.566 116.782C595.369 115.449 594.409 113.75 592.852 113.75H579.148C577.591 113.75 576.631 115.449 577.434 116.782L584.287 128.156Z" fill="#FFF4D8"/>
<path d="M599.169 119.91C600.741 122.311 604.259 122.311 605.831 119.91C607.563 117.262 605.664 113.75 602.5 113.75C599.336 113.75 597.437 117.262 599.169 119.91Z" fill="#FFF4D8"/>
<path d="M609.503 148.18C609.592 149.417 611.408 149.417 611.497 148.18L613.454 121.072C613.496 120.493 613.037 120 612.456 120H608.544C607.963 120 607.504 120.493 607.546 121.072L609.503 148.18Z" fill="#FFF4D8"/>
<path d="M561.503 148.18C561.592 149.417 563.408 149.417 563.497 148.18L565.454 121.072C565.496 120.493 565.037 120 564.456 120H560.544C559.963 120 559.504 120.493 559.546 121.072L561.503 148.18Z" fill="#FFF4D8"/>
<path d="M566.169 119.91C567.741 122.311 571.259 122.311 572.831 119.91C574.563 117.262 572.664 113.75 569.5 113.75C566.336 113.75 564.437 117.262 566.169 119.91Z" fill="#FFF4D8"/>
<path d="M-6 117L551 118" stroke="#E5CF9A" stroke-width="5" stroke-linecap="round"/>
<path d="M621 118H1169" stroke="#E5CF9A" stroke-width="5" stroke-linecap="round"/>
<path d="M568.901 18.6533C571.283 19.5538 571.828 21.7128 570.536 25.13C569.947 26.689 569.151 27.8136 568.149 28.5038C567.147 29.194 566.028 29.3058 564.793 28.839C563.721 28.4335 562.989 27.7293 562.599 26.7264L560.824 31.422L559.181 31.015L564.408 17.19L565.755 17.6992L565.362 19.1331C565.917 18.7585 566.496 18.5283 567.099 18.4425C567.714 18.3614 568.315 18.4317 568.901 18.6533ZM568.046 19.784C567.547 19.5954 567.029 19.5706 566.492 19.7096C565.967 19.8533 565.464 20.0907 564.982 20.4218L563.136 25.3046C563.252 25.7902 563.461 26.2184 563.763 26.589C564.081 26.9519 564.472 27.2206 564.933 27.3951C565.756 27.7062 566.485 27.6255 567.12 27.1528C567.772 26.6723 568.343 25.7835 568.834 24.4865C569.324 23.1894 569.509 22.1544 569.387 21.3816C569.266 20.6088 568.819 20.0763 568.046 19.784ZM582.363 23.7427C582.762 23.8936 583.198 24.1366 583.67 24.4718L582.179 27.7357L580.907 27.2547L581.706 25.1408L581.613 25.1054C580.091 24.5302 578.602 25.2074 577.146 27.137L575.576 31.2901L577.577 32.0469L577.118 33.2629L571.992 31.325L572.451 30.109L574.004 30.696L576.812 23.2691L575.259 22.682L575.719 21.466L578.45 22.4986L577.865 24.9502C578.585 24.253 579.3 23.7961 580.009 23.5796C580.73 23.3677 581.515 23.4221 582.363 23.7427ZM590.681 26.8872C592.04 27.4011 592.907 28.2563 593.282 29.4526C593.673 30.6413 593.57 32.0276 592.971 33.6115C592.386 35.158 591.54 36.2637 590.434 36.9287C589.344 37.5859 588.126 37.6599 586.779 37.1507C585.42 36.6367 584.544 35.7854 584.153 34.5968C583.766 33.3957 583.872 32.0032 584.47 30.4193C585.06 28.8603 585.899 27.7522 586.989 27.095C588.091 26.4425 589.321 26.3732 590.681 26.8872ZM590.193 28.178C589.332 27.8527 588.57 27.9279 587.905 28.4036C587.241 28.8794 586.663 29.7658 586.173 31.0629C585.682 32.36 585.523 33.4043 585.694 34.196C585.882 34.9799 586.407 35.5345 587.267 35.8598C588.128 36.1852 588.882 36.1138 589.529 35.6458C590.194 35.1701 590.773 34.2774 591.268 32.9679C591.759 31.6708 591.91 30.6303 591.721 29.8464C591.55 29.0548 591.041 28.4986 590.193 28.178ZM602.362 42.2293C601.941 42.3265 601.463 42.3455 600.93 42.2864C600.408 42.2319 599.911 42.1151 599.437 41.936C598.402 41.5446 597.693 40.97 597.309 40.2121C596.93 39.4417 596.908 38.6138 597.243 37.7283L599.464 31.8541L597.2 30.9983L597.667 29.7636L599.931 30.6194L600.772 28.3931L602.415 28.8001L601.502 31.2134L604.926 32.5077L604.253 33.6646L601.035 32.4482L598.822 38.3037C598.61 38.8649 598.601 39.3393 598.797 39.7268C598.992 40.1144 599.421 40.4331 600.082 40.683C600.755 40.9376 601.444 41.0198 602.148 40.9296L602.362 42.2293ZM613.115 35.3686C614.475 35.8825 615.342 36.7377 615.716 37.9341C616.108 39.1227 616.004 40.509 615.405 42.0929C614.821 43.6394 613.975 44.7451 612.869 45.4101C611.779 46.0673 610.561 46.1413 609.214 45.6321C607.854 45.1182 606.979 44.2669 606.587 43.0782C606.2 41.8771 606.306 40.4846 606.905 38.9007C607.494 37.3417 608.334 36.2336 609.423 35.5764C610.525 34.9239 611.756 34.8547 613.115 35.3686ZM612.627 36.6594C611.767 36.3341 611.004 36.4093 610.34 36.8851C609.675 37.3608 609.098 38.2472 608.607 39.5443C608.117 40.8414 607.958 41.8857 608.129 42.6774C608.317 43.4613 608.841 44.0159 609.702 44.3413C610.562 44.6666 611.316 44.5953 611.964 44.1273C612.628 43.6515 613.208 42.7589 613.703 41.4493C614.193 40.1522 614.344 39.1118 614.156 38.3279C613.985 37.5362 613.475 36.9801 612.627 36.6594ZM624.797 50.7108C624.375 50.808 623.898 50.827 623.364 50.7678C622.843 50.7134 622.346 50.5966 621.872 50.4174C620.837 50.026 620.127 49.4514 619.744 48.6935C619.365 47.9232 619.343 47.0952 619.678 46.2097L621.899 40.3355L619.635 39.4797L620.102 38.245L622.365 39.1008L623.207 36.8746L624.849 37.2816L623.937 39.6949L627.36 40.9891L626.688 42.146L623.47 40.9296L621.256 46.7851C621.044 47.3463 621.036 47.8207 621.232 48.2083C621.427 48.5958 621.855 48.9145 622.516 49.1644C623.19 49.419 623.879 49.5012 624.583 49.411L624.797 50.7108ZM632.715 54.3458C631.9 55.3345 631.028 56.0384 630.1 56.4572C629.172 56.8761 628.079 56.9192 626.822 56.5866L627.072 55.2483C627.775 55.3859 628.365 55.4094 628.841 55.3186C629.325 55.245 629.745 55.076 630.102 54.8116C630.454 54.5598 630.827 54.1948 631.221 53.7168L630.697 53.5187L631.001 42.3655L632.666 42.9949L632.216 52.7246L638.278 45.1167L639.906 45.732L632.715 54.3458ZM647.422 48.3383C649.804 49.2388 650.349 51.3978 649.058 54.815C648.468 56.374 647.672 57.4986 646.67 58.1888C645.668 58.879 644.55 58.9908 643.315 58.524C642.242 58.1185 641.511 57.4143 641.12 56.4114L639.345 61.107L637.703 60.7L642.929 46.875L644.276 47.3842L643.884 48.8181C644.439 48.4435 645.018 48.2133 645.62 48.1275C646.235 48.0464 646.836 48.1167 647.422 48.3383ZM646.567 49.469C646.068 49.2804 645.55 49.2556 645.013 49.3946C644.488 49.5383 643.985 49.7757 643.504 50.1068L641.658 54.9896C641.773 55.4752 641.982 55.9034 642.284 56.274C642.603 56.6369 642.993 56.9056 643.455 57.08C644.278 57.3912 645.007 57.3105 645.642 56.8378C646.294 56.3573 646.865 55.4685 647.355 54.1715C647.845 52.8744 648.03 51.8394 647.909 51.0666C647.788 50.2938 647.34 49.7613 646.567 49.469ZM653.328 57.0709C652.955 58.1701 652.927 59.0931 653.243 59.8399C653.572 60.5914 654.142 61.1204 654.953 61.4269C655.439 61.6107 655.908 61.7095 656.359 61.7232C656.827 61.7291 657.348 61.6697 657.923 61.5448L658.256 62.8683C657.658 63.0555 657.022 63.1357 656.348 63.109C655.686 63.0869 655.056 62.9627 654.457 62.7364C653.036 62.1989 652.1 61.3178 651.651 60.0931C651.219 58.8607 651.297 57.465 651.887 55.906C652.259 54.9207 652.766 54.1075 653.408 53.4662C654.054 52.8125 654.784 52.39 655.597 52.1987C656.416 51.9949 657.255 52.0556 658.116 52.381C659.363 52.8525 660.177 53.6591 660.558 54.8009C660.956 55.9349 660.872 57.2502 660.306 58.7469C660.198 59.0337 660.079 59.3096 659.95 59.5746L653.328 57.0709ZM657.646 53.6789C656.886 53.3913 656.165 53.4322 655.483 53.8018C654.807 54.159 654.239 54.8495 653.781 55.8736L658.906 57.8115C659.285 56.7716 659.36 55.8948 659.131 55.181C658.902 54.4672 658.407 53.9665 657.646 53.6789Z" fill="#D2733C"/>
<rect x="551.134" y="1.28901" width="136.381" height="30.6699" rx="4" transform="rotate(20.7091 551.134 1.28901)" stroke="#D26C00" stroke-width="2"/>
</svg>
