<svg width="452" height="114" viewBox="0 0 452 114" fill="none" xmlns="http://www.w3.org/2000/svg">
<path d="M145.44 60H125.4V58.44H128.28V33.56H125.4V32H144.88V38.16H143.32V33.56H129.92V45.08H143.32V46.68H129.92V58.44H143.88V53.84H145.44V60ZM155.292 60H148.252V58.4H150.772V33.56H148.252V32H156.652C158.572 32 160.385 32.3333 162.092 33C163.798 33.64 165.292 34.56 166.572 35.76C167.852 36.9867 168.865 38.4667 169.612 40.2C170.358 41.9333 170.732 43.8667 170.732 46C170.732 47.5733 170.452 49.1867 169.892 50.84C169.358 52.4933 168.478 54 167.252 55.36C166.025 56.72 164.425 57.84 162.452 58.72C160.505 59.5733 158.118 60 155.292 60ZM152.412 33.56V58.4H155.892C158.105 58.4 160.038 58.0533 161.692 57.36C163.372 56.64 164.758 55.6933 165.852 54.52C166.945 53.3733 167.758 52.0667 168.292 50.6C168.852 49.1067 169.132 47.5733 169.132 46C169.132 44.1067 168.798 42.4 168.132 40.88C167.492 39.3333 166.598 38.0133 165.452 36.92C164.305 35.8533 162.972 35.0267 161.452 34.44C159.958 33.8533 158.358 33.56 156.652 33.56H152.412ZM181.565 60H173.525V58.44H176.645V33.56H173.525V32H181.565V33.56H178.285V58.44H181.565V60ZM193.944 60H184.384V58.44H186.824V33.56H184.384V32H193.224C194.451 32 195.584 32.1333 196.624 32.4C197.664 32.6667 198.544 33.08 199.264 33.64C200.011 34.2 200.584 34.9333 200.984 35.84C201.384 36.72 201.584 37.7733 201.584 39C201.584 40.6533 201.171 42.1067 200.344 43.36C199.544 44.6133 198.304 45.4667 196.624 45.92C197.398 46.08 198.144 46.3467 198.864 46.72C199.611 47.0933 200.264 47.5733 200.824 48.16C201.384 48.7467 201.824 49.4267 202.144 50.2C202.464 50.9733 202.624 51.84 202.624 52.8C202.624 54 202.371 55.0533 201.864 55.96C201.384 56.84 200.758 57.5733 199.984 58.16C199.158 58.7733 198.211 59.24 197.144 59.56C196.104 59.8533 195.038 60 193.944 60ZM188.464 46.72V58.44H193.784C194.771 58.44 195.691 58.32 196.544 58.08C197.424 57.84 198.198 57.4667 198.864 56.96C199.504 56.5067 200.011 55.92 200.384 55.2C200.784 54.48 200.984 53.64 200.984 52.68C200.984 51.64 200.758 50.7467 200.304 50C199.878 49.2267 199.304 48.6133 198.584 48.16C197.838 47.68 196.984 47.32 196.024 47.08C195.091 46.84 194.118 46.72 193.104 46.72H188.464ZM188.464 33.56V45.16H193.744C195.664 45.16 197.171 44.6133 198.264 43.52C199.384 42.4 199.944 40.9333 199.944 39.12C199.944 38.1333 199.784 37.28 199.464 36.56C199.144 35.84 198.691 35.2667 198.104 34.84C197.544 34.4133 196.878 34.0933 196.104 33.88C195.358 33.6667 194.518 33.56 193.584 33.56H188.464ZM225.359 60H205.439V58.44H208.199V33.56H205.439V32H213.159V33.56H209.839V58.44H223.799V53.84H225.359V60ZM248.213 60H228.173V58.44H231.053V33.56H228.173V32H247.653V38.16H246.093V33.56H232.693V45.08H246.093V46.68H232.693V58.44H246.653V53.84H248.213V60ZM145.32 100H125.4V98.44H128.16V73.56H125.4V72H133.12V73.56H129.8V98.44H143.76V93.84H145.32V100ZM155.854 100H148.134V98.44H151.214C153.161 93.7733 155.121 89.16 157.094 84.6C159.068 80.0133 161.028 75.3867 162.974 70.72C164.921 75.3867 166.868 80.0133 168.814 84.6C170.788 89.16 172.761 93.7733 174.734 98.44H177.814V100H170.134V98.44H173.054C172.308 96.68 171.561 94.9333 170.814 93.2C170.094 91.4667 169.361 89.72 168.614 87.96H157.334C156.534 89.88 155.801 91.6267 155.134 93.2C154.468 94.7733 153.721 96.52 152.894 98.44H155.854V100ZM162.574 75.52C161.854 77.3333 161.094 79.16 160.294 81C159.521 82.8133 158.761 84.6133 158.014 86.4H167.934L163.334 75.52L162.974 74.36C162.921 74.6 162.854 74.8 162.774 74.96C162.721 75.12 162.654 75.3067 162.574 75.52ZM208.275 73.56V101.28L186.115 75.68L185.395 74.76L185.475 75.92V98.44H188.635V100H180.595V98.44H183.835V73.56H180.595V72H184.915L205.995 96.56L206.755 97.6L206.635 96.32V73.56H203.595V72H211.635V73.56H208.275ZM221.463 100H214.423V98.4H216.943V73.56H214.423V72H222.823C224.743 72 226.557 72.3333 228.263 73C229.97 73.64 231.463 74.56 232.743 75.76C234.023 76.9867 235.037 78.4667 235.783 80.2C236.53 81.9333 236.903 83.8667 236.903 86C236.903 87.5733 236.623 89.1867 236.063 90.84C235.53 92.4933 234.65 94 233.423 95.36C232.197 96.72 230.597 97.84 228.623 98.72C226.677 99.5733 224.29 100 221.463 100ZM218.583 73.56V98.4H222.063C224.277 98.4 226.21 98.0533 227.863 97.36C229.543 96.64 230.93 95.6933 232.023 94.52C233.117 93.3733 233.93 92.0667 234.463 90.6C235.023 89.1067 235.303 87.5733 235.303 86C235.303 84.1067 234.97 82.4 234.303 80.88C233.663 79.3333 232.77 78.0133 231.623 76.92C230.477 75.8533 229.143 75.0267 227.623 74.44C226.13 73.8533 224.53 73.56 222.823 73.56H218.583ZM254.017 98.2C253.244 98.8933 252.337 99.4267 251.297 99.8C250.257 100.147 249.164 100.32 248.017 100.32C246.977 100.32 246.004 100.213 245.097 100C244.217 99.7867 243.444 99.5067 242.777 99.16C242.057 98.84 241.444 98.4933 240.937 98.12C240.43 97.72 240.03 97.3467 239.737 97V92.72H241.337V96.32C242.057 96.9867 242.95 97.56 244.017 98.04C245.084 98.52 246.364 98.76 247.857 98.76C248.764 98.76 249.63 98.6133 250.457 98.32C251.284 98.0267 252.03 97.6267 252.697 97.12C253.31 96.5867 253.817 95.9467 254.217 95.2C254.617 94.4267 254.817 93.5733 254.817 92.64C254.817 91.7067 254.67 90.8933 254.377 90.2C254.11 89.5067 253.724 88.9333 253.217 88.48C252.684 87.9467 252.057 87.5333 251.337 87.24C250.644 86.92 249.897 86.6133 249.097 86.32C248.164 86.0267 247.204 85.7333 246.217 85.44C245.257 85.1467 244.377 84.7733 243.577 84.32C242.75 83.84 242.07 83.2133 241.537 82.44C241.004 81.6667 240.71 80.6267 240.657 79.32C240.63 78.44 240.737 77.56 240.977 76.68C241.244 75.7733 241.67 74.96 242.257 74.24C242.844 73.52 243.604 72.9467 244.537 72.52C245.47 72.0667 246.604 71.84 247.937 71.84C248.39 71.84 248.884 71.8667 249.417 71.92C249.95 71.9733 250.497 72.0667 251.057 72.2C251.59 72.3333 252.137 72.5467 252.697 72.84C253.284 73.1067 253.83 73.44 254.337 73.84V78.16H252.737V74.64C252.23 74.32 251.564 74.04 250.737 73.8C249.937 73.5333 248.99 73.4 247.897 73.4C246.937 73.4 246.097 73.56 245.377 73.88C244.684 74.2 244.11 74.6267 243.657 75.16C243.204 75.6933 242.857 76.2933 242.617 76.96C242.404 77.6267 242.297 78.32 242.297 79.04C242.297 80.24 242.59 81.1733 243.177 81.84C243.764 82.48 244.51 83 245.417 83.4C246.457 83.88 247.617 84.28 248.897 84.6C250.204 84.92 251.43 85.36 252.577 85.92C253.67 86.48 254.577 87.2667 255.297 88.28C256.044 89.2933 256.43 90.72 256.457 92.56C256.457 93.7333 256.23 94.8 255.777 95.76C255.35 96.72 254.764 97.5333 254.017 98.2ZM280.358 98.32C279.292 98.9333 278.145 99.4267 276.918 99.8C275.718 100.147 274.438 100.32 273.078 100.32C271.105 100.32 269.252 99.9467 267.518 99.2C265.785 98.4533 264.278 97.4267 262.998 96.12C261.692 94.84 260.665 93.3333 259.918 91.6C259.172 89.8667 258.798 88.0133 258.798 86.04C258.798 84.0667 259.172 82.2133 259.918 80.48C260.665 78.72 261.692 77.1867 262.998 75.88C264.278 74.6 265.785 73.5867 267.518 72.84C269.252 72.0667 271.105 71.68 273.078 71.68C274.438 71.68 275.718 71.8533 276.918 72.2C278.145 72.5467 279.305 73.04 280.398 73.68V78.16H278.838V74.68C277.958 74.2267 277.025 73.88 276.038 73.64C275.078 73.3733 274.092 73.24 273.078 73.24C271.318 73.24 269.678 73.5867 268.158 74.28C266.638 74.9467 265.305 75.8667 264.158 77.04C263.012 78.1867 262.105 79.5467 261.438 81.12C260.772 82.6667 260.438 84.32 260.438 86.08C260.438 87.8133 260.772 89.4533 261.438 91C262.105 92.5467 263.012 93.88 264.158 95C265.278 96.1467 266.598 97.0667 268.118 97.76C269.638 98.4267 271.265 98.76 272.998 98.76C274.172 98.76 275.292 98.6133 276.358 98.32C277.452 98 278.478 97.56 279.438 97L280.358 98.32ZM290.933 100H283.213V98.44H286.293C288.239 93.7733 290.199 89.16 292.173 84.6C294.146 80.0133 296.106 75.3867 298.053 70.72C299.999 75.3867 301.946 80.0133 303.893 84.6C305.866 89.16 307.839 93.7733 309.813 98.44H312.893V100H305.213V98.44H308.133C307.386 96.68 306.639 94.9333 305.893 93.2C305.173 91.4667 304.439 89.72 303.693 87.96H292.413C291.613 89.88 290.879 91.6267 290.213 93.2C289.546 94.7733 288.799 96.52 287.973 98.44H290.933V100ZM297.653 75.52C296.933 77.3333 296.173 79.16 295.373 81C294.599 82.8133 293.839 84.6133 293.093 86.4H303.013L298.413 75.52L298.053 74.36C297.999 74.6 297.933 74.8 297.853 74.96C297.799 75.12 297.733 75.3067 297.653 75.52ZM323.713 100H315.673V98.44H318.113V73.56H315.673V72H324.113C324.94 72 325.847 72.1333 326.833 72.4C327.847 72.6667 328.78 73.0933 329.633 73.68C330.487 74.2667 331.207 75.0267 331.793 75.96C332.38 76.8933 332.673 78.0133 332.673 79.32C332.673 81.6133 331.94 83.44 330.473 84.8C329.007 86.1333 326.913 86.8 324.193 86.8H319.753V98.44H323.713V100ZM319.753 73.56V85.24H323.913C325.3 85.24 326.447 85.0533 327.353 84.68C328.287 84.28 329.033 83.7867 329.593 83.2C330.127 82.64 330.5 82.0133 330.713 81.32C330.927 80.6267 331.033 79.96 331.033 79.32C331.033 78.5467 330.847 77.8133 330.473 77.12C330.127 76.4267 329.647 75.8133 329.033 75.28C328.367 74.7733 327.607 74.36 326.753 74.04C325.9 73.72 324.967 73.56 323.953 73.56H319.753ZM343.518 100H335.478V98.44H338.598V73.56H335.478V72H343.518V73.56H340.238V98.44H343.518V100ZM374.018 73.56V101.28L351.858 75.68L351.138 74.76L351.218 75.92V98.44H354.378V100H346.338V98.44H349.578V73.56H346.338V72H350.658L371.738 96.56L372.498 97.6L372.378 96.32V73.56H369.338V72H377.378V73.56H374.018ZM401.726 98.4C400.659 99.0133 399.512 99.5067 398.286 99.88C397.086 100.227 395.806 100.4 394.446 100.4C392.472 100.4 390.619 100.027 388.886 99.28C387.152 98.5333 385.646 97.5067 384.366 96.2C383.059 94.92 382.032 93.4133 381.286 91.68C380.539 89.9467 380.166 88.0933 380.166 86.12C380.166 84.1467 380.539 82.2933 381.286 80.56C382.032 78.8 383.059 77.2667 384.366 75.96C385.646 74.68 387.152 73.6667 388.886 72.92C390.619 72.1467 392.472 71.76 394.446 71.76C395.806 71.76 397.086 71.9333 398.286 72.28C399.512 72.6267 400.672 73.12 401.766 73.76L400.846 75.12C399.912 74.5333 398.899 74.0933 397.806 73.8C396.739 73.48 395.619 73.32 394.446 73.32C392.686 73.32 391.046 73.6667 389.526 74.36C388.006 75.0267 386.672 75.9467 385.526 77.12C384.379 78.2667 383.472 79.6267 382.806 81.2C382.139 82.7467 381.806 84.4 381.806 86.16C381.806 87.8933 382.139 89.5333 382.806 91.08C383.472 92.6267 384.379 93.96 385.526 95.08C386.646 96.2267 387.966 97.1467 389.486 97.84C391.006 98.5067 392.632 98.84 394.366 98.84C395.406 98.84 396.406 98.72 397.366 98.48C398.326 98.24 399.232 97.8933 400.086 97.44V89.64H394.286V88.08H401.726V98.4Z" fill="black"/>
<g filter="url(#filter0_d_218_122)">
<path d="M39.3921 59.2001C33.7972 51.2039 29.9324 33.6323 45.7316 26.3651C61.5308 19.098 72.4822 31.5288 75.2491 43.4876C78.4073 57.1374 66.5845 79.3407 66.5845 79.3407C66.5845 79.3407 44.9871 67.1962 39.3921 59.2001Z" fill="url(#paint0_linear_218_122)"/>
</g>
<path d="M92.3078 73.1325C98.4134 69.0303 105.448 57.0757 95.1874 46.0644C84.9263 35.0531 73.7286 40.6444 68.8373 48.7328C63.2543 57.9648 67.0121 78.8966 67.0121 78.8966C67.0121 78.8966 86.2023 77.2347 92.3078 73.1325Z" fill="url(#paint1_linear_218_122)"/>
<g filter="url(#filter1_d_218_122)">
<path d="M45.484 60.6464C38.4137 57.8242 24.8076 58.6347 23.1661 73.4417C21.5245 88.2486 33.0323 94.5106 42.3236 94.0726C52.9285 93.5726 66.2938 78.6518 66.2938 78.6518C66.2938 78.6518 52.5544 63.4686 45.484 60.6464Z" fill="url(#paint2_linear_218_122)"/>
</g>
<path d="M62.7423 71.3948L63.5774 71.0377L77.6839 94.3274L71.003 97.1839L62.7423 71.3948Z" fill="url(#paint3_linear_218_122)"/>
<path d="M392.763 49.9611L388.084 48.9812L388.244 48.2177L389.438 48.4678L391.988 36.2921L390.794 36.0419L390.954 35.2785L395.28 36.1846C395.881 36.3104 396.422 36.4918 396.903 36.7289C397.385 36.966 397.773 37.2585 398.068 37.6064C398.376 37.9569 398.582 38.3746 398.684 38.8593C398.79 39.331 398.78 39.8669 398.654 40.4672C398.485 41.2764 398.133 41.9452 397.6 42.4738C397.08 43.0052 396.386 43.2957 395.517 43.3453C395.88 43.5029 396.218 43.7099 396.532 43.9664C396.859 44.2257 397.129 44.5276 397.343 44.8721C397.557 45.2166 397.703 45.5944 397.78 46.0057C397.857 46.417 397.847 46.8575 397.749 47.3273C397.625 47.9146 397.394 48.4041 397.053 48.7958C396.728 49.1773 396.346 49.4719 395.907 49.6798C395.44 49.8952 394.929 50.0265 394.374 50.0738C393.835 50.1107 393.298 50.0732 392.763 49.9611ZM391.442 42.9004L390.241 48.6359L392.844 49.1813C393.327 49.2824 393.79 49.318 394.232 49.288C394.687 49.2608 395.104 49.1573 395.482 48.9777C395.842 48.8215 396.15 48.5863 396.406 48.2722C396.676 47.9608 396.86 47.5703 396.958 47.1005C397.065 46.5915 397.045 46.1311 396.9 45.7192C396.771 45.297 396.553 44.9381 396.247 44.6425C395.931 44.331 395.55 44.0674 395.105 43.8515C394.673 43.6384 394.209 43.4799 393.713 43.376L391.442 42.9004ZM392.791 36.4602L391.602 42.137L394.186 42.6782C395.126 42.875 395.919 42.7619 396.566 42.3389C397.229 41.9056 397.653 41.2453 397.839 40.3579C397.94 39.875 397.95 39.441 397.867 39.0558C397.784 38.6707 397.621 38.3436 397.377 38.0747C397.147 37.8085 396.854 37.5836 396.497 37.3999C396.154 37.219 395.753 37.0807 395.297 36.985L392.791 36.4602ZM403.631 45.2287C403.135 45.1248 402.656 45.1335 402.195 45.2549C401.747 45.3789 401.349 45.5885 401.001 45.8834C400.669 46.168 400.406 46.5147 400.211 46.9235C400.019 47.3193 399.922 47.7486 399.921 48.2114C400.882 48.0449 401.835 47.8836 402.781 47.7274C403.742 47.561 404.703 47.3945 405.664 47.228C405.522 46.7351 405.271 46.3079 404.911 45.9463C404.567 45.5745 404.14 45.3353 403.631 45.2287ZM404.974 51.5992C404.569 51.8413 404.132 52.0087 403.663 52.1012C403.194 52.1937 402.705 52.1866 402.196 52.08C401.661 51.9679 401.179 51.7648 400.75 51.4707C400.334 51.1792 399.987 50.8205 399.709 50.3943C399.43 49.9681 399.241 49.5062 399.141 49.0084C399.041 48.5107 399.047 47.9943 399.159 47.4592C399.268 46.9372 399.47 46.4618 399.764 46.033C400.058 45.6042 400.417 45.257 400.84 44.9915C401.264 44.726 401.724 44.5432 402.222 44.4432C402.736 44.3328 403.26 44.3336 403.795 44.4457C404.2 44.5304 404.57 44.6828 404.905 44.9029C405.243 45.1099 405.528 45.374 405.761 45.6952C405.985 45.9875 406.167 46.3252 406.304 46.7082C406.445 47.0782 406.539 47.4726 406.588 47.8914C405.485 48.0828 404.384 48.2676 403.284 48.4459C402.197 48.6269 401.101 48.8196 399.996 49.024C400.124 49.5822 400.397 50.0684 400.814 50.4828C401.231 50.8971 401.747 51.1685 402.36 51.297C402.765 51.3817 403.158 51.3892 403.54 51.3195C403.923 51.2497 404.278 51.1131 404.607 50.9095L404.974 51.5992ZM411.139 53.8102L408.732 53.3059L410.105 46.7482L408.402 46.3915L408.566 45.6085L410.269 45.9652L411.27 41.1888L412.072 41.357L411.072 46.1333L413.342 46.6089L413.178 47.3919L410.908 46.9163L409.694 52.7106L411.299 53.0468L411.139 53.8102ZM422.345 56.1574L420.172 55.7022L420.34 54.8997C420.373 54.7431 420.403 54.5995 420.431 54.469C420.461 54.3255 420.494 54.1689 420.529 53.9992C420.389 54.215 420.197 54.4133 419.955 54.5941C419.728 54.7647 419.467 54.9074 419.17 55.0224C418.858 55.1477 418.515 55.2257 418.141 55.2563C417.779 55.2896 417.403 55.2653 417.012 55.1832C416.464 55.0684 415.975 54.864 415.546 54.5698C415.131 54.2784 414.783 53.9196 414.505 53.4934C414.226 53.0673 414.037 52.6053 413.937 52.1076C413.837 51.6098 413.843 51.0934 413.955 50.5584C414.061 50.0494 414.262 49.5805 414.556 49.1517C414.85 48.7229 415.21 48.3692 415.636 48.0907C416.06 47.8252 416.52 47.6424 417.018 47.5423C417.532 47.4319 418.063 47.4341 418.611 47.5489C419.381 47.7102 420 48.0375 420.469 48.5307C420.94 49.0109 421.234 49.5287 421.349 50.0842C421.407 49.8101 421.472 49.5309 421.545 49.2465C421.621 48.9491 421.702 48.6596 421.788 48.3779L422.434 48.5133L421.057 55.0905L422.505 55.3939L422.345 56.1574ZM418.447 48.3319C418.003 48.239 417.576 48.2312 417.164 48.3085C416.753 48.3859 416.387 48.5407 416.066 48.7732C415.734 48.9898 415.452 49.2644 415.219 49.597C414.999 49.9324 414.845 50.3089 414.757 50.7265C414.665 51.1702 414.663 51.599 414.754 52.013C414.844 52.427 415.011 52.8024 415.253 53.1394C415.473 53.4578 415.744 53.7256 416.066 53.943C416.388 54.1604 416.758 54.3128 417.176 54.4002C417.593 54.4877 418 54.4979 418.395 54.4309C418.793 54.3509 419.158 54.2025 419.49 53.9858C419.834 53.7719 420.123 53.4987 420.356 53.1661C420.605 52.8231 420.775 52.4364 420.865 52.0057C420.955 51.5751 420.954 51.1593 420.861 50.7583C420.783 50.3471 420.636 49.9757 420.42 49.6443C420.19 49.3101 419.907 49.0329 419.572 48.8128C419.239 48.5797 418.864 48.4194 418.447 48.3319Z" fill="black"/>
<rect x="371.742" y="23.5919" width="81" height="30" rx="4.5" transform="rotate(11.83 371.742 23.5919)" stroke="black"/>
<defs>
<filter id="filter0_d_218_122" x="30.5118" y="24.2056" width="49.2735" height="63.1353" filterUnits="userSpaceOnUse" color-interpolation-filters="sRGB">
<feFlood flood-opacity="0" result="BackgroundImageFix"/>
<feColorMatrix in="SourceAlpha" type="matrix" values="0 0 0 0 0 0 0 0 0 0 0 0 0 0 0 0 0 0 127 0" result="hardAlpha"/>
<feOffset dy="4"/>
<feGaussianBlur stdDeviation="2"/>
<feComposite in2="hardAlpha" operator="out"/>
<feColorMatrix type="matrix" values="0 0 0 0 0 0 0 0 0 0 0 0 0 0 0 0 0 0 0.25 0"/>
<feBlend mode="normal" in2="BackgroundImageFix" result="effect1_dropShadow_218_122"/>
<feBlend mode="normal" in="SourceGraphic" in2="effect1_dropShadow_218_122" result="shape"/>
</filter>
<filter id="filter1_d_218_122" x="19.0084" y="59.3574" width="51.2853" height="42.7363" filterUnits="userSpaceOnUse" color-interpolation-filters="sRGB">
<feFlood flood-opacity="0" result="BackgroundImageFix"/>
<feColorMatrix in="SourceAlpha" type="matrix" values="0 0 0 0 0 0 0 0 0 0 0 0 0 0 0 0 0 0 127 0" result="hardAlpha"/>
<feOffset dy="4"/>
<feGaussianBlur stdDeviation="2"/>
<feComposite in2="hardAlpha" operator="out"/>
<feColorMatrix type="matrix" values="0 0 0 0 0 0 0 0 0 0 0 0 0 0 0 0 0 0 0.25 0"/>
<feBlend mode="normal" in2="BackgroundImageFix" result="effect1_dropShadow_218_122"/>
<feBlend mode="normal" in="SourceGraphic" in2="effect1_dropShadow_218_122" result="shape"/>
</filter>
<linearGradient id="paint0_linear_218_122" x1="47.8119" y1="29.6448" x2="69.1683" y2="78.4645" gradientUnits="userSpaceOnUse">
<stop stop-color="#4BC4C9"/>
<stop offset="1" stop-color="#B3D2E6"/>
</linearGradient>
<linearGradient id="paint1_linear_218_122" x1="92.8456" y1="47.8217" x2="63.7883" y2="75.803" gradientUnits="userSpaceOnUse">
<stop stop-color="#4BC4C9"/>
<stop offset="1" stop-color="#B3D2E6"/>
</linearGradient>
<linearGradient id="paint2_linear_218_122" x1="26.0169" y1="74.4208" x2="66.5122" y2="78.227" gradientUnits="userSpaceOnUse">
<stop stop-color="#4BC4C9"/>
<stop offset="1" stop-color="#B3D2E6"/>
</linearGradient>
<linearGradient id="paint3_linear_218_122" x1="63.7444" y1="70.9663" x2="74.3434" y2="95.7557" gradientUnits="userSpaceOnUse">
<stop stop-color="#ABD1E3"/>
<stop offset="1" stop-color="#65C7D1"/>
</linearGradient>
</defs>
</svg>
