<svg width="315" height="295" viewBox="0 0 315 295" fill="none" xmlns="http://www.w3.org/2000/svg">
<g filter="url(#filter0_d_115_6)">
<rect x="4" width="307" height="287" rx="4" fill="white"/>
<path d="M121.598 37.6252C125.201 30.5085 135.277 30.268 139.216 37.2045L153.116 61.686C154.041 63.3153 155.406 64.652 157.054 65.5437L178.24 77.0062C185.367 80.8624 185.188 91.1507 177.931 94.7568L154.535 106.382C152.571 107.358 150.982 108.952 150.013 110.92L139.872 131.512C136.083 139.205 125.003 138.873 121.681 130.967L113.476 111.436C112.513 109.143 110.73 107.291 108.475 106.242L83.671 94.7018C76.1025 91.1805 75.925 80.4839 83.3724 76.7134L105.238 65.6431C107.138 64.6812 108.681 63.1381 109.643 61.2382L121.598 37.6252Z" fill="#B3D2E6"/>
<path d="M175.697 102.625C179.3 95.5085 189.376 95.268 193.315 102.205L198.202 110.812C199.128 112.442 200.492 113.778 202.14 114.67L208.378 118.045C215.505 121.901 215.326 132.19 208.069 135.796L200.733 139.441C198.769 140.417 197.18 142.011 196.212 143.978L193.911 148.65C190.122 156.343 179.042 156.011 175.72 148.105L174.206 144.5C173.242 142.207 171.459 140.355 169.205 139.306L161.671 135.801C154.102 132.28 153.925 121.583 161.372 117.812L167.371 114.776C169.271 113.814 170.814 112.271 171.776 110.371L175.697 102.625Z" fill="#3D6C89"/>
<path d="M193 126.5C193 130.642 189.642 134 185.5 134C181.358 134 178 130.642 178 126.5C178 122.358 181.358 119 185.5 119C189.642 119 193 122.358 193 126.5Z" fill="#B3D2E6"/>
<path d="M125.551 170.28C126.765 170.28 127.791 170.487 128.631 170.9C129.471 171.3 130.111 171.873 130.551 172.62C130.991 173.353 131.211 174.227 131.211 175.24C131.211 175.84 131.118 176.447 130.931 177.06C130.758 177.66 130.471 178.207 130.071 178.7C129.685 179.193 129.158 179.593 128.491 179.9C127.838 180.193 127.031 180.34 126.071 180.34H123.991V185H121.091V170.28H125.551ZM126.051 177.52C126.491 177.52 126.858 177.447 127.151 177.3C127.445 177.14 127.671 176.947 127.831 176.72C128.005 176.48 128.125 176.233 128.191 175.98C128.271 175.727 128.311 175.507 128.311 175.32C128.311 175.173 128.285 174.98 128.231 174.74C128.191 174.487 128.098 174.233 127.951 173.98C127.805 173.727 127.578 173.513 127.271 173.34C126.978 173.167 126.578 173.08 126.071 173.08H123.991V177.52H126.051ZM138.266 170.28C139.186 170.28 140.006 170.4 140.726 170.64C141.446 170.867 142.046 171.2 142.526 171.64C143.02 172.067 143.393 172.587 143.646 173.2C143.9 173.8 144.026 174.48 144.026 175.24C144.026 175.84 143.933 176.44 143.746 177.04C143.573 177.64 143.28 178.187 142.866 178.68C142.466 179.173 141.933 179.573 141.266 179.88C140.6 180.173 139.773 180.32 138.786 180.32H136.706V185H133.806V170.28H138.266ZM138.766 177.52C139.206 177.52 139.573 177.447 139.866 177.3C140.16 177.153 140.386 176.967 140.546 176.74C140.72 176.513 140.84 176.28 140.906 176.04C140.986 175.787 141.026 175.553 141.026 175.34C141.026 175.18 141 174.98 140.946 174.74C140.906 174.487 140.813 174.233 140.666 173.98C140.52 173.727 140.293 173.513 139.986 173.34C139.693 173.167 139.293 173.08 138.786 173.08H136.706V177.52H138.766ZM141.486 179.32L145.126 185H141.746L138.026 179.4L141.486 179.32ZM147.517 170.28H157.557V173.08H150.417V176.22H156.737V179.02H150.417V182.2H157.837V185H147.517V170.28ZM159.838 170.28H169.758V173.08H166.178V185H163.278V173.08H159.838V170.28ZM171.556 170.28H181.476V173.08H177.896V185H174.996V173.08H171.556V170.28ZM188.095 180.42L182.675 170.28H186.255L190.055 177.92L189.195 177.98L192.935 170.28H196.515L190.995 180.42V185H188.095V180.42ZM44.8688 209V194.455H49.7836C50.9199 194.455 51.8527 194.649 52.5819 195.037C53.311 195.42 53.8508 195.948 54.2012 196.621C54.5516 197.293 54.7267 198.058 54.7267 198.915C54.7267 199.772 54.5516 200.532 54.2012 201.195C53.8508 201.857 53.3134 202.378 52.589 202.757C51.8645 203.131 50.9389 203.318 49.812 203.318H45.8347V201.727H49.7551C50.5317 201.727 51.1567 201.614 51.6301 201.386C52.1084 201.159 52.454 200.837 52.6671 200.42C52.8849 199.999 52.9938 199.497 52.9938 198.915C52.9938 198.332 52.8849 197.823 52.6671 197.388C52.4493 196.952 52.1013 196.616 51.623 196.379C51.1448 196.138 50.5127 196.017 49.7267 196.017H46.6301V209H44.8688ZM51.7154 202.466L55.2949 209H53.2495L49.7267 202.466H51.7154ZM61.8912 209.227C60.84 209.227 59.9333 208.995 59.171 208.531C58.4134 208.062 57.8287 207.409 57.4167 206.571C57.0095 205.728 56.8059 204.748 56.8059 203.631C56.8059 202.513 57.0095 201.528 57.4167 200.676C57.8287 199.819 58.4016 199.152 59.1355 198.673C59.8741 198.19 60.7359 197.949 61.7207 197.949C62.2889 197.949 62.85 198.044 63.4039 198.233C63.9579 198.422 64.4622 198.73 64.9167 199.156C65.3713 199.578 65.7335 200.136 66.0034 200.832C66.2733 201.528 66.4082 202.385 66.4082 203.403V204.114H57.9991V202.665H64.7037C64.7037 202.049 64.5806 201.5 64.3343 201.017C64.0929 200.534 63.7472 200.153 63.2974 199.874C62.8523 199.594 62.3268 199.455 61.7207 199.455C61.0531 199.455 60.4754 199.62 59.9877 199.952C59.5048 200.278 59.1331 200.705 58.8727 201.23C58.6123 201.756 58.4821 202.319 58.4821 202.92V203.886C58.4821 204.71 58.6241 205.409 58.9082 205.982C59.197 206.55 59.5971 206.983 60.1085 207.281C60.6199 207.575 61.2141 207.722 61.8912 207.722C62.3315 207.722 62.7292 207.66 63.0843 207.537C63.4442 207.409 63.7543 207.22 64.0147 206.969C64.2752 206.713 64.4764 206.396 64.6184 206.017L66.2377 206.472C66.0673 207.021 65.7808 207.504 65.3784 207.92C64.9759 208.332 64.4788 208.654 63.8869 208.886C63.295 209.114 62.6298 209.227 61.8912 209.227ZM70.6341 194.455V209H68.9579V194.455H70.6341ZM73.704 209V198.091H75.3801V209H73.704ZM74.5563 196.273C74.2296 196.273 73.9479 196.161 73.7111 195.939C73.4791 195.716 73.3631 195.449 73.3631 195.136C73.3631 194.824 73.4791 194.556 73.7111 194.334C73.9479 194.111 74.2296 194 74.5563 194C74.883 194 75.1623 194.111 75.3944 194.334C75.6311 194.556 75.7495 194.824 75.7495 195.136C75.7495 195.449 75.6311 195.716 75.3944 195.939C75.1623 196.161 74.883 196.273 74.5563 196.273ZM86.1774 200.534L84.6717 200.96C84.577 200.709 84.4373 200.465 84.2527 200.229C84.0727 199.987 83.8265 199.788 83.514 199.632C83.2015 199.476 82.8014 199.398 82.3137 199.398C81.6461 199.398 81.0898 199.552 80.6447 199.859C80.2044 200.162 79.9842 200.548 79.9842 201.017C79.9842 201.434 80.1357 201.763 80.4387 202.004C80.7418 202.246 81.2153 202.447 81.8592 202.608L83.4785 203.006C84.4539 203.242 85.1807 203.605 85.6589 204.092C86.1371 204.575 86.3762 205.198 86.3762 205.96C86.3762 206.585 86.1963 207.144 85.8365 207.636C85.4814 208.129 84.9842 208.517 84.345 208.801C83.7058 209.085 82.9624 209.227 82.1149 209.227C81.0022 209.227 80.0813 208.986 79.3521 208.503C78.6229 208.02 78.1613 207.314 77.9672 206.386L79.5581 205.989C79.7096 206.576 79.996 207.016 80.4174 207.31C80.8436 207.603 81.3999 207.75 82.0865 207.75C82.8677 207.75 83.488 207.584 83.9473 207.253C84.4113 206.917 84.6433 206.514 84.6433 206.045C84.6433 205.667 84.5107 205.349 84.2456 205.094C83.9804 204.833 83.5732 204.639 83.024 204.511L81.2058 204.085C80.2067 203.848 79.4728 203.482 79.0041 202.984C78.5401 202.482 78.3081 201.855 78.3081 201.102C78.3081 200.487 78.4809 199.942 78.8265 199.469C79.1769 198.995 79.6528 198.624 80.2541 198.354C80.8601 198.084 81.5467 197.949 82.3137 197.949C83.3933 197.949 84.2408 198.186 84.8564 198.659C85.4766 199.133 85.917 199.758 86.1774 200.534ZM90.5755 202.438V209H88.8993V194.455H90.5755V199.795H90.7175C90.9732 199.232 91.3567 198.785 91.8681 198.453C92.3842 198.117 93.0707 197.949 93.9277 197.949C94.6711 197.949 95.3221 198.098 95.8809 198.396C96.4396 198.69 96.8728 199.142 97.1806 199.753C97.4931 200.359 97.6493 201.131 97.6493 202.068V209H95.9732V202.182C95.9732 201.315 95.7483 200.645 95.2985 200.172C94.8534 199.694 94.2355 199.455 93.4448 199.455C92.8955 199.455 92.4031 199.571 91.9675 199.803C91.5366 200.035 91.1957 200.373 90.9448 200.818C90.6986 201.263 90.5755 201.803 90.5755 202.438ZM111.085 198.091V199.511H105.432V198.091H111.085ZM107.079 195.477H108.756V205.875C108.756 206.348 108.824 206.704 108.961 206.94C109.104 207.172 109.283 207.329 109.501 207.409C109.724 207.485 109.958 207.523 110.204 207.523C110.389 207.523 110.541 207.513 110.659 207.494C110.777 207.471 110.872 207.452 110.943 207.438L111.284 208.943C111.17 208.986 111.012 209.028 110.808 209.071C110.604 209.118 110.346 209.142 110.034 209.142C109.56 209.142 109.096 209.04 108.642 208.837C108.192 208.633 107.818 208.323 107.52 207.906C107.226 207.49 107.079 206.964 107.079 206.33V195.477ZM115.517 202.438V209H113.841V194.455H115.517V199.795H115.659C115.915 199.232 116.298 198.785 116.809 198.453C117.326 198.117 118.012 197.949 118.869 197.949C119.613 197.949 120.264 198.098 120.822 198.396C121.381 198.69 121.814 199.142 122.122 199.753C122.434 200.359 122.591 201.131 122.591 202.068V209H120.915V202.182C120.915 201.315 120.69 200.645 120.24 200.172C119.795 199.694 119.177 199.455 118.386 199.455C117.837 199.455 117.345 199.571 116.909 199.803C116.478 200.035 116.137 200.373 115.886 200.818C115.64 201.263 115.517 201.803 115.517 202.438ZM130.231 209.227C129.18 209.227 128.273 208.995 127.511 208.531C126.753 208.062 126.169 207.409 125.757 206.571C125.349 205.728 125.146 204.748 125.146 203.631C125.146 202.513 125.349 201.528 125.757 200.676C126.169 199.819 126.741 199.152 127.475 198.673C128.214 198.19 129.076 197.949 130.061 197.949C130.629 197.949 131.19 198.044 131.744 198.233C132.298 198.422 132.802 198.73 133.257 199.156C133.711 199.578 134.073 200.136 134.343 200.832C134.613 201.528 134.748 202.385 134.748 203.403V204.114H126.339V202.665H133.044C133.044 202.049 132.92 201.5 132.674 201.017C132.433 200.534 132.087 200.153 131.637 199.874C131.192 199.594 130.667 199.455 130.061 199.455C129.393 199.455 128.815 199.62 128.328 199.952C127.845 200.278 127.473 200.705 127.213 201.23C126.952 201.756 126.822 202.319 126.822 202.92V203.886C126.822 204.71 126.964 205.409 127.248 205.982C127.537 206.55 127.937 206.983 128.448 207.281C128.96 207.575 129.554 207.722 130.231 207.722C130.671 207.722 131.069 207.66 131.424 207.537C131.784 207.409 132.094 207.22 132.355 206.969C132.615 206.713 132.816 206.396 132.958 206.017L134.578 206.472C134.407 207.021 134.121 207.504 133.718 207.92C133.316 208.332 132.819 208.654 132.227 208.886C131.635 209.114 130.97 209.227 130.231 209.227ZM144.599 194.455V209H142.923V194.455H144.599ZM154.544 204.54V198.091H156.22V209H154.544V207.153H154.43C154.175 207.707 153.777 208.179 153.237 208.567C152.697 208.95 152.015 209.142 151.192 209.142C150.51 209.142 149.904 208.993 149.373 208.695C148.843 208.392 148.426 207.937 148.123 207.331C147.82 206.72 147.669 205.951 147.669 205.023V198.091H149.345V204.909C149.345 205.705 149.568 206.339 150.013 206.812C150.462 207.286 151.035 207.523 151.731 207.523C152.148 207.523 152.572 207.416 153.003 207.203C153.438 206.99 153.803 206.663 154.096 206.223C154.395 205.783 154.544 205.222 154.544 204.54ZM167.017 200.534L165.512 200.96C165.417 200.709 165.277 200.465 165.093 200.229C164.913 199.987 164.666 199.788 164.354 199.632C164.041 199.476 163.641 199.398 163.154 199.398C162.486 199.398 161.93 199.552 161.485 199.859C161.044 200.162 160.824 200.548 160.824 201.017C160.824 201.434 160.976 201.763 161.279 202.004C161.582 202.246 162.055 202.447 162.699 202.608L164.318 203.006C165.294 203.242 166.021 203.605 166.499 204.092C166.977 204.575 167.216 205.198 167.216 205.96C167.216 206.585 167.036 207.144 166.676 207.636C166.321 208.129 165.824 208.517 165.185 208.801C164.546 209.085 163.802 209.227 162.955 209.227C161.842 209.227 160.921 208.986 160.192 208.503C159.463 208.02 159.001 207.314 158.807 206.386L160.398 205.989C160.549 206.576 160.836 207.016 161.257 207.31C161.683 207.603 162.24 207.75 162.926 207.75C163.708 207.75 164.328 207.584 164.787 207.253C165.251 206.917 165.483 206.514 165.483 206.045C165.483 205.667 165.351 205.349 165.085 205.094C164.82 204.833 164.413 204.639 163.864 204.511L162.046 204.085C161.047 203.848 160.313 203.482 159.844 202.984C159.38 202.482 159.148 201.855 159.148 201.102C159.148 200.487 159.321 199.942 159.666 199.469C160.017 198.995 160.493 198.624 161.094 198.354C161.7 198.084 162.387 197.949 163.154 197.949C164.233 197.949 165.081 198.186 165.696 198.659C166.316 199.133 166.757 199.758 167.017 200.534ZM171.415 202.438V209H169.739V194.455H171.415V199.795H171.557C171.813 199.232 172.197 198.785 172.708 198.453C173.224 198.117 173.911 197.949 174.768 197.949C175.511 197.949 176.162 198.098 176.721 198.396C177.279 198.69 177.713 199.142 178.02 199.753C178.333 200.359 178.489 201.131 178.489 202.068V209H176.813V202.182C176.813 201.315 176.588 200.645 176.138 200.172C175.693 199.694 175.075 199.455 174.285 199.455C173.735 199.455 173.243 199.571 172.807 199.803C172.376 200.035 172.036 200.373 171.785 200.818C171.538 201.263 171.415 201.803 171.415 202.438ZM196.101 198.091L192.067 209H190.362L186.328 198.091H188.146L191.158 206.784H191.271L194.283 198.091H196.101ZM198.313 209V198.091H199.99V209H198.313ZM199.166 196.273C198.839 196.273 198.557 196.161 198.32 195.939C198.088 195.716 197.972 195.449 197.972 195.136C197.972 194.824 198.088 194.556 198.32 194.334C198.557 194.111 198.839 194 199.166 194C199.492 194 199.772 194.111 200.004 194.334C200.24 194.556 200.359 194.824 200.359 195.136C200.359 195.449 200.24 195.716 200.004 195.939C199.772 196.161 199.492 196.273 199.166 196.273ZM207.633 209.227C206.582 209.227 205.675 208.995 204.913 208.531C204.156 208.062 203.571 207.409 203.159 206.571C202.752 205.728 202.548 204.748 202.548 203.631C202.548 202.513 202.752 201.528 203.159 200.676C203.571 199.819 204.144 199.152 204.878 198.673C205.616 198.19 206.478 197.949 207.463 197.949C208.031 197.949 208.592 198.044 209.146 198.233C209.7 198.422 210.204 198.73 210.659 199.156C211.113 199.578 211.476 200.136 211.746 200.832C212.015 201.528 212.15 202.385 212.15 203.403V204.114H203.741V202.665H210.446C210.446 202.049 210.323 201.5 210.077 201.017C209.835 200.534 209.489 200.153 209.04 199.874C208.595 199.594 208.069 199.455 207.463 199.455C206.795 199.455 206.218 199.62 205.73 199.952C205.247 200.278 204.875 200.705 204.615 201.23C204.354 201.756 204.224 202.319 204.224 202.92V203.886C204.224 204.71 204.366 205.409 204.65 205.982C204.939 206.55 205.339 206.983 205.851 207.281C206.362 207.575 206.956 207.722 207.633 207.722C208.074 207.722 208.471 207.66 208.827 207.537C209.186 207.409 209.497 207.22 209.757 206.969C210.017 206.713 210.219 206.396 210.361 206.017L211.98 206.472C211.809 207.021 211.523 207.504 211.121 207.92C210.718 208.332 210.221 208.654 209.629 208.886C209.037 209.114 208.372 209.227 207.633 209.227ZM217.172 209L213.848 198.091H215.609L217.967 206.443H218.081L220.41 198.091H222.2L224.501 206.415H224.615L226.973 198.091H228.734L225.41 209H223.763L221.376 200.619H221.206L218.819 209H217.172ZM241.319 198.091V199.511H235.666V198.091H241.319ZM237.314 195.477H238.99V205.875C238.99 206.348 239.059 206.704 239.196 206.94C239.338 207.172 239.518 207.329 239.736 207.409C239.958 207.485 240.193 207.523 240.439 207.523C240.623 207.523 240.775 207.513 240.893 207.494C241.012 207.471 241.106 207.452 241.177 207.438L241.518 208.943C241.405 208.986 241.246 209.028 241.042 209.071C240.839 209.118 240.581 209.142 240.268 209.142C239.795 209.142 239.331 209.04 238.876 208.837C238.426 208.633 238.052 208.323 237.754 207.906C237.461 207.49 237.314 206.964 237.314 206.33V195.477ZM245.751 202.438V209H244.075V194.455H245.751V199.795H245.893C246.149 199.232 246.532 198.785 247.044 198.453C247.56 198.117 248.247 197.949 249.104 197.949C249.847 197.949 250.498 198.098 251.057 198.396C251.615 198.69 252.049 199.142 252.356 199.753C252.669 200.359 252.825 201.131 252.825 202.068V209H251.149V202.182C251.149 201.315 250.924 200.645 250.474 200.172C250.029 199.694 249.411 199.455 248.621 199.455C248.071 199.455 247.579 199.571 247.143 199.803C246.712 200.035 246.372 200.373 246.121 200.818C245.874 201.263 245.751 201.803 245.751 202.438ZM259.102 209.256C258.41 209.256 257.783 209.125 257.22 208.865C256.656 208.6 256.209 208.219 255.877 207.722C255.546 207.22 255.38 206.614 255.38 205.903C255.38 205.278 255.503 204.772 255.749 204.384C255.996 203.991 256.325 203.683 256.737 203.46C257.149 203.238 257.603 203.072 258.1 202.963C258.602 202.849 259.106 202.759 259.613 202.693C260.276 202.608 260.813 202.544 261.225 202.501C261.642 202.454 261.945 202.376 262.134 202.267C262.329 202.158 262.426 201.969 262.426 201.699V201.642C262.426 200.941 262.234 200.397 261.85 200.009C261.472 199.62 260.896 199.426 260.124 199.426C259.324 199.426 258.697 199.601 258.242 199.952C257.788 200.302 257.468 200.676 257.284 201.074L255.693 200.506C255.977 199.843 256.356 199.327 256.829 198.957C257.307 198.583 257.828 198.323 258.392 198.176C258.96 198.025 259.518 197.949 260.068 197.949C260.418 197.949 260.82 197.991 261.275 198.077C261.734 198.157 262.177 198.325 262.603 198.581C263.034 198.837 263.392 199.223 263.676 199.739C263.96 200.255 264.102 200.946 264.102 201.812V209H262.426V207.523H262.34C262.227 207.759 262.037 208.013 261.772 208.283C261.507 208.553 261.154 208.782 260.714 208.972C260.274 209.161 259.736 209.256 259.102 209.256ZM259.357 207.75C260.02 207.75 260.579 207.62 261.034 207.359C261.493 207.099 261.838 206.763 262.07 206.351C262.307 205.939 262.426 205.506 262.426 205.051V203.517C262.355 203.602 262.198 203.68 261.957 203.751C261.72 203.818 261.445 203.877 261.133 203.929C260.825 203.976 260.525 204.019 260.231 204.057C259.942 204.09 259.708 204.118 259.528 204.142C259.092 204.199 258.685 204.291 258.306 204.419C257.932 204.542 257.629 204.729 257.397 204.98C257.17 205.226 257.056 205.562 257.056 205.989C257.056 206.571 257.272 207.011 257.703 207.31C258.138 207.603 258.69 207.75 259.357 207.75ZM271.905 198.091V199.511H266.252V198.091H271.905ZM267.9 195.477H269.576V205.875C269.576 206.348 269.644 206.704 269.782 206.94C269.924 207.172 270.104 207.329 270.322 207.409C270.544 207.485 270.778 207.523 271.025 207.523C271.209 207.523 271.361 207.513 271.479 207.494C271.598 207.471 271.692 207.452 271.763 207.438L272.104 208.943C271.991 208.986 271.832 209.028 271.628 209.071C271.425 209.118 271.167 209.142 270.854 209.142C270.381 209.142 269.917 209.04 269.462 208.837C269.012 208.633 268.638 208.323 268.34 207.906C268.046 207.49 267.9 206.964 267.9 206.33V195.477ZM60.0091 226.438V233H58.3329V222.091H59.9522V223.795H60.0943C60.35 223.241 60.7382 222.796 61.2591 222.46C61.7799 222.119 62.4522 221.949 63.2761 221.949C64.0147 221.949 64.661 222.1 65.215 222.403C65.769 222.702 66.1999 223.156 66.5076 223.767C66.8154 224.373 66.9693 225.14 66.9693 226.068V233H65.2931V226.182C65.2931 225.325 65.0706 224.657 64.6255 224.179C64.1805 223.696 63.5697 223.455 62.7931 223.455C62.2581 223.455 61.7799 223.571 61.3585 223.803C60.9418 224.035 60.6127 224.373 60.3713 224.818C60.1298 225.263 60.0091 225.803 60.0091 226.438ZM73.2424 233.256C72.5511 233.256 71.9237 233.125 71.3603 232.865C70.7968 232.6 70.3494 232.219 70.0179 231.722C69.6865 231.22 69.5208 230.614 69.5208 229.903C69.5208 229.278 69.6439 228.772 69.8901 228.384C70.1363 227.991 70.4654 227.683 70.8773 227.46C71.2892 227.238 71.7438 227.072 72.2409 226.963C72.7428 226.849 73.2471 226.759 73.7537 226.693C74.4166 226.608 74.954 226.544 75.3659 226.501C75.7826 226.454 76.0856 226.376 76.275 226.267C76.4692 226.158 76.5662 225.969 76.5662 225.699V225.642C76.5662 224.941 76.3745 224.397 75.9909 224.009C75.6122 223.62 75.0369 223.426 74.2651 223.426C73.4649 223.426 72.8375 223.601 72.383 223.952C71.9284 224.302 71.6088 224.676 71.4242 225.074L69.8333 224.506C70.1174 223.843 70.4962 223.327 70.9696 222.957C71.4479 222.583 71.9687 222.323 72.5321 222.176C73.1003 222.025 73.659 221.949 74.2083 221.949C74.5587 221.949 74.9611 221.991 75.4157 222.077C75.8749 222.157 76.3176 222.325 76.7438 222.581C77.1747 222.837 77.5321 223.223 77.8162 223.739C78.1003 224.255 78.2424 224.946 78.2424 225.812V233H76.5662V231.523H76.481C76.3674 231.759 76.178 232.013 75.9128 232.283C75.6477 232.553 75.2949 232.782 74.8546 232.972C74.4142 233.161 73.8768 233.256 73.2424 233.256ZM73.498 231.75C74.1609 231.75 74.7196 231.62 75.1742 231.359C75.6335 231.099 75.9791 230.763 76.2111 230.351C76.4479 229.939 76.5662 229.506 76.5662 229.051V227.517C76.4952 227.602 76.339 227.68 76.0975 227.751C75.8607 227.818 75.5861 227.877 75.2736 227.929C74.9658 227.976 74.6652 228.019 74.3716 228.057C74.0828 228.09 73.8484 228.118 73.6685 228.142C73.2329 228.199 72.8257 228.291 72.4469 228.419C72.0729 228.542 71.7698 228.729 71.5378 228.98C71.3105 229.226 71.1969 229.562 71.1969 229.989C71.1969 230.571 71.4123 231.011 71.8432 231.31C72.2788 231.603 72.8304 231.75 73.498 231.75ZM86.046 222.091V223.511H80.3926V222.091H86.046ZM82.0403 219.477H83.7164V229.875C83.7164 230.348 83.7851 230.704 83.9224 230.94C84.0645 231.172 84.2444 231.329 84.4622 231.409C84.6847 231.485 84.9191 231.523 85.1653 231.523C85.35 231.523 85.5015 231.513 85.6199 231.494C85.7382 231.471 85.8329 231.452 85.9039 231.438L86.2449 232.943C86.1312 232.986 85.9726 233.028 85.769 233.071C85.5654 233.118 85.3074 233.142 84.9949 233.142C84.5214 233.142 84.0574 233.04 83.6028 232.837C83.153 232.633 82.7789 232.323 82.4806 231.906C82.1871 231.49 82.0403 230.964 82.0403 230.33V219.477ZM95.4423 228.54V222.091H97.1184V233H95.4423V231.153H95.3287C95.073 231.707 94.6752 232.179 94.1355 232.567C93.5957 232.95 92.9139 233.142 92.09 233.142C91.4082 233.142 90.8021 232.993 90.2718 232.695C89.7415 232.392 89.3249 231.937 89.0218 231.331C88.7188 230.72 88.5673 229.951 88.5673 229.023V222.091H90.2434V228.909C90.2434 229.705 90.466 230.339 90.911 230.812C91.3609 231.286 91.9338 231.523 92.6298 231.523C93.0465 231.523 93.4702 231.416 93.9011 231.203C94.3367 230.99 94.7013 230.663 94.9949 230.223C95.2931 229.783 95.4423 229.222 95.4423 228.54ZM100.188 233V222.091H101.808V223.739H101.921C102.12 223.199 102.48 222.761 103.001 222.425C103.522 222.089 104.109 221.92 104.762 221.92C104.885 221.92 105.039 221.923 105.224 221.928C105.409 221.932 105.548 221.939 105.643 221.949V223.653C105.586 223.639 105.456 223.618 105.252 223.589C105.053 223.556 104.843 223.54 104.62 223.54C104.09 223.54 103.616 223.651 103.2 223.874C102.788 224.091 102.461 224.394 102.22 224.783C101.983 225.166 101.865 225.604 101.865 226.097V233H100.188ZM110.84 233.256C110.149 233.256 109.521 233.125 108.958 232.865C108.394 232.6 107.947 232.219 107.616 231.722C107.284 231.22 107.118 230.614 107.118 229.903C107.118 229.278 107.242 228.772 107.488 228.384C107.734 227.991 108.063 227.683 108.475 227.46C108.887 227.238 109.341 227.072 109.839 226.963C110.34 226.849 110.845 226.759 111.351 226.693C112.014 226.608 112.552 226.544 112.964 226.501C113.38 226.454 113.683 226.376 113.873 226.267C114.067 226.158 114.164 225.969 114.164 225.699V225.642C114.164 224.941 113.972 224.397 113.589 224.009C113.21 223.62 112.635 223.426 111.863 223.426C111.063 223.426 110.435 223.601 109.981 223.952C109.526 224.302 109.206 224.676 109.022 225.074L107.431 224.506C107.715 223.843 108.094 223.327 108.567 222.957C109.046 222.583 109.566 222.323 110.13 222.176C110.698 222.025 111.257 221.949 111.806 221.949C112.156 221.949 112.559 221.991 113.013 222.077C113.473 222.157 113.915 222.325 114.341 222.581C114.772 222.837 115.13 223.223 115.414 223.739C115.698 224.255 115.84 224.946 115.84 225.812V233H114.164V231.523H114.079C113.965 231.759 113.776 232.013 113.51 232.283C113.245 232.553 112.893 232.782 112.452 232.972C112.012 233.161 111.474 233.256 110.84 233.256ZM111.096 231.75C111.759 231.75 112.317 231.62 112.772 231.359C113.231 231.099 113.577 230.763 113.809 230.351C114.046 229.939 114.164 229.506 114.164 229.051V227.517C114.093 227.602 113.937 227.68 113.695 227.751C113.458 227.818 113.184 227.877 112.871 227.929C112.564 227.976 112.263 228.019 111.969 228.057C111.68 228.09 111.446 228.118 111.266 228.142C110.831 228.199 110.423 228.291 110.045 228.419C109.671 228.542 109.367 228.729 109.135 228.98C108.908 229.226 108.795 229.562 108.795 229.989C108.795 230.571 109.01 231.011 109.441 231.31C109.876 231.603 110.428 231.75 111.096 231.75ZM120.575 218.455V233H118.899V218.455H120.575ZM125.322 218.455V233H123.645V218.455H125.322ZM129.471 237.091C129.187 237.091 128.934 237.067 128.711 237.02C128.489 236.977 128.335 236.935 128.249 236.892L128.676 235.415C129.083 235.519 129.443 235.557 129.755 235.528C130.068 235.5 130.345 235.36 130.586 235.109C130.832 234.863 131.057 234.463 131.261 233.909L131.573 233.057L127.539 222.091H129.357L132.369 230.784H132.482L135.494 222.091H137.312L132.681 234.591C132.473 235.154 132.215 235.621 131.907 235.99C131.599 236.364 131.242 236.641 130.835 236.821C130.432 237.001 129.978 237.091 129.471 237.091ZM149.723 233.227C148.672 233.227 147.765 232.995 147.003 232.531C146.245 232.062 145.661 231.409 145.249 230.571C144.842 229.728 144.638 228.748 144.638 227.631C144.638 226.513 144.842 225.528 145.249 224.676C145.661 223.819 146.234 223.152 146.968 222.673C147.706 222.19 148.568 221.949 149.553 221.949C150.121 221.949 150.682 222.044 151.236 222.233C151.79 222.422 152.294 222.73 152.749 223.156C153.203 223.578 153.566 224.136 153.835 224.832C154.105 225.528 154.24 226.385 154.24 227.403V228.114H145.831V226.665H152.536C152.536 226.049 152.413 225.5 152.166 225.017C151.925 224.534 151.579 224.153 151.129 223.874C150.684 223.594 150.159 223.455 149.553 223.455C148.885 223.455 148.307 223.62 147.82 223.952C147.337 224.278 146.965 224.705 146.705 225.23C146.444 225.756 146.314 226.319 146.314 226.92V227.886C146.314 228.71 146.456 229.409 146.74 229.982C147.029 230.55 147.429 230.983 147.941 231.281C148.452 231.575 149.046 231.722 149.723 231.722C150.164 231.722 150.561 231.66 150.916 231.537C151.276 231.409 151.586 231.22 151.847 230.969C152.107 230.713 152.308 230.396 152.45 230.017L154.07 230.472C153.899 231.021 153.613 231.504 153.21 231.92C152.808 232.332 152.311 232.654 151.719 232.886C151.127 233.114 150.462 233.227 149.723 233.227ZM158.466 218.455V233H156.79V218.455H158.466ZM166.11 233.227C165.059 233.227 164.152 232.995 163.39 232.531C162.632 232.062 162.047 231.409 161.635 230.571C161.228 229.728 161.025 228.748 161.025 227.631C161.025 226.513 161.228 225.528 161.635 224.676C162.047 223.819 162.62 223.152 163.354 222.673C164.093 222.19 164.955 221.949 165.939 221.949C166.508 221.949 167.069 222.044 167.623 222.233C168.177 222.422 168.681 222.73 169.135 223.156C169.59 223.578 169.952 224.136 170.222 224.832C170.492 225.528 170.627 226.385 170.627 227.403V228.114H162.218V226.665H168.922C168.922 226.049 168.799 225.5 168.553 225.017C168.312 224.534 167.966 224.153 167.516 223.874C167.071 223.594 166.546 223.455 165.939 223.455C165.272 223.455 164.694 223.62 164.206 223.952C163.724 224.278 163.352 224.705 163.091 225.23C162.831 225.756 162.701 226.319 162.701 226.92V227.886C162.701 228.71 162.843 229.409 163.127 229.982C163.416 230.55 163.816 230.983 164.327 231.281C164.839 231.575 165.433 231.722 166.11 231.722C166.55 231.722 166.948 231.66 167.303 231.537C167.663 231.409 167.973 231.22 168.233 230.969C168.494 230.713 168.695 230.396 168.837 230.017L170.456 230.472C170.286 231.021 170 231.504 169.597 231.92C169.195 232.332 168.698 232.654 168.106 232.886C167.514 233.114 166.849 233.227 166.11 233.227ZM181.765 222.091L177.731 233H176.026L171.992 222.091H173.811L176.822 230.784H176.936L179.947 222.091H181.765ZM186.856 233.256C186.164 233.256 185.537 233.125 184.974 232.865C184.41 232.6 183.963 232.219 183.631 231.722C183.3 231.22 183.134 230.614 183.134 229.903C183.134 229.278 183.257 228.772 183.503 228.384C183.75 227.991 184.079 227.683 184.491 227.46C184.903 227.238 185.357 227.072 185.854 226.963C186.356 226.849 186.86 226.759 187.367 226.693C188.03 226.608 188.567 226.544 188.979 226.501C189.396 226.454 189.699 226.376 189.888 226.267C190.082 226.158 190.18 225.969 190.18 225.699V225.642C190.18 224.941 189.988 224.397 189.604 224.009C189.225 223.62 188.65 223.426 187.878 223.426C187.078 223.426 186.451 223.601 185.996 223.952C185.542 224.302 185.222 224.676 185.037 225.074L183.447 224.506C183.731 223.843 184.109 223.327 184.583 222.957C185.061 222.583 185.582 222.323 186.145 222.176C186.714 222.025 187.272 221.949 187.822 221.949C188.172 221.949 188.574 221.991 189.029 222.077C189.488 222.157 189.931 222.325 190.357 222.581C190.788 222.837 191.145 223.223 191.43 223.739C191.714 224.255 191.856 224.946 191.856 225.812V233H190.18V231.523H190.094C189.981 231.759 189.791 232.013 189.526 232.283C189.261 232.553 188.908 232.782 188.468 232.972C188.028 233.161 187.49 233.256 186.856 233.256ZM187.111 231.75C187.774 231.75 188.333 231.62 188.787 231.359C189.247 231.099 189.592 230.763 189.824 230.351C190.061 229.939 190.18 229.506 190.18 229.051V227.517C190.108 227.602 189.952 227.68 189.711 227.751C189.474 227.818 189.199 227.877 188.887 227.929C188.579 227.976 188.278 228.019 187.985 228.057C187.696 228.09 187.462 228.118 187.282 228.142C186.846 228.199 186.439 228.291 186.06 228.419C185.686 228.542 185.383 228.729 185.151 228.98C184.924 229.226 184.81 229.562 184.81 229.989C184.81 230.571 185.026 231.011 185.456 231.31C185.892 231.603 186.444 231.75 187.111 231.75ZM199.659 222.091V223.511H194.006V222.091H199.659ZM195.654 219.477H197.33V229.875C197.33 230.348 197.398 230.704 197.536 230.94C197.678 231.172 197.858 231.329 198.075 231.409C198.298 231.485 198.532 231.523 198.779 231.523C198.963 231.523 199.115 231.513 199.233 231.494C199.352 231.471 199.446 231.452 199.517 231.438L199.858 232.943C199.744 232.986 199.586 233.028 199.382 233.071C199.179 233.118 198.921 233.142 198.608 233.142C198.135 233.142 197.671 233.04 197.216 232.837C196.766 232.633 196.392 232.323 196.094 231.906C195.8 231.49 195.654 230.964 195.654 230.33V219.477ZM206.637 233.227C205.586 233.227 204.679 232.995 203.917 232.531C203.16 232.062 202.575 231.409 202.163 230.571C201.756 229.728 201.552 228.748 201.552 227.631C201.552 226.513 201.756 225.528 202.163 224.676C202.575 223.819 203.148 223.152 203.882 222.673C204.62 222.19 205.482 221.949 206.467 221.949C207.035 221.949 207.596 222.044 208.15 222.233C208.704 222.422 209.208 222.73 209.663 223.156C210.117 223.578 210.48 224.136 210.749 224.832C211.019 225.528 211.154 226.385 211.154 227.403V228.114H202.745V226.665H209.45C209.45 226.049 209.327 225.5 209.08 225.017C208.839 224.534 208.493 224.153 208.044 223.874C207.598 223.594 207.073 223.455 206.467 223.455C205.799 223.455 205.222 223.62 204.734 223.952C204.251 224.278 203.879 224.705 203.619 225.23C203.358 225.756 203.228 226.319 203.228 226.92V227.886C203.228 228.71 203.37 229.409 203.654 229.982C203.943 230.55 204.343 230.983 204.855 231.281C205.366 231.575 205.96 231.722 206.637 231.722C207.078 231.722 207.475 231.66 207.83 231.537C208.19 231.409 208.5 231.22 208.761 230.969C209.021 230.713 209.222 230.396 209.365 230.017L210.984 230.472C210.813 231.021 210.527 231.504 210.124 231.92C209.722 232.332 209.225 232.654 208.633 232.886C208.041 233.114 207.376 233.227 206.637 233.227ZM221.431 224.534L219.926 224.96C219.831 224.709 219.691 224.465 219.507 224.229C219.327 223.987 219.08 223.788 218.768 223.632C218.455 223.476 218.055 223.398 217.568 223.398C216.9 223.398 216.344 223.552 215.899 223.859C215.458 224.162 215.238 224.548 215.238 225.017C215.238 225.434 215.39 225.763 215.693 226.004C215.996 226.246 216.469 226.447 217.113 226.608L218.732 227.006C219.708 227.242 220.435 227.605 220.913 228.092C221.391 228.575 221.63 229.198 221.63 229.96C221.63 230.585 221.45 231.144 221.09 231.636C220.735 232.129 220.238 232.517 219.599 232.801C218.96 233.085 218.216 233.227 217.369 233.227C216.256 233.227 215.335 232.986 214.606 232.503C213.877 232.02 213.415 231.314 213.221 230.386L214.812 229.989C214.963 230.576 215.25 231.016 215.671 231.31C216.097 231.603 216.654 231.75 217.34 231.75C218.122 231.75 218.742 231.584 219.201 231.253C219.665 230.917 219.897 230.514 219.897 230.045C219.897 229.667 219.765 229.349 219.499 229.094C219.234 228.833 218.827 228.639 218.278 228.511L216.46 228.085C215.461 227.848 214.727 227.482 214.258 226.984C213.794 226.482 213.562 225.855 213.562 225.102C213.562 224.487 213.735 223.942 214.08 223.469C214.431 222.995 214.907 222.624 215.508 222.354C216.114 222.084 216.801 221.949 217.568 221.949C218.647 221.949 219.495 222.186 220.11 222.659C220.731 223.133 221.171 223.758 221.431 224.534ZM234.523 222.091V223.511H228.869V222.091H234.523ZM230.517 219.477H232.193V229.875C232.193 230.348 232.262 230.704 232.399 230.94C232.541 231.172 232.721 231.329 232.939 231.409C233.161 231.485 233.396 231.523 233.642 231.523C233.827 231.523 233.978 231.513 234.096 231.494C234.215 231.471 234.309 231.452 234.381 231.438L234.721 232.943C234.608 232.986 234.449 233.028 234.246 233.071C234.042 233.118 233.784 233.142 233.471 233.142C232.998 233.142 232.534 233.04 232.079 232.837C231.63 232.633 231.256 232.323 230.957 231.906C230.664 231.49 230.517 230.964 230.517 230.33V219.477ZM238.954 226.438V233H237.278V218.455H238.954V223.795H239.096C239.352 223.232 239.736 222.785 240.247 222.453C240.763 222.117 241.45 221.949 242.307 221.949C243.05 221.949 243.701 222.098 244.26 222.396C244.818 222.69 245.252 223.142 245.559 223.753C245.872 224.359 246.028 225.131 246.028 226.068V233H244.352V226.182C244.352 225.315 244.127 224.645 243.677 224.172C243.232 223.694 242.614 223.455 241.824 223.455C241.274 223.455 240.782 223.571 240.346 223.803C239.916 224.035 239.575 224.373 239.324 224.818C239.077 225.263 238.954 225.803 238.954 226.438ZM253.669 233.227C252.617 233.227 251.711 232.995 250.948 232.531C250.191 232.062 249.606 231.409 249.194 230.571C248.787 229.728 248.583 228.748 248.583 227.631C248.583 226.513 248.787 225.528 249.194 224.676C249.606 223.819 250.179 223.152 250.913 222.673C251.651 222.19 252.513 221.949 253.498 221.949C254.066 221.949 254.627 222.044 255.181 222.233C255.735 222.422 256.24 222.73 256.694 223.156C257.149 223.578 257.511 224.136 257.781 224.832C258.051 225.528 258.186 226.385 258.186 227.403V228.114H249.776V226.665H256.481C256.481 226.049 256.358 225.5 256.112 225.017C255.87 224.534 255.525 224.153 255.075 223.874C254.63 223.594 254.104 223.455 253.498 223.455C252.83 223.455 252.253 223.62 251.765 223.952C251.282 224.278 250.91 224.705 250.65 225.23C250.39 225.756 250.259 226.319 250.259 226.92V227.886C250.259 228.71 250.401 229.409 250.686 229.982C250.974 230.55 251.374 230.983 251.886 231.281C252.397 231.575 252.991 231.722 253.669 231.722C254.109 231.722 254.507 231.66 254.862 231.537C255.222 231.409 255.532 231.22 255.792 230.969C256.052 230.713 256.254 230.396 256.396 230.017L258.015 230.472C257.845 231.021 257.558 231.504 257.156 231.92C256.753 232.332 256.256 232.654 255.664 232.886C255.072 233.114 254.407 233.227 253.669 233.227ZM84.4213 246.091L80.3873 257H78.6827L74.6486 246.091H76.4668L79.4782 254.784H79.5918L82.6032 246.091H84.4213ZM89.5119 257.256C88.8206 257.256 88.1932 257.125 87.6298 256.865C87.0663 256.6 86.6189 256.219 86.2875 255.722C85.956 255.22 85.7903 254.614 85.7903 253.903C85.7903 253.278 85.9134 252.772 86.1596 252.384C86.4058 251.991 86.7349 251.683 87.1468 251.46C87.5588 251.238 88.0133 251.072 88.5105 250.963C89.0124 250.849 89.5166 250.759 90.0233 250.693C90.6861 250.608 91.2235 250.544 91.6355 250.501C92.0521 250.454 92.3552 250.376 92.5446 250.267C92.7387 250.158 92.8358 249.969 92.8358 249.699V249.642C92.8358 248.941 92.644 248.397 92.2605 248.009C91.8817 247.62 91.3064 247.426 90.5346 247.426C89.7344 247.426 89.1071 247.601 88.6525 247.952C88.198 248.302 87.8784 248.676 87.6937 249.074L86.1028 248.506C86.3869 247.843 86.7657 247.327 87.2392 246.957C87.7174 246.583 88.2382 246.323 88.8017 246.176C89.3699 246.025 89.9286 245.949 90.4778 245.949C90.8282 245.949 91.2306 245.991 91.6852 246.077C92.1445 246.157 92.5872 246.325 93.0133 246.581C93.4442 246.837 93.8017 247.223 94.0858 247.739C94.3699 248.255 94.5119 248.946 94.5119 249.812V257H92.8358V255.523H92.7505C92.6369 255.759 92.4475 256.013 92.1824 256.283C91.9172 256.553 91.5645 256.782 91.1241 256.972C90.6838 257.161 90.1464 257.256 89.5119 257.256ZM89.7676 255.75C90.4305 255.75 90.9892 255.62 91.4437 255.359C91.903 255.099 92.2486 254.763 92.4806 254.351C92.7174 253.939 92.8358 253.506 92.8358 253.051V251.517C92.7647 251.602 92.6085 251.68 92.367 251.751C92.1303 251.818 91.8556 251.877 91.5431 251.929C91.2354 251.976 90.9347 252.019 90.6412 252.057C90.3523 252.09 90.118 252.118 89.938 252.142C89.5024 252.199 89.0952 252.291 88.7164 252.419C88.3424 252.542 88.0394 252.729 87.8074 252.98C87.5801 253.226 87.4664 253.562 87.4664 253.989C87.4664 254.571 87.6819 255.011 88.1127 255.31C88.5484 255.603 89.1 255.75 89.7676 255.75ZM99.2473 242.455V257H97.5712V242.455H99.2473ZM109.192 252.54V246.091H110.868V257H109.192V255.153H109.079C108.823 255.707 108.425 256.179 107.885 256.567C107.346 256.95 106.664 257.142 105.84 257.142C105.158 257.142 104.552 256.993 104.022 256.695C103.492 256.392 103.075 255.937 102.772 255.331C102.469 254.72 102.317 253.951 102.317 253.023V246.091H103.993V252.909C103.993 253.705 104.216 254.339 104.661 254.812C105.111 255.286 105.684 255.523 106.38 255.523C106.796 255.523 107.22 255.416 107.651 255.203C108.087 254.99 108.451 254.663 108.745 254.223C109.043 253.783 109.192 253.222 109.192 252.54ZM118.512 257.227C117.461 257.227 116.554 256.995 115.792 256.531C115.035 256.062 114.45 255.409 114.038 254.571C113.631 253.728 113.427 252.748 113.427 251.631C113.427 250.513 113.631 249.528 114.038 248.676C114.45 247.819 115.023 247.152 115.757 246.673C116.495 246.19 117.357 245.949 118.342 245.949C118.91 245.949 119.471 246.044 120.025 246.233C120.579 246.422 121.083 246.73 121.538 247.156C121.992 247.578 122.355 248.136 122.624 248.832C122.894 249.528 123.029 250.385 123.029 251.403V252.114H114.62V250.665H121.325C121.325 250.049 121.202 249.5 120.955 249.017C120.714 248.534 120.368 248.153 119.919 247.874C119.473 247.594 118.948 247.455 118.342 247.455C117.674 247.455 117.097 247.62 116.609 247.952C116.126 248.278 115.754 248.705 115.494 249.23C115.233 249.756 115.103 250.319 115.103 250.92V251.886C115.103 252.71 115.245 253.409 115.529 253.982C115.818 254.55 116.218 254.983 116.73 255.281C117.241 255.575 117.835 255.722 118.512 255.722C118.953 255.722 119.35 255.66 119.705 255.537C120.065 255.409 120.375 255.22 120.636 254.969C120.896 254.713 121.097 254.396 121.24 254.017L122.859 254.472C122.688 255.021 122.402 255.504 121.999 255.92C121.597 256.332 121.1 256.654 120.508 256.886C119.916 257.114 119.251 257.227 118.512 257.227ZM135.636 257.227C134.651 257.227 133.787 256.993 133.044 256.524C132.305 256.055 131.727 255.4 131.311 254.557C130.899 253.714 130.693 252.729 130.693 251.602C130.693 250.466 130.899 249.474 131.311 248.626C131.727 247.779 132.305 247.121 133.044 246.652C133.787 246.183 134.651 245.949 135.636 245.949C136.621 245.949 137.482 246.183 138.221 246.652C138.964 247.121 139.542 247.779 139.954 248.626C140.371 249.474 140.579 250.466 140.579 251.602C140.579 252.729 140.371 253.714 139.954 254.557C139.542 255.4 138.964 256.055 138.221 256.524C137.482 256.993 136.621 257.227 135.636 257.227ZM135.636 255.722C136.384 255.722 136.999 255.53 137.482 255.146C137.965 254.763 138.323 254.259 138.555 253.634C138.787 253.009 138.903 252.331 138.903 251.602C138.903 250.873 138.787 250.194 138.555 249.564C138.323 248.934 137.965 248.425 137.482 248.037C136.999 247.649 136.384 247.455 135.636 247.455C134.888 247.455 134.272 247.649 133.789 248.037C133.306 248.425 132.949 248.934 132.717 249.564C132.485 250.194 132.369 250.873 132.369 251.602C132.369 252.331 132.485 253.009 132.717 253.634C132.949 254.259 133.306 254.763 133.789 255.146C134.272 255.53 134.888 255.722 135.636 255.722ZM147.996 246.091V247.511H142.115V246.091H147.996ZM143.876 257V244.585C143.876 243.96 144.023 243.439 144.317 243.023C144.61 242.606 144.991 242.294 145.46 242.085C145.929 241.877 146.424 241.773 146.944 241.773C147.356 241.773 147.693 241.806 147.953 241.872C148.213 241.938 148.407 242 148.535 242.057L148.052 243.506C147.967 243.477 147.849 243.442 147.697 243.399C147.55 243.357 147.356 243.335 147.115 243.335C146.561 243.335 146.161 243.475 145.915 243.754C145.673 244.034 145.552 244.443 145.552 244.983V257H143.876ZM160.714 246.091V247.511H155.061V246.091H160.714ZM156.708 243.477H158.384V253.875C158.384 254.348 158.453 254.704 158.59 254.94C158.732 255.172 158.912 255.329 159.13 255.409C159.353 255.485 159.587 255.523 159.833 255.523C160.018 255.523 160.169 255.513 160.288 255.494C160.406 255.471 160.501 255.452 160.572 255.438L160.913 256.943C160.799 256.986 160.641 257.028 160.437 257.071C160.233 257.118 159.975 257.142 159.663 257.142C159.189 257.142 158.725 257.04 158.271 256.837C157.821 256.633 157.447 256.323 157.149 255.906C156.855 255.49 156.708 254.964 156.708 254.33V243.477ZM165.146 250.438V257H163.47V242.455H165.146V247.795H165.288C165.544 247.232 165.927 246.785 166.438 246.453C166.954 246.117 167.641 245.949 168.498 245.949C169.241 245.949 169.892 246.098 170.451 246.396C171.01 246.69 171.443 247.142 171.751 247.753C172.063 248.359 172.22 249.131 172.22 250.068V257H170.544V250.182C170.544 249.315 170.319 248.645 169.869 248.172C169.424 247.694 168.806 247.455 168.015 247.455C167.466 247.455 166.973 247.571 166.538 247.803C166.107 248.035 165.766 248.373 165.515 248.818C165.269 249.263 165.146 249.803 165.146 250.438ZM179.86 257.227C178.809 257.227 177.902 256.995 177.14 256.531C176.382 256.062 175.797 255.409 175.385 254.571C174.978 253.728 174.775 252.748 174.775 251.631C174.775 250.513 174.978 249.528 175.385 248.676C175.797 247.819 176.37 247.152 177.104 246.673C177.843 246.19 178.705 245.949 179.689 245.949C180.258 245.949 180.819 246.044 181.373 246.233C181.927 246.422 182.431 246.73 182.885 247.156C183.34 247.578 183.702 248.136 183.972 248.832C184.242 249.528 184.377 250.385 184.377 251.403V252.114H175.968V250.665H182.672C182.672 250.049 182.549 249.5 182.303 249.017C182.062 248.534 181.716 248.153 181.266 247.874C180.821 247.594 180.296 247.455 179.689 247.455C179.022 247.455 178.444 247.62 177.956 247.952C177.474 248.278 177.102 248.705 176.841 249.23C176.581 249.756 176.451 250.319 176.451 250.92V251.886C176.451 252.71 176.593 253.409 176.877 253.982C177.166 254.55 177.566 254.983 178.077 255.281C178.589 255.575 179.183 255.722 179.86 255.722C180.3 255.722 180.698 255.66 181.053 255.537C181.413 255.409 181.723 255.22 181.983 254.969C182.244 254.713 182.445 254.396 182.587 254.017L184.206 254.472C184.036 255.021 183.75 255.504 183.347 255.92C182.945 256.332 182.448 256.654 181.856 256.886C181.264 257.114 180.599 257.227 179.86 257.227ZM192.552 261.091V246.091H194.171V247.824H194.37C194.493 247.634 194.663 247.393 194.881 247.099C195.104 246.801 195.421 246.536 195.833 246.304C196.25 246.067 196.813 245.949 197.523 245.949C198.442 245.949 199.251 246.179 199.952 246.638C200.653 247.097 201.2 247.748 201.593 248.591C201.986 249.434 202.182 250.428 202.182 251.574C202.182 252.729 201.986 253.731 201.593 254.578C201.2 255.421 200.655 256.074 199.959 256.538C199.263 256.998 198.461 257.227 197.552 257.227C196.851 257.227 196.29 257.111 195.868 256.879C195.447 256.643 195.123 256.375 194.895 256.077C194.668 255.774 194.493 255.523 194.37 255.324H194.228V261.091H192.552ZM194.199 251.545C194.199 252.369 194.32 253.096 194.562 253.726C194.803 254.351 195.156 254.841 195.62 255.196C196.084 255.546 196.652 255.722 197.324 255.722C198.025 255.722 198.61 255.537 199.079 255.168C199.552 254.794 199.907 254.292 200.144 253.662C200.385 253.027 200.506 252.322 200.506 251.545C200.506 250.778 200.388 250.087 200.151 249.472C199.919 248.851 199.566 248.361 199.093 248.001C198.624 247.637 198.035 247.455 197.324 247.455C196.643 247.455 196.07 247.627 195.606 247.973C195.142 248.314 194.791 248.792 194.555 249.408C194.318 250.018 194.199 250.731 194.199 251.545ZM206.415 242.455V257H204.739V242.455H206.415ZM212.695 257.256C212.004 257.256 211.377 257.125 210.813 256.865C210.25 256.6 209.802 256.219 209.471 255.722C209.14 255.22 208.974 254.614 208.974 253.903C208.974 253.278 209.097 252.772 209.343 252.384C209.589 251.991 209.919 251.683 210.33 251.46C210.742 251.238 211.197 251.072 211.694 250.963C212.196 250.849 212.7 250.759 213.207 250.693C213.87 250.608 214.407 250.544 214.819 250.501C215.236 250.454 215.539 250.376 215.728 250.267C215.922 250.158 216.019 249.969 216.019 249.699V249.642C216.019 248.941 215.828 248.397 215.444 248.009C215.065 247.62 214.49 247.426 213.718 247.426C212.918 247.426 212.291 247.601 211.836 247.952C211.382 248.302 211.062 248.676 210.877 249.074L209.286 248.506C209.57 247.843 209.949 247.327 210.423 246.957C210.901 246.583 211.422 246.323 211.985 246.176C212.553 246.025 213.112 245.949 213.661 245.949C214.012 245.949 214.414 245.991 214.869 246.077C215.328 246.157 215.771 246.325 216.197 246.581C216.628 246.837 216.985 247.223 217.269 247.739C217.553 248.255 217.695 248.946 217.695 249.812V257H216.019V255.523H215.934C215.82 255.759 215.631 256.013 215.366 256.283C215.101 256.553 214.748 256.782 214.308 256.972C213.867 257.161 213.33 257.256 212.695 257.256ZM212.951 255.75C213.614 255.75 214.173 255.62 214.627 255.359C215.087 255.099 215.432 254.763 215.664 254.351C215.901 253.939 216.019 253.506 216.019 253.051V251.517C215.948 251.602 215.792 251.68 215.551 251.751C215.314 251.818 215.039 251.877 214.727 251.929C214.419 251.976 214.118 252.019 213.825 252.057C213.536 252.09 213.302 252.118 213.122 252.142C212.686 252.199 212.279 252.291 211.9 252.419C211.526 252.542 211.223 252.729 210.991 252.98C210.764 253.226 210.65 253.562 210.65 253.989C210.65 254.571 210.865 255.011 211.296 255.31C211.732 255.603 212.284 255.75 212.951 255.75ZM225.187 257.227C224.164 257.227 223.283 256.986 222.545 256.503C221.806 256.02 221.238 255.355 220.84 254.507C220.442 253.66 220.243 252.691 220.243 251.602C220.243 250.494 220.447 249.517 220.854 248.669C221.266 247.817 221.839 247.152 222.573 246.673C223.312 246.19 224.173 245.949 225.158 245.949C225.925 245.949 226.617 246.091 227.232 246.375C227.848 246.659 228.352 247.057 228.745 247.568C229.138 248.08 229.382 248.676 229.476 249.358H227.8C227.672 248.861 227.388 248.42 226.948 248.037C226.512 247.649 225.925 247.455 225.187 247.455C224.533 247.455 223.96 247.625 223.468 247.966C222.98 248.302 222.599 248.778 222.324 249.393C222.055 250.004 221.92 250.722 221.92 251.545C221.92 252.388 222.052 253.122 222.317 253.747C222.587 254.372 222.966 254.857 223.454 255.203C223.946 255.549 224.524 255.722 225.187 255.722C225.622 255.722 226.018 255.646 226.373 255.494C226.728 255.343 227.028 255.125 227.275 254.841C227.521 254.557 227.696 254.216 227.8 253.818H229.476C229.382 254.462 229.147 255.042 228.773 255.558C228.404 256.07 227.914 256.477 227.303 256.78C226.697 257.078 225.992 257.227 225.187 257.227ZM236.501 257.227C235.449 257.227 234.543 256.995 233.78 256.531C233.023 256.062 232.438 255.409 232.026 254.571C231.619 253.728 231.415 252.748 231.415 251.631C231.415 250.513 231.619 249.528 232.026 248.676C232.438 247.819 233.011 247.152 233.745 246.673C234.483 246.19 235.345 245.949 236.33 245.949C236.898 245.949 237.459 246.044 238.013 246.233C238.567 246.422 239.072 246.73 239.526 247.156C239.981 247.578 240.343 248.136 240.613 248.832C240.883 249.528 241.018 250.385 241.018 251.403V252.114H232.608V250.665H239.313C239.313 250.049 239.19 249.5 238.944 249.017C238.702 248.534 238.357 248.153 237.907 247.874C237.462 247.594 236.936 247.455 236.33 247.455C235.662 247.455 235.085 247.62 234.597 247.952C234.114 248.278 233.742 248.705 233.482 249.23C233.222 249.756 233.091 250.319 233.091 250.92V251.886C233.091 252.71 233.233 253.409 233.518 253.982C233.806 254.55 234.206 254.983 234.718 255.281C235.229 255.575 235.823 255.722 236.501 255.722C236.941 255.722 237.339 255.66 237.694 255.537C238.054 255.409 238.364 255.22 238.624 254.969C238.885 254.713 239.086 254.396 239.228 254.017L240.847 254.472C240.677 255.021 240.39 255.504 239.988 255.92C239.585 256.332 239.088 256.654 238.496 256.886C237.904 257.114 237.239 257.227 236.501 257.227Z" fill="black"/>
</g>
<defs>
<filter id="filter0_d_115_6" x="0" y="0" width="315" height="295" filterUnits="userSpaceOnUse" color-interpolation-filters="sRGB">
<feFlood flood-opacity="0" result="BackgroundImageFix"/>
<feColorMatrix in="SourceAlpha" type="matrix" values="0 0 0 0 0 0 0 0 0 0 0 0 0 0 0 0 0 0 127 0" result="hardAlpha"/>
<feOffset dy="4"/>
<feGaussianBlur stdDeviation="2"/>
<feComposite in2="hardAlpha" operator="out"/>
<feColorMatrix type="matrix" values="0 0 0 0 0 0 0 0 0 0 0 0 0 0 0 0 0 0 0.25 0"/>
<feBlend mode="normal" in2="BackgroundImageFix" result="effect1_dropShadow_115_6"/>
<feBlend mode="normal" in="SourceGraphic" in2="effect1_dropShadow_115_6" result="shape"/>
</filter>
</defs>
</svg>
