<svg width="316" height="299" viewBox="0 0 316 299" fill="none" xmlns="http://www.w3.org/2000/svg">
<g filter="url(#filter0_d_115_8)">
<rect x="4" width="308" height="291" rx="4" fill="white"/>
<path d="M90.7029 190L97.3429 174.7H97.5029L104.143 190H100.783L96.5429 179.24L98.6429 177.8L93.5629 190H90.7029ZM95.2429 184.68H99.6629L100.683 187.12H94.3429L95.2429 184.68ZM106.289 175.28H115.489V178.08H109.189V181.42H114.649V184.22H109.189V190H106.289V175.28ZM118.281 175.28H127.481V178.08H121.181V181.42H126.641V184.22H121.181V190H118.281V175.28ZM129.373 182.66C129.373 181.647 129.566 180.687 129.953 179.78C130.34 178.873 130.873 178.073 131.553 177.38C132.246 176.673 133.046 176.12 133.953 175.72C134.86 175.32 135.833 175.12 136.873 175.12C137.9 175.12 138.866 175.32 139.773 175.72C140.68 176.12 141.48 176.673 142.173 177.38C142.88 178.073 143.426 178.873 143.813 179.78C144.213 180.687 144.413 181.647 144.413 182.66C144.413 183.7 144.213 184.673 143.813 185.58C143.426 186.487 142.88 187.287 142.173 187.98C141.48 188.66 140.68 189.193 139.773 189.58C138.866 189.967 137.9 190.16 136.873 190.16C135.833 190.16 134.86 189.967 133.953 189.58C133.046 189.193 132.246 188.66 131.553 187.98C130.873 187.287 130.34 186.487 129.953 185.58C129.566 184.673 129.373 183.7 129.373 182.66ZM132.373 182.66C132.373 183.313 132.486 183.927 132.713 184.5C132.953 185.06 133.28 185.56 133.693 186C134.12 186.427 134.606 186.76 135.153 187C135.713 187.24 136.32 187.36 136.973 187.36C137.6 187.36 138.18 187.24 138.713 187C139.26 186.76 139.733 186.427 140.133 186C140.533 185.56 140.846 185.06 141.073 184.5C141.3 183.927 141.413 183.313 141.413 182.66C141.413 181.993 141.293 181.373 141.053 180.8C140.826 180.227 140.506 179.727 140.093 179.3C139.693 178.86 139.22 178.52 138.673 178.28C138.126 178.04 137.533 177.92 136.893 177.92C136.253 177.92 135.66 178.04 135.113 178.28C134.566 178.52 134.086 178.86 133.673 179.3C133.26 179.727 132.94 180.227 132.713 180.8C132.486 181.373 132.373 181.993 132.373 182.66ZM151.764 175.28C152.684 175.28 153.504 175.4 154.224 175.64C154.944 175.867 155.544 176.2 156.024 176.64C156.518 177.067 156.891 177.587 157.144 178.2C157.398 178.8 157.524 179.48 157.524 180.24C157.524 180.84 157.431 181.44 157.244 182.04C157.071 182.64 156.778 183.187 156.364 183.68C155.964 184.173 155.431 184.573 154.764 184.88C154.098 185.173 153.271 185.32 152.284 185.32H150.204V190H147.304V175.28H151.764ZM152.264 182.52C152.704 182.52 153.071 182.447 153.364 182.3C153.658 182.153 153.884 181.967 154.044 181.74C154.218 181.513 154.338 181.28 154.404 181.04C154.484 180.787 154.524 180.553 154.524 180.34C154.524 180.18 154.498 179.98 154.444 179.74C154.404 179.487 154.311 179.233 154.164 178.98C154.018 178.727 153.791 178.513 153.484 178.34C153.191 178.167 152.791 178.08 152.284 178.08H150.204V182.52H152.264ZM154.984 184.32L158.624 190H155.244L151.524 184.4L154.984 184.32ZM161.015 190V175.28H165.415C166.895 175.28 168.155 175.5 169.195 175.94C170.235 176.38 171.069 176.967 171.695 177.7C172.335 178.433 172.802 179.253 173.095 180.16C173.389 181.067 173.535 181.98 173.535 182.9C173.535 183.993 173.335 184.98 172.935 185.86C172.549 186.727 172.015 187.473 171.335 188.1C170.655 188.713 169.869 189.187 168.975 189.52C168.082 189.84 167.135 190 166.135 190H161.015ZM163.915 187.2H165.635C166.369 187.2 167.035 187.107 167.635 186.92C168.235 186.72 168.749 186.433 169.175 186.06C169.615 185.687 169.949 185.22 170.175 184.66C170.415 184.087 170.535 183.433 170.535 182.7C170.535 181.74 170.375 180.96 170.055 180.36C169.749 179.747 169.362 179.273 168.895 178.94C168.442 178.607 167.975 178.38 167.495 178.26C167.015 178.127 166.609 178.06 166.275 178.06H163.915V187.2ZM173.769 190L180.409 174.7H180.569L187.209 190H183.849L179.609 179.24L181.709 177.8L176.629 190H173.769ZM178.309 184.68H182.729L183.749 187.12H177.409L178.309 184.68ZM193.675 175.28C195.208 175.28 196.428 175.593 197.335 176.22C198.242 176.833 198.695 177.753 198.695 178.98C198.695 179.887 198.468 180.647 198.015 181.26C197.575 181.86 196.968 182.313 196.195 182.62C195.435 182.913 194.562 183.06 193.575 183.06L193.115 181.5C194.328 181.5 195.402 181.667 196.335 182C197.282 182.333 198.028 182.813 198.575 183.44C199.122 184.053 199.395 184.793 199.395 185.66C199.395 186.46 199.248 187.14 198.955 187.7C198.675 188.247 198.288 188.693 197.795 189.04C197.315 189.373 196.768 189.62 196.155 189.78C195.542 189.927 194.908 190 194.255 190H189.355V175.28H193.675ZM194.015 181.3C194.588 181.3 195.008 181.127 195.275 180.78C195.555 180.433 195.695 180.04 195.695 179.6C195.695 179.093 195.522 178.713 195.175 178.46C194.842 178.207 194.388 178.08 193.815 178.08H192.255V181.3H194.015ZM194.115 187.3C194.542 187.3 194.928 187.247 195.275 187.14C195.622 187.02 195.895 186.84 196.095 186.6C196.295 186.347 196.395 186.033 196.395 185.66C196.395 185.233 196.275 184.913 196.035 184.7C195.795 184.473 195.482 184.32 195.095 184.24C194.722 184.147 194.328 184.1 193.915 184.1H192.255V187.3H194.115ZM202.304 175.28H205.204V187.2H212.124V190H202.304V175.28ZM215.117 175.28H225.157V178.08H218.017V181.22H224.337V184.02H218.017V187.2H225.437V190H215.117V175.28ZM68.0366 204C67.8803 203.522 67.6744 203.093 67.4187 202.714C67.1677 202.331 66.8671 202.004 66.5167 201.734C66.171 201.464 65.7781 201.259 65.3377 201.116C64.8974 200.974 64.4144 200.903 63.8888 200.903C63.0271 200.903 62.2435 201.126 61.538 201.571C60.8325 202.016 60.2714 202.672 59.8548 203.538C59.4381 204.405 59.2298 205.468 59.2298 206.727C59.2298 207.987 59.4405 209.05 59.8619 209.916C60.2833 210.783 60.8538 211.438 61.5735 211.884C62.2932 212.329 63.1029 212.551 64.0025 212.551C64.8358 212.551 65.5697 212.374 66.2042 212.018C66.8434 211.659 67.3406 211.152 67.6957 210.499C68.0555 209.84 68.2354 209.066 68.2354 208.176L68.7752 208.29H64.4002V206.727H69.94V208.29C69.94 209.488 69.6843 210.529 69.1729 211.415C68.6663 212.3 67.9656 212.987 67.0707 213.474C66.1805 213.957 65.1578 214.199 64.0025 214.199C62.7146 214.199 61.583 213.896 60.6076 213.29C59.637 212.684 58.8794 211.822 58.3349 210.705C57.7951 209.587 57.5252 208.261 57.5252 206.727C57.5252 205.577 57.6791 204.542 57.9869 203.624C58.2994 202.7 58.7397 201.914 59.3079 201.266C59.8761 200.617 60.5484 200.12 61.3249 199.774C62.1014 199.429 62.9561 199.256 63.8888 199.256C64.6559 199.256 65.3709 199.372 66.0337 199.604C66.7013 199.831 67.2956 200.155 67.8164 200.577C68.342 200.993 68.7799 201.493 69.1303 202.075C69.4807 202.653 69.7222 203.295 69.8548 204H68.0366ZM77.3033 214.227C76.2521 214.227 75.3454 213.995 74.5831 213.531C73.8255 213.062 73.2408 212.409 72.8288 211.571C72.4216 210.728 72.218 209.748 72.218 208.631C72.218 207.513 72.4216 206.528 72.8288 205.676C73.2408 204.819 73.8137 204.152 74.5476 203.673C75.2862 203.19 76.148 202.949 77.1328 202.949C77.701 202.949 78.2621 203.044 78.8161 203.233C79.37 203.422 79.8743 203.73 80.3288 204.156C80.7834 204.578 81.1456 205.136 81.4155 205.832C81.6854 206.528 81.8203 207.385 81.8203 208.403V209.114H73.4112V207.665H80.1158C80.1158 207.049 79.9927 206.5 79.7464 206.017C79.505 205.534 79.1593 205.153 78.7095 204.874C78.2644 204.594 77.7389 204.455 77.1328 204.455C76.4652 204.455 75.8875 204.62 75.3999 204.952C74.9169 205.278 74.5452 205.705 74.2848 206.23C74.0244 206.756 73.8942 207.319 73.8942 207.92V208.886C73.8942 209.71 74.0362 210.409 74.3203 210.982C74.6091 211.55 75.0092 211.983 75.5206 212.281C76.032 212.575 76.6262 212.722 77.3033 212.722C77.7436 212.722 78.1413 212.66 78.4964 212.537C78.8563 212.409 79.1664 212.22 79.4268 211.969C79.6873 211.713 79.8885 211.396 80.0305 211.017L81.6499 211.472C81.4794 212.021 81.1929 212.504 80.7905 212.92C80.388 213.332 79.8909 213.654 79.299 213.886C78.7071 214.114 78.0419 214.227 77.3033 214.227ZM89.1143 203.091V204.511H83.4609V203.091H89.1143ZM85.1087 200.477H86.7848V210.875C86.7848 211.348 86.8535 211.704 86.9908 211.94C87.1328 212.172 87.3127 212.329 87.5305 212.409C87.7531 212.485 87.9875 212.523 88.2337 212.523C88.4183 212.523 88.5698 212.513 88.6882 212.494C88.8066 212.471 88.9013 212.452 88.9723 212.438L89.3132 213.943C89.1996 213.986 89.041 214.028 88.8374 214.071C88.6338 214.118 88.3757 214.142 88.0632 214.142C87.5897 214.142 87.1257 214.04 86.6712 213.837C86.2214 213.633 85.8473 213.323 85.549 212.906C85.2554 212.49 85.1087 211.964 85.1087 211.33V200.477ZM102.005 203.091V204.511H96.3516V203.091H102.005ZM97.9993 200.477H99.6754V210.875C99.6754 211.348 99.7441 211.704 99.8814 211.94C100.023 212.172 100.203 212.329 100.421 212.409C100.644 212.485 100.878 212.523 101.124 212.523C101.309 212.523 101.46 212.513 101.579 212.494C101.697 212.471 101.792 212.452 101.863 212.438L102.204 213.943C102.09 213.986 101.932 214.028 101.728 214.071C101.524 214.118 101.266 214.142 100.954 214.142C100.48 214.142 100.016 214.04 99.5618 213.837C99.112 213.633 98.7379 213.323 98.4396 212.906C98.1461 212.49 97.9993 211.964 97.9993 211.33V200.477ZM106.437 207.438V214H104.761V199.455H106.437V204.795H106.579C106.835 204.232 107.218 203.785 107.729 203.453C108.246 203.117 108.932 202.949 109.789 202.949C110.532 202.949 111.183 203.098 111.742 203.396C112.301 203.69 112.734 204.142 113.042 204.753C113.354 205.359 113.511 206.131 113.511 207.068V214H111.835V207.182C111.835 206.315 111.61 205.645 111.16 205.172C110.715 204.694 110.097 204.455 109.306 204.455C108.757 204.455 108.264 204.571 107.829 204.803C107.398 205.035 107.057 205.373 106.806 205.818C106.56 206.263 106.437 206.803 106.437 207.438ZM121.151 214.227C120.1 214.227 119.193 213.995 118.431 213.531C117.673 213.062 117.088 212.409 116.676 211.571C116.269 210.728 116.066 209.748 116.066 208.631C116.066 207.513 116.269 206.528 116.676 205.676C117.088 204.819 117.661 204.152 118.395 203.673C119.134 203.19 119.996 202.949 120.98 202.949C121.549 202.949 122.11 203.044 122.664 203.233C123.218 203.422 123.722 203.73 124.176 204.156C124.631 204.578 124.993 205.136 125.263 205.832C125.533 206.528 125.668 207.385 125.668 208.403V209.114H117.259V207.665H123.963C123.963 207.049 123.84 206.5 123.594 206.017C123.353 205.534 123.007 205.153 122.557 204.874C122.112 204.594 121.587 204.455 120.98 204.455C120.313 204.455 119.735 204.62 119.248 204.952C118.765 205.278 118.393 205.705 118.132 206.23C117.872 206.756 117.742 207.319 117.742 207.92V208.886C117.742 209.71 117.884 210.409 118.168 210.982C118.457 211.55 118.857 211.983 119.368 212.281C119.88 212.575 120.474 212.722 121.151 212.722C121.591 212.722 121.989 212.66 122.344 212.537C122.704 212.409 123.014 212.22 123.275 211.969C123.535 211.713 123.736 211.396 123.878 211.017L125.498 211.472C125.327 212.021 125.041 212.504 124.638 212.92C124.236 213.332 123.739 213.654 123.147 213.886C122.555 214.114 121.89 214.227 121.151 214.227ZM133.843 214V203.091H135.462V204.795H135.604C135.831 204.213 136.198 203.761 136.705 203.439C137.212 203.112 137.82 202.949 138.53 202.949C139.25 202.949 139.849 203.112 140.327 203.439C140.81 203.761 141.186 204.213 141.456 204.795H141.57C141.849 204.232 142.268 203.785 142.827 203.453C143.386 203.117 144.056 202.949 144.837 202.949C145.812 202.949 146.61 203.254 147.23 203.865C147.851 204.471 148.161 205.416 148.161 206.699V214H146.485V206.699C146.485 205.894 146.265 205.319 145.824 204.973C145.384 204.627 144.865 204.455 144.269 204.455C143.502 204.455 142.908 204.687 142.486 205.151C142.065 205.61 141.854 206.192 141.854 206.898V214H140.15V206.528C140.15 205.908 139.948 205.409 139.546 205.03C139.143 204.646 138.625 204.455 137.99 204.455C137.555 204.455 137.148 204.571 136.769 204.803C136.395 205.035 136.092 205.357 135.86 205.768C135.632 206.176 135.519 206.647 135.519 207.182V214H133.843ZM155.657 214.227C154.672 214.227 153.808 213.993 153.065 213.524C152.326 213.055 151.749 212.4 151.332 211.557C150.92 210.714 150.714 209.729 150.714 208.602C150.714 207.466 150.92 206.474 151.332 205.626C151.749 204.779 152.326 204.121 153.065 203.652C153.808 203.183 154.672 202.949 155.657 202.949C156.642 202.949 157.504 203.183 158.243 203.652C158.986 204.121 159.564 204.779 159.975 205.626C160.392 206.474 160.6 207.466 160.6 208.602C160.6 209.729 160.392 210.714 159.975 211.557C159.564 212.4 158.986 213.055 158.243 213.524C157.504 213.993 156.642 214.227 155.657 214.227ZM155.657 212.722C156.405 212.722 157.021 212.53 157.504 212.146C157.987 211.763 158.344 211.259 158.576 210.634C158.808 210.009 158.924 209.331 158.924 208.602C158.924 207.873 158.808 207.194 158.576 206.564C158.344 205.934 157.987 205.425 157.504 205.037C157.021 204.649 156.405 204.455 155.657 204.455C154.909 204.455 154.294 204.649 153.811 205.037C153.328 205.425 152.97 205.934 152.738 206.564C152.506 207.194 152.39 207.873 152.39 208.602C152.39 209.331 152.506 210.009 152.738 210.634C152.97 211.259 153.328 211.763 153.811 212.146C154.294 212.53 154.909 212.722 155.657 212.722ZM170.886 205.534L169.381 205.96C169.286 205.709 169.146 205.465 168.962 205.229C168.782 204.987 168.536 204.788 168.223 204.632C167.911 204.476 167.51 204.398 167.023 204.398C166.355 204.398 165.799 204.552 165.354 204.859C164.913 205.162 164.693 205.548 164.693 206.017C164.693 206.434 164.845 206.763 165.148 207.004C165.451 207.246 165.924 207.447 166.568 207.608L168.188 208.006C169.163 208.242 169.89 208.605 170.368 209.092C170.846 209.575 171.085 210.198 171.085 210.96C171.085 211.585 170.905 212.144 170.545 212.636C170.19 213.129 169.693 213.517 169.054 213.801C168.415 214.085 167.671 214.227 166.824 214.227C165.711 214.227 164.79 213.986 164.061 213.503C163.332 213.02 162.87 212.314 162.676 211.386L164.267 210.989C164.419 211.576 164.705 212.016 165.126 212.31C165.553 212.603 166.109 212.75 166.795 212.75C167.577 212.75 168.197 212.584 168.656 212.253C169.12 211.917 169.352 211.514 169.352 211.045C169.352 210.667 169.22 210.349 168.955 210.094C168.689 209.833 168.282 209.639 167.733 209.511L165.915 209.085C164.916 208.848 164.182 208.482 163.713 207.984C163.249 207.482 163.017 206.855 163.017 206.102C163.017 205.487 163.19 204.942 163.536 204.469C163.886 203.995 164.362 203.624 164.963 203.354C165.569 203.084 166.256 202.949 167.023 202.949C168.102 202.949 168.95 203.186 169.565 203.659C170.186 204.133 170.626 204.758 170.886 205.534ZM178.353 203.091V204.511H172.699V203.091H178.353ZM174.347 200.477H176.023V210.875C176.023 211.348 176.092 211.704 176.229 211.94C176.371 212.172 176.551 212.329 176.769 212.409C176.991 212.485 177.226 212.523 177.472 212.523C177.657 212.523 177.808 212.513 177.926 212.494C178.045 212.471 178.14 212.452 178.211 212.438L178.551 213.943C178.438 213.986 178.279 214.028 178.076 214.071C177.872 214.118 177.614 214.142 177.301 214.142C176.828 214.142 176.364 214.04 175.909 213.837C175.46 213.633 175.086 213.323 174.787 212.906C174.494 212.49 174.347 211.964 174.347 211.33V200.477ZM193.374 209.54V203.091H195.05V214H193.374V212.153H193.26C193.005 212.707 192.607 213.179 192.067 213.567C191.527 213.95 190.846 214.142 190.022 214.142C189.34 214.142 188.734 213.993 188.203 213.695C187.673 213.392 187.257 212.937 186.953 212.331C186.65 211.72 186.499 210.951 186.499 210.023V203.091H188.175V209.909C188.175 210.705 188.398 211.339 188.843 211.812C189.292 212.286 189.865 212.523 190.561 212.523C190.978 212.523 191.402 212.416 191.833 212.203C192.268 211.99 192.633 211.663 192.926 211.223C193.225 210.783 193.374 210.222 193.374 209.54ZM205.847 205.534L204.342 205.96C204.247 205.709 204.107 205.465 203.923 205.229C203.743 204.987 203.496 204.788 203.184 204.632C202.871 204.476 202.471 204.398 201.984 204.398C201.316 204.398 200.76 204.552 200.315 204.859C199.874 205.162 199.654 205.548 199.654 206.017C199.654 206.434 199.806 206.763 200.109 207.004C200.412 207.246 200.885 207.447 201.529 207.608L203.148 208.006C204.124 208.242 204.851 208.605 205.329 209.092C205.807 209.575 206.046 210.198 206.046 210.96C206.046 211.585 205.866 212.144 205.506 212.636C205.151 213.129 204.654 213.517 204.015 213.801C203.376 214.085 202.632 214.227 201.785 214.227C200.672 214.227 199.751 213.986 199.022 213.503C198.293 213.02 197.831 212.314 197.637 211.386L199.228 210.989C199.379 211.576 199.666 212.016 200.087 212.31C200.513 212.603 201.07 212.75 201.756 212.75C202.538 212.75 203.158 212.584 203.617 212.253C204.081 211.917 204.313 211.514 204.313 211.045C204.313 210.667 204.181 210.349 203.915 210.094C203.65 209.833 203.243 209.639 202.694 209.511L200.876 209.085C199.877 208.848 199.143 208.482 198.674 207.984C198.21 207.482 197.978 206.855 197.978 206.102C197.978 205.487 198.151 204.942 198.496 204.469C198.847 203.995 199.323 203.624 199.924 203.354C200.53 203.084 201.217 202.949 201.984 202.949C203.063 202.949 203.911 203.186 204.526 203.659C205.147 204.133 205.587 204.758 205.847 205.534ZM213.143 214.227C212.092 214.227 211.185 213.995 210.423 213.531C209.665 213.062 209.081 212.409 208.669 211.571C208.261 210.728 208.058 209.748 208.058 208.631C208.058 207.513 208.261 206.528 208.669 205.676C209.081 204.819 209.654 204.152 210.387 203.673C211.126 203.19 211.988 202.949 212.973 202.949C213.541 202.949 214.102 203.044 214.656 203.233C215.21 203.422 215.714 203.73 216.169 204.156C216.623 204.578 216.985 205.136 217.255 205.832C217.525 206.528 217.66 207.385 217.66 208.403V209.114H209.251V207.665H215.956C215.956 207.049 215.833 206.5 215.586 206.017C215.345 205.534 214.999 205.153 214.549 204.874C214.104 204.594 213.579 204.455 212.973 204.455C212.305 204.455 211.727 204.62 211.24 204.952C210.757 205.278 210.385 205.705 210.125 206.23C209.864 206.756 209.734 207.319 209.734 207.92V208.886C209.734 209.71 209.876 210.409 210.16 210.982C210.449 211.55 210.849 211.983 211.36 212.281C211.872 212.575 212.466 212.722 213.143 212.722C213.583 212.722 213.981 212.66 214.336 212.537C214.696 212.409 215.006 212.22 215.267 211.969C215.527 211.713 215.728 211.396 215.87 211.017L217.49 211.472C217.319 212.021 217.033 212.504 216.63 212.92C216.228 213.332 215.731 213.654 215.139 213.886C214.547 214.114 213.882 214.227 213.143 214.227ZM225.068 203.091V204.511H219.187V203.091H225.068ZM220.949 214V201.585C220.949 200.96 221.095 200.439 221.389 200.023C221.682 199.606 222.064 199.294 222.532 199.085C223.001 198.877 223.496 198.773 224.017 198.773C224.429 198.773 224.765 198.806 225.025 198.872C225.286 198.938 225.48 199 225.608 199.057L225.125 200.506C225.039 200.477 224.921 200.442 224.77 200.399C224.623 200.357 224.429 200.335 224.187 200.335C223.633 200.335 223.233 200.475 222.987 200.754C222.745 201.034 222.625 201.443 222.625 201.983V214H220.949ZM234.292 209.54V203.091H235.968V214H234.292V212.153H234.178C233.923 212.707 233.525 213.179 232.985 213.567C232.445 213.95 231.763 214.142 230.94 214.142C230.258 214.142 229.652 213.993 229.121 213.695C228.591 213.392 228.174 212.937 227.871 212.331C227.568 211.72 227.417 210.951 227.417 210.023V203.091H229.093V209.909C229.093 210.705 229.316 211.339 229.761 211.812C230.21 212.286 230.783 212.523 231.479 212.523C231.896 212.523 232.32 212.416 232.751 212.203C233.186 211.99 233.551 211.663 233.844 211.223C234.143 210.783 234.292 210.222 234.292 209.54ZM240.714 199.455V214H239.038V199.455H240.714ZM253.528 214.199C252.572 214.199 251.748 214.024 251.057 213.673C250.366 213.323 249.833 212.842 249.459 212.232C249.085 211.621 248.898 210.922 248.898 210.136C248.898 209.53 249.026 208.993 249.281 208.524C249.542 208.051 249.899 207.613 250.354 207.21C250.813 206.803 251.341 206.396 251.938 205.989L254.04 204.426C254.452 204.156 254.781 203.867 255.027 203.56C255.278 203.252 255.403 202.849 255.403 202.352C255.403 201.983 255.24 201.625 254.913 201.28C254.591 200.934 254.168 200.761 253.642 200.761C253.273 200.761 252.946 200.856 252.662 201.045C252.383 201.23 252.162 201.467 252.001 201.756C251.845 202.04 251.767 202.333 251.767 202.636C251.767 202.977 251.859 203.323 252.044 203.673C252.233 204.019 252.473 204.374 252.761 204.739C253.055 205.098 253.358 205.468 253.67 205.847L260.347 214H258.33L252.818 207.352C252.307 206.737 251.843 206.178 251.426 205.676C251.009 205.174 250.678 204.679 250.432 204.192C250.186 203.704 250.062 203.176 250.062 202.608C250.062 201.955 250.207 201.382 250.496 200.889C250.789 200.392 251.199 200.006 251.724 199.732C252.255 199.452 252.875 199.312 253.585 199.312C254.314 199.312 254.942 199.455 255.467 199.739C255.993 200.018 256.398 200.39 256.682 200.854C256.966 201.313 257.108 201.812 257.108 202.352C257.108 203.048 256.935 203.652 256.589 204.163C256.244 204.675 255.773 205.151 255.176 205.591L252.278 207.75C251.625 208.233 251.182 208.702 250.95 209.156C250.718 209.611 250.602 209.937 250.602 210.136C250.602 210.591 250.721 211.015 250.957 211.408C251.194 211.801 251.528 212.118 251.959 212.359C252.39 212.601 252.894 212.722 253.472 212.722C254.021 212.722 254.556 212.606 255.077 212.374C255.598 212.137 256.069 211.796 256.49 211.351C256.916 210.906 257.252 210.371 257.499 209.746C257.75 209.121 257.875 208.418 257.875 207.636H259.494C259.494 208.602 259.383 209.391 259.161 210.001C258.938 210.612 258.687 211.09 258.408 211.436C258.128 211.782 257.903 212.04 257.733 212.21C257.676 212.281 257.624 212.352 257.577 212.423C257.529 212.494 257.477 212.565 257.42 212.636C256.952 213.162 256.36 213.555 255.645 213.815C254.93 214.071 254.224 214.199 253.528 214.199ZM53.2985 238V223.455H54.9746V228.824H55.1167C55.2398 228.634 55.4102 228.393 55.628 228.099C55.8506 227.801 56.1678 227.536 56.5797 227.304C56.9964 227.067 57.5598 226.949 58.2701 226.949C59.1886 226.949 59.9983 227.179 60.699 227.638C61.3998 228.097 61.9467 228.748 62.3397 229.591C62.7327 230.434 62.9292 231.428 62.9292 232.574C62.9292 233.729 62.7327 234.731 62.3397 235.578C61.9467 236.421 61.4022 237.074 60.7061 237.538C60.0101 237.998 59.2076 238.227 58.2985 238.227C57.5977 238.227 57.0366 238.111 56.6152 237.879C56.1938 237.643 55.8695 237.375 55.6422 237.077C55.415 236.774 55.2398 236.523 55.1167 236.324H54.9178V238H53.2985ZM54.9462 232.545C54.9462 233.369 55.0669 234.096 55.3084 234.726C55.5499 235.351 55.9026 235.841 56.3667 236.196C56.8307 236.546 57.3989 236.722 58.0712 236.722C58.772 236.722 59.3567 236.537 59.8255 236.168C60.2989 235.794 60.6541 235.292 60.8908 234.662C61.1323 234.027 61.253 233.322 61.253 232.545C61.253 231.778 61.1346 231.087 60.8979 230.472C60.6659 229.851 60.3132 229.361 59.8397 229.001C59.3709 228.637 58.7814 228.455 58.0712 228.455C57.3894 228.455 56.8165 228.627 56.3525 228.973C55.8884 229.314 55.5381 229.792 55.3013 230.408C55.0646 231.018 54.9462 231.731 54.9462 232.545ZM70.0669 238.227C69.0158 238.227 68.1091 237.995 67.3468 237.531C66.5892 237.062 66.0044 236.409 65.5925 235.571C65.1853 234.728 64.9817 233.748 64.9817 232.631C64.9817 231.513 65.1853 230.528 65.5925 229.676C66.0044 228.819 66.5774 228.152 67.3113 227.673C68.0499 227.19 68.9116 226.949 69.8965 226.949C70.4647 226.949 71.0257 227.044 71.5797 227.233C72.1337 227.422 72.638 227.73 73.0925 228.156C73.5471 228.578 73.9093 229.136 74.1792 229.832C74.449 230.528 74.584 231.385 74.584 232.403V233.114H66.1749V231.665H72.8794C72.8794 231.049 72.7563 230.5 72.5101 230.017C72.2686 229.534 71.923 229.153 71.4732 228.874C71.0281 228.594 70.5025 228.455 69.8965 228.455C69.2289 228.455 68.6512 228.62 68.1635 228.952C67.6806 229.278 67.3089 229.705 67.0485 230.23C66.7881 230.756 66.6578 231.319 66.6578 231.92V232.886C66.6578 233.71 66.7999 234.409 67.084 234.982C67.3728 235.55 67.7729 235.983 68.2843 236.281C68.7956 236.575 69.3899 236.722 70.0669 236.722C70.5073 236.722 70.905 236.66 71.2601 236.537C71.62 236.409 71.9301 236.22 72.1905 235.969C72.4509 235.713 72.6522 235.396 72.7942 235.017L74.4135 235.472C74.2431 236.021 73.9566 236.504 73.5542 236.92C73.1517 237.332 72.6545 237.654 72.0627 237.886C71.4708 238.114 70.8056 238.227 70.0669 238.227ZM80.3439 238.256C79.6526 238.256 79.0253 238.125 78.4618 237.865C77.8984 237.6 77.4509 237.219 77.1195 236.722C76.7881 236.22 76.6223 235.614 76.6223 234.903C76.6223 234.278 76.7454 233.772 76.9917 233.384C77.2379 232.991 77.5669 232.683 77.9789 232.46C78.3908 232.238 78.8453 232.072 79.3425 231.963C79.8444 231.849 80.3487 231.759 80.8553 231.693C81.5182 231.608 82.0556 231.544 82.4675 231.501C82.8842 231.454 83.1872 231.376 83.3766 231.267C83.5707 231.158 83.6678 230.969 83.6678 230.699V230.642C83.6678 229.941 83.476 229.397 83.0925 229.009C82.7137 228.62 82.1384 228.426 81.3667 228.426C80.5665 228.426 79.9391 228.601 79.4846 228.952C79.03 229.302 78.7104 229.676 78.5257 230.074L76.9348 229.506C77.2189 228.843 77.5977 228.327 78.0712 227.957C78.5494 227.583 79.0703 227.323 79.6337 227.176C80.2019 227.025 80.7606 226.949 81.3098 226.949C81.6602 226.949 82.0627 226.991 82.5172 227.077C82.9765 227.157 83.4192 227.325 83.8453 227.581C84.2762 227.837 84.6337 228.223 84.9178 228.739C85.2019 229.255 85.3439 229.946 85.3439 230.812V238H83.6678V236.523H83.5826C83.4689 236.759 83.2795 237.013 83.0144 237.283C82.7492 237.553 82.3965 237.782 81.9561 237.972C81.5158 238.161 80.9784 238.256 80.3439 238.256ZM80.5996 236.75C81.2625 236.75 81.8212 236.62 82.2757 236.359C82.735 236.099 83.0807 235.763 83.3127 235.351C83.5494 234.939 83.6678 234.506 83.6678 234.051V232.517C83.5968 232.602 83.4405 232.68 83.199 232.751C82.9623 232.818 82.6877 232.877 82.3752 232.929C82.0674 232.976 81.7667 233.019 81.4732 233.057C81.1844 233.09 80.95 233.118 80.7701 233.142C80.3345 233.199 79.9273 233.291 79.5485 233.419C79.1744 233.542 78.8714 233.729 78.6394 233.98C78.4121 234.226 78.2985 234.562 78.2985 234.989C78.2985 235.571 78.5139 236.011 78.9448 236.31C79.3804 236.603 79.932 236.75 80.5996 236.75ZM95.2782 233.54V227.091H96.9544V238H95.2782V236.153H95.1646C94.9089 236.707 94.5112 237.179 93.9714 237.567C93.4316 237.95 92.7498 238.142 91.926 238.142C91.2441 238.142 90.6381 237.993 90.1078 237.695C89.5775 237.392 89.1608 236.937 88.8578 236.331C88.5547 235.72 88.4032 234.951 88.4032 234.023V227.091H90.0794V233.909C90.0794 234.705 90.3019 235.339 90.747 235.812C91.1968 236.286 91.7697 236.523 92.4657 236.523C92.8824 236.523 93.3062 236.416 93.737 236.203C94.1726 235.99 94.5372 235.663 94.8308 235.223C95.1291 234.783 95.2782 234.222 95.2782 233.54ZM104.769 227.091V228.511H99.1152V227.091H104.769ZM100.763 224.477H102.439V234.875C102.439 235.348 102.508 235.704 102.645 235.94C102.787 236.172 102.967 236.329 103.185 236.409C103.407 236.485 103.642 236.523 103.888 236.523C104.073 236.523 104.224 236.513 104.343 236.494C104.461 236.471 104.556 236.452 104.627 236.438L104.968 237.943C104.854 237.986 104.695 238.028 104.492 238.071C104.288 238.118 104.03 238.142 103.718 238.142C103.244 238.142 102.78 238.04 102.325 237.837C101.876 237.633 101.502 237.323 101.203 236.906C100.91 236.49 100.763 235.964 100.763 235.33V224.477ZM107.29 238V227.091H108.966V238H107.29ZM108.142 225.273C107.816 225.273 107.534 225.161 107.297 224.939C107.065 224.716 106.949 224.449 106.949 224.136C106.949 223.824 107.065 223.556 107.297 223.334C107.534 223.111 107.816 223 108.142 223C108.469 223 108.748 223.111 108.98 223.334C109.217 223.556 109.335 223.824 109.335 224.136C109.335 224.449 109.217 224.716 108.98 224.939C108.748 225.161 108.469 225.273 108.142 225.273ZM116.894 227.091V228.511H111.013V227.091H116.894ZM112.775 238V225.585C112.775 224.96 112.921 224.439 113.215 224.023C113.509 223.606 113.89 223.294 114.358 223.085C114.827 222.877 115.322 222.773 115.843 222.773C116.255 222.773 116.591 222.806 116.851 222.872C117.112 222.938 117.306 223 117.434 223.057L116.951 224.506C116.866 224.477 116.747 224.442 116.596 224.399C116.449 224.357 116.255 224.335 116.013 224.335C115.459 224.335 115.059 224.475 114.813 224.754C114.572 225.034 114.451 225.443 114.451 225.983V238H112.775ZM126.118 233.54V227.091H127.794V238H126.118V236.153H126.004C125.749 236.707 125.351 237.179 124.811 237.567C124.271 237.95 123.59 238.142 122.766 238.142C122.084 238.142 121.478 237.993 120.948 237.695C120.417 237.392 120.001 236.937 119.698 236.331C119.395 235.72 119.243 234.951 119.243 234.023V227.091H120.919V233.909C120.919 234.705 121.142 235.339 121.587 235.812C122.037 236.286 122.61 236.523 123.306 236.523C123.722 236.523 124.146 236.416 124.577 236.203C125.012 235.99 125.377 235.663 125.671 235.223C125.969 234.783 126.118 234.222 126.118 233.54ZM132.54 223.455V238H130.864V223.455H132.54ZM141.235 242.091V227.091H142.855V228.824H143.053C143.177 228.634 143.347 228.393 143.565 228.099C143.787 227.801 144.105 227.536 144.517 227.304C144.933 227.067 145.497 226.949 146.207 226.949C147.125 226.949 147.935 227.179 148.636 227.638C149.337 228.097 149.883 228.748 150.276 229.591C150.669 230.434 150.866 231.428 150.866 232.574C150.866 233.729 150.669 234.731 150.276 235.578C149.883 236.421 149.339 237.074 148.643 237.538C147.947 237.998 147.144 238.227 146.235 238.227C145.535 238.227 144.973 238.111 144.552 237.879C144.131 237.643 143.806 237.375 143.579 237.077C143.352 236.774 143.177 236.523 143.053 236.324H142.911V242.091H141.235ZM142.883 232.545C142.883 233.369 143.004 234.096 143.245 234.726C143.487 235.351 143.839 235.841 144.303 236.196C144.767 236.546 145.336 236.722 146.008 236.722C146.709 236.722 147.294 236.537 147.762 236.168C148.236 235.794 148.591 235.292 148.828 234.662C149.069 234.027 149.19 233.322 149.19 232.545C149.19 231.778 149.071 231.087 148.835 230.472C148.603 229.851 148.25 229.361 147.776 229.001C147.308 228.637 146.718 228.455 146.008 228.455C145.326 228.455 144.753 228.627 144.289 228.973C143.825 229.314 143.475 229.792 143.238 230.408C143.001 231.018 142.883 231.731 142.883 232.545ZM155.099 223.455V238H153.423V223.455H155.099ZM161.379 238.256C160.688 238.256 160.06 238.125 159.497 237.865C158.934 237.6 158.486 237.219 158.155 236.722C157.823 236.22 157.657 235.614 157.657 234.903C157.657 234.278 157.781 233.772 158.027 233.384C158.273 232.991 158.602 232.683 159.014 232.46C159.426 232.238 159.881 232.072 160.378 231.963C160.88 231.849 161.384 231.759 161.89 231.693C162.553 231.608 163.091 231.544 163.503 231.501C163.919 231.454 164.222 231.376 164.412 231.267C164.606 231.158 164.703 230.969 164.703 230.699V230.642C164.703 229.941 164.511 229.397 164.128 229.009C163.749 228.62 163.174 228.426 162.402 228.426C161.602 228.426 160.974 228.601 160.52 228.952C160.065 229.302 159.746 229.676 159.561 230.074L157.97 229.506C158.254 228.843 158.633 228.327 159.106 227.957C159.585 227.583 160.105 227.323 160.669 227.176C161.237 227.025 161.796 226.949 162.345 226.949C162.695 226.949 163.098 226.991 163.552 227.077C164.012 227.157 164.454 227.325 164.881 227.581C165.311 227.837 165.669 228.223 165.953 228.739C166.237 229.255 166.379 229.946 166.379 230.812V238H164.703V236.523H164.618C164.504 236.759 164.315 237.013 164.05 237.283C163.784 237.553 163.432 237.782 162.991 237.972C162.551 238.161 162.014 238.256 161.379 238.256ZM161.635 236.75C162.298 236.75 162.856 236.62 163.311 236.359C163.77 236.099 164.116 235.763 164.348 235.351C164.585 234.939 164.703 234.506 164.703 234.051V232.517C164.632 232.602 164.476 232.68 164.234 232.751C163.997 232.818 163.723 232.877 163.41 232.929C163.103 232.976 162.802 233.019 162.508 233.057C162.22 233.09 161.985 233.118 161.805 233.142C161.37 233.199 160.962 233.291 160.584 233.419C160.21 233.542 159.907 233.729 159.675 233.98C159.447 234.226 159.334 234.562 159.334 234.989C159.334 235.571 159.549 236.011 159.98 236.31C160.416 236.603 160.967 236.75 161.635 236.75ZM171.115 231.438V238H169.438V227.091H171.058V228.795H171.2C171.455 228.241 171.844 227.796 172.365 227.46C172.885 227.119 173.558 226.949 174.382 226.949C175.12 226.949 175.767 227.1 176.32 227.403C176.874 227.702 177.305 228.156 177.613 228.767C177.921 229.373 178.075 230.14 178.075 231.068V238H176.399V231.182C176.399 230.325 176.176 229.657 175.731 229.179C175.286 228.696 174.675 228.455 173.899 228.455C173.364 228.455 172.885 228.571 172.464 228.803C172.047 229.035 171.718 229.373 171.477 229.818C171.235 230.263 171.115 230.803 171.115 231.438ZM185.882 227.091V228.511H180.229V227.091H185.882ZM181.876 224.477H183.552V234.875C183.552 235.348 183.621 235.704 183.758 235.94C183.9 236.172 184.08 236.329 184.298 236.409C184.521 236.485 184.755 236.523 185.001 236.523C185.186 236.523 185.337 236.513 185.456 236.494C185.574 236.471 185.669 236.452 185.74 236.438L186.081 237.943C185.967 237.986 185.809 238.028 185.605 238.071C185.401 238.118 185.143 238.142 184.831 238.142C184.357 238.142 183.893 238.04 183.439 237.837C182.989 237.633 182.615 237.323 182.317 236.906C182.023 236.49 181.876 235.964 181.876 235.33V224.477ZM195.935 229.534L194.43 229.96C194.335 229.709 194.195 229.465 194.01 229.229C193.831 228.987 193.584 228.788 193.272 228.632C192.959 228.476 192.559 228.398 192.072 228.398C191.404 228.398 190.848 228.552 190.403 228.859C189.962 229.162 189.742 229.548 189.742 230.017C189.742 230.434 189.894 230.763 190.197 231.004C190.5 231.246 190.973 231.447 191.617 231.608L193.236 232.006C194.212 232.242 194.939 232.605 195.417 233.092C195.895 233.575 196.134 234.198 196.134 234.96C196.134 235.585 195.954 236.144 195.594 236.636C195.239 237.129 194.742 237.517 194.103 237.801C193.464 238.085 192.72 238.227 191.873 238.227C190.76 238.227 189.839 237.986 189.11 237.503C188.381 237.02 187.919 236.314 187.725 235.386L189.316 234.989C189.467 235.576 189.754 236.016 190.175 236.31C190.601 236.603 191.158 236.75 191.844 236.75C192.626 236.75 193.246 236.584 193.705 236.253C194.169 235.917 194.401 235.514 194.401 235.045C194.401 234.667 194.269 234.349 194.003 234.094C193.738 233.833 193.331 233.639 192.782 233.511L190.964 233.085C189.965 232.848 189.231 232.482 188.762 231.984C188.298 231.482 188.066 230.855 188.066 230.102C188.066 229.487 188.239 228.942 188.584 228.469C188.935 227.995 189.411 227.624 190.012 227.354C190.618 227.084 191.305 226.949 192.072 226.949C193.151 226.949 193.999 227.186 194.614 227.659C195.234 228.133 195.675 228.758 195.935 229.534ZM209.14 227.091V228.511H203.259V227.091H209.14ZM205.021 238V225.585C205.021 224.96 205.168 224.439 205.461 224.023C205.755 223.606 206.136 223.294 206.605 223.085C207.073 222.877 207.568 222.773 208.089 222.773C208.501 222.773 208.837 222.806 209.097 222.872C209.358 222.938 209.552 223 209.68 223.057L209.197 224.506C209.112 224.477 208.993 224.442 208.842 224.399C208.695 224.357 208.501 224.335 208.259 224.335C207.705 224.335 207.305 224.475 207.059 224.754C206.818 225.034 206.697 225.443 206.697 225.983V238H205.021ZM215.472 238.227C214.487 238.227 213.623 237.993 212.879 237.524C212.141 237.055 211.563 236.4 211.146 235.557C210.735 234.714 210.529 233.729 210.529 232.602C210.529 231.466 210.735 230.474 211.146 229.626C211.563 228.779 212.141 228.121 212.879 227.652C213.623 227.183 214.487 226.949 215.472 226.949C216.457 226.949 217.318 227.183 218.057 227.652C218.8 228.121 219.378 228.779 219.79 229.626C220.207 230.474 220.415 231.466 220.415 232.602C220.415 233.729 220.207 234.714 219.79 235.557C219.378 236.4 218.8 237.055 218.057 237.524C217.318 237.993 216.457 238.227 215.472 238.227ZM215.472 236.722C216.22 236.722 216.835 236.53 217.318 236.146C217.801 235.763 218.159 235.259 218.391 234.634C218.623 234.009 218.739 233.331 218.739 232.602C218.739 231.873 218.623 231.194 218.391 230.564C218.159 229.934 217.801 229.425 217.318 229.037C216.835 228.649 216.22 228.455 215.472 228.455C214.724 228.455 214.108 228.649 213.625 229.037C213.142 229.425 212.785 229.934 212.553 230.564C212.321 231.194 212.205 231.873 212.205 232.602C212.205 233.331 212.321 234.009 212.553 234.634C212.785 235.259 213.142 235.763 213.625 236.146C214.108 236.53 214.724 236.722 215.472 236.722ZM222.974 238V227.091H224.593V228.739H224.706C224.905 228.199 225.265 227.761 225.786 227.425C226.307 227.089 226.894 226.92 227.547 226.92C227.671 226.92 227.824 226.923 228.009 226.928C228.194 226.932 228.333 226.939 228.428 226.949V228.653C228.371 228.639 228.241 228.618 228.037 228.589C227.839 228.556 227.628 228.54 227.405 228.54C226.875 228.54 226.402 228.651 225.985 228.874C225.573 229.091 225.246 229.394 225.005 229.783C224.768 230.166 224.65 230.604 224.65 231.097V238H222.974ZM240.784 227.091V228.511H235.131V227.091H240.784ZM236.779 224.477H238.455V234.875C238.455 235.348 238.523 235.704 238.661 235.94C238.803 236.172 238.983 236.329 239.2 236.409C239.423 236.485 239.657 236.523 239.904 236.523C240.088 236.523 240.24 236.513 240.358 236.494C240.477 236.471 240.571 236.452 240.642 236.438L240.983 237.943C240.869 237.986 240.711 238.028 240.507 238.071C240.304 238.118 240.046 238.142 239.733 238.142C239.26 238.142 238.796 238.04 238.341 237.837C237.891 237.633 237.517 237.323 237.219 236.906C236.925 236.49 236.779 235.964 236.779 235.33V224.477ZM245.216 231.438V238H243.54V223.455H245.216V228.795H245.358C245.614 228.232 245.997 227.785 246.509 227.453C247.025 227.117 247.711 226.949 248.568 226.949C249.312 226.949 249.963 227.098 250.521 227.396C251.08 227.69 251.513 228.142 251.821 228.753C252.134 229.359 252.29 230.131 252.29 231.068V238H250.614V231.182C250.614 230.315 250.389 229.645 249.939 229.172C249.494 228.694 248.876 228.455 248.085 228.455C247.536 228.455 247.044 228.571 246.608 228.803C246.177 229.035 245.836 229.373 245.585 229.818C245.339 230.263 245.216 230.803 245.216 231.438ZM259.93 238.227C258.879 238.227 257.972 237.995 257.21 237.531C256.452 237.062 255.868 236.409 255.456 235.571C255.049 234.728 254.845 233.748 254.845 232.631C254.845 231.513 255.049 230.528 255.456 229.676C255.868 228.819 256.441 228.152 257.175 227.673C257.913 227.19 258.775 226.949 259.76 226.949C260.328 226.949 260.889 227.044 261.443 227.233C261.997 227.422 262.501 227.73 262.956 228.156C263.41 228.578 263.773 229.136 264.042 229.832C264.312 230.528 264.447 231.385 264.447 232.403V233.114H256.038V231.665H262.743C262.743 231.049 262.62 230.5 262.373 230.017C262.132 229.534 261.786 229.153 261.336 228.874C260.891 228.594 260.366 228.455 259.76 228.455C259.092 228.455 258.515 228.62 258.027 228.952C257.544 229.278 257.172 229.705 256.912 230.23C256.651 230.756 256.521 231.319 256.521 231.92V232.886C256.521 233.71 256.663 234.409 256.947 234.982C257.236 235.55 257.636 235.983 258.148 236.281C258.659 236.575 259.253 236.722 259.93 236.722C260.371 236.722 260.768 236.66 261.123 236.537C261.483 236.409 261.793 236.22 262.054 235.969C262.314 235.713 262.515 235.396 262.657 235.017L264.277 235.472C264.106 236.021 263.82 236.504 263.417 236.92C263.015 237.332 262.518 237.654 261.926 237.886C261.334 238.114 260.669 238.227 259.93 238.227ZM112.966 262V247.455H114.643V252.824H114.785C114.908 252.634 115.078 252.393 115.296 252.099C115.519 251.801 115.836 251.536 116.248 251.304C116.664 251.067 117.228 250.949 117.938 250.949C118.857 250.949 119.666 251.179 120.367 251.638C121.068 252.097 121.615 252.748 122.008 253.591C122.401 254.434 122.597 255.428 122.597 256.574C122.597 257.729 122.401 258.731 122.008 259.578C121.615 260.421 121.07 261.074 120.374 261.538C119.678 261.998 118.876 262.227 117.966 262.227C117.266 262.227 116.705 262.111 116.283 261.879C115.862 261.643 115.537 261.375 115.31 261.077C115.083 260.774 114.908 260.523 114.785 260.324H114.586V262H112.966ZM114.614 256.545C114.614 257.369 114.735 258.096 114.976 258.726C115.218 259.351 115.571 259.841 116.035 260.196C116.499 260.546 117.067 260.722 117.739 260.722C118.44 260.722 119.025 260.537 119.493 260.168C119.967 259.794 120.322 259.292 120.559 258.662C120.8 258.027 120.921 257.322 120.921 256.545C120.921 255.778 120.803 255.087 120.566 254.472C120.334 253.851 119.981 253.361 119.508 253.001C119.039 252.637 118.449 252.455 117.739 252.455C117.057 252.455 116.484 252.627 116.02 252.973C115.556 253.314 115.206 253.792 114.969 254.408C114.733 255.018 114.614 255.731 114.614 256.545ZM129.735 262.227C128.684 262.227 127.777 261.995 127.015 261.531C126.257 261.062 125.672 260.409 125.26 259.571C124.853 258.728 124.65 257.748 124.65 256.631C124.65 255.513 124.853 254.528 125.26 253.676C125.672 252.819 126.245 252.152 126.979 251.673C127.718 251.19 128.58 250.949 129.564 250.949C130.133 250.949 130.694 251.044 131.248 251.233C131.802 251.422 132.306 251.73 132.76 252.156C133.215 252.578 133.577 253.136 133.847 253.832C134.117 254.528 134.252 255.385 134.252 256.403V257.114H125.843V255.665H132.547C132.547 255.049 132.424 254.5 132.178 254.017C131.937 253.534 131.591 253.153 131.141 252.874C130.696 252.594 130.171 252.455 129.564 252.455C128.897 252.455 128.319 252.62 127.831 252.952C127.349 253.278 126.977 253.705 126.716 254.23C126.456 254.756 126.326 255.319 126.326 255.92V256.886C126.326 257.71 126.468 258.409 126.752 258.982C127.041 259.55 127.441 259.983 127.952 260.281C128.464 260.575 129.058 260.722 129.735 260.722C130.175 260.722 130.573 260.66 130.928 260.537C131.288 260.409 131.598 260.22 131.858 259.969C132.119 259.713 132.32 259.396 132.462 259.017L134.081 259.472C133.911 260.021 133.625 260.504 133.222 260.92C132.82 261.332 132.323 261.654 131.731 261.886C131.139 262.114 130.474 262.227 129.735 262.227ZM144.529 253.534L143.023 253.96C142.929 253.709 142.789 253.465 142.604 253.229C142.424 252.987 142.178 252.788 141.866 252.632C141.553 252.476 141.153 252.398 140.665 252.398C139.998 252.398 139.441 252.552 138.996 252.859C138.556 253.162 138.336 253.548 138.336 254.017C138.336 254.434 138.487 254.763 138.79 255.004C139.093 255.246 139.567 255.447 140.211 255.608L141.83 256.006C142.805 256.242 143.532 256.605 144.01 257.092C144.489 257.575 144.728 258.198 144.728 258.96C144.728 259.585 144.548 260.144 144.188 260.636C143.833 261.129 143.336 261.517 142.697 261.801C142.057 262.085 141.314 262.227 140.466 262.227C139.354 262.227 138.433 261.986 137.704 261.503C136.974 261.02 136.513 260.314 136.319 259.386L137.91 258.989C138.061 259.576 138.348 260.016 138.769 260.31C139.195 260.603 139.751 260.75 140.438 260.75C141.219 260.75 141.84 260.584 142.299 260.253C142.763 259.917 142.995 259.514 142.995 259.045C142.995 258.667 142.862 258.349 142.597 258.094C142.332 257.833 141.925 257.639 141.376 257.511L139.557 257.085C138.558 256.848 137.824 256.482 137.356 255.984C136.892 255.482 136.66 254.855 136.66 254.102C136.66 253.487 136.832 252.942 137.178 252.469C137.528 251.995 138.004 251.624 138.606 251.354C139.212 251.084 139.898 250.949 140.665 250.949C141.745 250.949 142.592 251.186 143.208 251.659C143.828 252.133 144.269 252.758 144.529 253.534ZM151.995 251.091V252.511H146.342V251.091H151.995ZM147.99 248.477H149.666V258.875C149.666 259.348 149.734 259.704 149.872 259.94C150.014 260.172 150.194 260.329 150.411 260.409C150.634 260.485 150.868 260.523 151.115 260.523C151.299 260.523 151.451 260.513 151.569 260.494C151.687 260.471 151.782 260.452 151.853 260.438L152.194 261.943C152.08 261.986 151.922 262.028 151.718 262.071C151.515 262.118 151.257 262.142 150.944 262.142C150.471 262.142 150.007 262.04 149.552 261.837C149.102 261.633 148.728 261.323 148.43 260.906C148.136 260.49 147.99 259.964 147.99 259.33V248.477ZM160.142 266.091V251.091H161.761V252.824H161.96C162.083 252.634 162.253 252.393 162.471 252.099C162.694 251.801 163.011 251.536 163.423 251.304C163.839 251.067 164.403 250.949 165.113 250.949C166.032 250.949 166.841 251.179 167.542 251.638C168.243 252.097 168.79 252.748 169.183 253.591C169.576 254.434 169.772 255.428 169.772 256.574C169.772 257.729 169.576 258.731 169.183 259.578C168.79 260.421 168.245 261.074 167.549 261.538C166.853 261.998 166.051 262.227 165.142 262.227C164.441 262.227 163.88 262.111 163.458 261.879C163.037 261.643 162.713 261.375 162.485 261.077C162.258 260.774 162.083 260.523 161.96 260.324H161.818V266.091H160.142ZM161.789 256.545C161.789 257.369 161.91 258.096 162.151 258.726C162.393 259.351 162.746 259.841 163.21 260.196C163.674 260.546 164.242 260.722 164.914 260.722C165.615 260.722 166.2 260.537 166.669 260.168C167.142 259.794 167.497 259.292 167.734 258.662C167.975 258.027 168.096 257.322 168.096 256.545C168.096 255.778 167.978 255.087 167.741 254.472C167.509 253.851 167.156 253.361 166.683 253.001C166.214 252.637 165.624 252.455 164.914 252.455C164.232 252.455 163.66 252.627 163.195 252.973C162.731 253.314 162.381 253.792 162.144 254.408C161.908 255.018 161.789 255.731 161.789 256.545ZM172.329 262V251.091H173.948V252.739H174.062C174.261 252.199 174.621 251.761 175.142 251.425C175.662 251.089 176.249 250.92 176.903 250.92C177.026 250.92 177.18 250.923 177.365 250.928C177.549 250.932 177.689 250.939 177.784 250.949V252.653C177.727 252.639 177.597 252.618 177.393 252.589C177.194 252.556 176.983 252.54 176.761 252.54C176.231 252.54 175.757 252.651 175.34 252.874C174.928 253.091 174.602 253.394 174.36 253.783C174.124 254.166 174.005 254.604 174.005 255.097V262H172.329ZM179.77 262V251.091H181.447V262H179.77ZM180.623 249.273C180.296 249.273 180.014 249.161 179.778 248.939C179.546 248.716 179.43 248.449 179.43 248.136C179.43 247.824 179.546 247.556 179.778 247.334C180.014 247.111 180.296 247 180.623 247C180.949 247 181.229 247.111 181.461 247.334C181.698 247.556 181.816 247.824 181.816 248.136C181.816 248.449 181.698 248.716 181.461 248.939C181.229 249.161 180.949 249.273 180.623 249.273ZM188.948 262.227C187.926 262.227 187.045 261.986 186.306 261.503C185.568 261.02 184.999 260.355 184.602 259.507C184.204 258.66 184.005 257.691 184.005 256.602C184.005 255.494 184.209 254.517 184.616 253.669C185.028 252.817 185.601 252.152 186.335 251.673C187.073 251.19 187.935 250.949 188.92 250.949C189.687 250.949 190.378 251.091 190.994 251.375C191.609 251.659 192.114 252.057 192.507 252.568C192.9 253.08 193.143 253.676 193.238 254.358H191.562C191.434 253.861 191.15 253.42 190.71 253.037C190.274 252.649 189.687 252.455 188.948 252.455C188.295 252.455 187.722 252.625 187.23 252.966C186.742 253.302 186.361 253.778 186.086 254.393C185.816 255.004 185.681 255.722 185.681 256.545C185.681 257.388 185.814 258.122 186.079 258.747C186.349 259.372 186.728 259.857 187.215 260.203C187.708 260.549 188.285 260.722 188.948 260.722C189.384 260.722 189.779 260.646 190.134 260.494C190.49 260.343 190.79 260.125 191.036 259.841C191.283 259.557 191.458 259.216 191.562 258.818H193.238C193.143 259.462 192.909 260.042 192.535 260.558C192.166 261.07 191.676 261.477 191.065 261.78C190.459 262.078 189.753 262.227 188.948 262.227ZM200.262 262.227C199.211 262.227 198.304 261.995 197.542 261.531C196.785 261.062 196.2 260.409 195.788 259.571C195.381 258.728 195.177 257.748 195.177 256.631C195.177 255.513 195.381 254.528 195.788 253.676C196.2 252.819 196.773 252.152 197.507 251.673C198.245 251.19 199.107 250.949 200.092 250.949C200.66 250.949 201.221 251.044 201.775 251.233C202.329 251.422 202.833 251.73 203.288 252.156C203.742 252.578 204.105 253.136 204.374 253.832C204.644 254.528 204.779 255.385 204.779 256.403V257.114H196.37V255.665H203.075C203.075 255.049 202.952 254.5 202.705 254.017C202.464 253.534 202.118 253.153 201.669 252.874C201.223 252.594 200.698 252.455 200.092 252.455C199.424 252.455 198.847 252.62 198.359 252.952C197.876 253.278 197.504 253.705 197.244 254.23C196.983 254.756 196.853 255.319 196.853 255.92V256.886C196.853 257.71 196.995 258.409 197.279 258.982C197.568 259.55 197.968 259.983 198.48 260.281C198.991 260.575 199.585 260.722 200.262 260.722C200.703 260.722 201.1 260.66 201.455 260.537C201.815 260.409 202.125 260.22 202.386 259.969C202.646 259.713 202.847 259.396 202.99 259.017L204.609 259.472C204.438 260.021 204.152 260.504 203.749 260.92C203.347 261.332 202.85 261.654 202.258 261.886C201.666 262.114 201.001 262.227 200.262 262.227Z" fill="black"/>
<path d="M124.3 125.478C169.447 140.953 183.126 121.458 180.257 105.919C175.353 79.3624 126.441 97.7016 128.475 71.3141C130.509 44.9265 167.78 52.3559 184.111 55.921" stroke="#B3D2E6" stroke-width="17" stroke-linecap="round"/>
<line x1="162.021" y1="39.465" x2="149.465" y2="142.59" stroke="#B3D2E6" stroke-width="17" stroke-linecap="round"/>
</g>
<defs>
<filter id="filter0_d_115_8" x="0" y="0" width="316" height="299" filterUnits="userSpaceOnUse" color-interpolation-filters="sRGB">
<feFlood flood-opacity="0" result="BackgroundImageFix"/>
<feColorMatrix in="SourceAlpha" type="matrix" values="0 0 0 0 0 0 0 0 0 0 0 0 0 0 0 0 0 0 127 0" result="hardAlpha"/>
<feOffset dy="4"/>
<feGaussianBlur stdDeviation="2"/>
<feComposite in2="hardAlpha" operator="out"/>
<feColorMatrix type="matrix" values="0 0 0 0 0 0 0 0 0 0 0 0 0 0 0 0 0 0 0.25 0"/>
<feBlend mode="normal" in2="BackgroundImageFix" result="effect1_dropShadow_115_8"/>
<feBlend mode="normal" in="SourceGraphic" in2="effect1_dropShadow_115_8" result="shape"/>
</filter>
</defs>
</svg>
