<svg width="315" height="295" viewBox="0 0 315 295" fill="none" xmlns="http://www.w3.org/2000/svg">
<g filter="url(#filter0_d_109_17)">
<g clip-path="url(#clip0_109_17)">
<rect x="4" width="307" height="287" rx="4" fill="white"/>
<path d="M126.155 194V179.455H135.956V181.99H129.23V185.456H135.452V187.991H129.23V191.464H135.984V194H126.155ZM143.557 194H138.401V179.455H143.6C145.063 179.455 146.322 179.746 147.378 180.328C148.434 180.906 149.246 181.737 149.814 182.821C150.387 183.905 150.674 185.203 150.674 186.713C150.674 188.228 150.387 189.53 149.814 190.619C149.246 191.708 148.429 192.544 147.364 193.126C146.303 193.709 145.034 194 143.557 194ZM141.476 191.365H143.429C144.338 191.365 145.103 191.204 145.723 190.882C146.348 190.555 146.817 190.051 147.13 189.369C147.447 188.683 147.605 187.797 147.605 186.713C147.605 185.638 147.447 184.76 147.13 184.078C146.817 183.396 146.351 182.894 145.73 182.572C145.11 182.25 144.346 182.089 143.436 182.089H141.476V191.365ZM156.027 179.455V194H152.952V179.455H156.027ZM158.557 194V179.455H164.381C165.451 179.455 166.344 179.613 167.059 179.93C167.774 180.248 168.311 180.688 168.671 181.251C169.031 181.81 169.211 182.454 169.211 183.183C169.211 183.751 169.097 184.251 168.87 184.682C168.642 185.108 168.33 185.458 167.932 185.733C167.539 186.003 167.089 186.195 166.583 186.308V186.45C167.137 186.474 167.655 186.63 168.138 186.919C168.626 187.208 169.021 187.613 169.324 188.134C169.627 188.65 169.779 189.265 169.779 189.98C169.779 190.752 169.587 191.441 169.203 192.047C168.825 192.648 168.264 193.124 167.52 193.474C166.777 193.825 165.861 194 164.772 194H158.557ZM161.632 191.486H164.14C164.997 191.486 165.622 191.322 166.015 190.996C166.408 190.664 166.604 190.224 166.604 189.675C166.604 189.272 166.507 188.917 166.313 188.609C166.119 188.302 165.842 188.06 165.482 187.885C165.127 187.71 164.703 187.622 164.211 187.622H161.632V191.486ZM161.632 185.541H163.912C164.334 185.541 164.708 185.468 165.034 185.321C165.366 185.17 165.626 184.956 165.816 184.682C166.01 184.407 166.107 184.078 166.107 183.695C166.107 183.169 165.92 182.745 165.546 182.423C165.176 182.101 164.651 181.94 163.969 181.94H161.632V185.541ZM171.78 194V179.455H174.855V191.464H181.091V194H171.78ZM183.127 194V179.455H192.929V181.99H186.203V185.456H192.424V187.991H186.203V191.464H192.957V194H183.127ZM52.2184 218V203.455H53.9798V209.932H61.7354V203.455H63.4968V218H61.7354V211.494H53.9798V218H52.2184ZM70.006 218.256C69.3147 218.256 68.6874 218.125 68.1239 217.865C67.5605 217.6 67.113 217.219 66.7816 216.722C66.4502 216.22 66.2844 215.614 66.2844 214.903C66.2844 214.278 66.4076 213.772 66.6538 213.384C66.9 212.991 67.229 212.683 67.641 212.46C68.0529 212.238 68.5075 212.072 69.0046 211.963C69.5065 211.849 70.0108 211.759 70.5174 211.693C71.1803 211.608 71.7177 211.544 72.1296 211.501C72.5463 211.454 72.8493 211.376 73.0387 211.267C73.2328 211.158 73.3299 210.969 73.3299 210.699V210.642C73.3299 209.941 73.1381 209.397 72.7546 209.009C72.3758 208.62 71.8005 208.426 71.0288 208.426C70.2286 208.426 69.6012 208.601 69.1467 208.952C68.6921 209.302 68.3725 209.676 68.1879 210.074L66.5969 209.506C66.881 208.843 67.2598 208.327 67.7333 207.957C68.2115 207.583 68.7324 207.323 69.2958 207.176C69.864 207.025 70.4227 206.949 70.9719 206.949C71.3223 206.949 71.7248 206.991 72.1793 207.077C72.6386 207.157 73.0813 207.325 73.5075 207.581C73.9383 207.837 74.2958 208.223 74.5799 208.739C74.864 209.255 75.006 209.946 75.006 210.812V218H73.3299V216.523H73.2447C73.131 216.759 72.9416 217.013 72.6765 217.283C72.4113 217.553 72.0586 217.782 71.6183 217.972C71.1779 218.161 70.6405 218.256 70.006 218.256ZM70.2617 216.75C70.9246 216.75 71.4833 216.62 71.9379 216.359C72.3971 216.099 72.7428 215.763 72.9748 215.351C73.2115 214.939 73.3299 214.506 73.3299 214.051V212.517C73.2589 212.602 73.1026 212.68 72.8612 212.751C72.6244 212.818 72.3498 212.877 72.0373 212.929C71.7295 212.976 71.4289 213.019 71.1353 213.057C70.8465 213.09 70.6121 213.118 70.4322 213.142C69.9966 213.199 69.5894 213.291 69.2106 213.419C68.8365 213.542 68.5335 213.729 68.3015 213.98C68.0742 214.226 67.9606 214.562 67.9606 214.989C67.9606 215.571 68.176 216.011 68.6069 216.31C69.0425 216.603 69.5941 216.75 70.2617 216.75ZM86.5952 207.091L82.5611 218H80.8565L76.8224 207.091H78.6406L81.652 215.784H81.7656L84.777 207.091H86.5952ZM92.9908 218.227C91.9396 218.227 91.0329 217.995 90.2706 217.531C89.513 217.062 88.9283 216.409 88.5163 215.571C88.1091 214.728 87.9055 213.748 87.9055 212.631C87.9055 211.513 88.1091 210.528 88.5163 209.676C88.9283 208.819 89.5012 208.152 90.2351 207.673C90.9737 207.19 91.8355 206.949 92.8203 206.949C93.3885 206.949 93.9496 207.044 94.5036 207.233C95.0575 207.422 95.5618 207.73 96.0163 208.156C96.4709 208.578 96.8331 209.136 97.103 209.832C97.3729 210.528 97.5078 211.385 97.5078 212.403V213.114H89.0987V211.665H95.8033C95.8033 211.049 95.6802 210.5 95.4339 210.017C95.1925 209.534 94.8468 209.153 94.397 208.874C93.9519 208.594 93.4264 208.455 92.8203 208.455C92.1527 208.455 91.575 208.62 91.0874 208.952C90.6044 209.278 90.2327 209.705 89.9723 210.23C89.7119 210.756 89.5817 211.319 89.5817 211.92V212.886C89.5817 213.71 89.7237 214.409 90.0078 214.982C90.2966 215.55 90.6967 215.983 91.2081 216.281C91.7195 216.575 92.3137 216.722 92.9908 216.722C93.4311 216.722 93.8288 216.66 94.1839 216.537C94.5438 216.409 94.8539 216.22 95.1143 215.969C95.3748 215.713 95.576 215.396 95.718 215.017L97.3374 215.472C97.1669 216.021 96.8804 216.504 96.478 216.92C96.0755 217.332 95.5784 217.654 94.9865 217.886C94.3946 218.114 93.7294 218.227 92.9908 218.227ZM110.54 207.091V208.511H104.66V207.091H110.54ZM106.421 218V205.585C106.421 204.96 106.568 204.439 106.862 204.023C107.155 203.606 107.536 203.294 108.005 203.085C108.474 202.877 108.969 202.773 109.489 202.773C109.901 202.773 110.237 202.806 110.498 202.872C110.758 202.938 110.952 203 111.08 203.057L110.597 204.506C110.512 204.477 110.394 204.442 110.242 204.399C110.095 204.357 109.901 204.335 109.66 204.335C109.106 204.335 108.706 204.475 108.46 204.754C108.218 205.034 108.097 205.443 108.097 205.983V218H106.421ZM112.89 218V207.091H114.509V208.739H114.623C114.821 208.199 115.181 207.761 115.702 207.425C116.223 207.089 116.81 206.92 117.463 206.92C117.587 206.92 117.74 206.923 117.925 206.928C118.11 206.932 118.249 206.939 118.344 206.949V208.653C118.287 208.639 118.157 208.618 117.953 208.589C117.755 208.556 117.544 208.54 117.321 208.54C116.791 208.54 116.318 208.651 115.901 208.874C115.489 209.091 115.162 209.394 114.921 209.783C114.684 210.166 114.566 210.604 114.566 211.097V218H112.89ZM124.573 218.227C123.522 218.227 122.615 217.995 121.853 217.531C121.095 217.062 120.51 216.409 120.098 215.571C119.691 214.728 119.488 213.748 119.488 212.631C119.488 211.513 119.691 210.528 120.098 209.676C120.51 208.819 121.083 208.152 121.817 207.673C122.556 207.19 123.417 206.949 124.402 206.949C124.971 206.949 125.532 207.044 126.086 207.233C126.64 207.422 127.144 207.73 127.598 208.156C128.053 208.578 128.415 209.136 128.685 209.832C128.955 210.528 129.09 211.385 129.09 212.403V213.114H120.681V211.665H127.385C127.385 211.049 127.262 210.5 127.016 210.017C126.775 209.534 126.429 209.153 125.979 208.874C125.534 208.594 125.008 208.455 124.402 208.455C123.735 208.455 123.157 208.62 122.669 208.952C122.186 209.278 121.815 209.705 121.554 210.23C121.294 210.756 121.164 211.319 121.164 211.92V212.886C121.164 213.71 121.306 214.409 121.59 214.982C121.879 215.55 122.279 215.983 122.79 216.281C123.301 216.575 123.896 216.722 124.573 216.722C125.013 216.722 125.411 216.66 125.766 216.537C126.126 216.409 126.436 216.22 126.696 215.969C126.957 215.713 127.158 215.396 127.3 215.017L128.919 215.472C128.749 216.021 128.462 216.504 128.06 216.92C127.658 217.332 127.16 217.654 126.569 217.886C125.977 218.114 125.311 218.227 124.573 218.227ZM139.367 209.534L137.861 209.96C137.766 209.709 137.627 209.465 137.442 209.229C137.262 208.987 137.016 208.788 136.703 208.632C136.391 208.476 135.991 208.398 135.503 208.398C134.836 208.398 134.279 208.552 133.834 208.859C133.394 209.162 133.174 209.548 133.174 210.017C133.174 210.434 133.325 210.763 133.628 211.004C133.931 211.246 134.405 211.447 135.049 211.608L136.668 212.006C137.643 212.242 138.37 212.605 138.848 213.092C139.327 213.575 139.566 214.198 139.566 214.96C139.566 215.585 139.386 216.144 139.026 216.636C138.671 217.129 138.174 217.517 137.534 217.801C136.895 218.085 136.152 218.227 135.304 218.227C134.192 218.227 133.271 217.986 132.542 217.503C131.812 217.02 131.351 216.314 131.157 215.386L132.748 214.989C132.899 215.576 133.185 216.016 133.607 216.31C134.033 216.603 134.589 216.75 135.276 216.75C136.057 216.75 136.677 216.584 137.137 216.253C137.601 215.917 137.833 215.514 137.833 215.045C137.833 214.667 137.7 214.349 137.435 214.094C137.17 213.833 136.763 213.639 136.213 213.511L134.395 213.085C133.396 212.848 132.662 212.482 132.194 211.984C131.73 211.482 131.498 210.855 131.498 210.102C131.498 209.487 131.67 208.942 132.016 208.469C132.366 207.995 132.842 207.624 133.444 207.354C134.05 207.084 134.736 206.949 135.503 206.949C136.583 206.949 137.43 207.186 138.046 207.659C138.666 208.133 139.106 208.758 139.367 209.534ZM143.765 211.438V218H142.089V203.455H143.765V208.795H143.907C144.163 208.232 144.546 207.785 145.058 207.453C145.574 207.117 146.26 206.949 147.117 206.949C147.861 206.949 148.512 207.098 149.07 207.396C149.629 207.69 150.062 208.142 150.37 208.753C150.683 209.359 150.839 210.131 150.839 211.068V218H149.163V211.182C149.163 210.315 148.938 209.645 148.488 209.172C148.043 208.694 147.425 208.455 146.634 208.455C146.085 208.455 145.593 208.571 145.157 208.803C144.726 209.035 144.385 209.373 144.134 209.818C143.888 210.263 143.765 210.803 143.765 211.438ZM162.74 218.256C162.049 218.256 161.422 218.125 160.858 217.865C160.295 217.6 159.847 217.219 159.516 216.722C159.185 216.22 159.019 215.614 159.019 214.903C159.019 214.278 159.142 213.772 159.388 213.384C159.634 212.991 159.963 212.683 160.375 212.46C160.787 212.238 161.242 212.072 161.739 211.963C162.241 211.849 162.745 211.759 163.252 211.693C163.915 211.608 164.452 211.544 164.864 211.501C165.281 211.454 165.584 211.376 165.773 211.267C165.967 211.158 166.064 210.969 166.064 210.699V210.642C166.064 209.941 165.873 209.397 165.489 209.009C165.11 208.62 164.535 208.426 163.763 208.426C162.963 208.426 162.336 208.601 161.881 208.952C161.426 209.302 161.107 209.676 160.922 210.074L159.331 209.506C159.615 208.843 159.994 208.327 160.468 207.957C160.946 207.583 161.467 207.323 162.03 207.176C162.598 207.025 163.157 206.949 163.706 206.949C164.057 206.949 164.459 206.991 164.914 207.077C165.373 207.157 165.816 207.325 166.242 207.581C166.673 207.837 167.03 208.223 167.314 208.739C167.598 209.255 167.74 209.946 167.74 210.812V218H166.064V216.523H165.979C165.865 216.759 165.676 217.013 165.411 217.283C165.146 217.553 164.793 217.782 164.353 217.972C163.912 218.161 163.375 218.256 162.74 218.256ZM162.996 216.75C163.659 216.75 164.218 216.62 164.672 216.359C165.132 216.099 165.477 215.763 165.709 215.351C165.946 214.939 166.064 214.506 166.064 214.051V212.517C165.993 212.602 165.837 212.68 165.596 212.751C165.359 212.818 165.084 212.877 164.772 212.929C164.464 212.976 164.163 213.019 163.87 213.057C163.581 213.09 163.346 213.118 163.167 213.142C162.731 213.199 162.324 213.291 161.945 213.419C161.571 213.542 161.268 213.729 161.036 213.98C160.809 214.226 160.695 214.562 160.695 214.989C160.695 215.571 160.91 216.011 161.341 216.31C161.777 216.603 162.328 216.75 162.996 216.75ZM172.476 211.438V218H170.8V207.091H172.419V208.795H172.561C172.817 208.241 173.205 207.796 173.726 207.46C174.247 207.119 174.919 206.949 175.743 206.949C176.482 206.949 177.128 207.1 177.682 207.403C178.236 207.702 178.667 208.156 178.974 208.767C179.282 209.373 179.436 210.14 179.436 211.068V218H177.76V211.182C177.76 210.325 177.537 209.657 177.092 209.179C176.647 208.696 176.036 208.455 175.26 208.455C174.725 208.455 174.247 208.571 173.825 208.803C173.409 209.035 173.08 209.373 172.838 209.818C172.597 210.263 172.476 210.803 172.476 211.438ZM186.618 218.227C185.709 218.227 184.907 217.998 184.211 217.538C183.515 217.074 182.97 216.421 182.577 215.578C182.184 214.731 181.988 213.729 181.988 212.574C181.988 211.428 182.184 210.434 182.577 209.591C182.97 208.748 183.517 208.097 184.218 207.638C184.918 207.179 185.728 206.949 186.647 206.949C187.357 206.949 187.918 207.067 188.33 207.304C188.747 207.536 189.064 207.801 189.282 208.099C189.504 208.393 189.677 208.634 189.8 208.824H189.942V203.455H191.618V218H189.999V216.324H189.8C189.677 216.523 189.502 216.774 189.275 217.077C189.047 217.375 188.723 217.643 188.301 217.879C187.88 218.111 187.319 218.227 186.618 218.227ZM186.846 216.722C187.518 216.722 188.086 216.546 188.55 216.196C189.014 215.841 189.367 215.351 189.608 214.726C189.85 214.096 189.971 213.369 189.971 212.545C189.971 211.731 189.852 211.018 189.615 210.408C189.379 209.792 189.028 209.314 188.564 208.973C188.1 208.627 187.527 208.455 186.846 208.455C186.135 208.455 185.543 208.637 185.07 209.001C184.601 209.361 184.248 209.851 184.012 210.472C183.78 211.087 183.664 211.778 183.664 212.545C183.664 213.322 183.782 214.027 184.019 214.662C184.26 215.292 184.615 215.794 185.084 216.168C185.558 216.537 186.145 216.722 186.846 216.722ZM202.222 211.438V218H200.546V203.455H202.222V208.795H202.364C202.62 208.232 203.003 207.785 203.515 207.453C204.031 207.117 204.717 206.949 205.574 206.949C206.318 206.949 206.969 207.098 207.527 207.396C208.086 207.69 208.519 208.142 208.827 208.753C209.14 209.359 209.296 210.131 209.296 211.068V218H207.62V211.182C207.62 210.315 207.395 209.645 206.945 209.172C206.5 208.694 205.882 208.455 205.091 208.455C204.542 208.455 204.05 208.571 203.614 208.803C203.183 209.035 202.842 209.373 202.591 209.818C202.345 210.263 202.222 210.803 202.222 211.438ZM216.936 218.227C215.885 218.227 214.978 217.995 214.216 217.531C213.458 217.062 212.874 216.409 212.462 215.571C212.054 214.728 211.851 213.748 211.851 212.631C211.851 211.513 212.054 210.528 212.462 209.676C212.874 208.819 213.446 208.152 214.18 207.673C214.919 207.19 215.781 206.949 216.766 206.949C217.334 206.949 217.895 207.044 218.449 207.233C219.003 207.422 219.507 207.73 219.962 208.156C220.416 208.578 220.778 209.136 221.048 209.832C221.318 210.528 221.453 211.385 221.453 212.403V213.114H213.044V211.665H219.749C219.749 211.049 219.625 210.5 219.379 210.017C219.138 209.534 218.792 209.153 218.342 208.874C217.897 208.594 217.372 208.455 216.766 208.455C216.098 208.455 215.52 208.62 215.033 208.952C214.55 209.278 214.178 209.705 213.918 210.23C213.657 210.756 213.527 211.319 213.527 211.92V212.886C213.527 213.71 213.669 214.409 213.953 214.982C214.242 215.55 214.642 215.983 215.153 216.281C215.665 216.575 216.259 216.722 216.936 216.722C217.376 216.722 217.774 216.66 218.129 216.537C218.489 216.409 218.799 216.22 219.06 215.969C219.32 215.713 219.521 215.396 219.663 215.017L221.283 215.472C221.112 216.021 220.826 216.504 220.423 216.92C220.021 217.332 219.524 217.654 218.932 217.886C218.34 218.114 217.675 218.227 216.936 218.227ZM227.213 218.256C226.522 218.256 225.894 218.125 225.331 217.865C224.768 217.6 224.32 217.219 223.989 216.722C223.657 216.22 223.491 215.614 223.491 214.903C223.491 214.278 223.615 213.772 223.861 213.384C224.107 212.991 224.436 212.683 224.848 212.46C225.26 212.238 225.714 212.072 226.212 211.963C226.714 211.849 227.218 211.759 227.724 211.693C228.387 211.608 228.925 211.544 229.337 211.501C229.753 211.454 230.056 211.376 230.246 211.267C230.44 211.158 230.537 210.969 230.537 210.699V210.642C230.537 209.941 230.345 209.397 229.962 209.009C229.583 208.62 229.008 208.426 228.236 208.426C227.436 208.426 226.808 208.601 226.354 208.952C225.899 209.302 225.58 209.676 225.395 210.074L223.804 209.506C224.088 208.843 224.467 208.327 224.94 207.957C225.419 207.583 225.939 207.323 226.503 207.176C227.071 207.025 227.63 206.949 228.179 206.949C228.529 206.949 228.932 206.991 229.386 207.077C229.846 207.157 230.288 207.325 230.714 207.581C231.145 207.837 231.503 208.223 231.787 208.739C232.071 209.255 232.213 209.946 232.213 210.812V218H230.537V216.523H230.452C230.338 216.759 230.149 217.013 229.884 217.283C229.618 217.553 229.266 217.782 228.825 217.972C228.385 218.161 227.848 218.256 227.213 218.256ZM227.469 216.75C228.132 216.75 228.69 216.62 229.145 216.359C229.604 216.099 229.95 215.763 230.182 215.351C230.419 214.939 230.537 214.506 230.537 214.051V212.517C230.466 212.602 230.31 212.68 230.068 212.751C229.831 212.818 229.557 212.877 229.244 212.929C228.937 212.976 228.636 213.019 228.342 213.057C228.054 213.09 227.819 213.118 227.639 213.142C227.204 213.199 226.796 213.291 226.418 213.419C226.044 213.542 225.741 213.729 225.509 213.98C225.281 214.226 225.168 214.562 225.168 214.989C225.168 215.571 225.383 216.011 225.814 216.31C226.25 216.603 226.801 216.75 227.469 216.75ZM236.949 203.455V218H235.272V203.455H236.949ZM244.763 207.091V208.511H239.109V207.091H244.763ZM240.757 204.477H242.433V214.875C242.433 215.348 242.502 215.704 242.639 215.94C242.781 216.172 242.961 216.329 243.179 216.409C243.402 216.485 243.636 216.523 243.882 216.523C244.067 216.523 244.218 216.513 244.337 216.494C244.455 216.471 244.55 216.452 244.621 216.438L244.962 217.943C244.848 217.986 244.689 218.028 244.486 218.071C244.282 218.118 244.024 218.142 243.712 218.142C243.238 218.142 242.774 218.04 242.32 217.837C241.87 217.633 241.496 217.323 241.197 216.906C240.904 216.49 240.757 215.964 240.757 215.33V204.477ZM249.195 211.438V218H247.518V203.455H249.195V208.795H249.337C249.592 208.232 249.976 207.785 250.487 207.453C251.003 207.117 251.69 206.949 252.547 206.949C253.29 206.949 253.941 207.098 254.5 207.396C255.059 207.69 255.492 208.142 255.8 208.753C256.112 209.359 256.268 210.131 256.268 211.068V218H254.592V211.182C254.592 210.315 254.367 209.645 253.918 209.172C253.473 208.694 252.855 208.455 252.064 208.455C251.515 208.455 251.022 208.571 250.587 208.803C250.156 209.035 249.815 209.373 249.564 209.818C249.318 210.263 249.195 210.803 249.195 211.438ZM260.024 222.091C259.74 222.091 259.486 222.067 259.264 222.02C259.041 221.977 258.887 221.935 258.802 221.892L259.228 220.415C259.636 220.519 259.995 220.557 260.308 220.528C260.62 220.5 260.897 220.36 261.139 220.109C261.385 219.863 261.61 219.463 261.814 218.909L262.126 218.057L258.092 207.091H259.91L262.922 215.784H263.035L266.047 207.091H267.865L263.234 219.591C263.026 220.154 262.768 220.621 262.46 220.99C262.152 221.364 261.795 221.641 261.387 221.821C260.985 222.001 260.53 222.091 260.024 222.091ZM59.6713 231.091V232.511H53.7907V231.091H59.6713ZM55.552 242V229.585C55.552 228.96 55.6988 228.439 55.9924 228.023C56.2859 227.606 56.6671 227.294 57.1358 227.085C57.6046 226.877 58.0994 226.773 58.6202 226.773C59.0321 226.773 59.3683 226.806 59.6287 226.872C59.8891 226.938 60.0833 227 60.2111 227.057L59.7282 228.506C59.6429 228.477 59.5246 228.442 59.373 228.399C59.2263 228.357 59.0321 228.335 58.7907 228.335C58.2367 228.335 57.8366 228.475 57.5904 228.754C57.3489 229.034 57.2282 229.443 57.2282 229.983V242H55.552ZM66.003 242.227C65.0182 242.227 64.1541 241.993 63.4107 241.524C62.6721 241.055 62.0944 240.4 61.6777 239.557C61.2658 238.714 61.0598 237.729 61.0598 236.602C61.0598 235.466 61.2658 234.474 61.6777 233.626C62.0944 232.779 62.6721 232.121 63.4107 231.652C64.1541 231.183 65.0182 230.949 66.003 230.949C66.9879 230.949 67.8496 231.183 68.5882 231.652C69.3316 232.121 69.9093 232.779 70.3212 233.626C70.7379 234.474 70.9462 235.466 70.9462 236.602C70.9462 237.729 70.7379 238.714 70.3212 239.557C69.9093 240.4 69.3316 241.055 68.5882 241.524C67.8496 241.993 66.9879 242.227 66.003 242.227ZM66.003 240.722C66.7511 240.722 67.3667 240.53 67.8496 240.146C68.3326 239.763 68.69 239.259 68.9221 238.634C69.1541 238.009 69.2701 237.331 69.2701 236.602C69.2701 235.873 69.1541 235.194 68.9221 234.564C68.69 233.934 68.3326 233.425 67.8496 233.037C67.3667 232.649 66.7511 232.455 66.003 232.455C65.2549 232.455 64.6394 232.649 64.1564 233.037C63.6735 233.425 63.316 233.934 63.084 234.564C62.852 235.194 62.736 235.873 62.736 236.602C62.736 237.331 62.852 238.009 63.084 238.634C63.316 239.259 63.6735 239.763 64.1564 240.146C64.6394 240.53 65.2549 240.722 66.003 240.722ZM77.9366 242.227C76.9518 242.227 76.0877 241.993 75.3443 241.524C74.6056 241.055 74.028 240.4 73.6113 239.557C73.1994 238.714 72.9934 237.729 72.9934 236.602C72.9934 235.466 73.1994 234.474 73.6113 233.626C74.028 232.779 74.6056 232.121 75.3443 231.652C76.0877 231.183 76.9518 230.949 77.9366 230.949C78.9215 230.949 79.7832 231.183 80.5218 231.652C81.2652 232.121 81.8429 232.779 82.2548 233.626C82.6715 234.474 82.8798 235.466 82.8798 236.602C82.8798 237.729 82.6715 238.714 82.2548 239.557C81.8429 240.4 81.2652 241.055 80.5218 241.524C79.7832 241.993 78.9215 242.227 77.9366 242.227ZM77.9366 240.722C78.6847 240.722 79.3002 240.53 79.7832 240.146C80.2662 239.763 80.6236 239.259 80.8556 238.634C81.0877 238.009 81.2037 237.331 81.2037 236.602C81.2037 235.873 81.0877 235.194 80.8556 234.564C80.6236 233.934 80.2662 233.425 79.7832 233.037C79.3002 232.649 78.6847 232.455 77.9366 232.455C77.1885 232.455 76.573 232.649 76.09 233.037C75.6071 233.425 75.2496 233.934 75.0176 234.564C74.7856 235.194 74.6696 235.873 74.6696 236.602C74.6696 237.331 74.7856 238.009 75.0176 238.634C75.2496 239.259 75.6071 239.763 76.09 240.146C76.573 240.53 77.1885 240.722 77.9366 240.722ZM89.5577 242.227C88.6486 242.227 87.8461 241.998 87.15 241.538C86.454 241.074 85.9095 240.421 85.5165 239.578C85.1235 238.731 84.927 237.729 84.927 236.574C84.927 235.428 85.1235 234.434 85.5165 233.591C85.9095 232.748 86.4564 232.097 87.1571 231.638C87.8579 231.179 88.6676 230.949 89.5861 230.949C90.2963 230.949 90.8574 231.067 91.2694 231.304C91.686 231.536 92.0033 231.801 92.2211 232.099C92.4436 232.393 92.6164 232.634 92.7395 232.824H92.8816V227.455H94.5577V242H92.9384V240.324H92.7395C92.6164 240.523 92.4412 240.774 92.214 241.077C91.9867 241.375 91.6623 241.643 91.2409 241.879C90.8195 242.111 90.2585 242.227 89.5577 242.227ZM89.785 240.722C90.4573 240.722 91.0255 240.546 91.4895 240.196C91.9535 239.841 92.3063 239.351 92.5478 238.726C92.7892 238.096 92.91 237.369 92.91 236.545C92.91 235.731 92.7916 235.018 92.5549 234.408C92.3181 233.792 91.9677 233.314 91.5037 232.973C91.0397 232.627 90.4668 232.455 89.785 232.455C89.0748 232.455 88.4829 232.637 88.0094 233.001C87.5407 233.361 87.1879 233.851 86.9512 234.472C86.7192 235.087 86.6032 235.778 86.6032 236.545C86.6032 237.322 86.7215 238.027 86.9583 238.662C87.1998 239.292 87.5549 239.794 88.0236 240.168C88.4971 240.537 89.0842 240.722 89.785 240.722ZM107.889 246.318C107.079 246.318 106.383 246.214 105.801 246.006C105.218 245.802 104.733 245.532 104.345 245.196C103.961 244.865 103.656 244.509 103.428 244.131L104.764 243.193C104.915 243.392 105.107 243.619 105.339 243.875C105.571 244.135 105.888 244.36 106.291 244.55C106.698 244.744 107.231 244.841 107.889 244.841C108.769 244.841 109.496 244.628 110.069 244.202C110.642 243.776 110.928 243.108 110.928 242.199V239.983H110.786C110.663 240.182 110.488 240.428 110.261 240.722C110.038 241.01 109.716 241.268 109.295 241.496C108.878 241.718 108.315 241.83 107.605 241.83C106.724 241.83 105.933 241.621 105.232 241.205C104.536 240.788 103.985 240.182 103.578 239.386C103.175 238.591 102.974 237.625 102.974 236.489C102.974 235.371 103.17 234.398 103.563 233.57C103.956 232.736 104.503 232.092 105.204 231.638C105.905 231.179 106.714 230.949 107.633 230.949C108.343 230.949 108.907 231.067 109.323 231.304C109.745 231.536 110.067 231.801 110.289 232.099C110.517 232.393 110.692 232.634 110.815 232.824H110.985V231.091H112.605V242.312C112.605 243.25 112.392 244.012 111.965 244.599C111.544 245.191 110.976 245.625 110.261 245.899C109.551 246.179 108.76 246.318 107.889 246.318ZM107.832 240.324C108.504 240.324 109.072 240.17 109.536 239.862C110 239.554 110.353 239.112 110.595 238.534C110.836 237.956 110.957 237.265 110.957 236.46C110.957 235.674 110.838 234.981 110.602 234.379C110.365 233.778 110.015 233.307 109.551 232.966C109.087 232.625 108.514 232.455 107.832 232.455C107.122 232.455 106.53 232.634 106.056 232.994C105.588 233.354 105.235 233.837 104.998 234.443C104.766 235.049 104.65 235.722 104.65 236.46C104.65 237.218 104.768 237.888 105.005 238.47C105.247 239.048 105.602 239.502 106.07 239.834C106.544 240.161 107.131 240.324 107.832 240.324ZM115.673 242V231.091H117.292V232.739H117.406C117.605 232.199 117.964 231.761 118.485 231.425C119.006 231.089 119.593 230.92 120.247 230.92C120.37 230.92 120.524 230.923 120.708 230.928C120.893 230.932 121.033 230.939 121.127 230.949V232.653C121.07 232.639 120.94 232.618 120.737 232.589C120.538 232.556 120.327 232.54 120.105 232.54C119.574 232.54 119.101 232.651 118.684 232.874C118.272 233.091 117.945 233.394 117.704 233.783C117.467 234.166 117.349 234.604 117.349 235.097V242H115.673ZM127.214 242.227C126.229 242.227 125.365 241.993 124.622 241.524C123.883 241.055 123.305 240.4 122.889 239.557C122.477 238.714 122.271 237.729 122.271 236.602C122.271 235.466 122.477 234.474 122.889 233.626C123.305 232.779 123.883 232.121 124.622 231.652C125.365 231.183 126.229 230.949 127.214 230.949C128.199 230.949 129.061 231.183 129.799 231.652C130.543 232.121 131.12 232.779 131.532 233.626C131.949 234.474 132.157 235.466 132.157 236.602C132.157 237.729 131.949 238.714 131.532 239.557C131.12 240.4 130.543 241.055 129.799 241.524C129.061 241.993 128.199 242.227 127.214 242.227ZM127.214 240.722C127.962 240.722 128.578 240.53 129.061 240.146C129.544 239.763 129.901 239.259 130.133 238.634C130.365 238.009 130.481 237.331 130.481 236.602C130.481 235.873 130.365 235.194 130.133 234.564C129.901 233.934 129.544 233.425 129.061 233.037C128.578 232.649 127.962 232.455 127.214 232.455C126.466 232.455 125.85 232.649 125.367 233.037C124.884 233.425 124.527 233.934 124.295 234.564C124.063 235.194 123.947 235.873 123.947 236.602C123.947 237.331 124.063 238.009 124.295 238.634C124.527 239.259 124.884 239.763 125.367 240.146C125.85 240.53 126.466 240.722 127.214 240.722ZM136.816 242L133.492 231.091H135.254L137.612 239.443H137.725L140.055 231.091H141.845L144.146 239.415H144.259L146.617 231.091H148.379L145.055 242H143.407L141.021 233.619H140.85L138.464 242H136.816ZM156.22 242V231.091H157.896V242H156.22ZM157.072 229.273C156.745 229.273 156.463 229.161 156.227 228.939C155.995 228.716 155.879 228.449 155.879 228.136C155.879 227.824 155.995 227.556 156.227 227.334C156.463 227.111 156.745 227 157.072 227C157.399 227 157.678 227.111 157.91 227.334C158.147 227.556 158.265 227.824 158.265 228.136C158.265 228.449 158.147 228.716 157.91 228.939C157.678 229.161 157.399 229.273 157.072 229.273ZM162.642 235.438V242H160.966V231.091H162.585V232.795H162.727C162.983 232.241 163.371 231.796 163.892 231.46C164.413 231.119 165.085 230.949 165.909 230.949C166.648 230.949 167.294 231.1 167.848 231.403C168.402 231.702 168.833 232.156 169.14 232.767C169.448 233.373 169.602 234.14 169.602 235.068V242H167.926V235.182C167.926 234.325 167.703 233.657 167.258 233.179C166.813 232.696 166.202 232.455 165.426 232.455C164.891 232.455 164.413 232.571 163.991 232.803C163.575 233.035 163.246 233.373 163.004 233.818C162.763 234.263 162.642 234.803 162.642 235.438ZM179.369 246.091C179.085 246.091 178.832 246.067 178.61 246.02C178.387 245.977 178.233 245.935 178.148 245.892L178.574 244.415C178.981 244.519 179.341 244.557 179.654 244.528C179.966 244.5 180.243 244.36 180.485 244.109C180.731 243.863 180.956 243.463 181.159 242.909L181.472 242.057L177.438 231.091H179.256L182.267 239.784H182.381L185.392 231.091H187.21L182.58 243.591C182.371 244.154 182.113 244.621 181.806 244.99C181.498 245.364 181.14 245.641 180.733 245.821C180.331 246.001 179.876 246.091 179.369 246.091ZM193.464 242.227C192.479 242.227 191.615 241.993 190.872 241.524C190.133 241.055 189.555 240.4 189.139 239.557C188.727 238.714 188.521 237.729 188.521 236.602C188.521 235.466 188.727 234.474 189.139 233.626C189.555 232.779 190.133 232.121 190.872 231.652C191.615 231.183 192.479 230.949 193.464 230.949C194.449 230.949 195.311 231.183 196.049 231.652C196.793 232.121 197.37 232.779 197.782 233.626C198.199 234.474 198.407 235.466 198.407 236.602C198.407 237.729 198.199 238.714 197.782 239.557C197.37 240.4 196.793 241.055 196.049 241.524C195.311 241.993 194.449 242.227 193.464 242.227ZM193.464 240.722C194.212 240.722 194.828 240.53 195.311 240.146C195.794 239.763 196.151 239.259 196.383 238.634C196.615 238.009 196.731 237.331 196.731 236.602C196.731 235.873 196.615 235.194 196.383 234.564C196.151 233.934 195.794 233.425 195.311 233.037C194.828 232.649 194.212 232.455 193.464 232.455C192.716 232.455 192.1 232.649 191.617 233.037C191.134 233.425 190.777 233.934 190.545 234.564C190.313 235.194 190.197 235.873 190.197 236.602C190.197 237.331 190.313 238.009 190.545 238.634C190.777 239.259 191.134 239.763 191.617 240.146C192.1 240.53 192.716 240.722 193.464 240.722ZM207.841 237.54V231.091H209.517V242H207.841V240.153H207.727C207.471 240.707 207.074 241.179 206.534 241.567C205.994 241.95 205.312 242.142 204.488 242.142C203.807 242.142 203.201 241.993 202.67 241.695C202.14 241.392 201.723 240.937 201.42 240.331C201.117 239.72 200.966 238.951 200.966 238.023V231.091H202.642V237.909C202.642 238.705 202.864 239.339 203.309 239.812C203.759 240.286 204.332 240.523 205.028 240.523C205.445 240.523 205.869 240.416 206.3 240.203C206.735 239.99 207.1 239.663 207.393 239.223C207.692 238.783 207.841 238.222 207.841 237.54ZM212.587 242V231.091H214.206V232.739H214.32C214.519 232.199 214.878 231.761 215.399 231.425C215.92 231.089 216.507 230.92 217.161 230.92C217.284 230.92 217.438 230.923 217.622 230.928C217.807 230.932 217.947 230.939 218.041 230.949V232.653C217.985 232.639 217.854 232.618 217.651 232.589C217.452 232.556 217.241 232.54 217.019 232.54C216.488 232.54 216.015 232.651 215.598 232.874C215.186 233.091 214.86 233.394 214.618 233.783C214.381 234.166 214.263 234.604 214.263 235.097V242H212.587ZM226.733 246.091C226.449 246.091 226.195 246.067 225.973 246.02C225.75 245.977 225.596 245.935 225.511 245.892L225.937 244.415C226.345 244.519 226.704 244.557 227.017 244.528C227.329 244.5 227.606 244.36 227.848 244.109C228.094 243.863 228.319 243.463 228.523 242.909L228.835 242.057L224.801 231.091H226.619L229.631 239.784H229.744L232.756 231.091H234.574L229.943 243.591C229.735 244.154 229.477 244.621 229.169 244.99C228.861 245.364 228.504 245.641 228.096 245.821C227.694 246.001 227.239 246.091 226.733 246.091ZM239.664 242.256C238.973 242.256 238.346 242.125 237.782 241.865C237.219 241.6 236.771 241.219 236.44 240.722C236.108 240.22 235.943 239.614 235.943 238.903C235.943 238.278 236.066 237.772 236.312 237.384C236.558 236.991 236.887 236.683 237.299 236.46C237.711 236.238 238.166 236.072 238.663 235.963C239.165 235.849 239.669 235.759 240.176 235.693C240.838 235.608 241.376 235.544 241.788 235.501C242.204 235.454 242.508 235.376 242.697 235.267C242.891 235.158 242.988 234.969 242.988 234.699V234.642C242.988 233.941 242.796 233.397 242.413 233.009C242.034 232.62 241.459 232.426 240.687 232.426C239.887 232.426 239.259 232.601 238.805 232.952C238.35 233.302 238.031 233.676 237.846 234.074L236.255 233.506C236.539 232.843 236.918 232.327 237.392 231.957C237.87 231.583 238.391 231.323 238.954 231.176C239.522 231.025 240.081 230.949 240.63 230.949C240.981 230.949 241.383 230.991 241.838 231.077C242.297 231.157 242.74 231.325 243.166 231.581C243.597 231.837 243.954 232.223 244.238 232.739C244.522 233.255 244.664 233.946 244.664 234.812V242H242.988V240.523H242.903C242.789 240.759 242.6 241.013 242.335 241.283C242.07 241.553 241.717 241.782 241.276 241.972C240.836 242.161 240.299 242.256 239.664 242.256ZM239.92 240.75C240.583 240.75 241.142 240.62 241.596 240.359C242.055 240.099 242.401 239.763 242.633 239.351C242.87 238.939 242.988 238.506 242.988 238.051V236.517C242.917 236.602 242.761 236.68 242.519 236.751C242.283 236.818 242.008 236.877 241.695 236.929C241.388 236.976 241.087 237.019 240.794 237.057C240.505 237.09 240.27 237.118 240.09 237.142C239.655 237.199 239.248 237.291 238.869 237.419C238.495 237.542 238.192 237.729 237.96 237.98C237.732 238.226 237.619 238.562 237.619 238.989C237.619 239.571 237.834 240.011 238.265 240.31C238.701 240.603 239.252 240.75 239.92 240.75ZM247.724 242V231.091H249.343V232.739H249.456C249.655 232.199 250.015 231.761 250.536 231.425C251.057 231.089 251.644 230.92 252.297 230.92C252.421 230.92 252.574 230.923 252.759 230.928C252.944 230.932 253.083 230.939 253.178 230.949V232.653C253.121 232.639 252.991 232.618 252.787 232.589C252.589 232.556 252.378 232.54 252.155 232.54C251.625 232.54 251.152 232.651 250.735 232.874C250.323 233.091 249.996 233.394 249.755 233.783C249.518 234.166 249.4 234.604 249.4 235.097V242H247.724ZM258.952 242.227C258.043 242.227 257.241 241.998 256.545 241.538C255.849 241.074 255.304 240.421 254.911 239.578C254.518 238.731 254.322 237.729 254.322 236.574C254.322 235.428 254.518 234.434 254.911 233.591C255.304 232.748 255.851 232.097 256.552 231.638C257.252 231.179 258.062 230.949 258.981 230.949C259.691 230.949 260.252 231.067 260.664 231.304C261.081 231.536 261.398 231.801 261.616 232.099C261.838 232.393 262.011 232.634 262.134 232.824H262.276V227.455H263.952V242H262.333V240.324H262.134C262.011 240.523 261.836 240.774 261.608 241.077C261.381 241.375 261.057 241.643 260.635 241.879C260.214 242.111 259.653 242.227 258.952 242.227ZM259.18 240.722C259.852 240.722 260.42 240.546 260.884 240.196C261.348 239.841 261.701 239.351 261.942 238.726C262.184 238.096 262.305 237.369 262.305 236.545C262.305 235.731 262.186 235.018 261.949 234.408C261.713 233.792 261.362 233.314 260.898 232.973C260.434 232.627 259.861 232.455 259.18 232.455C258.469 232.455 257.877 232.637 257.404 233.001C256.935 233.361 256.582 233.851 256.346 234.472C256.114 235.087 255.998 235.778 255.998 236.545C255.998 237.322 256.116 238.027 256.353 238.662C256.594 239.292 256.949 239.794 257.418 240.168C257.892 240.537 258.479 240.722 259.18 240.722Z" fill="black"/>
<circle cx="152.5" cy="92.5" r="64.5" fill="#B3D2E6"/>
<path d="M115.109 74.2918C119.627 70.3969 131.28 64.944 141.75 74.2918" stroke="#2B5975" stroke-width="8" stroke-linecap="round"/>
<path d="M164.652 74.2918C169.17 70.3969 180.824 64.944 191.293 74.2918" stroke="#2B5975" stroke-width="8" stroke-linecap="round"/>
<path d="M177.739 96.2394C169.337 103.999 147.665 114.862 128.196 96.2394" stroke="#2B5975" stroke-width="8" stroke-linecap="round"/>
<path d="M173.881 101.849C178.674 112.599 165.12 124.75 156.239 108.036" stroke="#2B5975" stroke-width="8" stroke-linecap="round"/>
</g>
</g>
<defs>
<filter id="filter0_d_109_17" x="0" y="0" width="315" height="295" filterUnits="userSpaceOnUse" color-interpolation-filters="sRGB">
<feFlood flood-opacity="0" result="BackgroundImageFix"/>
<feColorMatrix in="SourceAlpha" type="matrix" values="0 0 0 0 0 0 0 0 0 0 0 0 0 0 0 0 0 0 127 0" result="hardAlpha"/>
<feOffset dy="4"/>
<feGaussianBlur stdDeviation="2"/>
<feComposite in2="hardAlpha" operator="out"/>
<feColorMatrix type="matrix" values="0 0 0 0 0 0 0 0 0 0 0 0 0 0 0 0 0 0 0.25 0"/>
<feBlend mode="normal" in2="BackgroundImageFix" result="effect1_dropShadow_109_17"/>
<feBlend mode="normal" in="SourceGraphic" in2="effect1_dropShadow_109_17" result="shape"/>
</filter>
<clipPath id="clip0_109_17">
<rect x="4" width="307" height="287" rx="4" fill="white"/>
</clipPath>
</defs>
</svg>
