<svg width="316" height="296" viewBox="0 0 316 296" fill="none" xmlns="http://www.w3.org/2000/svg">
<g filter="url(#filter0_d_115_7)">
<rect x="4" width="308" height="288" rx="4" fill="white"/>
<path d="M53.8063 167.28H56.7063V179.2H63.6263V182H53.8063V167.28ZM65.3086 174.66C65.3086 173.647 65.5019 172.687 65.8886 171.78C66.2753 170.873 66.8086 170.073 67.4886 169.38C68.1819 168.673 68.9819 168.12 69.8886 167.72C70.7953 167.32 71.7686 167.12 72.8086 167.12C73.8353 167.12 74.8019 167.32 75.7086 167.72C76.6153 168.12 77.4153 168.673 78.1086 169.38C78.8153 170.073 79.3619 170.873 79.7486 171.78C80.1486 172.687 80.3486 173.647 80.3486 174.66C80.3486 175.7 80.1486 176.673 79.7486 177.58C79.3619 178.487 78.8153 179.287 78.1086 179.98C77.4153 180.66 76.6153 181.193 75.7086 181.58C74.8019 181.967 73.8353 182.16 72.8086 182.16C71.7686 182.16 70.7953 181.967 69.8886 181.58C68.9819 181.193 68.1819 180.66 67.4886 179.98C66.8086 179.287 66.2753 178.487 65.8886 177.58C65.5019 176.673 65.3086 175.7 65.3086 174.66ZM68.3086 174.66C68.3086 175.313 68.4219 175.927 68.6486 176.5C68.8886 177.06 69.2153 177.56 69.6286 178C70.0553 178.427 70.5419 178.76 71.0886 179C71.6486 179.24 72.2553 179.36 72.9086 179.36C73.5353 179.36 74.1153 179.24 74.6486 179C75.1953 178.76 75.6686 178.427 76.0686 178C76.4686 177.56 76.7819 177.06 77.0086 176.5C77.2353 175.927 77.3486 175.313 77.3486 174.66C77.3486 173.993 77.2286 173.373 76.9886 172.8C76.7619 172.227 76.4419 171.727 76.0286 171.3C75.6286 170.86 75.1553 170.52 74.6086 170.28C74.0619 170.04 73.4686 169.92 72.8286 169.92C72.1886 169.92 71.5953 170.04 71.0486 170.28C70.5019 170.52 70.0219 170.86 69.6086 171.3C69.1953 171.727 68.8753 172.227 68.6486 172.8C68.4219 173.373 68.3086 173.993 68.3086 174.66ZM80.7884 167.38H84.1884L87.3284 176.62L86.8684 176.42L89.6084 169.6L90.9484 173.58L86.7084 182.68L80.7884 167.38ZM88.1684 167.38H91.0484L94.6684 176.32L94.1484 176.24L96.8484 167.38H99.9684L94.2884 182.64L88.1684 167.38ZM109.021 182V166.68H109.041L117.221 178.28L115.981 178L124.141 166.68H124.181V182H121.281V173.22L121.461 174.72L116.481 181.8H116.441L111.321 174.72L111.821 173.34V182H109.021ZM126.326 182L132.966 166.7H133.126L139.766 182H136.406L132.166 171.24L134.266 169.8L129.186 182H126.326ZM130.866 176.68H135.286L136.306 179.12H129.966L130.866 176.68ZM141.912 167.28H144.812V182H141.912V167.28ZM161.791 182.6L150.631 172.52L151.491 173L151.551 182H148.611V166.7H148.731L159.651 176.74L159.011 176.46L158.951 167.28H161.871V182.6H161.791ZM164.662 167.28H174.582V170.08H171.002V182H168.102V170.08H164.662V167.28ZM177.38 167.28H187.42V170.08H180.28V173.22H186.6V176.02H180.28V179.2H187.7V182H177.38V167.28ZM203.881 182.6L192.721 172.52L193.581 173L193.641 182H190.701V166.7H190.821L201.741 176.74L201.101 176.46L201.041 167.28H203.961V182.6H203.881ZM206.092 182L212.732 166.7H212.892L219.532 182H216.172L211.932 171.24L214.032 169.8L208.952 182H206.092ZM210.632 176.68H215.052L216.072 179.12H209.732L210.632 176.68ZM234.857 182.6L223.697 172.52L224.557 173L224.617 182H221.677V166.7H221.797L232.717 176.74L232.077 176.46L232.017 167.28H234.937V182.6H234.857ZM249.768 180.78C249.608 180.913 249.308 181.093 248.868 181.32C248.441 181.547 247.915 181.747 247.288 181.92C246.661 182.093 245.968 182.173 245.208 182.16C244.048 182.133 243.008 181.927 242.088 181.54C241.181 181.14 240.408 180.6 239.768 179.92C239.141 179.24 238.661 178.46 238.328 177.58C237.995 176.7 237.828 175.76 237.828 174.76C237.828 173.64 237.995 172.613 238.328 171.68C238.675 170.747 239.161 169.94 239.788 169.26C240.428 168.58 241.188 168.053 242.068 167.68C242.948 167.307 243.921 167.12 244.988 167.12C245.975 167.12 246.848 167.253 247.608 167.52C248.368 167.787 248.988 168.073 249.468 168.38L248.328 171.12C247.995 170.867 247.548 170.607 246.988 170.34C246.441 170.06 245.808 169.92 245.088 169.92C244.528 169.92 243.988 170.04 243.468 170.28C242.961 170.507 242.508 170.833 242.108 171.26C241.721 171.687 241.415 172.187 241.188 172.76C240.961 173.32 240.848 173.933 240.848 174.6C240.848 175.307 240.948 175.953 241.148 176.54C241.361 177.127 241.661 177.633 242.048 178.06C242.435 178.473 242.895 178.793 243.428 179.02C243.975 179.247 244.588 179.36 245.268 179.36C246.055 179.36 246.728 179.233 247.288 178.98C247.848 178.727 248.275 178.46 248.568 178.18L249.768 180.78ZM252.673 167.28H262.713V170.08H255.573V173.22H261.893V176.02H255.573V179.2H262.993V182H252.673V167.28ZM62.7745 193.017V191.455H73.6836V193.017H69.1097V206H67.3484V193.017H62.7745ZM77.8509 199.438V206H76.1747V191.455H77.8509V196.795H77.9929C78.2486 196.232 78.6321 195.785 79.1435 195.453C79.6596 195.117 80.3461 194.949 81.2031 194.949C81.9465 194.949 82.5975 195.098 83.1562 195.396C83.715 195.69 84.1482 196.142 84.456 196.753C84.7685 197.359 84.9247 198.131 84.9247 199.068V206H83.2486V199.182C83.2486 198.315 83.0237 197.645 82.5739 197.172C82.1288 196.694 81.5109 196.455 80.7202 196.455C80.1709 196.455 79.6785 196.571 79.2429 196.803C78.812 197.035 78.4711 197.373 78.2202 197.818C77.974 198.263 77.8509 198.803 77.8509 199.438ZM92.565 206.227C91.5138 206.227 90.6071 205.995 89.8448 205.531C89.0872 205.062 88.5025 204.409 88.0906 203.571C87.6834 202.728 87.4798 201.748 87.4798 200.631C87.4798 199.513 87.6834 198.528 88.0906 197.676C88.5025 196.819 89.0754 196.152 89.8093 195.673C90.5479 195.19 91.4097 194.949 92.3945 194.949C92.9627 194.949 93.5238 195.044 94.0778 195.233C94.6317 195.422 95.136 195.73 95.5906 196.156C96.0451 196.578 96.4073 197.136 96.6772 197.832C96.9471 198.528 97.082 199.385 97.082 200.403V201.114H88.6729V199.665H95.3775C95.3775 199.049 95.2544 198.5 95.0082 198.017C94.7667 197.534 94.421 197.153 93.9712 196.874C93.5262 196.594 93.0006 196.455 92.3945 196.455C91.7269 196.455 91.1493 196.62 90.6616 196.952C90.1786 197.278 89.8069 197.705 89.5465 198.23C89.2861 198.756 89.1559 199.319 89.1559 199.92V200.886C89.1559 201.71 89.2979 202.409 89.582 202.982C89.8709 203.55 90.271 203.983 90.7823 204.281C91.2937 204.575 91.8879 204.722 92.565 204.722C93.0053 204.722 93.4031 204.66 93.7582 204.537C94.118 204.409 94.4281 204.22 94.6886 203.969C94.949 203.713 95.1502 203.396 95.2923 203.017L96.9116 203.472C96.7411 204.021 96.4547 204.504 96.0522 204.92C95.6497 205.332 95.1526 205.654 94.5607 205.886C93.9689 206.114 93.3036 206.227 92.565 206.227ZM105.257 210.091V195.091H106.876V196.824H107.075C107.198 196.634 107.368 196.393 107.586 196.099C107.809 195.801 108.126 195.536 108.538 195.304C108.955 195.067 109.518 194.949 110.228 194.949C111.147 194.949 111.957 195.179 112.657 195.638C113.358 196.097 113.905 196.748 114.298 197.591C114.691 198.434 114.887 199.428 114.887 200.574C114.887 201.729 114.691 202.731 114.298 203.578C113.905 204.421 113.36 205.074 112.664 205.538C111.968 205.998 111.166 206.227 110.257 206.227C109.556 206.227 108.995 206.111 108.574 205.879C108.152 205.643 107.828 205.375 107.6 205.077C107.373 204.774 107.198 204.523 107.075 204.324H106.933V210.091H105.257ZM106.904 200.545C106.904 201.369 107.025 202.096 107.267 202.726C107.508 203.351 107.861 203.841 108.325 204.196C108.789 204.546 109.357 204.722 110.029 204.722C110.73 204.722 111.315 204.537 111.784 204.168C112.257 203.794 112.612 203.292 112.849 202.662C113.091 202.027 113.211 201.322 113.211 200.545C113.211 199.778 113.093 199.087 112.856 198.472C112.624 197.851 112.271 197.361 111.798 197.001C111.329 196.637 110.74 196.455 110.029 196.455C109.348 196.455 108.775 196.627 108.311 196.973C107.847 197.314 107.496 197.792 107.26 198.408C107.023 199.018 106.904 199.731 106.904 200.545ZM119.12 191.455V206H117.444V191.455H119.12ZM125.401 206.256C124.709 206.256 124.082 206.125 123.518 205.865C122.955 205.6 122.508 205.219 122.176 204.722C121.845 204.22 121.679 203.614 121.679 202.903C121.679 202.278 121.802 201.772 122.048 201.384C122.295 200.991 122.624 200.683 123.036 200.46C123.447 200.238 123.902 200.072 124.399 199.963C124.901 199.849 125.405 199.759 125.912 199.693C126.575 199.608 127.112 199.544 127.524 199.501C127.941 199.454 128.244 199.376 128.433 199.267C128.627 199.158 128.724 198.969 128.724 198.699V198.642C128.724 197.941 128.533 197.397 128.149 197.009C127.77 196.62 127.195 196.426 126.423 196.426C125.623 196.426 124.996 196.601 124.541 196.952C124.087 197.302 123.767 197.676 123.582 198.074L121.991 197.506C122.276 196.843 122.654 196.327 123.128 195.957C123.606 195.583 124.127 195.323 124.69 195.176C125.259 195.025 125.817 194.949 126.366 194.949C126.717 194.949 127.119 194.991 127.574 195.077C128.033 195.157 128.476 195.325 128.902 195.581C129.333 195.837 129.69 196.223 129.974 196.739C130.259 197.255 130.401 197.946 130.401 198.812V206H128.724V204.523H128.639C128.526 204.759 128.336 205.013 128.071 205.283C127.806 205.553 127.453 205.782 127.013 205.972C126.572 206.161 126.035 206.256 125.401 206.256ZM125.656 204.75C126.319 204.75 126.878 204.62 127.332 204.359C127.792 204.099 128.137 203.763 128.369 203.351C128.606 202.939 128.724 202.506 128.724 202.051V200.517C128.653 200.602 128.497 200.68 128.256 200.751C128.019 200.818 127.744 200.877 127.432 200.929C127.124 200.976 126.823 201.019 126.53 201.057C126.241 201.09 126.007 201.118 125.827 201.142C125.391 201.199 124.984 201.291 124.605 201.419C124.231 201.542 123.928 201.729 123.696 201.98C123.469 202.226 123.355 202.562 123.355 202.989C123.355 203.571 123.571 204.011 124.001 204.31C124.437 204.603 124.989 204.75 125.656 204.75ZM135.136 199.438V206H133.46V195.091H135.079V196.795H135.221C135.477 196.241 135.865 195.796 136.386 195.46C136.907 195.119 137.579 194.949 138.403 194.949C139.142 194.949 139.788 195.1 140.342 195.403C140.896 195.702 141.327 196.156 141.635 196.767C141.942 197.373 142.096 198.14 142.096 199.068V206H140.42V199.182C140.42 198.325 140.198 197.657 139.752 197.179C139.307 196.696 138.697 196.455 137.92 196.455C137.385 196.455 136.907 196.571 136.485 196.803C136.069 197.035 135.74 197.373 135.498 197.818C135.257 198.263 135.136 198.803 135.136 199.438ZM149.903 195.091V196.511H144.25V195.091H149.903ZM145.898 192.477H147.574V202.875C147.574 203.348 147.643 203.704 147.78 203.94C147.922 204.172 148.102 204.329 148.32 204.409C148.542 204.485 148.777 204.523 149.023 204.523C149.207 204.523 149.359 204.513 149.477 204.494C149.596 204.471 149.69 204.452 149.761 204.438L150.102 205.943C149.989 205.986 149.83 206.028 149.626 206.071C149.423 206.118 149.165 206.142 148.852 206.142C148.379 206.142 147.915 206.04 147.46 205.837C147.01 205.633 146.636 205.323 146.338 204.906C146.045 204.49 145.898 203.964 145.898 203.33V192.477ZM159.957 197.534L158.451 197.96C158.356 197.709 158.217 197.465 158.032 197.229C157.852 196.987 157.606 196.788 157.293 196.632C156.981 196.476 156.581 196.398 156.093 196.398C155.425 196.398 154.869 196.552 154.424 196.859C153.984 197.162 153.763 197.548 153.763 198.017C153.763 198.434 153.915 198.763 154.218 199.004C154.521 199.246 154.995 199.447 155.638 199.608L157.258 200.006C158.233 200.242 158.96 200.605 159.438 201.092C159.916 201.575 160.156 202.198 160.156 202.96C160.156 203.585 159.976 204.144 159.616 204.636C159.261 205.129 158.763 205.517 158.124 205.801C157.485 206.085 156.742 206.227 155.894 206.227C154.781 206.227 153.861 205.986 153.131 205.503C152.402 205.02 151.941 204.314 151.746 203.386L153.337 202.989C153.489 203.576 153.775 204.016 154.197 204.31C154.623 204.603 155.179 204.75 155.866 204.75C156.647 204.75 157.267 204.584 157.727 204.253C158.191 203.917 158.423 203.514 158.423 203.045C158.423 202.667 158.29 202.349 158.025 202.094C157.76 201.833 157.353 201.639 156.803 201.511L154.985 201.085C153.986 200.848 153.252 200.482 152.783 199.984C152.319 199.482 152.087 198.855 152.087 198.102C152.087 197.487 152.26 196.942 152.606 196.469C152.956 195.995 153.432 195.624 154.033 195.354C154.639 195.084 155.326 194.949 156.093 194.949C157.173 194.949 158.02 195.186 158.636 195.659C159.256 196.133 159.696 196.758 159.957 197.534ZM173.048 195.091V196.511H167.395V195.091H173.048ZM169.042 192.477H170.718V202.875C170.718 203.348 170.787 203.704 170.924 203.94C171.066 204.172 171.246 204.329 171.464 204.409C171.687 204.485 171.921 204.523 172.167 204.523C172.352 204.523 172.503 204.513 172.622 204.494C172.74 204.471 172.835 204.452 172.906 204.438L173.247 205.943C173.133 205.986 172.975 206.028 172.771 206.071C172.567 206.118 172.309 206.142 171.997 206.142C171.523 206.142 171.059 206.04 170.605 205.837C170.155 205.633 169.781 205.323 169.483 204.906C169.189 204.49 169.042 203.964 169.042 203.33V192.477ZM178.779 206.256C178.088 206.256 177.461 206.125 176.897 205.865C176.334 205.6 175.886 205.219 175.555 204.722C175.224 204.22 175.058 203.614 175.058 202.903C175.058 202.278 175.181 201.772 175.427 201.384C175.673 200.991 176.002 200.683 176.414 200.46C176.826 200.238 177.281 200.072 177.778 199.963C178.28 199.849 178.784 199.759 179.291 199.693C179.954 199.608 180.491 199.544 180.903 199.501C181.32 199.454 181.623 199.376 181.812 199.267C182.006 199.158 182.103 198.969 182.103 198.699V198.642C182.103 197.941 181.912 197.397 181.528 197.009C181.149 196.62 180.574 196.426 179.802 196.426C179.002 196.426 178.375 196.601 177.92 196.952C177.466 197.302 177.146 197.676 176.961 198.074L175.37 197.506C175.654 196.843 176.033 196.327 176.507 195.957C176.985 195.583 177.506 195.323 178.069 195.176C178.637 195.025 179.196 194.949 179.745 194.949C180.096 194.949 180.498 194.991 180.953 195.077C181.412 195.157 181.855 195.325 182.281 195.581C182.712 195.837 183.069 196.223 183.353 196.739C183.637 197.255 183.779 197.946 183.779 198.812V206H182.103V204.523H182.018C181.904 204.759 181.715 205.013 181.45 205.283C181.185 205.553 180.832 205.782 180.392 205.972C179.951 206.161 179.414 206.256 178.779 206.256ZM179.035 204.75C179.698 204.75 180.257 204.62 180.711 204.359C181.171 204.099 181.516 203.763 181.748 203.351C181.985 202.939 182.103 202.506 182.103 202.051V200.517C182.032 200.602 181.876 200.68 181.635 200.751C181.398 200.818 181.123 200.877 180.811 200.929C180.503 200.976 180.202 201.019 179.909 201.057C179.62 201.09 179.386 201.118 179.206 201.142C178.77 201.199 178.363 201.291 177.984 201.419C177.61 201.542 177.307 201.729 177.075 201.98C176.848 202.226 176.734 202.562 176.734 202.989C176.734 203.571 176.949 204.011 177.38 204.31C177.816 204.603 178.368 204.75 179.035 204.75ZM188.401 202.023L188.373 199.949H188.714L193.487 195.091H195.56L190.475 200.233H190.333L188.401 202.023ZM186.839 206V191.455H188.515V206H186.839ZM193.771 206L189.509 200.602L190.702 199.438L195.901 206H193.771ZM201.842 206.227C200.791 206.227 199.884 205.995 199.122 205.531C198.365 205.062 197.78 204.409 197.368 203.571C196.961 202.728 196.757 201.748 196.757 200.631C196.757 199.513 196.961 198.528 197.368 197.676C197.78 196.819 198.353 196.152 199.087 195.673C199.825 195.19 200.687 194.949 201.672 194.949C202.24 194.949 202.801 195.044 203.355 195.233C203.909 195.422 204.413 195.73 204.868 196.156C205.322 196.578 205.685 197.136 205.955 197.832C206.224 198.528 206.359 199.385 206.359 200.403V201.114H197.95V199.665H204.655C204.655 199.049 204.532 198.5 204.286 198.017C204.044 197.534 203.698 197.153 203.249 196.874C202.804 196.594 202.278 196.455 201.672 196.455C201.004 196.455 200.427 196.62 199.939 196.952C199.456 197.278 199.084 197.705 198.824 198.23C198.563 198.756 198.433 199.319 198.433 199.92V200.886C198.433 201.71 198.575 202.409 198.859 202.982C199.148 203.55 199.548 203.983 200.06 204.281C200.571 204.575 201.165 204.722 201.842 204.722C202.283 204.722 202.68 204.66 203.036 204.537C203.395 204.409 203.705 204.22 203.966 203.969C204.226 203.713 204.428 203.396 204.57 203.017L206.189 203.472C206.018 204.021 205.732 204.504 205.33 204.92C204.927 205.332 204.43 205.654 203.838 205.886C203.246 206.114 202.581 206.227 201.842 206.227ZM218.966 206.227C217.943 206.227 217.063 205.986 216.324 205.503C215.585 205.02 215.017 204.355 214.619 203.507C214.222 202.66 214.023 201.691 214.023 200.602C214.023 199.494 214.226 198.517 214.634 197.669C215.045 196.817 215.618 196.152 216.352 195.673C217.091 195.19 217.953 194.949 218.938 194.949C219.705 194.949 220.396 195.091 221.011 195.375C221.627 195.659 222.131 196.057 222.524 196.568C222.917 197.08 223.161 197.676 223.256 198.358H221.58C221.452 197.861 221.168 197.42 220.727 197.037C220.292 196.649 219.705 196.455 218.966 196.455C218.313 196.455 217.74 196.625 217.247 196.966C216.759 197.302 216.378 197.778 216.104 198.393C215.834 199.004 215.699 199.722 215.699 200.545C215.699 201.388 215.831 202.122 216.097 202.747C216.366 203.372 216.745 203.857 217.233 204.203C217.725 204.549 218.303 204.722 218.966 204.722C219.402 204.722 219.797 204.646 220.152 204.494C220.507 204.343 220.808 204.125 221.054 203.841C221.3 203.557 221.475 203.216 221.58 202.818H223.256C223.161 203.462 222.927 204.042 222.553 204.558C222.183 205.07 221.693 205.477 221.082 205.78C220.476 206.078 219.771 206.227 218.966 206.227ZM228.916 206.256C228.225 206.256 227.598 206.125 227.034 205.865C226.471 205.6 226.023 205.219 225.692 204.722C225.36 204.22 225.195 203.614 225.195 202.903C225.195 202.278 225.318 201.772 225.564 201.384C225.81 200.991 226.139 200.683 226.551 200.46C226.963 200.238 227.418 200.072 227.915 199.963C228.417 199.849 228.921 199.759 229.428 199.693C230.09 199.608 230.628 199.544 231.04 199.501C231.456 199.454 231.759 199.376 231.949 199.267C232.143 199.158 232.24 198.969 232.24 198.699V198.642C232.24 197.941 232.048 197.397 231.665 197.009C231.286 196.62 230.711 196.426 229.939 196.426C229.139 196.426 228.511 196.601 228.057 196.952C227.602 197.302 227.283 197.676 227.098 198.074L225.507 197.506C225.791 196.843 226.17 196.327 226.643 195.957C227.122 195.583 227.643 195.323 228.206 195.176C228.774 195.025 229.333 194.949 229.882 194.949C230.232 194.949 230.635 194.991 231.089 195.077C231.549 195.157 231.991 195.325 232.418 195.581C232.848 195.837 233.206 196.223 233.49 196.739C233.774 197.255 233.916 197.946 233.916 198.812V206H232.24V204.523H232.155C232.041 204.759 231.852 205.013 231.587 205.283C231.321 205.553 230.969 205.782 230.528 205.972C230.088 206.161 229.551 206.256 228.916 206.256ZM229.172 204.75C229.835 204.75 230.393 204.62 230.848 204.359C231.307 204.099 231.653 203.763 231.885 203.351C232.122 202.939 232.24 202.506 232.24 202.051V200.517C232.169 200.602 232.013 200.68 231.771 200.751C231.535 200.818 231.26 200.877 230.947 200.929C230.64 200.976 230.339 201.019 230.045 201.057C229.757 201.09 229.522 201.118 229.342 201.142C228.907 201.199 228.5 201.291 228.121 201.419C227.747 201.542 227.444 201.729 227.212 201.98C226.984 202.226 226.871 202.562 226.871 202.989C226.871 203.571 227.086 204.011 227.517 204.31C227.953 204.603 228.504 204.75 229.172 204.75ZM236.975 206V195.091H238.595V196.739H238.708C238.907 196.199 239.267 195.761 239.788 195.425C240.309 195.089 240.896 194.92 241.549 194.92C241.672 194.92 241.826 194.923 242.011 194.928C242.196 194.932 242.335 194.939 242.43 194.949V196.653C242.373 196.639 242.243 196.618 242.039 196.589C241.841 196.556 241.63 196.54 241.407 196.54C240.877 196.54 240.404 196.651 239.987 196.874C239.575 197.091 239.248 197.394 239.007 197.783C238.77 198.166 238.652 198.604 238.652 199.097V206H236.975ZM248.659 206.227C247.608 206.227 246.701 205.995 245.939 205.531C245.181 205.062 244.596 204.409 244.184 203.571C243.777 202.728 243.574 201.748 243.574 200.631C243.574 199.513 243.777 198.528 244.184 197.676C244.596 196.819 245.169 196.152 245.903 195.673C246.642 195.19 247.503 194.949 248.488 194.949C249.056 194.949 249.618 195.044 250.172 195.233C250.725 195.422 251.23 195.73 251.684 196.156C252.139 196.578 252.501 197.136 252.771 197.832C253.041 198.528 253.176 199.385 253.176 200.403V201.114H244.767V199.665H251.471C251.471 199.049 251.348 198.5 251.102 198.017C250.86 197.534 250.515 197.153 250.065 196.874C249.62 196.594 249.094 196.455 248.488 196.455C247.821 196.455 247.243 196.62 246.755 196.952C246.272 197.278 245.901 197.705 245.64 198.23C245.38 198.756 245.25 199.319 245.25 199.92V200.886C245.25 201.71 245.392 202.409 245.676 202.982C245.965 203.55 246.365 203.983 246.876 204.281C247.387 204.575 247.982 204.722 248.659 204.722C249.099 204.722 249.497 204.66 249.852 204.537C250.212 204.409 250.522 204.22 250.782 203.969C251.043 203.713 251.244 203.396 251.386 203.017L253.005 203.472C252.835 204.021 252.548 204.504 252.146 204.92C251.743 205.332 251.246 205.654 250.654 205.886C250.063 206.114 249.397 206.227 248.659 206.227ZM63.6143 230.227C62.6295 230.227 61.7654 229.993 61.022 229.524C60.2834 229.055 59.7057 228.4 59.2891 227.557C58.8771 226.714 58.6712 225.729 58.6712 224.602C58.6712 223.466 58.8771 222.474 59.2891 221.626C59.7057 220.779 60.2834 220.121 61.022 219.652C61.7654 219.183 62.6295 218.949 63.6143 218.949C64.5992 218.949 65.4609 219.183 66.1996 219.652C66.9429 220.121 67.5206 220.779 67.9325 221.626C68.3492 222.474 68.5575 223.466 68.5575 224.602C68.5575 225.729 68.3492 226.714 67.9325 227.557C67.5206 228.4 66.9429 229.055 66.1996 229.524C65.4609 229.993 64.5992 230.227 63.6143 230.227ZM63.6143 228.722C64.3625 228.722 64.978 228.53 65.4609 228.146C65.9439 227.763 66.3014 227.259 66.5334 226.634C66.7654 226.009 66.8814 225.331 66.8814 224.602C66.8814 223.873 66.7654 223.194 66.5334 222.564C66.3014 221.934 65.9439 221.425 65.4609 221.037C64.978 220.649 64.3625 220.455 63.6143 220.455C62.8662 220.455 62.2507 220.649 61.7678 221.037C61.2848 221.425 60.9273 221.934 60.6953 222.564C60.4633 223.194 60.3473 223.873 60.3473 224.602C60.3473 225.331 60.4633 226.009 60.6953 226.634C60.9273 227.259 61.2848 227.763 61.7678 228.146C62.2507 228.53 62.8662 228.722 63.6143 228.722ZM75.9741 219.091V220.511H70.0934V219.091H75.9741ZM71.8548 230V217.585C71.8548 216.96 72.0015 216.439 72.2951 216.023C72.5887 215.606 72.9698 215.294 73.4386 215.085C73.9073 214.877 74.4021 214.773 74.9229 214.773C75.3349 214.773 75.671 214.806 75.9315 214.872C76.1919 214.938 76.386 215 76.5138 215.057L76.0309 216.506C75.9457 216.477 75.8273 216.442 75.6758 216.399C75.529 216.357 75.3349 216.335 75.0934 216.335C74.5394 216.335 74.1393 216.475 73.8931 216.754C73.6516 217.034 73.5309 217.443 73.5309 217.983V230H71.8548ZM88.6925 219.091V220.511H83.0391V219.091H88.6925ZM84.6868 216.477H86.3629V226.875C86.3629 227.348 86.4316 227.704 86.5689 227.94C86.7109 228.172 86.8909 228.329 87.1087 228.409C87.3312 228.485 87.5656 228.523 87.8118 228.523C87.9964 228.523 88.148 228.513 88.2663 228.494C88.3847 228.471 88.4794 228.452 88.5504 228.438L88.8913 229.943C88.7777 229.986 88.6191 230.028 88.4155 230.071C88.2119 230.118 87.9538 230.142 87.6413 230.142C87.1679 230.142 86.7038 230.04 86.2493 229.837C85.7995 229.633 85.4254 229.323 85.1271 228.906C84.8336 228.49 84.6868 227.964 84.6868 227.33V216.477ZM93.1243 223.438V230H91.4482V215.455H93.1243V220.795H93.2663C93.522 220.232 93.9055 219.785 94.4169 219.453C94.933 219.117 95.6196 218.949 96.4766 218.949C97.2199 218.949 97.871 219.098 98.4297 219.396C98.9884 219.69 99.4216 220.142 99.7294 220.753C100.042 221.359 100.198 222.131 100.198 223.068V230H98.522V223.182C98.522 222.315 98.2971 221.645 97.8473 221.172C97.4022 220.694 96.7843 220.455 95.9936 220.455C95.4444 220.455 94.9519 220.571 94.5163 220.803C94.0855 221.035 93.7446 221.373 93.4936 221.818C93.2474 222.263 93.1243 222.803 93.1243 223.438ZM107.838 230.227C106.787 230.227 105.881 229.995 105.118 229.531C104.361 229.062 103.776 228.409 103.364 227.571C102.957 226.728 102.753 225.748 102.753 224.631C102.753 223.513 102.957 222.528 103.364 221.676C103.776 220.819 104.349 220.152 105.083 219.673C105.821 219.19 106.683 218.949 107.668 218.949C108.236 218.949 108.797 219.044 109.351 219.233C109.905 219.422 110.409 219.73 110.864 220.156C111.319 220.578 111.681 221.136 111.951 221.832C112.221 222.528 112.355 223.385 112.355 224.403V225.114H103.946V223.665H110.651C110.651 223.049 110.528 222.5 110.282 222.017C110.04 221.534 109.694 221.153 109.245 220.874C108.8 220.594 108.274 220.455 107.668 220.455C107 220.455 106.423 220.62 105.935 220.952C105.452 221.278 105.08 221.705 104.82 222.23C104.56 222.756 104.429 223.319 104.429 223.92V224.886C104.429 225.71 104.571 226.409 104.855 226.982C105.144 227.55 105.544 227.983 106.056 228.281C106.567 228.575 107.161 228.722 107.838 228.722C108.279 228.722 108.676 228.66 109.032 228.537C109.391 228.409 109.702 228.22 109.962 227.969C110.222 227.713 110.424 227.396 110.566 227.017L112.185 227.472C112.015 228.021 111.728 228.504 111.326 228.92C110.923 229.332 110.426 229.654 109.834 229.886C109.242 230.114 108.577 230.227 107.838 230.227ZM114.905 230V219.091H116.525V220.795H116.667C116.894 220.213 117.261 219.761 117.767 219.439C118.274 219.112 118.882 218.949 119.593 218.949C120.312 218.949 120.911 219.112 121.39 219.439C121.873 219.761 122.249 220.213 122.519 220.795H122.632C122.912 220.232 123.331 219.785 123.89 219.453C124.448 219.117 125.118 218.949 125.9 218.949C126.875 218.949 127.673 219.254 128.293 219.865C128.913 220.471 129.223 221.416 129.223 222.699V230H127.547V222.699C127.547 221.894 127.327 221.319 126.887 220.973C126.446 220.627 125.928 220.455 125.331 220.455C124.564 220.455 123.97 220.687 123.549 221.151C123.127 221.61 122.917 222.192 122.917 222.898V230H121.212V222.528C121.212 221.908 121.011 221.409 120.608 221.03C120.206 220.646 119.687 220.455 119.053 220.455C118.617 220.455 118.21 220.571 117.831 220.803C117.457 221.035 117.154 221.357 116.922 221.768C116.695 222.176 116.581 222.647 116.581 223.182V230H114.905ZM140.015 221.534L138.51 221.96C138.415 221.709 138.275 221.465 138.091 221.229C137.911 220.987 137.664 220.788 137.352 220.632C137.039 220.476 136.639 220.398 136.152 220.398C135.484 220.398 134.928 220.552 134.483 220.859C134.042 221.162 133.822 221.548 133.822 222.017C133.822 222.434 133.974 222.763 134.277 223.004C134.58 223.246 135.053 223.447 135.697 223.608L137.316 224.006C138.292 224.242 139.019 224.605 139.497 225.092C139.975 225.575 140.214 226.198 140.214 226.96C140.214 227.585 140.034 228.144 139.674 228.636C139.319 229.129 138.822 229.517 138.183 229.801C137.544 230.085 136.8 230.227 135.953 230.227C134.84 230.227 133.919 229.986 133.19 229.503C132.461 229.02 131.999 228.314 131.805 227.386L133.396 226.989C133.547 227.576 133.834 228.016 134.255 228.31C134.681 228.603 135.238 228.75 135.924 228.75C136.706 228.75 137.326 228.584 137.785 228.253C138.249 227.917 138.481 227.514 138.481 227.045C138.481 226.667 138.349 226.349 138.083 226.094C137.818 225.833 137.411 225.639 136.862 225.511L135.044 225.085C134.045 224.848 133.311 224.482 132.842 223.984C132.378 223.482 132.146 222.855 132.146 222.102C132.146 221.487 132.319 220.942 132.664 220.469C133.015 219.995 133.491 219.624 134.092 219.354C134.698 219.084 135.385 218.949 136.152 218.949C137.231 218.949 138.079 219.186 138.694 219.659C139.315 220.133 139.755 220.758 140.015 221.534ZM147.311 230.227C146.26 230.227 145.353 229.995 144.591 229.531C143.833 229.062 143.249 228.409 142.837 227.571C142.429 226.728 142.226 225.748 142.226 224.631C142.226 223.513 142.429 222.528 142.837 221.676C143.249 220.819 143.821 220.152 144.555 219.673C145.294 219.19 146.156 218.949 147.141 218.949C147.709 218.949 148.27 219.044 148.824 219.233C149.378 219.422 149.882 219.73 150.337 220.156C150.791 220.578 151.153 221.136 151.423 221.832C151.693 222.528 151.828 223.385 151.828 224.403V225.114H143.419V223.665H150.124C150.124 223.049 150 222.5 149.754 222.017C149.513 221.534 149.167 221.153 148.717 220.874C148.272 220.594 147.747 220.455 147.141 220.455C146.473 220.455 145.895 220.62 145.408 220.952C144.925 221.278 144.553 221.705 144.293 222.23C144.032 222.756 143.902 223.319 143.902 223.92V224.886C143.902 225.71 144.044 226.409 144.328 226.982C144.617 227.55 145.017 227.983 145.528 228.281C146.04 228.575 146.634 228.722 147.311 228.722C147.751 228.722 148.149 228.66 148.504 228.537C148.864 228.409 149.174 228.22 149.435 227.969C149.695 227.713 149.896 227.396 150.038 227.017L151.658 227.472C151.487 228.021 151.201 228.504 150.798 228.92C150.396 229.332 149.899 229.654 149.307 229.886C148.715 230.114 148.05 230.227 147.311 230.227ZM156.054 215.455V230H154.378V215.455H156.054ZM168.044 219.091L164.01 230H162.306L158.272 219.091H160.09L163.101 227.784H163.215L166.226 219.091H168.044ZM174.44 230.227C173.389 230.227 172.482 229.995 171.72 229.531C170.962 229.062 170.377 228.409 169.966 227.571C169.558 226.728 169.355 225.748 169.355 224.631C169.355 223.513 169.558 222.528 169.966 221.676C170.377 220.819 170.95 220.152 171.684 219.673C172.423 219.19 173.285 218.949 174.27 218.949C174.838 218.949 175.399 219.044 175.953 219.233C176.507 219.422 177.011 219.73 177.466 220.156C177.92 220.578 178.282 221.136 178.552 221.832C178.822 222.528 178.957 223.385 178.957 224.403V225.114H170.548V223.665H177.252C177.252 223.049 177.129 222.5 176.883 222.017C176.642 221.534 176.296 221.153 175.846 220.874C175.401 220.594 174.876 220.455 174.27 220.455C173.602 220.455 173.024 220.62 172.537 220.952C172.054 221.278 171.682 221.705 171.422 222.23C171.161 222.756 171.031 223.319 171.031 223.92V224.886C171.031 225.71 171.173 226.409 171.457 226.982C171.746 227.55 172.146 227.983 172.657 228.281C173.169 228.575 173.763 228.722 174.44 228.722C174.88 228.722 175.278 228.66 175.633 228.537C175.993 228.409 176.303 228.22 176.564 227.969C176.824 227.713 177.025 227.396 177.167 227.017L178.787 227.472C178.616 228.021 178.33 228.504 177.927 228.92C177.525 229.332 177.028 229.654 176.436 229.886C175.844 230.114 175.179 230.227 174.44 230.227ZM189.234 221.534L187.728 221.96C187.634 221.709 187.494 221.465 187.309 221.229C187.129 220.987 186.883 220.788 186.571 220.632C186.258 220.476 185.858 220.398 185.37 220.398C184.703 220.398 184.146 220.552 183.701 220.859C183.261 221.162 183.041 221.548 183.041 222.017C183.041 222.434 183.192 222.763 183.495 223.004C183.798 223.246 184.272 223.447 184.916 223.608L186.535 224.006C187.511 224.242 188.237 224.605 188.716 225.092C189.194 225.575 189.433 226.198 189.433 226.96C189.433 227.585 189.253 228.144 188.893 228.636C188.538 229.129 188.041 229.517 187.402 229.801C186.762 230.085 186.019 230.227 185.172 230.227C184.059 230.227 183.138 229.986 182.409 229.503C181.68 229.02 181.218 228.314 181.024 227.386L182.615 226.989C182.766 227.576 183.053 228.016 183.474 228.31C183.9 228.603 184.457 228.75 185.143 228.75C185.924 228.75 186.545 228.584 187.004 228.253C187.468 227.917 187.7 227.514 187.7 227.045C187.7 226.667 187.567 226.349 187.302 226.094C187.037 225.833 186.63 225.639 186.081 225.511L184.262 225.085C183.263 224.848 182.529 224.482 182.061 223.984C181.597 223.482 181.365 222.855 181.365 222.102C181.365 221.487 181.538 220.942 181.883 220.469C182.234 219.995 182.709 219.624 183.311 219.354C183.917 219.084 184.603 218.949 185.37 218.949C186.45 218.949 187.297 219.186 187.913 219.659C188.533 220.133 188.974 220.758 189.234 221.534ZM205.308 221.534L203.803 221.96C203.708 221.709 203.568 221.465 203.384 221.229C203.204 220.987 202.957 220.788 202.645 220.632C202.332 220.476 201.932 220.398 201.445 220.398C200.777 220.398 200.221 220.552 199.776 220.859C199.335 221.162 199.115 221.548 199.115 222.017C199.115 222.434 199.267 222.763 199.57 223.004C199.873 223.246 200.346 223.447 200.99 223.608L202.609 224.006C203.585 224.242 204.312 224.605 204.79 225.092C205.268 225.575 205.507 226.198 205.507 226.96C205.507 227.585 205.327 228.144 204.967 228.636C204.612 229.129 204.115 229.517 203.476 229.801C202.837 230.085 202.093 230.227 201.246 230.227C200.133 230.227 199.212 229.986 198.483 229.503C197.754 229.02 197.292 228.314 197.098 227.386L198.689 226.989C198.84 227.576 199.127 228.016 199.548 228.31C199.974 228.603 200.531 228.75 201.217 228.75C201.999 228.75 202.619 228.584 203.078 228.253C203.542 227.917 203.774 227.514 203.774 227.045C203.774 226.667 203.642 226.349 203.376 226.094C203.111 225.833 202.704 225.639 202.155 225.511L200.337 225.085C199.338 224.848 198.604 224.482 198.135 223.984C197.671 223.482 197.439 222.855 197.439 222.102C197.439 221.487 197.612 220.942 197.957 220.469C198.308 219.995 198.784 219.624 199.385 219.354C199.991 219.084 200.678 218.949 201.445 218.949C202.524 218.949 203.372 219.186 203.987 219.659C204.607 220.133 205.048 220.758 205.308 221.534ZM212.462 230.227C211.477 230.227 210.613 229.993 209.87 229.524C209.131 229.055 208.553 228.4 208.137 227.557C207.725 226.714 207.519 225.729 207.519 224.602C207.519 223.466 207.725 222.474 208.137 221.626C208.553 220.779 209.131 220.121 209.87 219.652C210.613 219.183 211.477 218.949 212.462 218.949C213.447 218.949 214.309 219.183 215.047 219.652C215.791 220.121 216.368 220.779 216.78 221.626C217.197 222.474 217.405 223.466 217.405 224.602C217.405 225.729 217.197 226.714 216.78 227.557C216.368 228.4 215.791 229.055 215.047 229.524C214.309 229.993 213.447 230.227 212.462 230.227ZM212.462 228.722C213.21 228.722 213.826 228.53 214.309 228.146C214.792 227.763 215.149 227.259 215.381 226.634C215.613 226.009 215.729 225.331 215.729 224.602C215.729 223.873 215.613 223.194 215.381 222.564C215.149 221.934 214.792 221.425 214.309 221.037C213.826 220.649 213.21 220.455 212.462 220.455C211.714 220.455 211.098 220.649 210.615 221.037C210.132 221.425 209.775 221.934 209.543 222.564C209.311 223.194 209.195 223.873 209.195 224.602C209.195 225.331 209.311 226.009 209.543 226.634C209.775 227.259 210.132 227.763 210.615 228.146C211.098 228.53 211.714 228.722 212.462 228.722ZM226.668 234.091C226.384 234.091 226.131 234.067 225.908 234.02C225.686 233.977 225.532 233.935 225.447 233.892L225.873 232.415C226.28 232.519 226.64 232.557 226.952 232.528C227.265 232.5 227.542 232.36 227.783 232.109C228.03 231.863 228.254 231.463 228.458 230.909L228.771 230.057L224.737 219.091H226.555L229.566 227.784H229.68L232.691 219.091H234.509L229.879 231.591C229.67 232.154 229.412 232.621 229.104 232.99C228.797 233.364 228.439 233.641 228.032 233.821C227.629 234.001 227.175 234.091 226.668 234.091ZM240.763 230.227C239.778 230.227 238.914 229.993 238.17 229.524C237.432 229.055 236.854 228.4 236.438 227.557C236.026 226.714 235.82 225.729 235.82 224.602C235.82 223.466 236.026 222.474 236.438 221.626C236.854 220.779 237.432 220.121 238.17 219.652C238.914 219.183 239.778 218.949 240.763 218.949C241.748 218.949 242.609 219.183 243.348 219.652C244.091 220.121 244.669 220.779 245.081 221.626C245.498 222.474 245.706 223.466 245.706 224.602C245.706 225.729 245.498 226.714 245.081 227.557C244.669 228.4 244.091 229.055 243.348 229.524C242.609 229.993 241.748 230.227 240.763 230.227ZM240.763 228.722C241.511 228.722 242.126 228.53 242.609 228.146C243.092 227.763 243.45 227.259 243.682 226.634C243.914 226.009 244.03 225.331 244.03 224.602C244.03 223.873 243.914 223.194 243.682 222.564C243.45 221.934 243.092 221.425 242.609 221.037C242.126 220.649 241.511 220.455 240.763 220.455C240.015 220.455 239.399 220.649 238.916 221.037C238.433 221.425 238.076 221.934 237.844 222.564C237.612 223.194 237.496 223.873 237.496 224.602C237.496 225.331 237.612 226.009 237.844 226.634C238.076 227.259 238.433 227.763 238.916 228.146C239.399 228.53 240.015 228.722 240.763 228.722ZM255.14 225.54V219.091H256.816V230H255.14V228.153H255.026C254.77 228.707 254.373 229.179 253.833 229.567C253.293 229.95 252.611 230.142 251.787 230.142C251.105 230.142 250.499 229.993 249.969 229.695C249.439 229.392 249.022 228.937 248.719 228.331C248.416 227.72 248.265 226.951 248.265 226.023V219.091H249.941V225.909C249.941 226.705 250.163 227.339 250.608 227.812C251.058 228.286 251.631 228.523 252.327 228.523C252.744 228.523 253.167 228.416 253.598 228.203C254.034 227.99 254.399 227.663 254.692 227.223C254.99 226.783 255.14 226.222 255.14 225.54ZM101.446 254.227C100.424 254.227 99.543 253.986 98.8043 253.503C98.0657 253.02 97.4975 252.355 97.0998 251.507C96.7021 250.66 96.5032 249.691 96.5032 248.602C96.5032 247.494 96.7068 246.517 97.114 245.669C97.5259 244.817 98.0988 244.152 98.8327 243.673C99.5714 243.19 100.433 242.949 101.418 242.949C102.185 242.949 102.876 243.091 103.492 243.375C104.107 243.659 104.612 244.057 105.005 244.568C105.398 245.08 105.641 245.676 105.736 246.358H104.06C103.932 245.861 103.648 245.42 103.208 245.037C102.772 244.649 102.185 244.455 101.446 244.455C100.793 244.455 100.22 244.625 99.7276 244.966C99.2399 245.302 98.8588 245.778 98.5842 246.393C98.3143 247.004 98.1793 247.722 98.1793 248.545C98.1793 249.388 98.3119 250.122 98.5771 250.747C98.8469 251.372 99.2257 251.857 99.7134 252.203C100.206 252.549 100.783 252.722 101.446 252.722C101.882 252.722 102.277 252.646 102.632 252.494C102.988 252.343 103.288 252.125 103.534 251.841C103.781 251.557 103.956 251.216 104.06 250.818H105.736C105.641 251.462 105.407 252.042 105.033 252.558C104.664 253.07 104.174 253.477 103.563 253.78C102.957 254.078 102.251 254.227 101.446 254.227ZM111.397 254.256C110.705 254.256 110.078 254.125 109.515 253.865C108.951 253.6 108.504 253.219 108.172 252.722C107.841 252.22 107.675 251.614 107.675 250.903C107.675 250.278 107.798 249.772 108.044 249.384C108.291 248.991 108.62 248.683 109.032 248.46C109.444 248.238 109.898 248.072 110.395 247.963C110.897 247.849 111.401 247.759 111.908 247.693C112.571 247.608 113.108 247.544 113.52 247.501C113.937 247.454 114.24 247.376 114.429 247.267C114.623 247.158 114.721 246.969 114.721 246.699V246.642C114.721 245.941 114.529 245.397 114.145 245.009C113.766 244.62 113.191 244.426 112.419 244.426C111.619 244.426 110.992 244.601 110.537 244.952C110.083 245.302 109.763 245.676 109.578 246.074L107.988 245.506C108.272 244.843 108.65 244.327 109.124 243.957C109.602 243.583 110.123 243.323 110.686 243.176C111.255 243.025 111.813 242.949 112.363 242.949C112.713 242.949 113.115 242.991 113.57 243.077C114.029 243.157 114.472 243.325 114.898 243.581C115.329 243.837 115.686 244.223 115.971 244.739C116.255 245.255 116.397 245.946 116.397 246.812V254H114.721V252.523H114.635C114.522 252.759 114.332 253.013 114.067 253.283C113.802 253.553 113.449 253.782 113.009 253.972C112.569 254.161 112.031 254.256 111.397 254.256ZM111.652 252.75C112.315 252.75 112.874 252.62 113.328 252.359C113.788 252.099 114.133 251.763 114.365 251.351C114.602 250.939 114.721 250.506 114.721 250.051V248.517C114.65 248.602 114.493 248.68 114.252 248.751C114.015 248.818 113.74 248.877 113.428 248.929C113.12 248.976 112.819 249.019 112.526 249.057C112.237 249.09 112.003 249.118 111.823 249.142C111.387 249.199 110.98 249.291 110.601 249.419C110.227 249.542 109.924 249.729 109.692 249.98C109.465 250.226 109.351 250.562 109.351 250.989C109.351 251.571 109.567 252.011 109.998 252.31C110.433 252.603 110.985 252.75 111.652 252.75ZM121.132 247.438V254H119.456V243.091H121.075V244.795H121.217C121.473 244.241 121.861 243.796 122.382 243.46C122.903 243.119 123.575 242.949 124.399 242.949C125.138 242.949 125.784 243.1 126.338 243.403C126.892 243.702 127.323 244.156 127.631 244.767C127.938 245.373 128.092 246.14 128.092 247.068V254H126.416V247.182C126.416 246.325 126.194 245.657 125.749 245.179C125.304 244.696 124.693 244.455 123.916 244.455C123.381 244.455 122.903 244.571 122.482 244.803C122.065 245.035 121.736 245.373 121.494 245.818C121.253 246.263 121.132 246.803 121.132 247.438ZM136.78 243.091H138.456V254.795C138.456 255.468 138.34 256.05 138.108 256.543C137.881 257.035 137.535 257.416 137.071 257.686C136.612 257.956 136.032 258.091 135.331 258.091C135.275 258.091 135.218 258.091 135.161 258.091C135.104 258.091 135.047 258.091 134.99 258.091V256.528C135.047 256.528 135.099 256.528 135.147 256.528C135.194 256.528 135.246 256.528 135.303 256.528C135.814 256.528 136.188 256.377 136.425 256.074C136.662 255.776 136.78 255.349 136.78 254.795V243.091ZM137.604 241.273C137.277 241.273 136.996 241.161 136.759 240.939C136.527 240.716 136.411 240.449 136.411 240.136C136.411 239.824 136.527 239.556 136.759 239.334C136.996 239.111 137.277 239 137.604 239C137.931 239 138.21 239.111 138.442 239.334C138.679 239.556 138.797 239.824 138.797 240.136C138.797 240.449 138.679 240.716 138.442 240.939C138.21 241.161 137.931 241.273 137.604 241.273ZM148.401 249.54V243.091H150.077V254H148.401V252.153H148.288C148.032 252.707 147.634 253.179 147.094 253.567C146.555 253.95 145.873 254.142 145.049 254.142C144.367 254.142 143.761 253.993 143.231 253.695C142.701 253.392 142.284 252.937 141.981 252.331C141.678 251.72 141.526 250.951 141.526 250.023V243.091H143.202V249.909C143.202 250.705 143.425 251.339 143.87 251.812C144.32 252.286 144.893 252.523 145.589 252.523C146.005 252.523 146.429 252.416 146.86 252.203C147.296 251.99 147.66 251.663 147.954 251.223C148.252 250.783 148.401 250.222 148.401 249.54ZM160.875 245.534L159.369 245.96C159.274 245.709 159.135 245.465 158.95 245.229C158.77 244.987 158.524 244.788 158.211 244.632C157.899 244.476 157.499 244.398 157.011 244.398C156.343 244.398 155.787 244.552 155.342 244.859C154.902 245.162 154.681 245.548 154.681 246.017C154.681 246.434 154.833 246.763 155.136 247.004C155.439 247.246 155.913 247.447 156.556 247.608L158.176 248.006C159.151 248.242 159.878 248.605 160.356 249.092C160.834 249.575 161.074 250.198 161.074 250.96C161.074 251.585 160.894 252.144 160.534 252.636C160.179 253.129 159.681 253.517 159.042 253.801C158.403 254.085 157.66 254.227 156.812 254.227C155.699 254.227 154.779 253.986 154.049 253.503C153.32 253.02 152.859 252.314 152.664 251.386L154.255 250.989C154.407 251.576 154.693 252.016 155.115 252.31C155.541 252.603 156.097 252.75 156.784 252.75C157.565 252.75 158.185 252.584 158.645 252.253C159.109 251.917 159.341 251.514 159.341 251.045C159.341 250.667 159.208 250.349 158.943 250.094C158.678 249.833 158.27 249.639 157.721 249.511L155.903 249.085C154.904 248.848 154.17 248.482 153.701 247.984C153.237 247.482 153.005 246.855 153.005 246.102C153.005 245.487 153.178 244.942 153.524 244.469C153.874 243.995 154.35 243.624 154.951 243.354C155.557 243.084 156.244 242.949 157.011 242.949C158.091 242.949 158.938 243.186 159.554 243.659C160.174 244.133 160.614 244.758 160.875 245.534ZM168.341 243.091V244.511H162.688V243.091H168.341ZM164.335 240.477H166.011V250.875C166.011 251.348 166.08 251.704 166.217 251.94C166.359 252.172 166.539 252.329 166.757 252.409C166.98 252.485 167.214 252.523 167.46 252.523C167.645 252.523 167.796 252.513 167.915 252.494C168.033 252.471 168.128 252.452 168.199 252.438L168.54 253.943C168.426 253.986 168.268 254.028 168.064 254.071C167.86 254.118 167.602 254.142 167.29 254.142C166.816 254.142 166.352 254.04 165.898 253.837C165.448 253.633 165.074 253.323 164.776 252.906C164.482 252.49 164.335 251.964 164.335 251.33V240.477ZM176.487 254V243.091H178.107V244.739H178.22C178.419 244.199 178.779 243.761 179.3 243.425C179.821 243.089 180.408 242.92 181.061 242.92C181.184 242.92 181.338 242.923 181.523 242.928C181.707 242.932 181.847 242.939 181.942 242.949V244.653C181.885 244.639 181.755 244.618 181.551 244.589C181.352 244.556 181.142 244.54 180.919 244.54C180.389 244.54 179.915 244.651 179.499 244.874C179.087 245.091 178.76 245.394 178.518 245.783C178.282 246.166 178.163 246.604 178.163 247.097V254H176.487ZM188.17 254.227C187.119 254.227 186.213 253.995 185.45 253.531C184.693 253.062 184.108 252.409 183.696 251.571C183.289 250.728 183.085 249.748 183.085 248.631C183.085 247.513 183.289 246.528 183.696 245.676C184.108 244.819 184.681 244.152 185.415 243.673C186.153 243.19 187.015 242.949 188 242.949C188.568 242.949 189.129 243.044 189.683 243.233C190.237 243.422 190.741 243.73 191.196 244.156C191.651 244.578 192.013 245.136 192.283 245.832C192.553 246.528 192.688 247.385 192.688 248.403V249.114H184.278V247.665H190.983C190.983 247.049 190.86 246.5 190.614 246.017C190.372 245.534 190.027 245.153 189.577 244.874C189.132 244.594 188.606 244.455 188 244.455C187.332 244.455 186.755 244.62 186.267 244.952C185.784 245.278 185.412 245.705 185.152 246.23C184.892 246.756 184.761 247.319 184.761 247.92V248.886C184.761 249.71 184.903 250.409 185.188 250.982C185.476 251.55 185.876 251.983 186.388 252.281C186.899 252.575 187.493 252.722 188.17 252.722C188.611 252.722 189.009 252.66 189.364 252.537C189.723 252.409 190.034 252.22 190.294 251.969C190.554 251.713 190.756 251.396 190.898 251.017L192.517 251.472C192.347 252.021 192.06 252.504 191.658 252.92C191.255 253.332 190.758 253.654 190.166 253.886C189.574 254.114 188.909 254.227 188.17 254.227ZM196.913 239.455V254H195.237V239.455H196.913ZM203.194 254.256C202.502 254.256 201.875 254.125 201.311 253.865C200.748 253.6 200.301 253.219 199.969 252.722C199.638 252.22 199.472 251.614 199.472 250.903C199.472 250.278 199.595 249.772 199.841 249.384C200.087 248.991 200.417 248.683 200.828 248.46C201.24 248.238 201.695 248.072 202.192 247.963C202.694 247.849 203.198 247.759 203.705 247.693C204.368 247.608 204.905 247.544 205.317 247.501C205.734 247.454 206.037 247.376 206.226 247.267C206.42 247.158 206.517 246.969 206.517 246.699V246.642C206.517 245.941 206.326 245.397 205.942 245.009C205.563 244.62 204.988 244.426 204.216 244.426C203.416 244.426 202.789 244.601 202.334 244.952C201.88 245.302 201.56 245.676 201.375 246.074L199.784 245.506C200.069 244.843 200.447 244.327 200.921 243.957C201.399 243.583 201.92 243.323 202.483 243.176C203.051 243.025 203.61 242.949 204.159 242.949C204.51 242.949 204.912 242.991 205.367 243.077C205.826 243.157 206.269 243.325 206.695 243.581C207.126 243.837 207.483 244.223 207.767 244.739C208.051 245.255 208.194 245.946 208.194 246.812V254H206.517V252.523H206.432C206.319 252.759 206.129 253.013 205.864 253.283C205.599 253.553 205.246 253.782 204.806 253.972C204.365 254.161 203.828 254.256 203.194 254.256ZM203.449 252.75C204.112 252.75 204.671 252.62 205.125 252.359C205.585 252.099 205.93 251.763 206.162 251.351C206.399 250.939 206.517 250.506 206.517 250.051V248.517C206.446 248.602 206.29 248.68 206.049 248.751C205.812 248.818 205.537 248.877 205.225 248.929C204.917 248.976 204.616 249.019 204.323 249.057C204.034 249.09 203.8 249.118 203.62 249.142C203.184 249.199 202.777 249.291 202.398 249.419C202.024 249.542 201.721 249.729 201.489 249.98C201.262 250.226 201.148 250.562 201.148 250.989C201.148 251.571 201.364 252.011 201.794 252.31C202.23 252.603 202.782 252.75 203.449 252.75ZM212.503 243.091L215.116 247.551L217.73 243.091H219.662L216.139 248.545L219.662 254H217.73L215.116 249.767L212.503 254H210.571L214.037 248.545L210.571 243.091H212.503Z" fill="black"/>
<ellipse cx="37.1427" cy="29.5382" rx="37.1427" ry="29.5382" transform="matrix(0.96517 0.261622 -0.210516 0.97759 94.4366 30.3086)" fill="#B3D2E6"/>
<ellipse cx="30.6088" cy="24.3741" rx="30.6088" ry="24.3741" transform="matrix(0.968763 -0.247987 0.199283 0.979942 97.2738 98.23)" fill="#B3D2E6"/>
<ellipse cx="37.1427" cy="29.5382" rx="37.1427" ry="29.5382" transform="matrix(-0.96517 0.261622 0.210516 0.97759 221.088 32)" fill="#B3D2E6"/>
<ellipse cx="30.6088" cy="24.3741" rx="30.6088" ry="24.3741" transform="matrix(-0.968763 -0.247987 -0.199283 0.979942 218.25 99.9214)" fill="#B3D2E6"/>
<ellipse cx="35.8943" cy="6.98169" rx="35.8943" ry="6.98169" transform="matrix(0.0234533 -0.999725 0.999564 0.0295172 150.23 127.939)" fill="#2B5975"/>
<ellipse cx="17.7264" cy="16.2059" rx="17.7264" ry="16.2059" transform="matrix(0.96517 0.261622 -0.210516 0.97759 109.771 48.9131)" fill="#2B5975"/>
<ellipse cx="11.5309" cy="13.0171" rx="11.5309" ry="13.0171" transform="matrix(0.233615 0.972329 -0.958702 0.284412 139.842 98.5557)" fill="#2B5975"/>
<ellipse cx="17.7264" cy="16.2059" rx="17.7264" ry="16.2059" transform="matrix(-0.96517 0.261622 0.210516 0.97759 205.494 50.9131)" fill="#2B5975"/>
<ellipse cx="11.5309" cy="13.0171" rx="11.5309" ry="13.0171" transform="matrix(-0.233615 0.972329 0.958702 0.284412 175.422 100.556)" fill="#2B5975"/>
</g>
<defs>
<filter id="filter0_d_115_7" x="0" y="0" width="316" height="296" filterUnits="userSpaceOnUse" color-interpolation-filters="sRGB">
<feFlood flood-opacity="0" result="BackgroundImageFix"/>
<feColorMatrix in="SourceAlpha" type="matrix" values="0 0 0 0 0 0 0 0 0 0 0 0 0 0 0 0 0 0 127 0" result="hardAlpha"/>
<feOffset dy="4"/>
<feGaussianBlur stdDeviation="2"/>
<feComposite in2="hardAlpha" operator="out"/>
<feColorMatrix type="matrix" values="0 0 0 0 0 0 0 0 0 0 0 0 0 0 0 0 0 0 0.25 0"/>
<feBlend mode="normal" in2="BackgroundImageFix" result="effect1_dropShadow_115_7"/>
<feBlend mode="normal" in="SourceGraphic" in2="effect1_dropShadow_115_7" result="shape"/>
</filter>
</defs>
</svg>
