<svg width="1072" height="517" viewBox="0 0 1072 517" fill="none" xmlns="http://www.w3.org/2000/svg">
<g opacity="0.9" filter="url(#filter0_d_220_159)">
<rect x="4" width="1064" height="509" rx="4" fill="white"/>
<path d="M265.207 164H230.137V158.47H234.057V120.53H230.137V115H245.677V120.53H239.867V158.47H259.677V153.22H265.207V164ZM305.757 160.36C304.17 161.76 302.303 162.81 300.157 163.51C298.01 164.21 295.677 164.56 293.157 164.56C290.637 164.56 288.303 164.21 286.157 163.51C284.01 162.81 282.143 161.76 280.557 160.36C278.97 159.007 277.733 157.303 276.847 155.25C275.96 153.197 275.517 150.84 275.517 148.18V120.53H270.127V115H287.067V120.53H281.327V147.97C281.327 149.743 281.607 151.33 282.167 152.73C282.773 154.083 283.613 155.227 284.687 156.16C285.713 157.093 286.95 157.817 288.397 158.33C289.843 158.797 291.43 159.03 293.157 159.03C294.883 159.03 296.47 158.797 297.917 158.33C299.363 157.817 300.623 157.093 301.697 156.16C302.723 155.227 303.54 154.083 304.147 152.73C304.753 151.33 305.057 149.743 305.057 147.97V120.53H299.317V115H316.257V120.53H310.867V148.18C310.867 150.84 310.4 153.197 309.467 155.25C308.58 157.303 307.343 159.007 305.757 160.36ZM346.533 160.92C345.18 162.087 343.616 162.997 341.843 163.65C340.07 164.257 338.203 164.56 336.243 164.56C334.47 164.56 332.743 164.373 331.063 164C329.383 163.58 327.843 163.043 326.443 162.39C325.043 161.737 323.783 160.99 322.663 160.15C321.59 159.31 320.75 158.423 320.143 157.49V149.37H325.673V155.6C326.886 156.533 328.333 157.35 330.013 158.05C331.693 158.703 333.583 159.03 335.683 159.03C336.896 159.03 338.063 158.867 339.183 158.54C340.303 158.167 341.306 157.653 342.193 157C343.033 156.3 343.71 155.437 344.223 154.41C344.736 153.383 344.993 152.193 344.993 150.84C344.993 150 344.923 149.16 344.783 148.32C344.69 147.48 344.456 146.757 344.083 146.15C343.476 145.17 342.753 144.4 341.913 143.84C341.12 143.233 340.186 142.673 339.113 142.16C337.433 141.46 335.613 140.853 333.653 140.34C331.693 139.827 329.873 139.127 328.193 138.24C326.466 137.353 325.02 136.117 323.853 134.53C322.733 132.943 322.15 130.703 322.103 127.81C322.056 126.27 322.266 124.73 322.733 123.19C323.2 121.65 323.97 120.25 325.043 118.99C326.116 117.73 327.54 116.703 329.313 115.91C331.086 115.117 333.256 114.72 335.823 114.72C336.663 114.72 337.573 114.767 338.553 114.86C339.533 114.953 340.56 115.14 341.633 115.42C342.706 115.7 343.803 116.12 344.923 116.68C346.09 117.24 347.233 117.987 348.353 118.92V125.78H342.823V121.65C341.936 121.277 340.91 120.95 339.743 120.67C338.576 120.39 337.293 120.25 335.893 120.25C334.493 120.25 333.28 120.483 332.253 120.95C331.226 121.37 330.386 121.953 329.733 122.7C329.126 123.4 328.66 124.217 328.333 125.15C328.053 126.037 327.913 126.993 327.913 128.02C327.913 129.42 328.24 130.563 328.893 131.45C329.546 132.29 330.41 133.013 331.483 133.62C333.163 134.507 335.17 135.3 337.503 136C339.836 136.653 342.076 137.493 344.223 138.52C346.183 139.453 347.77 140.9 348.983 142.86C350.196 144.82 350.803 147.503 350.803 150.91C350.803 153.01 350.406 154.9 349.613 156.58C348.866 158.26 347.84 159.707 346.533 160.92ZM371.491 164H354.551V158.47H360.081V120.53H354.551V115H371.491V120.53H365.891V136.56H392.351V120.53H386.751V115H403.691V120.53H398.161V158.47H403.691V164H386.751V158.47H392.351V142.09H365.891V158.47H371.491V164ZM464.679 164H429.609V158.47H433.529V120.53H429.609V115H445.149V120.53H439.339V158.47H459.149V153.22H464.679V164ZM485.139 164H469.599V158.47H475.339C478.559 150.77 481.779 143.163 484.999 135.65C488.266 128.09 491.509 120.46 494.729 112.76C497.949 120.46 501.169 128.09 504.389 135.65C507.656 143.163 510.899 150.77 514.119 158.47H519.859V164H504.319V158.47H508.239C507.259 156.137 506.279 153.827 505.299 151.54C504.366 149.253 503.409 146.943 502.429 144.61H487.029C485.723 147.69 484.743 150 484.089 151.54C483.436 153.08 482.456 155.39 481.149 158.47H485.139V164ZM493.959 127.95C493.119 129.77 492.303 131.683 491.509 133.69C490.763 135.65 490.063 137.447 489.409 139.08H500.049L495.359 127.95L494.659 125.64C494.473 126.387 494.309 126.923 494.169 127.25C494.076 127.577 494.006 127.81 493.959 127.95ZM573.625 120.53V166.24L537.785 128.16L536.455 126.34L536.665 128.58V158.47H541.705V164H524.765V158.47H530.855V120.53H524.765V115H532.885L566.695 151.61L568.025 153.43L567.815 151.19V120.53H562.775V115H579.715V120.53H573.625ZM596.968 164H584.648V158.4H587.938V120.53H584.648V115H599.348C602.708 115 605.882 115.583 608.868 116.75C611.855 117.87 614.468 119.503 616.708 121.65C618.948 123.797 620.722 126.387 622.028 129.42C623.335 132.407 623.988 135.79 623.988 139.57C623.988 142.323 623.498 145.147 622.518 148.04C621.585 150.933 620.045 153.547 617.898 155.88C615.752 158.26 612.952 160.22 609.498 161.76C606.092 163.253 601.915 164 596.968 164ZM593.748 120.53V158.4H598.648C601.402 158.4 603.968 157.957 606.348 157.07C608.728 156.183 610.805 154.9 612.578 153.22C614.305 151.587 615.658 149.627 616.638 147.34C617.665 145.007 618.178 142.393 618.178 139.5C618.178 136.607 617.665 133.993 616.638 131.66C615.658 129.327 614.305 127.32 612.578 125.64C610.805 124.007 608.728 122.747 606.348 121.86C603.968 120.973 601.402 120.53 598.648 120.53H593.748ZM654.287 160.92C652.933 162.087 651.37 162.997 649.597 163.65C647.823 164.257 645.957 164.56 643.997 164.56C642.223 164.56 640.497 164.373 638.817 164C637.137 163.58 635.597 163.043 634.197 162.39C632.797 161.737 631.537 160.99 630.417 160.15C629.343 159.31 628.503 158.423 627.897 157.49V149.37H633.427V155.6C634.64 156.533 636.087 157.35 637.767 158.05C639.447 158.703 641.337 159.03 643.437 159.03C644.65 159.03 645.817 158.867 646.937 158.54C648.057 158.167 649.06 157.653 649.947 157C650.787 156.3 651.463 155.437 651.977 154.41C652.49 153.383 652.747 152.193 652.747 150.84C652.747 150 652.677 149.16 652.537 148.32C652.443 147.48 652.21 146.757 651.837 146.15C651.23 145.17 650.507 144.4 649.667 143.84C648.873 143.233 647.94 142.673 646.867 142.16C645.187 141.46 643.367 140.853 641.407 140.34C639.447 139.827 637.627 139.127 635.947 138.24C634.22 137.353 632.773 136.117 631.607 134.53C630.487 132.943 629.903 130.703 629.857 127.81C629.81 126.27 630.02 124.73 630.487 123.19C630.953 121.65 631.723 120.25 632.797 118.99C633.87 117.73 635.293 116.703 637.067 115.91C638.84 115.117 641.01 114.72 643.577 114.72C644.417 114.72 645.327 114.767 646.307 114.86C647.287 114.953 648.313 115.14 649.387 115.42C650.46 115.7 651.557 116.12 652.677 116.68C653.843 117.24 654.987 117.987 656.107 118.92V125.78H650.577V121.65C649.69 121.277 648.663 120.95 647.497 120.67C646.33 120.39 645.047 120.25 643.647 120.25C642.247 120.25 641.033 120.483 640.007 120.95C638.98 121.37 638.14 121.953 637.487 122.7C636.88 123.4 636.413 124.217 636.087 125.15C635.807 126.037 635.667 126.993 635.667 128.02C635.667 129.42 635.993 130.563 636.647 131.45C637.3 132.29 638.163 133.013 639.237 133.62C640.917 134.507 642.923 135.3 645.257 136C647.59 136.653 649.83 137.493 651.977 138.52C653.937 139.453 655.523 140.9 656.737 142.86C657.95 144.82 658.557 147.503 658.557 150.91C658.557 153.01 658.16 154.9 657.367 156.58C656.62 158.26 655.593 159.707 654.287 160.92ZM700.034 161.06C698.168 162.133 696.161 162.997 694.014 163.65C691.914 164.257 689.674 164.56 687.294 164.56C683.841 164.56 680.598 163.907 677.564 162.6C674.531 161.293 671.894 159.497 669.654 157.21C667.368 154.97 665.571 152.333 664.264 149.3C662.958 146.267 662.304 143.023 662.304 139.57C662.304 136.117 662.958 132.873 664.264 129.84C665.571 126.76 667.368 124.077 669.654 121.79C671.894 119.55 674.531 117.777 677.564 116.47C680.598 115.117 683.841 114.44 687.294 114.44C689.674 114.44 691.914 114.743 694.014 115.35C696.161 115.957 698.191 116.82 700.104 117.94V125.78H694.574V121.51C693.408 120.997 692.218 120.623 691.004 120.39C689.791 120.11 688.554 119.97 687.294 119.97C684.634 119.97 682.138 120.483 679.804 121.51C677.518 122.537 675.511 123.937 673.784 125.71C672.011 127.53 670.611 129.63 669.584 132.01C668.604 134.39 668.114 136.91 668.114 139.57C668.114 142.23 668.604 144.75 669.584 147.13C670.611 149.51 672.011 151.563 673.784 153.29C675.511 155.063 677.518 156.463 679.804 157.49C682.138 158.517 684.634 159.03 687.294 159.03C689.021 159.03 690.678 158.82 692.264 158.4C693.898 157.933 695.438 157.28 696.884 156.44L700.034 161.06ZM720.569 164H705.029V158.47H710.769C713.989 150.77 717.209 143.163 720.429 135.65C723.696 128.09 726.939 120.46 730.159 112.76C733.379 120.46 736.599 128.09 739.819 135.65C743.086 143.163 746.329 150.77 749.549 158.47H755.289V164H739.749V158.47H743.669C742.689 156.137 741.709 153.827 740.729 151.54C739.796 149.253 738.839 146.943 737.859 144.61H722.459C721.152 147.69 720.172 150 719.519 151.54C718.866 153.08 717.886 155.39 716.579 158.47H720.569V164ZM729.389 127.95C728.549 129.77 727.732 131.683 726.939 133.69C726.192 135.65 725.492 137.447 724.839 139.08H735.479L730.789 127.95L730.089 125.64C729.902 126.387 729.739 126.923 729.599 127.25C729.506 127.577 729.436 127.81 729.389 127.95ZM777.135 164H760.195V158.47H763.345V120.53H760.195V115H774.895C776.482 115 778.232 115.257 780.145 115.77C782.105 116.237 783.925 117.007 785.605 118.08C787.285 119.153 788.685 120.53 789.805 122.21C790.925 123.89 791.485 125.92 791.485 128.3C791.485 132.547 790.225 135.93 787.705 138.45C785.185 140.923 781.545 142.16 776.785 142.16H769.155V158.47H777.135V164ZM769.155 120.53V136.56H775.245C777.298 136.56 778.978 136.303 780.285 135.79C781.638 135.23 782.712 134.553 783.505 133.76C784.298 132.967 784.858 132.08 785.185 131.1C785.512 130.12 785.675 129.187 785.675 128.3C785.675 127.273 785.395 126.293 784.835 125.36C784.322 124.427 783.622 123.587 782.735 122.84C781.802 122.14 780.682 121.58 779.375 121.16C778.115 120.74 776.762 120.53 775.315 120.53H769.155ZM831.427 164H796.357V158.47H800.277V120.53H796.357V115H830.447V125.78H824.917V120.53H806.087V136.56H827.717V142.09H806.087V158.47H825.897V153.22H831.427V164ZM843.417 160.36C843.417 161.433 843.044 162.32 842.297 163.02C841.551 163.673 840.734 164 839.847 164C838.914 164 838.074 163.673 837.327 163.02C836.581 162.32 836.207 161.433 836.207 160.36C836.207 159.287 836.581 158.4 837.327 157.7C838.074 157 838.914 156.65 839.847 156.65C840.734 156.65 841.551 157 842.297 157.7C843.044 158.4 843.417 159.287 843.417 160.36ZM218.039 234H182.969V228.47H186.889V190.53H182.969V185H217.059V195.78H211.529V190.53H192.699V206.56H214.329V212.09H192.699V228.47H212.509V223.22H218.039V234ZM235.279 234H222.959V228.4H226.249V190.53H222.959V185H237.659C241.019 185 244.192 185.583 247.179 186.75C250.165 187.87 252.779 189.503 255.019 191.65C257.259 193.797 259.032 196.387 260.339 199.42C261.645 202.407 262.299 205.79 262.299 209.57C262.299 212.323 261.809 215.147 260.829 218.04C259.895 220.933 258.355 223.547 256.209 225.88C254.062 228.26 251.262 230.22 247.809 231.76C244.402 233.253 240.225 234 235.279 234ZM232.059 190.53V228.4H236.959C239.712 228.4 242.279 227.957 244.659 227.07C247.039 226.183 249.115 224.9 250.889 223.22C252.615 221.587 253.969 219.627 254.949 217.34C255.975 215.007 256.489 212.393 256.489 209.5C256.489 206.607 255.975 203.993 254.949 201.66C253.969 199.327 252.615 197.32 250.889 195.64C249.115 194.007 247.039 192.747 244.659 191.86C242.279 190.973 239.712 190.53 236.959 190.53H232.059ZM284.127 234H267.187V228.47H272.717V190.53H267.187V185H284.127V190.53H278.527V228.47H284.127V234ZM306.214 234H288.994V228.47H292.144V190.53H288.994V185H304.954C307.241 185 309.317 185.233 311.184 185.7C313.097 186.167 314.731 186.89 316.084 187.87C317.391 188.85 318.417 190.133 319.164 191.72C319.911 193.26 320.284 195.103 320.284 197.25C320.284 200.143 319.584 202.687 318.184 204.88C316.831 207.073 314.754 208.567 311.954 209.36C313.261 209.64 314.521 210.107 315.734 210.76C316.994 211.413 318.091 212.253 319.024 213.28C319.911 214.307 320.634 215.497 321.194 216.85C321.754 218.203 322.034 219.72 322.034 221.4C322.034 223.5 321.591 225.343 320.704 226.93C319.817 228.47 318.651 229.753 317.204 230.78C315.711 231.853 314.007 232.67 312.094 233.23C310.181 233.743 308.221 234 306.214 234ZM297.954 212.09V228.47H305.724C307.171 228.47 308.524 228.307 309.784 227.98C311.044 227.653 312.164 227.14 313.144 226.44C314.077 225.787 314.824 224.97 315.384 223.99C315.944 223.01 316.224 221.843 316.224 220.49C316.224 219.043 315.897 217.783 315.244 216.71C314.591 215.637 313.751 214.75 312.724 214.05C311.651 213.397 310.414 212.907 309.014 212.58C307.614 212.253 306.191 212.09 304.744 212.09H297.954ZM297.954 190.53V206.56H305.514C308.267 206.56 310.437 205.79 312.024 204.25C313.657 202.71 314.474 200.68 314.474 198.16C314.474 196.713 314.217 195.5 313.704 194.52C313.237 193.493 312.561 192.677 311.674 192.07C310.881 191.557 309.947 191.183 308.874 190.95C307.801 190.67 306.634 190.53 305.374 190.53H297.954ZM362.003 234H326.933V228.47H330.853V190.53H326.933V185H342.473V190.53H336.663V228.47H356.473V223.22H362.003V234ZM401.994 234H366.924V228.47H370.844V190.53H366.924V185H401.014V195.78H395.484V190.53H376.654V206.56H398.284V212.09H376.654V228.47H396.464V223.22H401.994V234ZM470.6 227.21C468.314 229.497 465.63 231.293 462.55 232.6C459.517 233.907 456.297 234.56 452.89 234.56C449.437 234.56 446.194 233.907 443.16 232.6C440.127 231.293 437.49 229.497 435.25 227.21C432.964 224.97 431.167 222.333 429.86 219.3C428.554 216.267 427.9 213.023 427.9 209.57C427.9 206.163 428.554 202.943 429.86 199.91C431.167 196.83 432.964 194.147 435.25 191.86C437.49 189.573 440.127 187.777 443.16 186.47C446.194 185.117 449.437 184.44 452.89 184.44C456.297 184.44 459.517 185.117 462.55 186.47C465.63 187.777 468.314 189.573 470.6 191.86C472.887 194.147 474.684 196.83 475.99 199.91C477.344 202.943 478.02 206.163 478.02 209.57C478.02 213.023 477.344 216.267 475.99 219.3C474.684 222.333 472.887 224.97 470.6 227.21ZM439.38 223.29C441.107 225.063 443.137 226.463 445.47 227.49C447.804 228.517 450.3 229.03 452.96 229.03C455.62 229.03 458.117 228.517 460.45 227.49C462.784 226.463 464.837 225.063 466.61 223.29C468.337 221.563 469.69 219.533 470.67 217.2C471.697 214.82 472.21 212.277 472.21 209.57C472.21 206.863 471.697 204.343 470.67 202.01C469.69 199.63 468.337 197.553 466.61 195.78C464.837 194.007 462.784 192.607 460.45 191.58C458.117 190.553 455.62 190.04 452.96 190.04C450.3 190.04 447.804 190.553 445.47 191.58C443.137 192.607 441.107 194.007 439.38 195.78C437.607 197.553 436.207 199.63 435.18 202.01C434.2 204.343 433.71 206.863 433.71 209.57C433.71 212.277 434.2 214.82 435.18 217.2C436.207 219.533 437.607 221.563 439.38 223.29ZM499.869 234H482.929V228.47H486.079V190.53H482.929V185H497.629C499.216 185 500.966 185.257 502.879 185.77C504.839 186.237 506.659 187.007 508.339 188.08C510.019 189.153 511.419 190.53 512.539 192.21C513.659 193.89 514.219 195.92 514.219 198.3C514.219 201.8 513.333 204.717 511.559 207.05C509.833 209.383 507.289 210.923 503.929 211.67L511.769 228.47H518.349V234H508.129L497.839 212.09C497.186 212.09 496.673 212.113 496.299 212.16C495.973 212.16 495.483 212.16 494.829 212.16H491.889V228.47H499.869V234ZM491.889 190.53V206.56H497.979C500.033 206.56 501.713 206.303 503.019 205.79C504.373 205.23 505.446 204.553 506.239 203.76C507.033 202.967 507.593 202.08 507.919 201.1C508.246 200.12 508.409 199.187 508.409 198.3C508.409 197.273 508.129 196.293 507.569 195.36C507.056 194.427 506.356 193.587 505.469 192.84C504.536 192.14 503.416 191.58 502.109 191.16C500.849 190.74 499.496 190.53 498.049 190.53H491.889ZM572.122 190.53V236.24L536.282 198.16L534.952 196.34L535.162 198.58V228.47H540.202V234H523.262V228.47H529.352V190.53H523.262V185H531.382L565.192 221.61L566.522 223.43L566.312 221.19V190.53H561.272V185H578.212V190.53H572.122ZM598.684 234H583.144V228.47H588.884C592.104 220.77 595.324 213.163 598.544 205.65C601.811 198.09 605.054 190.46 608.274 182.76C611.494 190.46 614.714 198.09 617.934 205.65C621.201 213.163 624.444 220.77 627.664 228.47H633.404V234H617.864V228.47H621.784C620.804 226.137 619.824 223.827 618.844 221.54C617.911 219.253 616.954 216.943 615.974 214.61H600.574C599.268 217.69 598.288 220 597.634 221.54C596.981 223.08 596.001 225.39 594.694 228.47H598.684V234ZM607.504 197.95C606.664 199.77 605.848 201.683 605.054 203.69C604.308 205.65 603.608 207.447 602.954 209.08H613.594L608.904 197.95L608.204 195.64C608.018 196.387 607.854 196.923 607.714 197.25C607.621 197.577 607.551 197.81 607.504 197.95ZM655.25 234H638.31V228.47H644.4V190.53H638.31V185H646.15C650.164 190.18 654.13 195.36 658.05 200.54C662.017 205.673 666.007 210.83 670.02 216.01C674.034 210.83 678 205.673 681.92 200.54C685.887 195.36 689.877 190.18 693.89 185H701.73V190.53H695.64V228.47H701.73V234H684.79V228.47H689.83V201.1C689.877 200.727 689.9 200.353 689.9 199.98C689.947 199.607 689.994 199.233 690.04 198.86C689.667 199.373 689.294 199.91 688.92 200.47C688.547 201.03 688.174 201.567 687.8 202.08L670.02 225.25L651.47 200.96C651.144 200.54 650.864 200.19 650.63 199.91C650.444 199.63 650.234 199.28 650 198.86C650.047 199.233 650.094 199.607 650.14 199.98C650.187 200.353 650.21 200.727 650.21 201.1V228.47H655.25V234ZM741.671 234H706.601V228.47H710.521V190.53H706.601V185H740.691V195.78H735.161V190.53H716.331V206.56H737.961V212.09H716.331V228.47H736.141V223.22H741.671V234ZM795.452 190.53V236.24L759.612 198.16L758.282 196.34L758.492 198.58V228.47H763.532V234H746.592V228.47H752.682V190.53H746.592V185H754.712L788.522 221.61L789.852 223.43L789.642 221.19V190.53H784.602V185H801.542V190.53H795.452ZM833.914 234H816.974V228.47H822.994V190.53H812.004V195.78H806.474V185H845.184V195.78H839.654V190.53H828.804V228.47H833.914V234ZM875.498 230.92C874.144 232.087 872.581 232.997 870.808 233.65C869.034 234.257 867.168 234.56 865.208 234.56C863.434 234.56 861.708 234.373 860.028 234C858.348 233.58 856.808 233.043 855.408 232.39C854.008 231.737 852.748 230.99 851.628 230.15C850.554 229.31 849.714 228.423 849.108 227.49V219.37H854.638V225.6C855.851 226.533 857.298 227.35 858.978 228.05C860.658 228.703 862.548 229.03 864.648 229.03C865.861 229.03 867.028 228.867 868.148 228.54C869.268 228.167 870.271 227.653 871.158 227C871.998 226.3 872.674 225.437 873.188 224.41C873.701 223.383 873.958 222.193 873.958 220.84C873.958 220 873.888 219.16 873.748 218.32C873.654 217.48 873.421 216.757 873.048 216.15C872.441 215.17 871.718 214.4 870.878 213.84C870.084 213.233 869.151 212.673 868.078 212.16C866.398 211.46 864.578 210.853 862.618 210.34C860.658 209.827 858.838 209.127 857.158 208.24C855.431 207.353 853.984 206.117 852.818 204.53C851.698 202.943 851.114 200.703 851.068 197.81C851.021 196.27 851.231 194.73 851.698 193.19C852.164 191.65 852.934 190.25 854.008 188.99C855.081 187.73 856.504 186.703 858.278 185.91C860.051 185.117 862.221 184.72 864.788 184.72C865.628 184.72 866.538 184.767 867.518 184.86C868.498 184.953 869.524 185.14 870.598 185.42C871.671 185.7 872.768 186.12 873.888 186.68C875.054 187.24 876.198 187.987 877.318 188.92V195.78H871.788V191.65C870.901 191.277 869.874 190.95 868.708 190.67C867.541 190.39 866.258 190.25 864.858 190.25C863.458 190.25 862.244 190.483 861.218 190.95C860.191 191.37 859.351 191.953 858.698 192.7C858.091 193.4 857.624 194.217 857.298 195.15C857.018 196.037 856.878 196.993 856.878 198.02C856.878 199.42 857.204 200.563 857.858 201.45C858.511 202.29 859.374 203.013 860.448 203.62C862.128 204.507 864.134 205.3 866.468 206C868.801 206.653 871.041 207.493 873.188 208.52C875.148 209.453 876.734 210.9 877.948 212.86C879.161 214.82 879.768 217.503 879.768 220.91C879.768 223.01 879.371 224.9 878.578 226.58C877.831 228.26 876.804 229.707 875.498 230.92ZM890.585 230.36C890.585 231.433 890.212 232.32 889.465 233.02C888.719 233.673 887.902 234 887.015 234C886.082 234 885.242 233.673 884.495 233.02C883.749 232.32 883.375 231.433 883.375 230.36C883.375 229.287 883.749 228.4 884.495 227.7C885.242 227 886.082 226.65 887.015 226.65C887.902 226.65 888.719 227 889.465 227.7C890.212 228.4 890.585 229.287 890.585 230.36ZM302.183 293.29C303.91 295.063 305.916 296.463 308.203 297.49C310.536 298.517 313.033 299.03 315.693 299.03C318.353 299.03 320.85 298.517 323.183 297.49C325.516 296.463 327.57 295.063 329.343 293.29C331.07 291.563 332.446 289.51 333.473 287.13C334.5 284.75 335.013 282.23 335.013 279.57C335.013 276.91 334.5 274.39 333.473 272.01C332.446 269.63 331.07 267.53 329.343 265.71C327.57 263.937 325.516 262.537 323.183 261.51C320.85 260.483 318.353 259.97 315.693 259.97C313.033 259.97 310.536 260.483 308.203 261.51C305.916 262.537 303.91 263.937 302.183 265.71C300.41 267.53 299.01 269.63 297.983 272.01C297.003 274.39 296.513 276.91 296.513 279.57C296.513 282.23 297.003 284.75 297.983 287.13C299.01 289.51 300.41 291.563 302.183 293.29ZM320.873 304C319.986 304.187 319.1 304.327 318.213 304.42C317.373 304.513 316.533 304.56 315.693 304.56C312.24 304.56 308.996 303.907 305.963 302.6C302.93 301.293 300.293 299.52 298.053 297.28C295.766 294.993 293.97 292.333 292.663 289.3C291.356 286.267 290.703 283.023 290.703 279.57C290.703 276.117 291.356 272.873 292.663 269.84C293.97 266.76 295.766 264.1 298.053 261.86C300.293 259.573 302.93 257.777 305.963 256.47C308.996 255.117 312.24 254.44 315.693 254.44C319.146 254.44 322.39 255.117 325.423 256.47C328.503 257.777 331.186 259.573 333.473 261.86C335.713 264.1 337.486 266.76 338.793 269.84C340.146 272.873 340.823 276.117 340.823 279.57C340.823 281.81 340.52 283.98 339.913 286.08C339.353 288.18 338.56 290.117 337.533 291.89C336.833 293.15 336.016 294.34 335.083 295.46C334.15 296.533 333.146 297.537 332.073 298.47H342.363V304H320.873ZM382.866 300.36C381.279 301.76 379.413 302.81 377.266 303.51C375.119 304.21 372.786 304.56 370.266 304.56C367.746 304.56 365.413 304.21 363.266 303.51C361.119 302.81 359.253 301.76 357.666 300.36C356.079 299.007 354.843 297.303 353.956 295.25C353.069 293.197 352.626 290.84 352.626 288.18V260.53H347.236V255H364.176V260.53H358.436V287.97C358.436 289.743 358.716 291.33 359.276 292.73C359.883 294.083 360.723 295.227 361.796 296.16C362.823 297.093 364.059 297.817 365.506 298.33C366.953 298.797 368.539 299.03 370.266 299.03C371.993 299.03 373.579 298.797 375.026 298.33C376.473 297.817 377.733 297.093 378.806 296.16C379.833 295.227 380.649 294.083 381.256 292.73C381.863 291.33 382.166 289.743 382.166 287.97V260.53H376.426V255H393.366V260.53H387.976V288.18C387.976 290.84 387.509 293.197 386.576 295.25C385.689 297.303 384.453 299.007 382.866 300.36ZM413.772 304H398.232V298.47H403.972C407.192 290.77 410.412 283.163 413.632 275.65C416.899 268.09 420.142 260.46 423.362 252.76C426.582 260.46 429.802 268.09 433.022 275.65C436.289 283.163 439.532 290.77 442.752 298.47H448.492V304H432.952V298.47H436.872C435.892 296.137 434.912 293.827 433.932 291.54C432.999 289.253 432.042 286.943 431.062 284.61H415.662C414.356 287.69 413.376 290 412.722 291.54C412.069 293.08 411.089 295.39 409.782 298.47H413.772V304ZM422.592 267.95C421.752 269.77 420.936 271.683 420.142 273.69C419.396 275.65 418.696 277.447 418.042 279.08H428.682L423.992 267.95L423.292 265.64C423.106 266.387 422.942 266.923 422.802 267.25C422.709 267.577 422.639 267.81 422.592 267.95ZM488.468 304H453.398V298.47H457.318V260.53H453.398V255H468.938V260.53H463.128V298.47H482.938V293.22H488.468V304ZM510.328 304H493.388V298.47H498.918V260.53H493.388V255H510.328V260.53H504.728V298.47H510.328V304ZM542.635 304H525.695V298.47H531.715V260.53H520.725V265.78H515.195V255H553.905V265.78H548.375V260.53H537.525V298.47H542.635V304ZM592.688 304H575.748V298.47H580.438V285.1C577.965 280.993 575.515 276.91 573.088 272.85C570.708 268.743 568.305 264.637 565.878 260.53H558.808V255H575.748V260.53H572.948C574.675 263.377 576.378 266.223 578.058 269.07C579.738 271.917 581.442 274.763 583.168 277.61L583.938 279.78H584.008L584.848 277.61L594.928 260.53H592.198V255H609.138V260.53H602.068C599.642 264.637 597.215 268.743 594.788 272.85C592.408 276.957 590.005 281.063 587.578 285.17V298.47H592.688V304ZM670.099 304H635.029V298.47H638.949V260.53H635.029V255H650.569V260.53H644.759V298.47H664.569V293.22H670.099V304ZM691.959 304H675.019V298.47H680.549V260.53H675.019V255H691.959V260.53H686.359V298.47H691.959V304ZM713.766 304H696.826V298.47H700.746V260.53H696.826V255H730.916V265.78H725.386V260.53H706.556V276.56H728.186V282.09H706.556V298.47H713.766V304ZM770.861 304H735.791V298.47H739.711V260.53H735.791V255H769.881V265.78H764.351V260.53H745.521V276.56H767.151V282.09H745.521V298.47H765.331V293.22H770.861V304ZM782.851 300.36C782.851 301.433 782.478 302.32 781.731 303.02C780.984 303.673 780.168 304 779.281 304C778.348 304 777.508 303.673 776.761 303.02C776.014 302.32 775.641 301.433 775.641 300.36C775.641 299.287 776.014 298.4 776.761 297.7C777.508 297 778.348 296.65 779.281 296.65C780.168 296.65 780.984 297 781.731 297.7C782.478 298.4 782.851 299.287 782.851 300.36Z" fill="black"/>
<path d="M222.105 368C221.949 367.522 221.743 367.093 221.487 366.714C221.236 366.331 220.935 366.004 220.585 365.734C220.239 365.464 219.846 365.259 219.406 365.116C218.966 364.974 218.483 364.903 217.957 364.903C217.095 364.903 216.312 365.126 215.606 365.571C214.901 366.016 214.34 366.672 213.923 367.538C213.506 368.405 213.298 369.468 213.298 370.727C213.298 371.987 213.509 373.05 213.93 373.916C214.352 374.783 214.922 375.438 215.642 375.884C216.362 376.329 217.171 376.551 218.071 376.551C218.904 376.551 219.638 376.374 220.273 376.018C220.912 375.659 221.409 375.152 221.764 374.499C222.124 373.84 222.304 373.066 222.304 372.176L222.844 372.29H218.469V370.727H224.008V372.29C224.008 373.488 223.753 374.529 223.241 375.415C222.735 376.3 222.034 376.987 221.139 377.474C220.249 377.957 219.226 378.199 218.071 378.199C216.783 378.199 215.651 377.896 214.676 377.29C213.705 376.684 212.948 375.822 212.403 374.705C211.863 373.587 211.594 372.261 211.594 370.727C211.594 369.577 211.747 368.542 212.055 367.624C212.368 366.7 212.808 365.914 213.376 365.266C213.944 364.617 214.617 364.12 215.393 363.774C216.17 363.429 217.024 363.256 217.957 363.256C218.724 363.256 219.439 363.372 220.102 363.604C220.77 363.831 221.364 364.155 221.885 364.577C222.41 364.993 222.848 365.493 223.199 366.075C223.549 366.653 223.791 367.295 223.923 368H222.105ZM231.372 378.227C230.32 378.227 229.414 377.995 228.651 377.531C227.894 377.062 227.309 376.409 226.897 375.571C226.49 374.728 226.286 373.748 226.286 372.631C226.286 371.513 226.49 370.528 226.897 369.676C227.309 368.819 227.882 368.152 228.616 367.673C229.355 367.19 230.216 366.949 231.201 366.949C231.769 366.949 232.33 367.044 232.884 367.233C233.438 367.422 233.943 367.73 234.397 368.156C234.852 368.578 235.214 369.136 235.484 369.832C235.754 370.528 235.889 371.385 235.889 372.403V373.114H227.48V371.665H234.184C234.184 371.049 234.061 370.5 233.815 370.017C233.573 369.534 233.228 369.153 232.778 368.874C232.333 368.594 231.807 368.455 231.201 368.455C230.534 368.455 229.956 368.62 229.468 368.952C228.985 369.278 228.614 369.705 228.353 370.23C228.093 370.756 227.963 371.319 227.963 371.92V372.886C227.963 373.71 228.105 374.409 228.389 374.982C228.677 375.55 229.078 375.983 229.589 376.281C230.1 376.575 230.695 376.722 231.372 376.722C231.812 376.722 232.21 376.66 232.565 376.537C232.925 376.409 233.235 376.22 233.495 375.969C233.756 375.713 233.957 375.396 234.099 375.017L235.718 375.472C235.548 376.021 235.261 376.504 234.859 376.92C234.456 377.332 233.959 377.654 233.367 377.886C232.776 378.114 232.11 378.227 231.372 378.227ZM243.183 367.091V368.511H237.529V367.091H243.183ZM239.177 364.477H240.853V374.875C240.853 375.348 240.922 375.704 241.059 375.94C241.201 376.172 241.381 376.329 241.599 376.409C241.821 376.485 242.056 376.523 242.302 376.523C242.487 376.523 242.638 376.513 242.757 376.494C242.875 376.471 242.97 376.452 243.041 376.438L243.382 377.943C243.268 377.986 243.109 378.028 242.906 378.071C242.702 378.118 242.444 378.142 242.132 378.142C241.658 378.142 241.194 378.04 240.74 377.837C240.29 377.633 239.916 377.323 239.617 376.906C239.324 376.49 239.177 375.964 239.177 375.33V364.477ZM256.073 367.091V368.511H250.42V367.091H256.073ZM252.068 364.477H253.744V374.875C253.744 375.348 253.812 375.704 253.95 375.94C254.092 376.172 254.272 376.329 254.49 376.409C254.712 376.485 254.946 376.523 255.193 376.523C255.377 376.523 255.529 376.513 255.647 376.494C255.766 376.471 255.86 376.452 255.931 376.438L256.272 377.943C256.159 377.986 256 378.028 255.796 378.071C255.593 378.118 255.335 378.142 255.022 378.142C254.549 378.142 254.085 378.04 253.63 377.837C253.18 377.633 252.806 377.323 252.508 376.906C252.214 376.49 252.068 375.964 252.068 375.33V364.477ZM262.909 378.227C261.924 378.227 261.06 377.993 260.317 377.524C259.578 377.055 259.001 376.4 258.584 375.557C258.172 374.714 257.966 373.729 257.966 372.602C257.966 371.466 258.172 370.474 258.584 369.626C259.001 368.779 259.578 368.121 260.317 367.652C261.06 367.183 261.924 366.949 262.909 366.949C263.894 366.949 264.756 367.183 265.494 367.652C266.238 368.121 266.816 368.779 267.227 369.626C267.644 370.474 267.852 371.466 267.852 372.602C267.852 373.729 267.644 374.714 267.227 375.557C266.816 376.4 266.238 377.055 265.494 377.524C264.756 377.993 263.894 378.227 262.909 378.227ZM262.909 376.722C263.657 376.722 264.273 376.53 264.756 376.146C265.239 375.763 265.596 375.259 265.828 374.634C266.06 374.009 266.176 373.331 266.176 372.602C266.176 371.873 266.06 371.194 265.828 370.564C265.596 369.934 265.239 369.425 264.756 369.037C264.273 368.649 263.657 368.455 262.909 368.455C262.161 368.455 261.546 368.649 261.063 369.037C260.58 369.425 260.222 369.934 259.99 370.564C259.758 371.194 259.642 371.873 259.642 372.602C259.642 373.331 259.758 374.009 259.99 374.634C260.222 375.259 260.58 375.763 261.063 376.146C261.546 376.53 262.161 376.722 262.909 376.722ZM277.712 363.455V378H276.036V363.455H277.712ZM285.214 378.227C284.229 378.227 283.365 377.993 282.622 377.524C281.883 377.055 281.305 376.4 280.889 375.557C280.477 374.714 280.271 373.729 280.271 372.602C280.271 371.466 280.477 370.474 280.889 369.626C281.305 368.779 281.883 368.121 282.622 367.652C283.365 367.183 284.229 366.949 285.214 366.949C286.199 366.949 287.061 367.183 287.799 367.652C288.543 368.121 289.12 368.779 289.532 369.626C289.949 370.474 290.157 371.466 290.157 372.602C290.157 373.729 289.949 374.714 289.532 375.557C289.12 376.4 288.543 377.055 287.799 377.524C287.061 377.993 286.199 378.227 285.214 378.227ZM285.214 376.722C285.962 376.722 286.578 376.53 287.061 376.146C287.544 375.763 287.901 375.259 288.133 374.634C288.365 374.009 288.481 373.331 288.481 372.602C288.481 371.873 288.365 371.194 288.133 370.564C287.901 369.934 287.544 369.425 287.061 369.037C286.578 368.649 285.962 368.455 285.214 368.455C284.466 368.455 283.85 368.649 283.367 369.037C282.884 369.425 282.527 369.934 282.295 370.564C282.063 371.194 281.947 371.873 281.947 372.602C281.947 373.331 282.063 374.009 282.295 374.634C282.527 375.259 282.884 375.763 283.367 376.146C283.85 376.53 284.466 376.722 285.214 376.722ZM297.148 378.227C296.163 378.227 295.299 377.993 294.555 377.524C293.817 377.055 293.239 376.4 292.822 375.557C292.41 374.714 292.204 373.729 292.204 372.602C292.204 371.466 292.41 370.474 292.822 369.626C293.239 368.779 293.817 368.121 294.555 367.652C295.299 367.183 296.163 366.949 297.148 366.949C298.132 366.949 298.994 367.183 299.733 367.652C300.476 368.121 301.054 368.779 301.466 369.626C301.882 370.474 302.091 371.466 302.091 372.602C302.091 373.729 301.882 374.714 301.466 375.557C301.054 376.4 300.476 377.055 299.733 377.524C298.994 377.993 298.132 378.227 297.148 378.227ZM297.148 376.722C297.896 376.722 298.511 376.53 298.994 376.146C299.477 375.763 299.835 375.259 300.067 374.634C300.299 374.009 300.415 373.331 300.415 372.602C300.415 371.873 300.299 371.194 300.067 370.564C299.835 369.934 299.477 369.425 298.994 369.037C298.511 368.649 297.896 368.455 297.148 368.455C296.399 368.455 295.784 368.649 295.301 369.037C294.818 369.425 294.461 369.934 294.229 370.564C293.997 371.194 293.881 371.873 293.881 372.602C293.881 373.331 293.997 374.009 294.229 374.634C294.461 375.259 294.818 375.763 295.301 376.146C295.784 376.53 296.399 376.722 297.148 376.722ZM306.212 374.023L306.183 371.949H306.524L311.297 367.091H313.371L308.286 372.233H308.144L306.212 374.023ZM304.649 378V363.455H306.325V378H304.649ZM311.581 378L307.32 372.602L308.513 371.438L313.712 378H311.581ZM324.363 378.256C323.672 378.256 323.045 378.125 322.481 377.865C321.918 377.6 321.47 377.219 321.139 376.722C320.808 376.22 320.642 375.614 320.642 374.903C320.642 374.278 320.765 373.772 321.011 373.384C321.257 372.991 321.586 372.683 321.998 372.46C322.41 372.238 322.865 372.072 323.362 371.963C323.864 371.849 324.368 371.759 324.875 371.693C325.538 371.608 326.075 371.544 326.487 371.501C326.904 371.454 327.207 371.376 327.396 371.267C327.59 371.158 327.687 370.969 327.687 370.699V370.642C327.687 369.941 327.496 369.397 327.112 369.009C326.733 368.62 326.158 368.426 325.386 368.426C324.586 368.426 323.959 368.601 323.504 368.952C323.05 369.302 322.73 369.676 322.545 370.074L320.954 369.506C321.238 368.843 321.617 368.327 322.091 367.957C322.569 367.583 323.09 367.323 323.653 367.176C324.221 367.025 324.78 366.949 325.329 366.949C325.68 366.949 326.082 366.991 326.537 367.077C326.996 367.157 327.439 367.325 327.865 367.581C328.296 367.837 328.653 368.223 328.937 368.739C329.221 369.255 329.363 369.946 329.363 370.812V378H327.687V376.523H327.602C327.488 376.759 327.299 377.013 327.034 377.283C326.769 377.553 326.416 377.782 325.976 377.972C325.535 378.161 324.998 378.256 324.363 378.256ZM324.619 376.75C325.282 376.75 325.841 376.62 326.295 376.359C326.755 376.099 327.1 375.763 327.332 375.351C327.569 374.939 327.687 374.506 327.687 374.051V372.517C327.616 372.602 327.46 372.68 327.219 372.751C326.982 372.818 326.707 372.877 326.395 372.929C326.087 372.976 325.786 373.019 325.493 373.057C325.204 373.09 324.97 373.118 324.79 373.142C324.354 373.199 323.947 373.291 323.568 373.419C323.194 373.542 322.891 373.729 322.659 373.98C322.432 374.226 322.318 374.562 322.318 374.989C322.318 375.571 322.533 376.011 322.964 376.31C323.4 376.603 323.952 376.75 324.619 376.75ZM337.167 367.091V368.511H331.514V367.091H337.167ZM333.161 364.477H334.838V374.875C334.838 375.348 334.906 375.704 335.044 375.94C335.186 376.172 335.365 376.329 335.583 376.409C335.806 376.485 336.04 376.523 336.286 376.523C336.471 376.523 336.623 376.513 336.741 376.494C336.859 376.471 336.954 376.452 337.025 376.438L337.366 377.943C337.252 377.986 337.094 378.028 336.89 378.071C336.686 378.118 336.428 378.142 336.116 378.142C335.642 378.142 335.178 378.04 334.724 377.837C334.274 377.633 333.9 377.323 333.602 376.906C333.308 376.49 333.161 375.964 333.161 375.33V364.477ZM350.058 367.091V368.511H344.404V367.091H350.058ZM346.052 364.477H347.728V374.875C347.728 375.348 347.797 375.704 347.934 375.94C348.076 376.172 348.256 376.329 348.474 376.409C348.696 376.485 348.931 376.523 349.177 376.523C349.362 376.523 349.513 376.513 349.632 376.494C349.75 376.471 349.845 376.452 349.916 376.438L350.257 377.943C350.143 377.986 349.984 378.028 349.781 378.071C349.577 378.118 349.319 378.142 349.007 378.142C348.533 378.142 348.069 378.04 347.615 377.837C347.165 377.633 346.791 377.323 346.492 376.906C346.199 376.49 346.052 375.964 346.052 375.33V364.477ZM354.49 371.438V378H352.813V363.455H354.49V368.795H354.632C354.887 368.232 355.271 367.785 355.782 367.453C356.298 367.117 356.985 366.949 357.842 366.949C358.585 366.949 359.236 367.098 359.795 367.396C360.354 367.69 360.787 368.142 361.095 368.753C361.407 369.359 361.563 370.131 361.563 371.068V378H359.887V371.182C359.887 370.315 359.662 369.645 359.213 369.172C358.767 368.694 358.15 368.455 357.359 368.455C356.81 368.455 356.317 368.571 355.882 368.803C355.451 369.035 355.11 369.373 354.859 369.818C354.613 370.263 354.49 370.803 354.49 371.438ZM369.204 378.227C368.153 378.227 367.246 377.995 366.483 377.531C365.726 377.062 365.141 376.409 364.729 375.571C364.322 374.728 364.118 373.748 364.118 372.631C364.118 371.513 364.322 370.528 364.729 369.676C365.141 368.819 365.714 368.152 366.448 367.673C367.187 367.19 368.048 366.949 369.033 366.949C369.601 366.949 370.162 367.044 370.716 367.233C371.27 367.422 371.775 367.73 372.229 368.156C372.684 368.578 373.046 369.136 373.316 369.832C373.586 370.528 373.721 371.385 373.721 372.403V373.114H365.312V371.665H372.016C372.016 371.049 371.893 370.5 371.647 370.017C371.405 369.534 371.06 369.153 370.61 368.874C370.165 368.594 369.639 368.455 369.033 368.455C368.366 368.455 367.788 368.62 367.3 368.952C366.817 369.278 366.446 369.705 366.185 370.23C365.925 370.756 365.795 371.319 365.795 371.92V372.886C365.795 373.71 365.937 374.409 366.221 374.982C366.51 375.55 366.91 375.983 367.421 376.281C367.932 376.575 368.527 376.722 369.204 376.722C369.644 376.722 370.042 376.66 370.397 376.537C370.757 376.409 371.067 376.22 371.327 375.969C371.588 375.713 371.789 375.396 371.931 375.017L373.55 375.472C373.38 376.021 373.093 376.504 372.691 376.92C372.288 377.332 371.791 377.654 371.199 377.886C370.608 378.114 369.942 378.227 369.204 378.227ZM381.895 378V367.091H383.515V368.795H383.657C383.884 368.213 384.251 367.761 384.758 367.439C385.264 367.112 385.873 366.949 386.583 366.949C387.303 366.949 387.902 367.112 388.38 367.439C388.863 367.761 389.239 368.213 389.509 368.795H389.623C389.902 368.232 390.321 367.785 390.88 367.453C391.439 367.117 392.108 366.949 392.89 366.949C393.865 366.949 394.663 367.254 395.283 367.865C395.903 368.471 396.214 369.416 396.214 370.699V378H394.537V370.699C394.537 369.894 394.317 369.319 393.877 368.973C393.437 368.627 392.918 368.455 392.322 368.455C391.555 368.455 390.96 368.687 390.539 369.151C390.117 369.61 389.907 370.192 389.907 370.898V378H388.202V370.528C388.202 369.908 388.001 369.409 387.599 369.03C387.196 368.646 386.678 368.455 386.043 368.455C385.608 368.455 385.2 368.571 384.822 368.803C384.448 369.035 384.144 369.357 383.912 369.768C383.685 370.176 383.572 370.647 383.572 371.182V378H381.895ZM403.71 378.227C402.725 378.227 401.861 377.993 401.118 377.524C400.379 377.055 399.801 376.4 399.385 375.557C398.973 374.714 398.767 373.729 398.767 372.602C398.767 371.466 398.973 370.474 399.385 369.626C399.801 368.779 400.379 368.121 401.118 367.652C401.861 367.183 402.725 366.949 403.71 366.949C404.695 366.949 405.557 367.183 406.295 367.652C407.039 368.121 407.616 368.779 408.028 369.626C408.445 370.474 408.653 371.466 408.653 372.602C408.653 373.729 408.445 374.714 408.028 375.557C407.616 376.4 407.039 377.055 406.295 377.524C405.557 377.993 404.695 378.227 403.71 378.227ZM403.71 376.722C404.458 376.722 405.074 376.53 405.557 376.146C406.04 375.763 406.397 375.259 406.629 374.634C406.861 374.009 406.977 373.331 406.977 372.602C406.977 371.873 406.861 371.194 406.629 370.564C406.397 369.934 406.04 369.425 405.557 369.037C405.074 368.649 404.458 368.455 403.71 368.455C402.962 368.455 402.346 368.649 401.863 369.037C401.381 369.425 401.023 369.934 400.791 370.564C400.559 371.194 400.443 371.873 400.443 372.602C400.443 373.331 400.559 374.009 400.791 374.634C401.023 375.259 401.381 375.763 401.863 376.146C402.346 376.53 402.962 376.722 403.71 376.722ZM418.939 369.534L417.433 369.96C417.339 369.709 417.199 369.465 417.014 369.229C416.834 368.987 416.588 368.788 416.276 368.632C415.963 368.476 415.563 368.398 415.075 368.398C414.408 368.398 413.852 368.552 413.406 368.859C412.966 369.162 412.746 369.548 412.746 370.017C412.746 370.434 412.897 370.763 413.2 371.004C413.503 371.246 413.977 371.447 414.621 371.608L416.24 372.006C417.216 372.242 417.942 372.605 418.421 373.092C418.899 373.575 419.138 374.198 419.138 374.96C419.138 375.585 418.958 376.144 418.598 376.636C418.243 377.129 417.746 377.517 417.107 377.801C416.468 378.085 415.724 378.227 414.877 378.227C413.764 378.227 412.843 377.986 412.114 377.503C411.385 377.02 410.923 376.314 410.729 375.386L412.32 374.989C412.471 375.576 412.758 376.016 413.179 376.31C413.605 376.603 414.162 376.75 414.848 376.75C415.629 376.75 416.25 376.584 416.709 376.253C417.173 375.917 417.405 375.514 417.405 375.045C417.405 374.667 417.272 374.349 417.007 374.094C416.742 373.833 416.335 373.639 415.786 373.511L413.968 373.085C412.968 372.848 412.235 372.482 411.766 371.984C411.302 371.482 411.07 370.855 411.07 370.102C411.07 369.487 411.243 368.942 411.588 368.469C411.939 367.995 412.414 367.624 413.016 367.354C413.622 367.084 414.308 366.949 415.075 366.949C416.155 366.949 417.003 367.186 417.618 367.659C418.238 368.133 418.679 368.758 418.939 369.534ZM426.405 367.091V368.511H420.752V367.091H426.405ZM422.4 364.477H424.076V374.875C424.076 375.348 424.144 375.704 424.282 375.94C424.424 376.172 424.604 376.329 424.822 376.409C425.044 376.485 425.278 376.523 425.525 376.523C425.709 376.523 425.861 376.513 425.979 376.494C426.098 376.471 426.192 376.452 426.263 376.438L426.604 377.943C426.491 377.986 426.332 378.028 426.128 378.071C425.925 378.118 425.667 378.142 425.354 378.142C424.881 378.142 424.417 378.04 423.962 377.837C423.512 377.633 423.138 377.323 422.84 376.906C422.546 376.49 422.4 375.964 422.4 375.33V364.477ZM434.552 382.091V367.091H436.171V368.824H436.37C436.493 368.634 436.663 368.393 436.881 368.099C437.104 367.801 437.421 367.536 437.833 367.304C438.25 367.067 438.813 366.949 439.523 366.949C440.442 366.949 441.251 367.179 441.952 367.638C442.653 368.097 443.2 368.748 443.593 369.591C443.986 370.434 444.182 371.428 444.182 372.574C444.182 373.729 443.986 374.731 443.593 375.578C443.2 376.421 442.655 377.074 441.959 377.538C441.263 377.998 440.461 378.227 439.552 378.227C438.851 378.227 438.29 378.111 437.868 377.879C437.447 377.643 437.123 377.375 436.895 377.077C436.668 376.774 436.493 376.523 436.37 376.324H436.228V382.091H434.552ZM436.199 372.545C436.199 373.369 436.32 374.096 436.562 374.726C436.803 375.351 437.156 375.841 437.62 376.196C438.084 376.546 438.652 376.722 439.324 376.722C440.025 376.722 440.61 376.537 441.079 376.168C441.552 375.794 441.907 375.292 442.144 374.662C442.385 374.027 442.506 373.322 442.506 372.545C442.506 371.778 442.388 371.087 442.151 370.472C441.919 369.851 441.566 369.361 441.093 369.001C440.624 368.637 440.035 368.455 439.324 368.455C438.643 368.455 438.07 368.627 437.606 368.973C437.142 369.314 436.791 369.792 436.555 370.408C436.318 371.018 436.199 371.731 436.199 372.545ZM448.415 363.455V378H446.739V363.455H448.415ZM456.059 378.227C455.008 378.227 454.101 377.995 453.339 377.531C452.581 377.062 451.997 376.409 451.585 375.571C451.177 374.728 450.974 373.748 450.974 372.631C450.974 371.513 451.177 370.528 451.585 369.676C451.997 368.819 452.57 368.152 453.303 367.673C454.042 367.19 454.904 366.949 455.889 366.949C456.457 366.949 457.018 367.044 457.572 367.233C458.126 367.422 458.63 367.73 459.085 368.156C459.539 368.578 459.901 369.136 460.171 369.832C460.441 370.528 460.576 371.385 460.576 372.403V373.114H452.167V371.665H458.872C458.872 371.049 458.749 370.5 458.502 370.017C458.261 369.534 457.915 369.153 457.465 368.874C457.02 368.594 456.495 368.455 455.889 368.455C455.221 368.455 454.643 368.62 454.156 368.952C453.673 369.278 453.301 369.705 453.041 370.23C452.78 370.756 452.65 371.319 452.65 371.92V372.886C452.65 373.71 452.792 374.409 453.076 374.982C453.365 375.55 453.765 375.983 454.276 376.281C454.788 376.575 455.382 376.722 456.059 376.722C456.499 376.722 456.897 376.66 457.252 376.537C457.612 376.409 457.922 376.22 458.183 375.969C458.443 375.713 458.644 375.396 458.786 375.017L460.406 375.472C460.235 376.021 459.949 376.504 459.546 376.92C459.144 377.332 458.647 377.654 458.055 377.886C457.463 378.114 456.798 378.227 456.059 378.227ZM466.336 378.256C465.645 378.256 465.017 378.125 464.454 377.865C463.891 377.6 463.443 377.219 463.112 376.722C462.78 376.22 462.615 375.614 462.615 374.903C462.615 374.278 462.738 373.772 462.984 373.384C463.23 372.991 463.559 372.683 463.971 372.46C464.383 372.238 464.838 372.072 465.335 371.963C465.837 371.849 466.341 371.759 466.847 371.693C467.51 371.608 468.048 371.544 468.46 371.501C468.876 371.454 469.179 371.376 469.369 371.267C469.563 371.158 469.66 370.969 469.66 370.699V370.642C469.66 369.941 469.468 369.397 469.085 369.009C468.706 368.62 468.131 368.426 467.359 368.426C466.559 368.426 465.931 368.601 465.477 368.952C465.022 369.302 464.703 369.676 464.518 370.074L462.927 369.506C463.211 368.843 463.59 368.327 464.063 367.957C464.542 367.583 465.062 367.323 465.626 367.176C466.194 367.025 466.753 366.949 467.302 366.949C467.652 366.949 468.055 366.991 468.509 367.077C468.969 367.157 469.411 367.325 469.838 367.581C470.268 367.837 470.626 368.223 470.91 368.739C471.194 369.255 471.336 369.946 471.336 370.812V378H469.66V376.523H469.575C469.461 376.759 469.272 377.013 469.007 377.283C468.741 377.553 468.389 377.782 467.948 377.972C467.508 378.161 466.971 378.256 466.336 378.256ZM466.592 376.75C467.255 376.75 467.813 376.62 468.268 376.359C468.727 376.099 469.073 375.763 469.305 375.351C469.542 374.939 469.66 374.506 469.66 374.051V372.517C469.589 372.602 469.433 372.68 469.191 372.751C468.954 372.818 468.68 372.877 468.367 372.929C468.06 372.976 467.759 373.019 467.465 373.057C467.177 373.09 466.942 373.118 466.762 373.142C466.327 373.199 465.919 373.291 465.541 373.419C465.167 373.542 464.864 373.729 464.632 373.98C464.404 374.226 464.291 374.562 464.291 374.989C464.291 375.571 464.506 376.011 464.937 376.31C465.373 376.603 465.924 376.75 466.592 376.75ZM482.123 369.534L480.617 369.96C480.522 369.709 480.383 369.465 480.198 369.229C480.018 368.987 479.772 368.788 479.459 368.632C479.147 368.476 478.747 368.398 478.259 368.398C477.591 368.398 477.035 368.552 476.59 368.859C476.15 369.162 475.93 369.548 475.93 370.017C475.93 370.434 476.081 370.763 476.384 371.004C476.687 371.246 477.161 371.447 477.805 371.608L479.424 372.006C480.399 372.242 481.126 372.605 481.604 373.092C482.082 373.575 482.322 374.198 482.322 374.96C482.322 375.585 482.142 376.144 481.782 376.636C481.427 377.129 480.93 377.517 480.29 377.801C479.651 378.085 478.908 378.227 478.06 378.227C476.948 378.227 476.027 377.986 475.297 377.503C474.568 377.02 474.107 376.314 473.912 375.386L475.503 374.989C475.655 375.576 475.941 376.016 476.363 376.31C476.789 376.603 477.345 376.75 478.032 376.75C478.813 376.75 479.433 376.584 479.893 376.253C480.357 375.917 480.589 375.514 480.589 375.045C480.589 374.667 480.456 374.349 480.191 374.094C479.926 373.833 479.519 373.639 478.969 373.511L477.151 373.085C476.152 372.848 475.418 372.482 474.949 371.984C474.485 371.482 474.253 370.855 474.253 370.102C474.253 369.487 474.426 368.942 474.772 368.469C475.122 367.995 475.598 367.624 476.199 367.354C476.805 367.084 477.492 366.949 478.259 366.949C479.339 366.949 480.186 367.186 480.802 367.659C481.422 368.133 481.862 368.758 482.123 369.534ZM484.845 378V367.091H486.521V378H484.845ZM485.697 365.273C485.37 365.273 485.088 365.161 484.852 364.939C484.62 364.716 484.504 364.449 484.504 364.136C484.504 363.824 484.62 363.556 484.852 363.334C485.088 363.111 485.37 363 485.697 363C486.024 363 486.303 363.111 486.535 363.334C486.772 363.556 486.89 363.824 486.89 364.136C486.89 364.449 486.772 364.716 486.535 364.939C486.303 365.161 486.024 365.273 485.697 365.273ZM491.267 371.438V378H489.591V367.091H491.21V368.795H491.352C491.608 368.241 491.996 367.796 492.517 367.46C493.038 367.119 493.71 366.949 494.534 366.949C495.273 366.949 495.919 367.1 496.473 367.403C497.027 367.702 497.458 368.156 497.765 368.767C498.073 369.373 498.227 370.14 498.227 371.068V378H496.551V371.182C496.551 370.325 496.328 369.657 495.883 369.179C495.438 368.696 494.827 368.455 494.051 368.455C493.516 368.455 493.038 368.571 492.616 368.803C492.2 369.035 491.871 369.373 491.629 369.818C491.388 370.263 491.267 370.803 491.267 371.438ZM505.693 382.318C504.884 382.318 504.188 382.214 503.605 382.006C503.023 381.802 502.538 381.532 502.149 381.196C501.766 380.865 501.46 380.509 501.233 380.131L502.568 379.193C502.72 379.392 502.912 379.619 503.144 379.875C503.376 380.135 503.693 380.36 504.095 380.55C504.503 380.744 505.035 380.841 505.693 380.841C506.574 380.841 507.301 380.628 507.874 380.202C508.447 379.776 508.733 379.108 508.733 378.199V375.983H508.591C508.468 376.182 508.293 376.428 508.066 376.722C507.843 377.01 507.521 377.268 507.1 377.496C506.683 377.718 506.119 377.83 505.409 377.83C504.529 377.83 503.738 377.621 503.037 377.205C502.341 376.788 501.789 376.182 501.382 375.386C500.98 374.591 500.779 373.625 500.779 372.489C500.779 371.371 500.975 370.398 501.368 369.57C501.761 368.736 502.308 368.092 503.009 367.638C503.709 367.179 504.519 366.949 505.438 366.949C506.148 366.949 506.711 367.067 507.128 367.304C507.549 367.536 507.871 367.801 508.094 368.099C508.321 368.393 508.496 368.634 508.619 368.824H508.79V367.091H510.409V378.312C510.409 379.25 510.196 380.012 509.77 380.599C509.349 381.191 508.78 381.625 508.066 381.899C507.355 382.179 506.565 382.318 505.693 382.318ZM505.637 376.324C506.309 376.324 506.877 376.17 507.341 375.862C507.805 375.554 508.158 375.112 508.399 374.534C508.641 373.956 508.762 373.265 508.762 372.46C508.762 371.674 508.643 370.981 508.406 370.379C508.17 369.778 507.819 369.307 507.355 368.966C506.891 368.625 506.318 368.455 505.637 368.455C504.926 368.455 504.334 368.634 503.861 368.994C503.392 369.354 503.039 369.837 502.803 370.443C502.571 371.049 502.455 371.722 502.455 372.46C502.455 373.218 502.573 373.888 502.81 374.47C503.051 375.048 503.406 375.502 503.875 375.834C504.349 376.161 504.936 376.324 505.637 376.324ZM528.023 367.091L523.989 378H522.284L518.25 367.091H520.068L523.08 375.784H523.193L526.205 367.091H528.023ZM530.235 378V367.091H531.911V378H530.235ZM531.088 365.273C530.761 365.273 530.479 365.161 530.242 364.939C530.01 364.716 529.894 364.449 529.894 364.136C529.894 363.824 530.01 363.556 530.242 363.334C530.479 363.111 530.761 363 531.088 363C531.414 363 531.694 363.111 531.926 363.334C532.162 363.556 532.281 363.824 532.281 364.136C532.281 364.449 532.162 364.716 531.926 364.939C531.694 365.161 531.414 365.273 531.088 365.273ZM539.555 378.227C538.504 378.227 537.597 377.995 536.835 377.531C536.077 377.062 535.493 376.409 535.081 375.571C534.674 374.728 534.47 373.748 534.47 372.631C534.47 371.513 534.674 370.528 535.081 369.676C535.493 368.819 536.066 368.152 536.8 367.673C537.538 367.19 538.4 366.949 539.385 366.949C539.953 366.949 540.514 367.044 541.068 367.233C541.622 367.422 542.126 367.73 542.581 368.156C543.035 368.578 543.398 369.136 543.667 369.832C543.937 370.528 544.072 371.385 544.072 372.403V373.114H535.663V371.665H542.368C542.368 371.049 542.245 370.5 541.998 370.017C541.757 369.534 541.411 369.153 540.961 368.874C540.516 368.594 539.991 368.455 539.385 368.455C538.717 368.455 538.14 368.62 537.652 368.952C537.169 369.278 536.797 369.705 536.537 370.23C536.276 370.756 536.146 371.319 536.146 371.92V372.886C536.146 373.71 536.288 374.409 536.572 374.982C536.861 375.55 537.261 375.983 537.773 376.281C538.284 376.575 538.878 376.722 539.555 376.722C539.996 376.722 540.393 376.66 540.748 376.537C541.108 376.409 541.418 376.22 541.679 375.969C541.939 375.713 542.14 375.396 542.282 375.017L543.902 375.472C543.731 376.021 543.445 376.504 543.042 376.92C542.64 377.332 542.143 377.654 541.551 377.886C540.959 378.114 540.294 378.227 539.555 378.227ZM549.094 378L545.77 367.091H547.531L549.889 375.443H550.003L552.332 367.091H554.122L556.423 375.415H556.537L558.895 367.091H560.656L557.332 378H555.684L553.298 369.619H553.128L550.741 378H549.094ZM573.071 378.227C572.02 378.227 571.113 377.995 570.351 377.531C569.593 377.062 569.008 376.409 568.596 375.571C568.189 374.728 567.986 373.748 567.986 372.631C567.986 371.513 568.189 370.528 568.596 369.676C569.008 368.819 569.581 368.152 570.315 367.673C571.054 367.19 571.916 366.949 572.9 366.949C573.469 366.949 574.03 367.044 574.584 367.233C575.138 367.422 575.642 367.73 576.096 368.156C576.551 368.578 576.913 369.136 577.183 369.832C577.453 370.528 577.588 371.385 577.588 372.403V373.114H569.179V371.665H575.883C575.883 371.049 575.76 370.5 575.514 370.017C575.273 369.534 574.927 369.153 574.477 368.874C574.032 368.594 573.506 368.455 572.9 368.455C572.233 368.455 571.655 368.62 571.167 368.952C570.684 369.278 570.313 369.705 570.052 370.23C569.792 370.756 569.662 371.319 569.662 371.92V372.886C569.662 373.71 569.804 374.409 570.088 374.982C570.377 375.55 570.777 375.983 571.288 376.281C571.8 376.575 572.394 376.722 573.071 376.722C573.511 376.722 573.909 376.66 574.264 376.537C574.624 376.409 574.934 376.22 575.194 375.969C575.455 375.713 575.656 375.396 575.798 375.017L577.417 375.472C577.247 376.021 576.961 376.504 576.558 376.92C576.156 377.332 575.658 377.654 575.067 377.886C574.475 378.114 573.809 378.227 573.071 378.227ZM588.726 367.091L584.692 378H582.987L578.953 367.091H580.771L583.783 375.784H583.896L586.908 367.091H588.726ZM595.122 378.227C594.07 378.227 593.164 377.995 592.401 377.531C591.644 377.062 591.059 376.409 590.647 375.571C590.24 374.728 590.036 373.748 590.036 372.631C590.036 371.513 590.24 370.528 590.647 369.676C591.059 368.819 591.632 368.152 592.366 367.673C593.105 367.19 593.966 366.949 594.951 366.949C595.519 366.949 596.08 367.044 596.634 367.233C597.188 367.422 597.693 367.73 598.147 368.156C598.602 368.578 598.964 369.136 599.234 369.832C599.504 370.528 599.639 371.385 599.639 372.403V373.114H591.23V371.665H597.934C597.934 371.049 597.811 370.5 597.565 370.017C597.323 369.534 596.978 369.153 596.528 368.874C596.083 368.594 595.557 368.455 594.951 368.455C594.284 368.455 593.706 368.62 593.218 368.952C592.735 369.278 592.364 369.705 592.103 370.23C591.843 370.756 591.713 371.319 591.713 371.92V372.886C591.713 373.71 591.855 374.409 592.139 374.982C592.427 375.55 592.828 375.983 593.339 376.281C593.85 376.575 594.445 376.722 595.122 376.722C595.562 376.722 595.96 376.66 596.315 376.537C596.675 376.409 596.985 376.22 597.245 375.969C597.506 375.713 597.707 375.396 597.849 375.017L599.468 375.472C599.298 376.021 599.011 376.504 598.609 376.92C598.206 377.332 597.709 377.654 597.117 377.886C596.526 378.114 595.86 378.227 595.122 378.227ZM602.188 378V367.091H603.808V368.739H603.921C604.12 368.199 604.48 367.761 605.001 367.425C605.522 367.089 606.109 366.92 606.762 366.92C606.885 366.92 607.039 366.923 607.224 366.928C607.409 366.932 607.548 366.939 607.643 366.949V368.653C607.586 368.639 607.456 368.618 607.252 368.589C607.053 368.556 606.843 368.54 606.62 368.54C606.09 368.54 605.616 368.651 605.2 368.874C604.788 369.091 604.461 369.394 604.22 369.783C603.983 370.166 603.865 370.604 603.865 371.097V378H602.188ZM611.041 382.091C610.757 382.091 610.504 382.067 610.281 382.02C610.059 381.977 609.905 381.935 609.82 381.892L610.246 380.415C610.653 380.519 611.013 380.557 611.325 380.528C611.638 380.5 611.915 380.36 612.156 380.109C612.403 379.863 612.628 379.463 612.831 378.909L613.144 378.057L609.11 367.091H610.928L613.939 375.784H614.053L617.064 367.091H618.882L614.252 379.591C614.043 380.154 613.785 380.621 613.477 380.99C613.17 381.364 612.812 381.641 612.405 381.821C612.003 382.001 611.548 382.091 611.041 382.091ZM624.823 378.227C623.914 378.227 623.112 377.998 622.416 377.538C621.72 377.074 621.175 376.421 620.782 375.578C620.389 374.731 620.193 373.729 620.193 372.574C620.193 371.428 620.389 370.434 620.782 369.591C621.175 368.748 621.722 368.097 622.423 367.638C623.124 367.179 623.933 366.949 624.852 366.949C625.562 366.949 626.123 367.067 626.535 367.304C626.952 367.536 627.269 367.801 627.487 368.099C627.709 368.393 627.882 368.634 628.005 368.824H628.147V363.455H629.823V378H628.204V376.324H628.005C627.882 376.523 627.707 376.774 627.48 377.077C627.252 377.375 626.928 377.643 626.507 377.879C626.085 378.111 625.524 378.227 624.823 378.227ZM625.051 376.722C625.723 376.722 626.291 376.546 626.755 376.196C627.219 375.841 627.572 375.351 627.813 374.726C628.055 374.096 628.176 373.369 628.176 372.545C628.176 371.731 628.057 371.018 627.82 370.408C627.584 369.792 627.233 369.314 626.769 368.973C626.305 368.627 625.732 368.455 625.051 368.455C624.34 368.455 623.749 368.637 623.275 369.001C622.806 369.361 622.454 369.851 622.217 370.472C621.985 371.087 621.869 371.778 621.869 372.545C621.869 373.322 621.987 374.027 622.224 374.662C622.465 375.292 622.82 375.794 623.289 376.168C623.763 376.537 624.35 376.722 625.051 376.722ZM636.336 378.256C635.645 378.256 635.017 378.125 634.454 377.865C633.891 377.6 633.443 377.219 633.112 376.722C632.78 376.22 632.615 375.614 632.615 374.903C632.615 374.278 632.738 373.772 632.984 373.384C633.23 372.991 633.559 372.683 633.971 372.46C634.383 372.238 634.838 372.072 635.335 371.963C635.837 371.849 636.341 371.759 636.847 371.693C637.51 371.608 638.048 371.544 638.46 371.501C638.876 371.454 639.179 371.376 639.369 371.267C639.563 371.158 639.66 370.969 639.66 370.699V370.642C639.66 369.941 639.468 369.397 639.085 369.009C638.706 368.62 638.131 368.426 637.359 368.426C636.559 368.426 635.931 368.601 635.477 368.952C635.022 369.302 634.703 369.676 634.518 370.074L632.927 369.506C633.211 368.843 633.59 368.327 634.063 367.957C634.542 367.583 635.062 367.323 635.626 367.176C636.194 367.025 636.753 366.949 637.302 366.949C637.652 366.949 638.055 366.991 638.509 367.077C638.969 367.157 639.411 367.325 639.838 367.581C640.268 367.837 640.626 368.223 640.91 368.739C641.194 369.255 641.336 369.946 641.336 370.812V378H639.66V376.523H639.575C639.461 376.759 639.272 377.013 639.007 377.283C638.741 377.553 638.389 377.782 637.948 377.972C637.508 378.161 636.971 378.256 636.336 378.256ZM636.592 376.75C637.255 376.75 637.813 376.62 638.268 376.359C638.727 376.099 639.073 375.763 639.305 375.351C639.542 374.939 639.66 374.506 639.66 374.051V372.517C639.589 372.602 639.433 372.68 639.191 372.751C638.954 372.818 638.68 372.877 638.367 372.929C638.06 372.976 637.759 373.019 637.465 373.057C637.177 373.09 636.942 373.118 636.762 373.142C636.327 373.199 635.919 373.291 635.541 373.419C635.167 373.542 634.864 373.729 634.632 373.98C634.404 374.226 634.291 374.562 634.291 374.989C634.291 375.571 634.506 376.011 634.937 376.31C635.373 376.603 635.924 376.75 636.592 376.75ZM645.084 382.091C644.8 382.091 644.547 382.067 644.324 382.02C644.102 381.977 643.948 381.935 643.863 381.892L644.289 380.415C644.696 380.519 645.056 380.557 645.368 380.528C645.681 380.5 645.958 380.36 646.199 380.109C646.446 379.863 646.671 379.463 646.874 378.909L647.187 378.057L643.153 367.091H644.971L647.982 375.784H648.096L651.107 367.091H652.925L648.295 379.591C648.086 380.154 647.828 380.621 647.52 380.99C647.213 381.364 646.855 381.641 646.448 381.821C646.046 382.001 645.591 382.091 645.084 382.091ZM663.234 378L659.91 367.091H661.672L664.03 375.443H664.143L666.473 367.091H668.263L670.564 375.415H670.677L673.035 367.091H674.797L671.473 378H669.825L667.439 369.619H667.268L664.882 378H663.234ZM678.689 371.438V378H677.013V363.455H678.689V368.795H678.831C679.086 368.232 679.47 367.785 679.981 367.453C680.497 367.117 681.184 366.949 682.041 366.949C682.784 366.949 683.435 367.098 683.994 367.396C684.553 367.69 684.986 368.142 685.294 368.753C685.606 369.359 685.763 370.131 685.763 371.068V378H684.086V371.182C684.086 370.315 683.862 369.645 683.412 369.172C682.967 368.694 682.349 368.455 681.558 368.455C681.009 368.455 680.516 368.571 680.081 368.803C679.65 369.035 679.309 369.373 679.058 369.818C678.812 370.263 678.689 370.803 678.689 371.438ZM688.829 378V367.091H690.505V378H688.829ZM689.681 365.273C689.355 365.273 689.073 365.161 688.836 364.939C688.604 364.716 688.488 364.449 688.488 364.136C688.488 363.824 688.604 363.556 688.836 363.334C689.073 363.111 689.355 363 689.681 363C690.008 363 690.287 363.111 690.519 363.334C690.756 363.556 690.874 363.824 690.874 364.136C690.874 364.449 690.756 364.716 690.519 364.939C690.287 365.161 690.008 365.273 689.681 365.273ZM695.251 363.455V378H693.575V363.455H695.251ZM702.895 378.227C701.844 378.227 700.937 377.995 700.175 377.531C699.417 377.062 698.833 376.409 698.421 375.571C698.013 374.728 697.81 373.748 697.81 372.631C697.81 371.513 698.013 370.528 698.421 369.676C698.833 368.819 699.405 368.152 700.139 367.673C700.878 367.19 701.74 366.949 702.725 366.949C703.293 366.949 703.854 367.044 704.408 367.233C704.962 367.422 705.466 367.73 705.921 368.156C706.375 368.578 706.737 369.136 707.007 369.832C707.277 370.528 707.412 371.385 707.412 372.403V373.114H699.003V371.665H705.708C705.708 371.049 705.584 370.5 705.338 370.017C705.097 369.534 704.751 369.153 704.301 368.874C703.856 368.594 703.331 368.455 702.725 368.455C702.057 368.455 701.479 368.62 700.992 368.952C700.509 369.278 700.137 369.705 699.877 370.23C699.616 370.756 699.486 371.319 699.486 371.92V372.886C699.486 373.71 699.628 374.409 699.912 374.982C700.201 375.55 700.601 375.983 701.112 376.281C701.624 376.575 702.218 376.722 702.895 376.722C703.335 376.722 703.733 376.66 704.088 376.537C704.448 376.409 704.758 376.22 705.019 375.969C705.279 375.713 705.48 375.396 705.622 375.017L707.242 375.472C707.071 376.021 706.785 376.504 706.382 376.92C705.98 377.332 705.483 377.654 704.891 377.886C704.299 378.114 703.634 378.227 702.895 378.227ZM717.263 371.438V378H715.587V363.455H717.263V368.795H717.405C717.661 368.232 718.044 367.785 718.556 367.453C719.072 367.117 719.758 366.949 720.615 366.949C721.359 366.949 722.01 367.098 722.568 367.396C723.127 367.69 723.56 368.142 723.868 368.753C724.181 369.359 724.337 370.131 724.337 371.068V378H722.661V371.182C722.661 370.315 722.436 369.645 721.986 369.172C721.541 368.694 720.923 368.455 720.132 368.455C719.583 368.455 719.091 368.571 718.655 368.803C718.224 369.035 717.883 369.373 717.632 369.818C717.386 370.263 717.263 370.803 717.263 371.438ZM731.977 378.227C730.926 378.227 730.019 377.995 729.257 377.531C728.499 377.062 727.915 376.409 727.503 375.571C727.095 374.728 726.892 373.748 726.892 372.631C726.892 371.513 727.095 370.528 727.503 369.676C727.915 368.819 728.488 368.152 729.221 367.673C729.96 367.19 730.822 366.949 731.807 366.949C732.375 366.949 732.936 367.044 733.49 367.233C734.044 367.422 734.548 367.73 735.003 368.156C735.457 368.578 735.819 369.136 736.089 369.832C736.359 370.528 736.494 371.385 736.494 372.403V373.114H728.085V371.665H734.79C734.79 371.049 734.666 370.5 734.42 370.017C734.179 369.534 733.833 369.153 733.383 368.874C732.938 368.594 732.413 368.455 731.807 368.455C731.139 368.455 730.561 368.62 730.074 368.952C729.591 369.278 729.219 369.705 728.959 370.23C728.698 370.756 728.568 371.319 728.568 371.92V372.886C728.568 373.71 728.71 374.409 728.994 374.982C729.283 375.55 729.683 375.983 730.194 376.281C730.706 376.575 731.3 376.722 731.977 376.722C732.417 376.722 732.815 376.66 733.17 376.537C733.53 376.409 733.84 376.22 734.101 375.969C734.361 375.713 734.562 375.396 734.704 375.017L736.324 375.472C736.153 376.021 735.867 376.504 735.464 376.92C735.062 377.332 734.565 377.654 733.973 377.886C733.381 378.114 732.716 378.227 731.977 378.227ZM740.72 363.455V378H739.044V363.455H740.72ZM743.79 382.091V367.091H745.409V368.824H745.608C745.731 368.634 745.902 368.393 746.119 368.099C746.342 367.801 746.659 367.536 747.071 367.304C747.488 367.067 748.051 366.949 748.762 366.949C749.68 366.949 750.49 367.179 751.191 367.638C751.891 368.097 752.438 368.748 752.831 369.591C753.224 370.434 753.421 371.428 753.421 372.574C753.421 373.729 753.224 374.731 752.831 375.578C752.438 376.421 751.894 377.074 751.198 377.538C750.502 377.998 749.699 378.227 748.79 378.227C748.089 378.227 747.528 378.111 747.107 377.879C746.685 377.643 746.361 377.375 746.134 377.077C745.906 376.774 745.731 376.523 745.608 376.324H745.466V382.091H743.79ZM745.438 372.545C745.438 373.369 745.558 374.096 745.8 374.726C746.041 375.351 746.394 375.841 746.858 376.196C747.322 376.546 747.89 376.722 748.563 376.722C749.263 376.722 749.848 376.537 750.317 376.168C750.79 375.794 751.146 375.292 751.382 374.662C751.624 374.027 751.744 373.322 751.744 372.545C751.744 371.778 751.626 371.087 751.389 370.472C751.157 369.851 750.805 369.361 750.331 369.001C749.862 368.637 749.273 368.455 748.563 368.455C747.881 368.455 747.308 368.627 746.844 368.973C746.38 369.314 746.03 369.792 745.793 370.408C745.556 371.018 745.438 371.731 745.438 372.545ZM755.977 378V367.091H757.654V378H755.977ZM756.83 365.273C756.503 365.273 756.221 365.161 755.985 364.939C755.753 364.716 755.637 364.449 755.637 364.136C755.637 363.824 755.753 363.556 755.985 363.334C756.221 363.111 756.503 363 756.83 363C757.156 363 757.436 363.111 757.668 363.334C757.905 363.556 758.023 363.824 758.023 364.136C758.023 364.449 757.905 364.716 757.668 364.939C757.436 365.161 757.156 365.273 756.83 365.273ZM762.4 371.438V378H760.724V367.091H762.343V368.795H762.485C762.741 368.241 763.129 367.796 763.65 367.46C764.171 367.119 764.843 366.949 765.667 366.949C766.405 366.949 767.052 367.1 767.606 367.403C768.16 367.702 768.59 368.156 768.898 368.767C769.206 369.373 769.36 370.14 769.36 371.068V378H767.684V371.182C767.684 370.325 767.461 369.657 767.016 369.179C766.571 368.696 765.96 368.455 765.184 368.455C764.649 368.455 764.171 368.571 763.749 368.803C763.332 369.035 763.003 369.373 762.762 369.818C762.52 370.263 762.4 370.803 762.4 371.438ZM776.826 382.318C776.017 382.318 775.32 382.214 774.738 382.006C774.156 381.802 773.67 381.532 773.282 381.196C772.899 380.865 772.593 380.509 772.366 380.131L773.701 379.193C773.853 379.392 774.044 379.619 774.276 379.875C774.508 380.135 774.826 380.36 775.228 380.55C775.635 380.744 776.168 380.841 776.826 380.841C777.707 380.841 778.434 380.628 779.007 380.202C779.579 379.776 779.866 379.108 779.866 378.199V375.983H779.724C779.601 376.182 779.426 376.428 779.198 376.722C778.976 377.01 778.654 377.268 778.232 377.496C777.816 377.718 777.252 377.83 776.542 377.83C775.661 377.83 774.871 377.621 774.17 377.205C773.474 376.788 772.922 376.182 772.515 375.386C772.113 374.591 771.911 373.625 771.911 372.489C771.911 371.371 772.108 370.398 772.501 369.57C772.894 368.736 773.441 368.092 774.142 367.638C774.842 367.179 775.652 366.949 776.57 366.949C777.281 366.949 777.844 367.067 778.261 367.304C778.682 367.536 779.004 367.801 779.227 368.099C779.454 368.393 779.629 368.634 779.752 368.824H779.923V367.091H781.542V378.312C781.542 379.25 781.329 380.012 780.903 380.599C780.481 381.191 779.913 381.625 779.198 381.899C778.488 382.179 777.697 382.318 776.826 382.318ZM776.769 376.324C777.442 376.324 778.01 376.17 778.474 375.862C778.938 375.554 779.291 375.112 779.532 374.534C779.774 373.956 779.894 373.265 779.894 372.46C779.894 371.674 779.776 370.981 779.539 370.379C779.302 369.778 778.952 369.307 778.488 368.966C778.024 368.625 777.451 368.455 776.769 368.455C776.059 368.455 775.467 368.634 774.994 368.994C774.525 369.354 774.172 369.837 773.936 370.443C773.704 371.049 773.588 371.722 773.588 372.46C773.588 373.218 773.706 373.888 773.943 374.47C774.184 375.048 774.539 375.502 775.008 375.834C775.481 376.161 776.069 376.324 776.769 376.324ZM794.98 367.091V368.511H789.326V367.091H794.98ZM790.974 364.477H792.65V374.875C792.65 375.348 792.719 375.704 792.856 375.94C792.998 376.172 793.178 376.329 793.396 376.409C793.618 376.485 793.853 376.523 794.099 376.523C794.284 376.523 794.435 376.513 794.553 376.494C794.672 376.471 794.767 376.452 794.838 376.438L795.178 377.943C795.065 377.986 794.906 378.028 794.703 378.071C794.499 378.118 794.241 378.142 793.928 378.142C793.455 378.142 792.991 378.04 792.536 377.837C792.087 377.633 791.713 377.323 791.414 376.906C791.121 376.49 790.974 375.964 790.974 375.33V364.477ZM799.411 371.438V378H797.735V363.455H799.411V368.795H799.553C799.809 368.232 800.193 367.785 800.704 367.453C801.22 367.117 801.907 366.949 802.764 366.949C803.507 366.949 804.158 367.098 804.717 367.396C805.276 367.69 805.709 368.142 806.017 368.753C806.329 369.359 806.485 370.131 806.485 371.068V378H804.809V371.182C804.809 370.315 804.584 369.645 804.134 369.172C803.689 368.694 803.071 368.455 802.281 368.455C801.731 368.455 801.239 368.571 800.803 368.803C800.373 369.035 800.032 369.373 799.781 369.818C799.535 370.263 799.411 370.803 799.411 371.438ZM814.126 378.227C813.074 378.227 812.168 377.995 811.405 377.531C810.648 377.062 810.063 376.409 809.651 375.571C809.244 374.728 809.04 373.748 809.04 372.631C809.04 371.513 809.244 370.528 809.651 369.676C810.063 368.819 810.636 368.152 811.37 367.673C812.108 367.19 812.97 366.949 813.955 366.949C814.523 366.949 815.084 367.044 815.638 367.233C816.192 367.422 816.697 367.73 817.151 368.156C817.606 368.578 817.968 369.136 818.238 369.832C818.508 370.528 818.643 371.385 818.643 372.403V373.114H810.233V371.665H816.938C816.938 371.049 816.815 370.5 816.569 370.017C816.327 369.534 815.982 369.153 815.532 368.874C815.087 368.594 814.561 368.455 813.955 368.455C813.287 368.455 812.71 368.62 812.222 368.952C811.739 369.278 811.367 369.705 811.107 370.23C810.847 370.756 810.716 371.319 810.716 371.92V372.886C810.716 373.71 810.858 374.409 811.143 374.982C811.431 375.55 811.831 375.983 812.343 376.281C812.854 376.575 813.448 376.722 814.126 376.722C814.566 376.722 814.964 376.66 815.319 376.537C815.679 376.409 815.989 376.22 816.249 375.969C816.51 375.713 816.711 375.396 816.853 375.017L818.472 375.472C818.302 376.021 818.015 376.504 817.613 376.92C817.21 377.332 816.713 377.654 816.121 377.886C815.529 378.114 814.864 378.227 814.126 378.227ZM829.289 378L825.965 367.091H827.726L830.084 375.443H830.198L832.528 367.091H834.317L836.618 375.415H836.732L839.09 367.091H840.851L837.528 378H835.88L833.493 369.619H833.323L830.937 378H829.289ZM847.128 378.227C846.143 378.227 845.279 377.993 844.536 377.524C843.797 377.055 843.219 376.4 842.803 375.557C842.391 374.714 842.185 373.729 842.185 372.602C842.185 371.466 842.391 370.474 842.803 369.626C843.219 368.779 843.797 368.121 844.536 367.652C845.279 367.183 846.143 366.949 847.128 366.949C848.113 366.949 848.975 367.183 849.713 367.652C850.457 368.121 851.034 368.779 851.446 369.626C851.863 370.474 852.071 371.466 852.071 372.602C852.071 373.729 851.863 374.714 851.446 375.557C851.034 376.4 850.457 377.055 849.713 377.524C848.975 377.993 848.113 378.227 847.128 378.227ZM847.128 376.722C847.876 376.722 848.492 376.53 848.975 376.146C849.458 375.763 849.815 375.259 850.047 374.634C850.279 374.009 850.395 373.331 850.395 372.602C850.395 371.873 850.279 371.194 850.047 370.564C849.815 369.934 849.458 369.425 848.975 369.037C848.492 368.649 847.876 368.455 847.128 368.455C846.38 368.455 845.764 368.649 845.281 369.037C844.798 369.425 844.441 369.934 844.209 370.564C843.977 371.194 843.861 371.873 843.861 372.602C843.861 373.331 843.977 374.009 844.209 374.634C844.441 375.259 844.798 375.763 845.281 376.146C845.764 376.53 846.38 376.722 847.128 376.722ZM854.63 378V367.091H856.249V368.739H856.363C856.562 368.199 856.921 367.761 857.442 367.425C857.963 367.089 858.55 366.92 859.204 366.92C859.327 366.92 859.481 366.923 859.665 366.928C859.85 366.932 859.99 366.939 860.084 366.949V368.653C860.028 368.639 859.897 368.618 859.694 368.589C859.495 368.556 859.284 368.54 859.062 368.54C858.531 368.54 858.058 368.651 857.641 368.874C857.229 369.091 856.903 369.394 856.661 369.783C856.424 370.166 856.306 370.604 856.306 371.097V378H854.63ZM863.747 363.455V378H862.071V363.455H863.747ZM870.937 378.227C870.028 378.227 869.225 377.998 868.529 377.538C867.833 377.074 867.288 376.421 866.895 375.578C866.502 374.731 866.306 373.729 866.306 372.574C866.306 371.428 866.502 370.434 866.895 369.591C867.288 368.748 867.835 368.097 868.536 367.638C869.237 367.179 870.046 366.949 870.965 366.949C871.675 366.949 872.236 367.067 872.648 367.304C873.065 367.536 873.382 367.801 873.6 368.099C873.823 368.393 873.995 368.634 874.118 368.824H874.26V363.455H875.937V378H874.317V376.324H874.118C873.995 376.523 873.82 376.774 873.593 377.077C873.366 377.375 873.041 377.643 872.62 377.879C872.198 378.111 871.637 378.227 870.937 378.227ZM871.164 376.722C871.836 376.722 872.404 376.546 872.868 376.196C873.332 375.841 873.685 375.351 873.927 374.726C874.168 374.096 874.289 373.369 874.289 372.545C874.289 371.731 874.171 371.018 873.934 370.408C873.697 369.792 873.347 369.314 872.883 368.973C872.419 368.627 871.846 368.455 871.164 368.455C870.454 368.455 869.862 368.637 869.388 369.001C868.92 369.361 868.567 369.851 868.33 370.472C868.098 371.087 867.982 371.778 867.982 372.545C867.982 373.322 868.1 374.027 868.337 374.662C868.579 375.292 868.934 375.794 869.403 376.168C869.876 376.537 870.463 376.722 871.164 376.722ZM888.074 378.256C887.383 378.256 886.756 378.125 886.192 377.865C885.629 377.6 885.181 377.219 884.85 376.722C884.519 376.22 884.353 375.614 884.353 374.903C884.353 374.278 884.476 373.772 884.722 373.384C884.968 372.991 885.297 372.683 885.709 372.46C886.121 372.238 886.576 372.072 887.073 371.963C887.575 371.849 888.079 371.759 888.586 371.693C889.249 371.608 889.786 371.544 890.198 371.501C890.615 371.454 890.918 371.376 891.107 371.267C891.301 371.158 891.398 370.969 891.398 370.699V370.642C891.398 369.941 891.206 369.397 890.823 369.009C890.444 368.62 889.869 368.426 889.097 368.426C888.297 368.426 887.67 368.601 887.215 368.952C886.76 369.302 886.441 369.676 886.256 370.074L884.665 369.506C884.949 368.843 885.328 368.327 885.802 367.957C886.28 367.583 886.801 367.323 887.364 367.176C887.932 367.025 888.491 366.949 889.04 366.949C889.391 366.949 889.793 366.991 890.248 367.077C890.707 367.157 891.15 367.325 891.576 367.581C892.007 367.837 892.364 368.223 892.648 368.739C892.932 369.255 893.074 369.946 893.074 370.812V378H891.398V376.523H891.313C891.199 376.759 891.01 377.013 890.745 377.283C890.48 377.553 890.127 377.782 889.687 377.972C889.246 378.161 888.709 378.256 888.074 378.256ZM888.33 376.75C888.993 376.75 889.552 376.62 890.006 376.359C890.465 376.099 890.811 375.763 891.043 375.351C891.28 374.939 891.398 374.506 891.398 374.051V372.517C891.327 372.602 891.171 372.68 890.93 372.751C890.693 372.818 890.418 372.877 890.106 372.929C889.798 372.976 889.497 373.019 889.204 373.057C888.915 373.09 888.68 373.118 888.501 373.142C888.065 373.199 887.658 373.291 887.279 373.419C886.905 373.542 886.602 373.729 886.37 373.98C886.143 374.226 886.029 374.562 886.029 374.989C886.029 375.571 886.244 376.011 886.675 376.31C887.111 376.603 887.662 376.75 888.33 376.75ZM432.302 387.455V402H430.626V387.455H432.302ZM435.372 402V391.091H437.048V402H435.372ZM436.224 389.273C435.898 389.273 435.616 389.161 435.379 388.939C435.147 388.716 435.031 388.449 435.031 388.136C435.031 387.824 435.147 387.556 435.379 387.334C435.616 387.111 435.898 387 436.224 387C436.551 387 436.83 387.111 437.062 387.334C437.299 387.556 437.417 387.824 437.417 388.136C437.417 388.449 437.299 388.716 437.062 388.939C436.83 389.161 436.551 389.273 436.224 389.273ZM444.862 391.091V392.511H439.209V391.091H444.862ZM440.857 388.477H442.533V398.875C442.533 399.348 442.602 399.704 442.739 399.94C442.881 400.172 443.061 400.329 443.279 400.409C443.501 400.485 443.735 400.523 443.982 400.523C444.166 400.523 444.318 400.513 444.436 400.494C444.555 400.471 444.649 400.452 444.72 400.438L445.061 401.943C444.948 401.986 444.789 402.028 444.585 402.071C444.382 402.118 444.124 402.142 443.811 402.142C443.338 402.142 442.874 402.04 442.419 401.837C441.969 401.633 441.595 401.323 441.297 400.906C441.003 400.49 440.857 399.964 440.857 399.33V388.477ZM452.128 391.091V392.511H446.475V391.091H452.128ZM448.122 388.477H449.798V398.875C449.798 399.348 449.867 399.704 450.004 399.94C450.146 400.172 450.326 400.329 450.544 400.409C450.767 400.485 451.001 400.523 451.247 400.523C451.432 400.523 451.584 400.513 451.702 400.494C451.82 400.471 451.915 400.452 451.986 400.438L452.327 401.943C452.213 401.986 452.055 402.028 451.851 402.071C451.647 402.118 451.389 402.142 451.077 402.142C450.603 402.142 450.139 402.04 449.685 401.837C449.235 401.633 448.861 401.323 448.563 400.906C448.269 400.49 448.122 399.964 448.122 399.33V388.477ZM456.56 387.455V402H454.884V387.455H456.56ZM464.204 402.227C463.153 402.227 462.246 401.995 461.483 401.531C460.726 401.062 460.141 400.409 459.729 399.571C459.322 398.728 459.118 397.748 459.118 396.631C459.118 395.513 459.322 394.528 459.729 393.676C460.141 392.819 460.714 392.152 461.448 391.673C462.187 391.19 463.048 390.949 464.033 390.949C464.601 390.949 465.162 391.044 465.716 391.233C466.27 391.422 466.775 391.73 467.229 392.156C467.684 392.578 468.046 393.136 468.316 393.832C468.586 394.528 468.721 395.385 468.721 396.403V397.114H460.312V395.665H467.016C467.016 395.049 466.893 394.5 466.647 394.017C466.405 393.534 466.06 393.153 465.61 392.874C465.165 392.594 464.639 392.455 464.033 392.455C463.366 392.455 462.788 392.62 462.3 392.952C461.817 393.278 461.446 393.705 461.185 394.23C460.925 394.756 460.795 395.319 460.795 395.92V396.886C460.795 397.71 460.937 398.409 461.221 398.982C461.51 399.55 461.91 399.983 462.421 400.281C462.932 400.575 463.527 400.722 464.204 400.722C464.644 400.722 465.042 400.66 465.397 400.537C465.757 400.409 466.067 400.22 466.327 399.969C466.588 399.713 466.789 399.396 466.931 399.017L468.55 399.472C468.38 400.021 468.093 400.504 467.691 400.92C467.288 401.332 466.791 401.654 466.199 401.886C465.608 402.114 464.942 402.227 464.204 402.227ZM476.895 402V391.091H478.515V392.795H478.657C478.884 392.213 479.251 391.761 479.758 391.439C480.264 391.112 480.873 390.949 481.583 390.949C482.303 390.949 482.902 391.112 483.38 391.439C483.863 391.761 484.239 392.213 484.509 392.795H484.623C484.902 392.232 485.321 391.785 485.88 391.453C486.439 391.117 487.108 390.949 487.89 390.949C488.865 390.949 489.663 391.254 490.283 391.865C490.903 392.471 491.214 393.416 491.214 394.699V402H489.537V394.699C489.537 393.894 489.317 393.319 488.877 392.973C488.437 392.627 487.918 392.455 487.322 392.455C486.555 392.455 485.96 392.687 485.539 393.151C485.117 393.61 484.907 394.192 484.907 394.898V402H483.202V394.528C483.202 393.908 483.001 393.409 482.599 393.03C482.196 392.646 481.678 392.455 481.043 392.455C480.608 392.455 480.2 392.571 479.822 392.803C479.448 393.035 479.144 393.357 478.912 393.768C478.685 394.176 478.572 394.647 478.572 395.182V402H476.895ZM498.71 402.227C497.725 402.227 496.861 401.993 496.118 401.524C495.379 401.055 494.801 400.4 494.385 399.557C493.973 398.714 493.767 397.729 493.767 396.602C493.767 395.466 493.973 394.474 494.385 393.626C494.801 392.779 495.379 392.121 496.118 391.652C496.861 391.183 497.725 390.949 498.71 390.949C499.695 390.949 500.557 391.183 501.295 391.652C502.039 392.121 502.616 392.779 503.028 393.626C503.445 394.474 503.653 395.466 503.653 396.602C503.653 397.729 503.445 398.714 503.028 399.557C502.616 400.4 502.039 401.055 501.295 401.524C500.557 401.993 499.695 402.227 498.71 402.227ZM498.71 400.722C499.458 400.722 500.074 400.53 500.557 400.146C501.04 399.763 501.397 399.259 501.629 398.634C501.861 398.009 501.977 397.331 501.977 396.602C501.977 395.873 501.861 395.194 501.629 394.564C501.397 393.934 501.04 393.425 500.557 393.037C500.074 392.649 499.458 392.455 498.71 392.455C497.962 392.455 497.346 392.649 496.863 393.037C496.381 393.425 496.023 393.934 495.791 394.564C495.559 395.194 495.443 395.873 495.443 396.602C495.443 397.331 495.559 398.009 495.791 398.634C496.023 399.259 496.381 399.763 496.863 400.146C497.346 400.53 497.962 400.722 498.71 400.722ZM506.212 402V391.091H507.831V392.739H507.945C508.144 392.199 508.503 391.761 509.024 391.425C509.545 391.089 510.132 390.92 510.786 390.92C510.909 390.92 511.063 390.923 511.247 390.928C511.432 390.932 511.572 390.939 511.666 390.949V392.653C511.61 392.639 511.479 392.618 511.276 392.589C511.077 392.556 510.866 392.54 510.644 392.54C510.113 392.54 509.64 392.651 509.223 392.874C508.811 393.091 508.485 393.394 508.243 393.783C508.006 394.166 507.888 394.604 507.888 395.097V402H506.212ZM517.895 402.227C516.844 402.227 515.937 401.995 515.175 401.531C514.417 401.062 513.833 400.409 513.421 399.571C513.013 398.728 512.81 397.748 512.81 396.631C512.81 395.513 513.013 394.528 513.421 393.676C513.833 392.819 514.405 392.152 515.139 391.673C515.878 391.19 516.74 390.949 517.725 390.949C518.293 390.949 518.854 391.044 519.408 391.233C519.962 391.422 520.466 391.73 520.921 392.156C521.375 392.578 521.737 393.136 522.007 393.832C522.277 394.528 522.412 395.385 522.412 396.403V397.114H514.003V395.665H520.708C520.708 395.049 520.584 394.5 520.338 394.017C520.097 393.534 519.751 393.153 519.301 392.874C518.856 392.594 518.331 392.455 517.725 392.455C517.057 392.455 516.479 392.62 515.992 392.952C515.509 393.278 515.137 393.705 514.877 394.23C514.616 394.756 514.486 395.319 514.486 395.92V396.886C514.486 397.71 514.628 398.409 514.912 398.982C515.201 399.55 515.601 399.983 516.112 400.281C516.624 400.575 517.218 400.722 517.895 400.722C518.335 400.722 518.733 400.66 519.088 400.537C519.448 400.409 519.758 400.22 520.019 399.969C520.279 399.713 520.48 399.396 520.622 399.017L522.242 399.472C522.071 400.021 521.785 400.504 521.382 400.92C520.98 401.332 520.483 401.654 519.891 401.886C519.299 402.114 518.634 402.227 517.895 402.227ZM534.99 406.318C534.181 406.318 533.485 406.214 532.902 406.006C532.32 405.802 531.834 405.532 531.446 405.196C531.063 404.865 530.757 404.509 530.53 404.131L531.865 403.193C532.017 403.392 532.209 403.619 532.441 403.875C532.673 404.135 532.99 404.36 533.392 404.55C533.799 404.744 534.332 404.841 534.99 404.841C535.871 404.841 536.598 404.628 537.171 404.202C537.744 403.776 538.03 403.108 538.03 402.199V399.983H537.888C537.765 400.182 537.59 400.428 537.362 400.722C537.14 401.01 536.818 401.268 536.396 401.496C535.98 401.718 535.416 401.83 534.706 401.83C533.825 401.83 533.035 401.621 532.334 401.205C531.638 400.788 531.086 400.182 530.679 399.386C530.277 398.591 530.075 397.625 530.075 396.489C530.075 395.371 530.272 394.398 530.665 393.57C531.058 392.736 531.605 392.092 532.306 391.638C533.006 391.179 533.816 390.949 534.735 390.949C535.445 390.949 536.008 391.067 536.425 391.304C536.846 391.536 537.168 391.801 537.391 392.099C537.618 392.393 537.793 392.634 537.916 392.824H538.087V391.091H539.706V402.312C539.706 403.25 539.493 404.012 539.067 404.599C538.646 405.191 538.077 405.625 537.362 405.899C536.652 406.179 535.861 406.318 534.99 406.318ZM534.933 400.324C535.606 400.324 536.174 400.17 536.638 399.862C537.102 399.554 537.455 399.112 537.696 398.534C537.938 397.956 538.058 397.265 538.058 396.46C538.058 395.674 537.94 394.981 537.703 394.379C537.467 393.778 537.116 393.307 536.652 392.966C536.188 392.625 535.615 392.455 534.933 392.455C534.223 392.455 533.631 392.634 533.158 392.994C532.689 393.354 532.336 393.837 532.1 394.443C531.868 395.049 531.752 395.722 531.752 396.46C531.752 397.218 531.87 397.888 532.107 398.47C532.348 399.048 532.703 399.502 533.172 399.834C533.646 400.161 534.233 400.324 534.933 400.324ZM542.774 402V391.091H544.394V392.739H544.507C544.706 392.199 545.066 391.761 545.587 391.425C546.108 391.089 546.695 390.92 547.348 390.92C547.471 390.92 547.625 390.923 547.81 390.928C547.994 390.932 548.134 390.939 548.229 390.949V392.653C548.172 392.639 548.042 392.618 547.838 392.589C547.639 392.556 547.429 392.54 547.206 392.54C546.676 392.54 546.202 392.651 545.786 392.874C545.374 393.091 545.047 393.394 544.806 393.783C544.569 394.166 544.45 394.604 544.45 395.097V402H542.774ZM554.458 402.227C553.406 402.227 552.5 401.995 551.737 401.531C550.98 401.062 550.395 400.409 549.983 399.571C549.576 398.728 549.372 397.748 549.372 396.631C549.372 395.513 549.576 394.528 549.983 393.676C550.395 392.819 550.968 392.152 551.702 391.673C552.441 391.19 553.302 390.949 554.287 390.949C554.855 390.949 555.416 391.044 555.97 391.233C556.524 391.422 557.029 391.73 557.483 392.156C557.938 392.578 558.3 393.136 558.57 393.832C558.84 394.528 558.975 395.385 558.975 396.403V397.114H550.566V395.665H557.27C557.27 395.049 557.147 394.5 556.901 394.017C556.659 393.534 556.314 393.153 555.864 392.874C555.419 392.594 554.893 392.455 554.287 392.455C553.619 392.455 553.042 392.62 552.554 392.952C552.071 393.278 551.7 393.705 551.439 394.23C551.179 394.756 551.048 395.319 551.048 395.92V396.886C551.048 397.71 551.191 398.409 551.475 398.982C551.763 399.55 552.164 399.983 552.675 400.281C553.186 400.575 553.78 400.722 554.458 400.722C554.898 400.722 555.296 400.66 555.651 400.537C556.011 400.409 556.321 400.22 556.581 399.969C556.842 399.713 557.043 399.396 557.185 399.017L558.804 399.472C558.634 400.021 558.347 400.504 557.945 400.92C557.542 401.332 557.045 401.654 556.453 401.886C555.861 402.114 555.196 402.227 554.458 402.227ZM566.098 402.227C565.047 402.227 564.14 401.995 563.378 401.531C562.62 401.062 562.036 400.409 561.624 399.571C561.217 398.728 561.013 397.748 561.013 396.631C561.013 395.513 561.217 394.528 561.624 393.676C562.036 392.819 562.609 392.152 563.343 391.673C564.081 391.19 564.943 390.949 565.928 390.949C566.496 390.949 567.057 391.044 567.611 391.233C568.165 391.422 568.669 391.73 569.124 392.156C569.578 392.578 569.941 393.136 570.21 393.832C570.48 394.528 570.615 395.385 570.615 396.403V397.114H562.206V395.665H568.911C568.911 395.049 568.788 394.5 568.541 394.017C568.3 393.534 567.954 393.153 567.504 392.874C567.059 392.594 566.534 392.455 565.928 392.455C565.26 392.455 564.682 392.62 564.195 392.952C563.712 393.278 563.34 393.705 563.08 394.23C562.819 394.756 562.689 395.319 562.689 395.92V396.886C562.689 397.71 562.831 398.409 563.115 398.982C563.404 399.55 563.804 399.983 564.316 400.281C564.827 400.575 565.421 400.722 566.098 400.722C566.539 400.722 566.936 400.66 567.291 400.537C567.651 400.409 567.961 400.22 568.222 399.969C568.482 399.713 568.683 399.396 568.825 399.017L570.445 399.472C570.274 400.021 569.988 400.504 569.585 400.92C569.183 401.332 568.686 401.654 568.094 401.886C567.502 402.114 566.837 402.227 566.098 402.227ZM574.841 395.438V402H573.165V391.091H574.784V392.795H574.926C575.182 392.241 575.57 391.796 576.091 391.46C576.612 391.119 577.284 390.949 578.108 390.949C578.847 390.949 579.493 391.1 580.047 391.403C580.601 391.702 581.032 392.156 581.34 392.767C581.647 393.373 581.801 394.14 581.801 395.068V402H580.125V395.182C580.125 394.325 579.903 393.657 579.458 393.179C579.012 392.696 578.402 392.455 577.625 392.455C577.09 392.455 576.612 392.571 576.191 392.803C575.774 393.035 575.445 393.373 575.203 393.818C574.962 394.263 574.841 394.803 574.841 395.438ZM593.699 402.256C593.008 402.256 592.381 402.125 591.817 401.865C591.254 401.6 590.806 401.219 590.475 400.722C590.144 400.22 589.978 399.614 589.978 398.903C589.978 398.278 590.101 397.772 590.347 397.384C590.593 396.991 590.922 396.683 591.334 396.46C591.746 396.238 592.201 396.072 592.698 395.963C593.2 395.849 593.704 395.759 594.211 395.693C594.874 395.608 595.411 395.544 595.823 395.501C596.24 395.454 596.543 395.376 596.732 395.267C596.926 395.158 597.023 394.969 597.023 394.699V394.642C597.023 393.941 596.831 393.397 596.448 393.009C596.069 392.62 595.494 392.426 594.722 392.426C593.922 392.426 593.295 392.601 592.84 392.952C592.385 393.302 592.066 393.676 591.881 394.074L590.29 393.506C590.574 392.843 590.953 392.327 591.427 391.957C591.905 391.583 592.426 391.323 592.989 391.176C593.557 391.025 594.116 390.949 594.665 390.949C595.016 390.949 595.418 390.991 595.873 391.077C596.332 391.157 596.775 391.325 597.201 391.581C597.632 391.837 597.989 392.223 598.273 392.739C598.557 393.255 598.699 393.946 598.699 394.812V402H597.023V400.523H596.938C596.824 400.759 596.635 401.013 596.37 401.283C596.105 401.553 595.752 401.782 595.312 401.972C594.871 402.161 594.334 402.256 593.699 402.256ZM593.955 400.75C594.618 400.75 595.177 400.62 595.631 400.359C596.09 400.099 596.436 399.763 596.668 399.351C596.905 398.939 597.023 398.506 597.023 398.051V396.517C596.952 396.602 596.796 396.68 596.555 396.751C596.318 396.818 596.043 396.877 595.731 396.929C595.423 396.976 595.122 397.019 594.829 397.057C594.54 397.09 594.305 397.118 594.126 397.142C593.69 397.199 593.283 397.291 592.904 397.419C592.53 397.542 592.227 397.729 591.995 397.98C591.768 398.226 591.654 398.562 591.654 398.989C591.654 399.571 591.869 400.011 592.3 400.31C592.736 400.603 593.287 400.75 593.955 400.75ZM603.435 395.438V402H601.759V391.091H603.378V392.795H603.52C603.776 392.241 604.164 391.796 604.685 391.46C605.206 391.119 605.878 390.949 606.702 390.949C607.441 390.949 608.087 391.1 608.641 391.403C609.195 391.702 609.626 392.156 609.933 392.767C610.241 393.373 610.395 394.14 610.395 395.068V402H608.719V395.182C608.719 394.325 608.496 393.657 608.051 393.179C607.606 392.696 606.995 392.455 606.219 392.455C605.684 392.455 605.206 392.571 604.784 392.803C604.368 393.035 604.039 393.373 603.797 393.818C603.556 394.263 603.435 394.803 603.435 395.438ZM617.577 402.227C616.668 402.227 615.866 401.998 615.17 401.538C614.474 401.074 613.929 400.421 613.536 399.578C613.143 398.731 612.947 397.729 612.947 396.574C612.947 395.428 613.143 394.434 613.536 393.591C613.929 392.748 614.476 392.097 615.177 391.638C615.877 391.179 616.687 390.949 617.606 390.949C618.316 390.949 618.877 391.067 619.289 391.304C619.706 391.536 620.023 391.801 620.241 392.099C620.463 392.393 620.636 392.634 620.759 392.824H620.901V387.455H622.577V402H620.958V400.324H620.759C620.636 400.523 620.461 400.774 620.233 401.077C620.006 401.375 619.682 401.643 619.26 401.879C618.839 402.111 618.278 402.227 617.577 402.227ZM617.805 400.722C618.477 400.722 619.045 400.546 619.509 400.196C619.973 399.841 620.326 399.351 620.567 398.726C620.809 398.096 620.93 397.369 620.93 396.545C620.93 395.731 620.811 395.018 620.574 394.408C620.338 393.792 619.987 393.314 619.523 392.973C619.059 392.627 618.486 392.455 617.805 392.455C617.094 392.455 616.502 392.637 616.029 393.001C615.56 393.361 615.207 393.851 614.971 394.472C614.739 395.087 614.623 395.778 614.623 396.545C614.623 397.322 614.741 398.027 614.978 398.662C615.219 399.292 615.574 399.794 616.043 400.168C616.517 400.537 617.104 400.722 617.805 400.722ZM631.732 402V387.455H633.408V392.824H633.55C633.673 392.634 633.844 392.393 634.062 392.099C634.284 391.801 634.601 391.536 635.013 391.304C635.43 391.067 635.993 390.949 636.704 390.949C637.622 390.949 638.432 391.179 639.133 391.638C639.833 392.097 640.38 392.748 640.773 393.591C641.166 394.434 641.363 395.428 641.363 396.574C641.363 397.729 641.166 398.731 640.773 399.578C640.38 400.421 639.836 401.074 639.14 401.538C638.444 401.998 637.641 402.227 636.732 402.227C636.031 402.227 635.47 402.111 635.049 401.879C634.627 401.643 634.303 401.375 634.076 401.077C633.849 400.774 633.673 400.523 633.55 400.324H633.351V402H631.732ZM633.38 396.545C633.38 397.369 633.501 398.096 633.742 398.726C633.983 399.351 634.336 399.841 634.8 400.196C635.264 400.546 635.832 400.722 636.505 400.722C637.206 400.722 637.79 400.537 638.259 400.168C638.733 399.794 639.088 399.292 639.324 398.662C639.566 398.027 639.687 397.322 639.687 396.545C639.687 395.778 639.568 395.087 639.331 394.472C639.099 393.851 638.747 393.361 638.273 393.001C637.805 392.637 637.215 392.455 636.505 392.455C635.823 392.455 635.25 392.627 634.786 392.973C634.322 393.314 633.972 393.792 633.735 394.408C633.498 395.018 633.38 395.731 633.38 396.545ZM645.603 387.455V402H643.927V387.455H645.603ZM655.548 397.54V391.091H657.224V402H655.548V400.153H655.434C655.178 400.707 654.781 401.179 654.241 401.567C653.701 401.95 653.019 402.142 652.195 402.142C651.514 402.142 650.908 401.993 650.377 401.695C649.847 401.392 649.43 400.937 649.127 400.331C648.824 399.72 648.673 398.951 648.673 398.023V391.091H650.349V397.909C650.349 398.705 650.571 399.339 651.017 399.812C651.466 400.286 652.039 400.523 652.735 400.523C653.152 400.523 653.576 400.416 654.007 400.203C654.442 399.99 654.807 399.663 655.1 399.223C655.399 398.783 655.548 398.222 655.548 397.54ZM664.868 402.227C663.817 402.227 662.91 401.995 662.148 401.531C661.39 401.062 660.805 400.409 660.393 399.571C659.986 398.728 659.782 397.748 659.782 396.631C659.782 395.513 659.986 394.528 660.393 393.676C660.805 392.819 661.378 392.152 662.112 391.673C662.851 391.19 663.712 390.949 664.697 390.949C665.265 390.949 665.827 391.044 666.381 391.233C666.934 391.422 667.439 391.73 667.893 392.156C668.348 392.578 668.71 393.136 668.98 393.832C669.25 394.528 669.385 395.385 669.385 396.403V397.114H660.976V395.665H667.68C667.68 395.049 667.557 394.5 667.311 394.017C667.069 393.534 666.724 393.153 666.274 392.874C665.829 392.594 665.303 392.455 664.697 392.455C664.03 392.455 663.452 392.62 662.964 392.952C662.481 393.278 662.11 393.705 661.849 394.23C661.589 394.756 661.459 395.319 661.459 395.92V396.886C661.459 397.71 661.601 398.409 661.885 398.982C662.174 399.55 662.574 399.983 663.085 400.281C663.596 400.575 664.191 400.722 664.868 400.722C665.308 400.722 665.706 400.66 666.061 400.537C666.421 400.409 666.731 400.22 666.991 399.969C667.252 399.713 667.453 399.396 667.595 399.017L669.214 399.472C669.044 400.021 668.757 400.504 668.355 400.92C667.952 401.332 667.455 401.654 666.863 401.886C666.272 402.114 665.606 402.227 664.868 402.227ZM673.156 402.114C672.806 402.114 672.505 401.988 672.254 401.737C672.003 401.486 671.878 401.186 671.878 400.835C671.878 400.485 672.003 400.184 672.254 399.933C672.505 399.682 672.806 399.557 673.156 399.557C673.506 399.557 673.807 399.682 674.058 399.933C674.309 400.184 674.434 400.485 674.434 400.835C674.434 401.067 674.375 401.28 674.257 401.474C674.143 401.669 673.989 401.825 673.795 401.943C673.606 402.057 673.393 402.114 673.156 402.114Z" fill="black"/>
</g>
<rect x="4" width="1064" height="12" fill="#2B5975"/>
<defs>
<filter id="filter0_d_220_159" x="0" y="0" width="1072" height="517" filterUnits="userSpaceOnUse" color-interpolation-filters="sRGB">
<feFlood flood-opacity="0" result="BackgroundImageFix"/>
<feColorMatrix in="SourceAlpha" type="matrix" values="0 0 0 0 0 0 0 0 0 0 0 0 0 0 0 0 0 0 127 0" result="hardAlpha"/>
<feOffset dy="4"/>
<feGaussianBlur stdDeviation="2"/>
<feComposite in2="hardAlpha" operator="out"/>
<feColorMatrix type="matrix" values="0 0 0 0 0 0 0 0 0 0 0 0 0 0 0 0 0 0 0.25 0"/>
<feBlend mode="normal" in2="BackgroundImageFix" result="effect1_dropShadow_220_159"/>
<feBlend mode="normal" in="SourceGraphic" in2="effect1_dropShadow_220_159" result="shape"/>
</filter>
</defs>
</svg>
